<svg width="25" height="17" viewBox="0 0 25 17" fill="none" xmlns="http://www.w3.org/2000/svg">
<path d="M19.3657 4.11192C13.4785 4.11192 13.4708 10.284 13.4708 10.3157C13.4708 10.3157 13.0675 16.4955 19.3657 16.4955C19.3657 16.4955 24.6181 16.8098 24.6181 12.1947H21.9211C21.9211 12.1947 22.0104 13.9321 19.4554 13.9321C19.4554 13.9321 16.7583 14.121 16.7583 11.1252H24.7079C24.7079 11.1252 25.5821 4.11192 19.3657 4.11192ZM16.7282 8.96295C16.7282 8.96295 17.057 6.47836 19.4256 6.47836C21.8015 6.47836 21.7641 8.96295 21.7641 8.96295H16.7282ZM9.98968 7.375C9.98968 7.375 12.3281 7.19414 12.3281 4.30081C12.3281 1.4155 10.4155 0 7.98731 0H0V16.1571H7.98659C7.98659 16.1571 12.8655 16.3146 12.8655 11.3848C12.8659 11.3848 13.0752 7.375 9.98968 7.375ZM3.51932 2.86963H7.98695C7.98695 2.86963 9.07043 2.86963 9.07043 4.55202C9.07043 6.23441 8.43531 6.47836 7.71045 6.47836H3.51932V2.86963ZM7.76313 13.2875H3.51932V8.96295H7.98695C7.98695 8.96295 9.60854 8.94727 9.60091 11.1879C9.60091 13.0753 8.39825 13.2718 7.76313 13.2875ZM16.0633 0.951317V2.94075H22.3992V0.951317H16.0633Z" fill="#9F9CA9" fill-opacity="0.7"/>
</svg>
