<svg width="20" height="20" viewBox="0 0 20 20" fill="none" xmlns="http://www.w3.org/2000/svg">
<path d="M5.8 0H14.2C17.4 0 20 2.6 20 5.8V14.2C20 17.4033 17.4032 20 14.2 20H5.8C2.6 20 0 17.4 0 14.2V5.8C0 2.59675 2.59675 0 5.8 0ZM5.59999 2C3.61177 2 2 3.61177 2 5.6V14.4C2 16.39 3.60999 18 5.59999 18H14.4C16.3882 18 18 16.3882 18 14.4V5.6C18 3.61 16.39 2 14.4 2H5.59999ZM15.25 3.5C15.9404 3.5 16.5 4.05964 16.5 4.75C16.5 5.44036 15.9404 6 15.25 6C14.5597 6 14 5.44036 14 4.75C14 4.05964 14.5597 3.5 15.25 3.5ZM10 5C12.7614 5 15 7.23858 15 10C15 12.7614 12.7614 15 10 15C7.23858 15 5 12.7614 5 10C5 7.23858 7.23858 5 10 5ZM10 7C8.34315 7 7 8.34315 7 10C7 11.6569 8.34315 13 10 13C11.6569 13 13 11.6569 13 10C13 8.34315 11.6569 7 10 7Z" fill="#9F9CA9" fill-opacity="0.7"/>
</svg>
