<svg width="21" height="21" viewBox="0 0 21 21" fill="none" xmlns="http://www.w3.org/2000/svg">
<path d="M20.1667 20.1667H15.6852V12.6042C15.6852 11.4166 14.3519 10.4306 13.1644 10.4306C11.9768 10.4306 11.2037 11.4166 11.2037 12.6042V20.1667H6.72222V6.72222H11.2037V8.96296C11.9431 7.76417 13.8478 6.99111 15.125 6.99111C17.9259 6.99111 20.1667 9.27667 20.1667 12.044V20.1667ZM4.48148 20.1667H0V6.72222H4.48148V20.1667ZM2.24074 0C2.83502 0 3.40496 0.236077 3.82518 0.656298C4.2454 1.07652 4.48148 1.64646 4.48148 2.24074C4.48148 2.83502 4.2454 3.40496 3.82518 3.82518C3.40496 4.2454 2.83502 4.48148 2.24074 4.48148C1.64646 4.48148 1.07652 4.2454 0.656298 3.82518C0.236077 3.40496 0 2.83502 0 2.24074C0 1.64646 0.236077 1.07652 0.656298 0.656298C1.07652 0.236077 1.64646 0 2.24074 0V0Z" fill="#9F9CA9" fill-opacity="0.7"/>
</svg>
