<svg version="1.1" id="Слой_1" xmlns="http://www.w3.org/2000/svg" xmlns:xlink="http://www.w3.org/1999/xlink" x="0px" y="0px"
	 viewBox="0 0 216 216" style="enable-background:new 0 0 216 216;" xml:space="preserve">
  <path class="st0" d="M108,216c59.6,0,108-48.4,108-108C216,48.4,167.6,0,108,0C48.4,0,0,48.4,0,108C0,167.6,48.4,216,108,216z M84,80.5c0-4.1,3.4-7.5,7.5-7.5c4.1,0,7.5,3.4,7.5,7.5v57c0,4.1-3.4,7.5-7.5,7.5c-4.1,0-7.5-3.4-7.5-7.5V80.5z M118,80.5 c0-4.1,3.4-7.5,7.5-7.5s7.5,3.4,7.5,7.5v57c0,4.1-3.4,7.5-7.5,7.5s-7.5-3.4-7.5-7.5V80.5z"/>
</svg>
