<svg width="211" height="188" viewBox="0 0 211 188" fill="none" xmlns="http://www.w3.org/2000/svg">
<g style="mix-blend-mode:multiply" opacity="0.96">
<g style="mix-blend-mode:multiply" opacity="0.01">
<path d="M179.534 159.937C179.439 173.867 139.39 184.893 90.0757 184.564C40.761 184.234 0.852669 172.685 0.947434 158.755C1.0422 144.824 41.0906 133.803 90.4094 134.132C139.728 134.462 179.624 146.011 179.534 159.937Z" fill="#9895A2" fill-opacity="0.05"/>
</g>
<g style="mix-blend-mode:multiply" opacity="0.01">
<path d="M179.427 159.937C179.337 173.834 139.416 184.831 90.2619 184.505C41.1079 184.18 1.33139 172.656 1.42203 158.758C1.51267 144.861 41.4581 133.868 90.5956 134.194C139.733 134.519 179.522 146.043 179.427 159.937Z" fill="#9895A2" fill-opacity="0.05"/>
</g>
<g style="mix-blend-mode:multiply" opacity="0.01">
<path d="M179.324 159.936C179.233 173.801 139.44 184.769 90.4467 184.443C41.4533 184.118 1.80462 172.622 1.9035 158.758C2.00239 144.893 41.7912 133.93 90.7846 134.255C139.778 134.581 179.414 146.076 179.324 159.936Z" fill="#9895A2" fill-opacity="0.05"/>
</g>
<g style="mix-blend-mode:multiply" opacity="0.02">
<path d="M179.221 159.937C179.13 173.764 139.465 184.708 90.6365 184.386C41.8079 184.065 2.27865 172.594 2.3693 158.783C2.45994 144.972 42.1252 134.013 90.9537 134.338C139.782 134.664 179.312 146.11 179.221 159.937Z" fill="#9895A2" fill-opacity="0.05"/>
</g>
<g style="mix-blend-mode:multiply" opacity="0.02">
<path d="M179.118 159.936C179.023 173.731 139.494 184.658 90.8175 184.328C42.1414 183.998 2.75229 172.561 2.84293 158.783C2.93357 145.005 42.4711 134.061 91.1472 134.395C139.823 134.729 179.208 146.142 179.118 159.936Z" fill="#9895A2" fill-opacity="0.05"/>
</g>
<g style="mix-blend-mode:multiply" opacity="0.02">
<path d="M179.011 159.932C178.92 173.698 139.518 184.588 91.003 184.266C42.4876 183.945 3.24263 172.532 3.32092 158.77C3.3992 145.009 42.8131 134.119 91.3326 134.441C139.852 134.762 179.101 146.175 179.011 159.932Z" fill="#9895A2" fill-opacity="0.05"/>
</g>
<g style="mix-blend-mode:multiply" opacity="0.03">
<path d="M178.907 159.932C178.817 173.665 139.543 184.526 91.1883 184.209C42.8335 183.891 3.70395 172.503 3.79459 158.783C3.88524 145.062 43.159 134.193 91.5179 134.515C139.877 134.836 178.998 146.208 178.907 159.932Z" fill="#9895A2" fill-opacity="0.05"/>
</g>
<g style="mix-blend-mode:multiply" opacity="0.03">
<path d="M178.805 159.932C178.714 173.628 139.568 184.468 91.374 184.147C43.1799 183.825 4.17807 172.47 4.26871 158.783C4.35936 145.095 43.5054 134.251 91.6995 134.572C139.894 134.894 178.895 146.237 178.805 159.932Z" fill="#9895A2" fill-opacity="0.05"/>
</g>
<g style="mix-blend-mode:multiply" opacity="0.03">
<path d="M178.697 159.932C178.607 173.595 139.597 184.406 91.5592 184.089C43.5217 183.772 4.6517 172.441 4.74235 158.782C4.83299 145.124 43.8472 134.313 91.8847 134.63C139.922 134.947 178.788 146.269 178.697 159.932Z" fill="#9895A2" fill-opacity="0.05"/>
</g>
<g style="mix-blend-mode:multiply" opacity="0.04">
<path d="M178.595 159.933C178.504 173.563 139.621 184.345 91.7447 184.028C43.8679 183.711 5.12565 172.413 5.19981 158.783C5.27398 145.154 44.1769 134.371 92.0537 134.688C139.93 135.006 178.685 146.303 178.595 159.933Z" fill="#9895A2" fill-opacity="0.05"/>
</g>
<g style="mix-blend-mode:multiply" opacity="0.04">
<path d="M178.491 159.932C178.401 173.529 139.646 184.286 91.9301 183.969C44.214 183.652 5.61178 172.379 5.69006 158.782C5.76834 145.186 44.5354 134.428 92.2556 134.745C139.976 135.062 178.582 146.335 178.491 159.932Z" fill="#9895A2" fill-opacity="0.05"/>
</g>
<g style="mix-blend-mode:multiply" opacity="0.04">
<path d="M178.388 159.929C178.298 173.492 139.658 184.238 92.1153 183.912C44.5723 183.587 6.07309 172.351 6.16373 158.779C6.25438 145.207 44.8937 134.47 92.4408 134.803C139.988 135.137 178.475 146.369 178.388 159.929Z" fill="#9895A2" fill-opacity="0.05"/>
</g>
<g style="mix-blend-mode:multiply" opacity="0.05">
<path d="M178.281 159.929C178.195 173.459 139.7 184.164 92.301 183.851C44.9022 183.537 6.55132 172.314 6.63784 158.792C6.72437 145.269 45.2236 134.561 92.6265 134.894C140.029 135.228 178.372 146.423 178.281 159.929Z" fill="#9895A2" fill-opacity="0.05"/>
</g>
<g style="mix-blend-mode:multiply" opacity="0.05">
<path d="M178.179 159.928C178.088 173.422 139.725 184.106 92.4783 183.793C45.2319 183.479 7.02524 172.289 7.11588 158.783C7.20653 145.277 45.5698 134.61 92.8162 134.923C140.063 135.236 178.269 146.422 178.179 159.928Z" fill="#9895A2" fill-opacity="0.05"/>
</g>
<g style="mix-blend-mode:multiply" opacity="0.05">
<path d="M178.075 159.928C177.985 173.389 139.757 184.044 92.6717 183.731C45.586 183.417 7.49887 172.26 7.58952 158.783C7.68016 145.306 45.9074 134.667 92.9931 134.98C140.079 135.294 178.162 146.468 178.075 159.928Z" fill="#9895A2" fill-opacity="0.05"/>
</g>
<g style="mix-blend-mode:multiply" opacity="0.06">
<path d="M177.973 159.928C177.882 173.356 139.774 183.982 92.8574 183.673C45.9407 183.363 7.97298 172.227 8.08423 158.782C8.19547 145.338 46.2785 134.733 93.1994 135.042C140.12 135.351 178.059 146.5 177.973 159.928Z" fill="#9895A2" fill-opacity="0.05"/>
</g>
<g style="mix-blend-mode:multiply" opacity="0.06">
<path d="M177.865 159.924C177.779 173.319 139.803 183.921 93.0427 183.612C46.2825 183.303 8.44663 172.199 8.53727 158.804C8.62792 145.409 46.6038 134.812 93.3723 135.121C140.141 135.43 177.956 146.534 177.865 159.924Z" fill="#9895A2" fill-opacity="0.05"/>
</g>
<g style="mix-blend-mode:multiply" opacity="0.07">
<path d="M177.762 159.925C177.676 173.287 139.827 183.863 93.2279 183.554C46.6284 183.245 8.90795 172.166 9.01095 158.808C9.11396 145.45 46.9457 134.886 93.5493 135.183C140.153 135.48 177.836 146.567 177.762 159.925Z" fill="#9895A2" fill-opacity="0.05"/>
</g>
<g style="mix-blend-mode:multiply" opacity="0.07">
<path d="M177.659 159.924C177.569 173.253 139.852 183.821 93.4136 183.491C46.9748 183.162 9.39849 172.136 9.48501 158.811C9.57154 145.487 47.292 134.914 93.735 135.244C140.178 135.573 177.746 146.599 177.659 159.924Z" fill="#9895A2" fill-opacity="0.05"/>
</g>
<g style="mix-blend-mode:multiply" opacity="0.07">
<path d="M177.556 159.925C177.466 173.216 139.877 183.739 93.5988 183.434C47.3207 183.13 9.87212 172.108 9.95865 158.812C10.0452 145.516 47.6379 135.001 93.9161 135.298C140.194 135.595 177.643 146.633 177.556 159.925Z" fill="#9895A2" fill-opacity="0.05"/>
</g>
<g style="mix-blend-mode:multiply" opacity="0.08">
<path d="M177.449 159.924C177.363 173.204 139.906 183.681 93.7845 183.376C47.6629 183.072 10.3462 172.075 10.4328 158.816C10.5193 145.557 47.9802 135.063 94.1018 135.368C140.223 135.673 177.54 146.665 177.449 159.924Z" fill="#9895A2" fill-opacity="0.05"/>
</g>
<g style="mix-blend-mode:multiply" opacity="0.08">
<path d="M177.346 159.924C177.26 173.15 139.931 183.619 93.9697 183.314C48.0089 183.009 10.8199 172.046 10.9064 158.82C10.9929 145.594 48.3261 135.124 94.287 135.429C140.248 135.734 177.424 146.698 177.346 159.924Z" fill="#9895A2" fill-opacity="0.05"/>
</g>
<g style="mix-blend-mode:multiply" opacity="0.08">
<path d="M177.243 159.919C177.152 173.104 139.955 183.557 94.155 183.256C48.3548 182.955 11.2935 172.016 11.38 158.823C11.4666 145.631 48.6638 135.19 94.4681 135.491C140.272 135.791 177.33 146.731 177.243 159.919Z" fill="#9895A2" fill-opacity="0.05"/>
</g>
<g style="mix-blend-mode:multiply" opacity="0.09">
<path d="M177.136 159.92C177.05 173.08 139.98 183.5 94.341 183.195C48.7014 182.89 11.7679 171.968 11.8586 158.824C11.9492 145.681 49.0146 135.252 94.6747 135.553C140.335 135.854 177.227 146.764 177.136 159.92Z" fill="#9895A2" fill-opacity="0.05"/>
</g>
<g style="mix-blend-mode:multiply" opacity="0.09">
<path d="M177.033 159.92C176.947 173.047 140.009 183.438 94.5262 183.137C49.0432 182.836 12.2457 171.955 12.3322 158.828C12.4187 145.701 49.3605 135.297 94.8434 135.614C140.326 135.932 177.12 146.797 177.033 159.92Z" fill="#9895A2" fill-opacity="0.05"/>
</g>
<g style="mix-blend-mode:multiply" opacity="0.09">
<path d="M176.93 159.92C176.844 173.014 140.034 183.377 94.7114 183.076C49.3891 182.775 12.7193 171.923 12.8058 158.833C12.8923 145.743 49.6981 135.38 95.0204 135.677C140.343 135.974 177.012 146.835 176.93 159.92Z" fill="#9895A2" fill-opacity="0.05"/>
</g>
<g style="mix-blend-mode:multiply" opacity="0.1">
<path d="M176.827 159.92C176.74 172.977 140.058 183.319 94.8966 183.018C49.735 182.717 13.1929 171.893 13.2795 158.837C13.366 145.78 50.0482 135.442 95.2097 135.739C140.371 136.035 176.913 146.863 176.827 159.92Z" fill="#9895A2" fill-opacity="0.05"/>
</g>
<g style="mix-blend-mode:multiply" opacity="0.1">
<path d="M176.72 159.92C176.633 172.944 140.087 183.257 95.0818 182.96C50.0768 182.663 13.6666 171.864 13.7531 158.836C13.8396 145.808 50.3899 135.504 95.395 135.8C140.4 136.097 176.806 146.896 176.72 159.92Z" fill="#9895A2" fill-opacity="0.05"/>
</g>
<g style="mix-blend-mode:multiply" opacity="0.1">
<path d="M176.6 159.915C176.513 172.911 140.095 183.195 95.2504 182.898C50.4061 182.601 14.1236 171.831 14.2101 158.84C14.2966 145.849 50.7193 135.565 95.5636 135.862C140.408 136.158 176.703 146.929 176.6 159.915Z" fill="#9895A2" fill-opacity="0.05"/>
</g>
<g style="mix-blend-mode:multiply" opacity="0.11">
<path d="M176.514 159.916C176.427 172.874 140.137 183.133 95.4529 182.841C50.7693 182.548 14.6186 171.803 14.6969 158.845C14.7752 145.887 51.0783 135.631 95.7619 135.928C140.446 136.225 176.6 146.962 176.514 159.916Z" fill="#9895A2" fill-opacity="0.05"/>
</g>
<g style="mix-blend-mode:multiply" opacity="0.11">
<path d="M176.411 159.916C176.324 172.841 140.153 183.075 95.6547 182.779C51.1565 182.482 15.0882 171.774 15.1789 158.849C15.2695 145.923 51.4367 135.693 95.9349 135.99C140.433 136.286 176.493 146.995 176.411 159.916Z" fill="#9895A2" fill-opacity="0.05"/>
</g>
<g style="mix-blend-mode:multiply" opacity="0.11">
<path d="M176.304 159.916C176.217 172.791 140.19 183.013 95.8444 182.721C51.4987 182.428 15.587 171.741 15.6735 158.848C15.76 145.956 51.7912 135.775 96.1535 136.051C140.516 136.327 176.39 147.028 176.304 159.916Z" fill="#9895A2" fill-opacity="0.05"/>
</g>
<g style="mix-blend-mode:multiply" opacity="0.12">
<path d="M176.188 159.916C176.102 172.771 140.203 182.952 95.9969 182.66C51.7913 182.367 16.0279 171.712 16.1144 158.853C16.2009 145.994 52.1003 135.821 96.306 136.114C140.512 136.406 176.287 147.061 176.188 159.916Z" fill="#9895A2" fill-opacity="0.05"/>
</g>
<g style="mix-blend-mode:multiply" opacity="0.12">
<path d="M176.098 159.916C176.011 172.738 140.252 182.894 96.1944 182.601C52.137 182.309 16.5137 171.679 16.6003 158.857C16.6868 146.035 52.446 135.882 96.5034 136.196C140.561 136.509 176.188 147.093 176.098 159.916Z" fill="#9895A2" fill-opacity="0.05"/>
</g>
<g style="mix-blend-mode:multiply" opacity="0.12">
<path d="M175.991 159.912C175.908 172.685 140.264 182.833 96.3801 182.54C52.4958 182.248 16.9879 171.651 17.0744 158.862C17.1609 146.073 52.8048 135.945 96.6891 136.238C140.573 136.53 176.077 147.127 175.991 159.912Z" fill="#9895A2" fill-opacity="0.05"/>
</g>
<g style="mix-blend-mode:multiply" opacity="0.13">
<path d="M175.888 159.912C175.805 172.685 140.293 182.771 96.5657 182.483C52.8379 182.194 17.466 171.622 17.5607 158.866C17.6555 146.109 53.1593 136.007 96.887 136.299C140.615 136.592 175.974 147.16 175.888 159.912Z" fill="#9895A2" fill-opacity="0.05"/>
</g>
<g style="mix-blend-mode:multiply" opacity="0.13">
<path d="M175.776 159.912C175.689 172.635 140.309 182.713 96.7422 182.424C53.1752 182.136 17.9309 171.588 18.0133 158.865C18.0957 146.142 53.4924 136.072 97.0801 136.361C140.668 136.649 175.867 147.193 175.776 159.912Z" fill="#9895A2" fill-opacity="0.05"/>
</g>
<g style="mix-blend-mode:multiply" opacity="0.13">
<path d="M175.682 159.912C175.595 172.602 140.343 182.651 96.9362 182.363C53.5299 182.074 18.4133 171.56 18.4958 158.878C18.5782 146.196 53.8183 136.122 97.2411 136.423C140.664 136.723 175.776 147.246 175.682 159.912Z" fill="#9895A2" fill-opacity="0.05"/>
</g>
<g style="mix-blend-mode:multiply" opacity="0.14">
<path d="M175.575 159.911C175.492 172.569 140.367 182.573 97.1258 182.305C53.8843 182.037 18.8873 171.526 18.9738 158.873C19.0603 146.22 54.1809 136.212 97.4266 136.484C140.672 136.756 175.661 147.246 175.575 159.911Z" fill="#9895A2" fill-opacity="0.05"/>
</g>
<g style="mix-blend-mode:multiply" opacity="0.14">
<path d="M175.471 159.912C175.389 172.532 140.396 182.527 97.311 182.243C54.226 181.959 19.3608 171.498 19.4391 158.877C19.5174 146.257 54.5185 136.262 97.6035 136.546C140.688 136.83 175.554 147.291 175.471 159.912Z" fill="#9895A2" fill-opacity="0.05"/>
</g>
<g style="mix-blend-mode:multiply" opacity="0.14">
<path d="M175.364 159.907C175.282 172.499 140.417 182.47 97.4924 182.185C54.5681 181.901 19.8306 171.473 19.9172 158.877C20.0037 146.282 54.8647 136.323 97.789 136.608C140.713 136.892 175.451 147.324 175.364 159.907Z" fill="#9895A2" fill-opacity="0.05"/>
</g>
<g style="mix-blend-mode:multiply" opacity="0.15">
<path d="M175.265 159.908C175.179 172.466 140.446 182.408 97.682 182.124C54.9184 181.84 20.3128 171.436 20.3952 158.882C20.4776 146.328 55.215 136.386 97.9827 136.67C140.75 136.954 175.364 147.358 175.265 159.908Z" fill="#9895A2" fill-opacity="0.05"/>
</g>
<g style="mix-blend-mode:multiply" opacity="0.15">
<path d="M175.159 159.908C175.076 172.429 140.471 182.346 97.8678 182.066C55.2649 181.786 20.787 171.407 20.857 158.886C20.9271 146.365 55.5451 136.447 98.1521 136.732C140.759 137.016 175.241 147.391 175.159 159.908Z" fill="#9895A2" fill-opacity="0.05"/>
</g>
<g style="mix-blend-mode:multiply" opacity="0.15">
<path d="M175.055 159.907C174.973 172.396 140.499 182.288 98.0529 182.008C55.6065 181.728 21.2687 171.378 21.3429 158.89C21.4171 146.401 55.9032 136.513 98.3495 136.793C140.796 137.073 175.138 147.423 175.055 159.907Z" fill="#9895A2" fill-opacity="0.05"/>
</g>
<g style="mix-blend-mode:multiply" opacity="0.16">
<path d="M174.952 159.908C174.87 172.363 140.524 182.227 98.2381 181.947C55.9525 181.667 21.7342 171.346 21.8166 158.874C21.899 146.402 56.2491 136.559 98.5348 136.839C140.82 137.119 175.035 147.457 174.952 159.908Z" fill="#9895A2" fill-opacity="0.05"/>
</g>
<g style="mix-blend-mode:multiply" opacity="0.16">
<path d="M174.845 159.907C174.763 172.326 140.549 182.157 98.4239 181.889C56.2989 181.621 22.2001 171.316 22.2907 158.894C22.3814 146.471 56.5914 136.645 98.7205 136.917C140.85 137.189 174.928 147.489 174.845 159.907Z" fill="#9895A2" fill-opacity="0.05"/>
</g>
<g style="mix-blend-mode:multiply" opacity="0.16">
<path d="M174.743 159.903C174.66 172.293 140.574 182.107 98.6095 181.827C56.6452 181.547 22.6824 171.283 22.7648 158.898C22.8472 146.513 56.9378 136.702 98.9062 136.978C140.875 137.254 174.825 147.522 174.743 159.903Z" fill="#9895A2" fill-opacity="0.05"/>
</g>
<g style="mix-blend-mode:multiply" opacity="0.17">
<path d="M174.639 159.904C174.557 172.264 140.602 182.046 98.7946 181.77C56.9868 181.494 23.1599 171.255 23.2423 158.903C23.3247 146.55 57.2794 136.765 99.0912 137.041C140.903 137.317 174.722 147.556 174.639 159.904Z" fill="#9895A2" fill-opacity="0.05"/>
</g>
<g style="mix-blend-mode:multiply" opacity="0.17">
<path d="M174.54 159.904C174.458 172.223 140.631 181.984 98.9839 181.708C57.3368 181.432 23.6336 171.226 23.716 158.902C23.7984 146.579 57.6253 136.826 99.2723 137.102C140.919 137.378 174.614 147.588 174.54 159.904Z" fill="#9895A2" fill-opacity="0.05"/>
</g>
<g style="mix-blend-mode:multiply" opacity="0.17">
<path d="M174.429 159.903C174.351 172.19 140.644 181.926 99.1656 181.65C57.6875 181.374 24.1078 171.193 24.1778 158.906C24.2479 146.62 57.9635 136.888 99.4457 137.164C140.928 137.44 174.512 147.617 174.429 159.903Z" fill="#9895A2" fill-opacity="0.05"/>
</g>
<g style="mix-blend-mode:multiply" opacity="0.18">
<path d="M174.326 159.904C174.244 172.157 140.676 181.865 99.3385 181.589C58.0005 181.313 24.5691 171.165 24.6515 158.928C24.7339 146.69 58.3012 136.971 99.6392 137.243C140.977 137.515 174.409 147.659 174.326 159.904Z" fill="#9895A2" fill-opacity="0.05"/>
</g>
<g style="mix-blend-mode:multiply" opacity="0.18">
<path d="M174.222 159.904C174.14 172.124 140.704 181.803 99.5354 181.531C58.3663 181.259 25.0545 171.144 25.1369 158.915C25.2193 146.686 58.6589 137.016 99.8279 137.288C140.997 137.56 174.301 147.683 174.222 159.904Z" fill="#9895A2" fill-opacity="0.05"/>
</g>
<g style="mix-blend-mode:multiply" opacity="0.19">
<path d="M174.128 159.899C174.046 172.087 140.755 181.736 99.7298 181.473C58.705 181.209 25.5332 171.102 25.6115 158.915C25.6898 146.727 58.9851 137.077 100.014 137.349C141.043 137.621 174.198 147.716 174.128 159.899Z" fill="#9895A2" fill-opacity="0.05"/>
</g>
<g style="mix-blend-mode:multiply" opacity="0.19">
<path d="M174.013 159.9C173.935 172.054 140.755 181.683 99.9068 181.411C59.0591 181.139 26.0068 171.074 26.0851 158.919C26.1634 146.765 59.3475 137.144 100.199 137.412C141.051 137.68 174.095 147.749 174.013 159.9Z" fill="#9895A2" fill-opacity="0.05"/>
</g>
<g style="mix-blend-mode:multiply" opacity="0.19">
<path d="M173.91 159.9C173.831 172.021 140.779 181.621 100.092 181.353C59.405 181.086 26.4804 171.053 26.5587 158.923C26.637 146.793 59.6893 137.205 100.376 137.473C141.063 137.741 173.992 147.782 173.91 159.9Z" fill="#9895A2" fill-opacity="0.05"/>
</g>
<g style="mix-blend-mode:multiply" opacity="0.2">
<path d="M173.807 159.899C173.724 171.984 140.808 181.559 100.278 181.291C59.7472 181.024 26.938 170.991 27.0368 158.927C27.1357 146.863 60.0356 137.267 100.566 137.535C141.096 137.803 173.885 147.815 173.807 159.899Z" fill="#9895A2" fill-opacity="0.05"/>
</g>
<g style="mix-blend-mode:multiply" opacity="0.2">
<path d="M173.716 159.9C173.634 171.951 140.845 181.502 100.476 181.234C60.1058 180.966 27.449 170.983 27.5108 158.927C27.5726 146.872 60.3818 137.333 100.752 137.597C141.121 137.861 173.782 147.848 173.716 159.9Z" fill="#9895A2" fill-opacity="0.05"/>
</g>
<g style="mix-blend-mode:multiply" opacity="0.2">
<path d="M173.597 159.896C173.518 171.919 140.857 181.44 100.669 181.173C60.4805 180.905 27.9226 170.95 28.005 158.923C28.0874 146.897 60.7442 137.387 100.957 137.651C141.171 137.915 173.679 147.881 173.597 159.896Z" fill="#9895A2" fill-opacity="0.05"/>
</g>
<g style="mix-blend-mode:multiply" opacity="0.21">
<path d="M173.494 159.895C173.416 171.881 140.883 181.378 100.834 181.114C60.7858 180.85 28.3804 170.921 28.4586 158.935C28.5369 146.949 61.0701 137.456 101.123 137.724C141.175 137.992 173.572 147.914 173.494 159.895Z" fill="#9895A2" fill-opacity="0.05"/>
</g>
<g style="mix-blend-mode:multiply" opacity="0.21">
<path d="M173.391 159.895C173.308 171.844 140.911 181.32 101.019 181.056C61.1274 180.793 28.8538 170.888 28.9156 158.939C28.9774 146.991 61.3952 137.514 101.291 137.786C141.187 138.058 173.469 147.946 173.391 159.895Z" fill="#9895A2" fill-opacity="0.05"/>
</g>
<g style="mix-blend-mode:multiply" opacity="0.21">
<path d="M173.304 159.895C173.226 171.815 140.957 181.259 101.226 180.995C61.4945 180.731 29.3486 170.859 29.4269 158.94C29.5052 147.02 61.7787 137.584 101.53 137.848C141.282 138.112 173.366 147.98 173.304 159.895Z" fill="#9895A2" fill-opacity="0.05"/>
</g>
<g style="mix-blend-mode:multiply" opacity="0.22">
<path d="M173.181 159.895C173.102 171.778 140.961 181.197 101.39 180.937C61.8199 180.677 29.8017 170.83 29.88 158.943C29.9583 147.057 62.1042 137.646 101.675 137.91C141.245 138.173 173.259 148.012 173.181 159.895Z" fill="#9895A2" fill-opacity="0.05"/>
</g>
<g style="mix-blend-mode:multiply" opacity="0.22">
<path d="M173.078 159.896C172.999 171.746 140.985 181.14 101.575 180.876C62.1657 180.612 30.2959 170.798 30.3536 158.948C30.4113 147.098 62.4459 137.709 101.86 137.972C141.274 138.236 173.156 148.046 173.078 159.896Z" fill="#9895A2" fill-opacity="0.05"/>
</g>
<g style="mix-blend-mode:multiply" opacity="0.22">
<path d="M172.975 159.891C172.897 171.712 141.015 181.077 101.762 180.818C62.5083 180.558 30.7457 170.769 30.8322 158.952C30.9187 147.135 62.7926 137.774 102.046 138.034C141.299 138.293 173.053 148.07 172.975 159.891Z" fill="#9895A2" fill-opacity="0.05"/>
</g>
<g style="mix-blend-mode:multiply" opacity="0.23">
<path d="M172.868 159.891C172.79 171.675 141.039 181.015 101.947 180.756C62.8542 180.496 31.2275 170.731 31.3058 158.956C31.3841 147.18 63.1344 137.836 102.231 138.095C141.328 138.355 172.946 148.111 172.868 159.891Z" fill="#9895A2" fill-opacity="0.05"/>
</g>
<g style="mix-blend-mode:multiply" opacity="0.23">
<path d="M172.765 159.892C172.686 171.643 141.064 180.954 102.132 180.699C63.2001 180.443 31.7012 170.707 31.7794 158.956C31.8577 147.206 63.4803 137.898 102.437 138.158C141.393 138.417 172.843 148.145 172.765 159.892Z" fill="#9895A2" fill-opacity="0.05"/>
</g>
<g style="mix-blend-mode:multiply" opacity="0.23">
<path d="M172.661 159.891C172.583 171.609 141.088 180.904 102.317 180.636C63.546 180.368 32.1748 170.678 32.2737 158.96C32.3726 147.242 63.8468 137.947 102.618 138.219C141.389 138.491 172.74 148.177 172.661 159.891Z" fill="#9895A2" fill-opacity="0.05"/>
</g>
<g style="mix-blend-mode:multiply" opacity="0.24">
<path d="M172.559 159.891C172.48 171.576 141.117 180.834 102.515 180.579C63.9129 180.323 32.6611 170.645 32.7394 158.964C32.8177 147.283 64.1807 138.025 102.783 138.281C141.385 138.536 172.633 148.21 172.559 159.891Z" fill="#9895A2" fill-opacity="0.05"/>
</g>
<g style="mix-blend-mode:multiply" opacity="0.24">
<path d="M172.452 159.891C172.374 171.539 141.138 180.772 102.689 180.521C64.2388 180.269 33.123 170.632 33.2013 158.968C33.2796 147.304 64.5149 138.087 102.969 138.342C141.423 138.598 172.53 148.243 172.452 159.891Z" fill="#9895A2" fill-opacity="0.05"/>
</g>
<g style="mix-blend-mode:multiply" opacity="0.24">
<path d="M172.349 159.887C172.27 171.506 141.167 180.715 102.874 180.46C64.5806 180.204 33.5967 170.571 33.675 158.969C33.7532 147.366 64.8567 138.149 103.154 138.405C141.451 138.66 172.427 148.277 172.349 159.887Z" fill="#9895A2" fill-opacity="0.05"/>
</g>
<g style="mix-blend-mode:multiply" opacity="0.25">
<path d="M172.245 159.887C172.167 171.473 141.191 180.653 103.059 180.401C64.9265 180.15 34.0744 170.554 34.1486 158.976C34.2227 147.398 65.2026 138.219 103.339 138.47C141.476 138.721 172.32 148.309 172.245 159.887Z" fill="#9895A2" fill-opacity="0.05"/>
</g>
<g style="mix-blend-mode:multiply" opacity="0.25">
<path d="M172.138 159.888C172.064 171.424 141.237 180.592 103.244 180.34C65.2518 180.089 34.548 170.526 34.6222 158.977C34.6964 147.428 65.5485 138.277 103.52 138.528C141.492 138.78 172.216 148.343 172.138 159.888Z" fill="#9895A2" fill-opacity="0.05"/>
</g>
<g style="mix-blend-mode:multiply" opacity="0.25">
<path d="M172.035 159.887C171.961 171.424 141.244 180.534 103.429 180.282C65.614 180.031 35.0338 170.497 35.0997 158.981C35.1656 147.465 65.89 138.339 103.705 138.594C141.521 138.85 172.113 148.375 172.035 159.887Z" fill="#9895A2" fill-opacity="0.05"/>
</g>
<g style="mix-blend-mode:multiply" opacity="0.26">
<path d="M171.933 159.887C171.854 171.37 141.27 180.488 103.615 180.22C65.9609 179.952 35.4961 170.464 35.5744 158.981C35.6527 147.498 66.2369 138.38 103.891 138.651C141.546 138.923 172.007 148.408 171.933 159.887Z" fill="#9895A2" fill-opacity="0.05"/>
</g>
<g style="mix-blend-mode:multiply" opacity="0.26">
<path d="M171.829 159.888C171.751 171.334 141.295 180.41 103.801 180.163C66.3068 179.916 35.9697 170.435 36.048 158.985C36.1263 147.535 66.5911 138.467 104.085 138.714C141.579 138.961 171.904 148.442 171.829 159.888Z" fill="#9895A2" fill-opacity="0.05"/>
</g>
<g style="mix-blend-mode:multiply" opacity="0.26">
<path d="M171.722 159.883C171.648 171.3 141.323 180.352 103.986 180.105C66.6485 179.858 36.4474 170.402 36.5133 158.989C36.5792 147.576 66.9163 138.528 104.254 138.775C141.591 139.023 171.8 148.483 171.722 159.883Z" fill="#9895A2" fill-opacity="0.05"/>
</g>
<g style="mix-blend-mode:multiply" opacity="0.27">
<path d="M171.619 159.883C171.545 171.267 141.348 180.29 104.171 180.043C66.9947 179.796 36.9213 170.373 37.0119 158.993C37.1026 147.613 67.2707 138.594 104.447 138.837C141.624 139.08 171.693 148.507 171.619 159.883Z" fill="#9895A2" fill-opacity="0.05"/>
</g>
<g style="mix-blend-mode:multiply" opacity="0.27">
<path d="M171.516 159.883C171.441 171.23 141.372 180.228 104.356 179.985C67.3404 179.742 37.3947 170.344 37.4689 158.972C37.5431 147.6 67.6123 138.635 104.628 138.878C141.644 139.121 171.59 148.54 171.516 159.883Z" fill="#9895A2" fill-opacity="0.05"/>
</g>
<g style="mix-blend-mode:multiply" opacity="0.27">
<path d="M171.413 159.883C171.335 171.197 141.398 180.167 104.542 179.924C67.6873 179.681 37.8693 170.32 37.9435 158.997C38.0177 147.675 67.9592 138.718 104.814 138.961C141.67 139.204 171.488 148.573 171.413 159.883Z" fill="#9895A2" fill-opacity="0.05"/>
</g>
<g style="mix-blend-mode:multiply" opacity="0.28">
<path d="M171.306 159.883C171.232 171.164 141.426 180.109 104.728 179.866C68.029 179.623 38.343 170.282 38.4171 159.001C38.4913 147.72 68.301 138.779 105 139.022C141.698 139.266 171.38 148.606 171.306 159.883Z" fill="#9895A2" fill-opacity="0.05"/>
</g>
<g style="mix-blend-mode:multiply" opacity="0.28">
<path d="M171.203 159.884C171.129 171.144 141.451 180.048 104.909 179.797C68.3667 179.545 38.8125 170.242 38.8908 158.998C38.9691 147.754 68.651 138.842 105.185 139.085C141.719 139.328 171.277 148.64 171.203 159.884Z" fill="#9895A2" fill-opacity="0.05"/>
</g>
<g style="mix-blend-mode:multiply" opacity="0.28">
<path d="M171.1 159.878C171.026 171.093 141.476 179.985 105.098 179.746C68.7211 179.507 39.2946 170.22 39.3688 159.005C39.443 147.79 68.9931 138.906 105.37 139.145C141.748 139.384 171.174 148.671 171.1 159.878Z" fill="#9895A2" fill-opacity="0.05"/>
</g>
<g style="mix-blend-mode:multiply" opacity="0.29">
<path d="M170.997 159.879C170.918 171.061 141.504 179.928 105.288 179.685C69.0711 179.442 39.7765 170.208 39.8424 159.01C39.9083 147.811 69.3348 138.969 105.556 139.208C141.776 139.447 171.067 148.705 170.997 159.879Z" fill="#9895A2" fill-opacity="0.05"/>
</g>
<g style="mix-blend-mode:multiply" opacity="0.29">
<path d="M170.89 159.879C170.816 171.028 141.529 179.866 105.473 179.627C69.4175 179.388 40.2424 170.15 40.3165 159.026C40.3907 147.901 69.6812 139.03 105.733 139.269C141.785 139.508 170.964 148.738 170.89 159.879Z" fill="#9895A2" fill-opacity="0.05"/>
</g>
<g style="mix-blend-mode:multiply" opacity="0.29">
<path d="M170.787 159.878C170.713 171.003 141.554 179.804 105.659 179.569C69.764 179.334 40.7165 170.129 40.7907 159.017C40.8648 147.905 70.0235 139.096 105.923 139.331C141.822 139.566 170.861 148.77 170.787 159.878Z" fill="#9895A2" fill-opacity="0.05"/>
</g>
<g style="mix-blend-mode:multiply" opacity="0.3">
<path d="M170.684 159.879C170.61 170.958 141.579 179.747 105.844 179.508C70.1099 179.269 41.1901 170.101 41.2643 159.018C41.3385 147.934 70.3694 139.158 106.108 139.393C141.847 139.628 170.754 148.804 170.684 159.879Z" fill="#9895A2" fill-opacity="0.05"/>
</g>
<g style="mix-blend-mode:multiply" opacity="0.3">
<path d="M170.576 159.879C170.506 170.925 141.607 179.684 106.029 179.45C70.4514 179.215 41.6635 170.068 41.7541 159.022C41.8448 147.975 70.7109 139.22 106.293 139.455C141.875 139.69 170.651 148.837 170.576 159.879Z" fill="#9895A2" fill-opacity="0.05"/>
</g>
<g style="mix-blend-mode:multiply" opacity="0.31">
<path d="M170.474 159.875C170.4 170.888 141.632 179.623 106.199 179.388C70.7649 179.154 42.1254 170.04 42.1954 159.026C42.2655 148.013 71.0369 139.286 106.471 139.517C141.904 139.748 170.548 148.87 170.474 159.875Z" fill="#9895A2" fill-opacity="0.05"/>
</g>
<g style="mix-blend-mode:multiply" opacity="0.31">
<path d="M170.37 159.875C170.296 170.855 141.657 179.561 106.4 179.33C71.1435 179.1 42.6152 170.006 42.6935 159.03C42.7718 148.054 71.4072 139.348 106.668 139.583C141.929 139.818 170.445 148.894 170.37 159.875Z" fill="#9895A2" fill-opacity="0.05"/>
</g>
<g style="mix-blend-mode:multiply" opacity="0.31">
<path d="M170.267 159.875C170.193 170.823 141.681 179.504 106.586 179.269C71.4896 179.034 43.1055 169.978 43.1632 159.031C43.2209 148.083 71.745 139.418 106.845 139.645C141.945 139.872 170.337 148.936 170.267 159.875Z" fill="#9895A2" fill-opacity="0.05"/>
</g>
<g style="mix-blend-mode:multiply" opacity="0.32">
<path d="M170.16 159.875C170.09 170.785 141.71 179.442 106.771 179.211C71.8314 178.98 43.5627 169.949 43.6369 159.022C43.711 148.095 72.091 139.459 107.03 139.694C141.97 139.929 170.234 148.969 170.16 159.875Z" fill="#9895A2" fill-opacity="0.05"/>
</g>
<g style="mix-blend-mode:multiply" opacity="0.32">
<path d="M170.058 159.875C170.008 170.752 141.736 179.384 106.969 179.153C72.203 178.923 44.0373 169.907 44.1115 159.038C44.1856 148.169 72.4338 139.537 107.217 139.768C141.999 139.999 170.132 148.997 170.058 159.875Z" fill="#9895A2" fill-opacity="0.05"/>
</g>
<g style="mix-blend-mode:multiply" opacity="0.32">
<path d="M169.955 159.87C169.881 170.719 141.76 179.322 107.142 179.091C72.5242 178.86 44.515 169.887 44.5851 159.042C44.6551 148.198 72.7714 139.599 107.402 139.83C142.032 140.06 170.008 149.03 169.955 159.87Z" fill="#9895A2" fill-opacity="0.05"/>
</g>
<g style="mix-blend-mode:multiply" opacity="0.33">
<path d="M169.852 159.87C169.777 170.682 141.785 179.26 107.327 179.033C72.8701 178.807 44.9887 169.858 45.0587 159.046C45.1288 148.235 73.1256 139.661 107.587 139.891C142.048 140.122 169.922 149.063 169.852 159.87Z" fill="#9895A2" fill-opacity="0.05"/>
</g>
<g style="mix-blend-mode:multiply" opacity="0.33">
<path d="M169.744 159.871C169.674 170.649 141.813 179.199 107.529 178.972C73.245 178.745 45.4789 169.825 45.549 159.047C45.619 148.268 73.4675 139.727 107.793 139.954C142.118 140.18 169.818 149.096 169.744 159.871Z" fill="#9895A2" fill-opacity="0.05"/>
</g>
<g style="mix-blend-mode:multiply" opacity="0.33">
<path d="M169.642 159.87C169.572 170.616 141.839 179.141 107.699 178.914C73.5586 178.687 45.9367 169.796 45.9903 159.051C46.0439 148.305 73.7976 139.789 107.938 140.015C142.078 140.242 169.712 149.129 169.642 159.87Z" fill="#9895A2" fill-opacity="0.05"/>
</g>
<g style="mix-blend-mode:multiply" opacity="0.34">
<path d="M169.538 159.87C169.464 170.583 141.863 179.079 107.883 178.852C73.9041 178.625 46.41 169.763 46.4924 159.054C46.5748 148.346 74.1678 139.85 108.151 140.077C142.135 140.303 169.596 149.162 169.538 159.87Z" fill="#9895A2" fill-opacity="0.05"/>
</g>
<g style="mix-blend-mode:multiply" opacity="0.34">
<path d="M169.431 159.871C169.361 170.546 141.888 179.017 108.069 178.795C74.2504 178.572 46.884 169.731 46.9582 159.059C47.0323 148.388 74.5017 139.913 108.324 140.139C142.147 140.366 169.505 149.195 169.431 159.871Z" fill="#9895A2" fill-opacity="0.05"/>
</g>
<g style="mix-blend-mode:multiply" opacity="0.34">
<path d="M169.329 159.866C169.258 170.513 141.917 178.959 108.255 178.733C74.5927 178.506 47.3622 169.705 47.4323 159.059C47.5023 148.412 74.8316 139.978 108.51 140.201C142.189 140.423 169.399 149.228 169.329 159.866Z" fill="#9895A2" fill-opacity="0.05"/>
</g>
<g style="mix-blend-mode:multiply" opacity="0.35">
<path d="M169.225 159.866C169.155 170.48 141.941 178.897 108.44 178.675C74.9386 178.452 47.8359 169.672 47.9059 159.063C47.9759 148.453 75.1899 140.04 108.695 140.262C142.201 140.485 169.295 149.261 169.225 159.866Z" fill="#9895A2" fill-opacity="0.05"/>
</g>
<g style="mix-blend-mode:multiply" opacity="0.35">
<path d="M169.122 159.866C169.052 170.443 141.965 178.819 108.625 178.617C75.284 178.415 48.309 169.644 48.379 159.067C48.4491 148.49 75.5353 140.114 108.88 140.324C142.225 140.534 169.183 149.306 169.122 159.866Z" fill="#9895A2" fill-opacity="0.05"/>
</g>
<g style="mix-blend-mode:multiply" opacity="0.35">
<path d="M169.015 159.866C168.945 170.41 141.991 178.774 108.811 178.56C75.6309 178.345 48.7836 169.611 48.8743 159.071C48.9649 148.532 75.8987 140.168 109.083 140.386C142.267 140.604 169.085 149.327 169.015 159.866Z" fill="#9895A2" fill-opacity="0.05"/>
</g>
<g style="mix-blend-mode:multiply" opacity="0.36">
<path d="M168.912 159.867C168.842 170.377 142.02 178.717 108.996 178.498C75.9727 178.28 49.2531 169.582 49.3273 159.071C49.4015 148.561 76.224 140.242 109.247 140.448C142.271 140.654 168.982 149.36 168.912 159.867Z" fill="#9895A2" fill-opacity="0.05"/>
</g>
<g style="mix-blend-mode:multiply" opacity="0.36">
<path d="M168.809 159.867C168.739 170.341 142.028 178.655 109.181 178.437C76.335 178.218 49.7309 169.554 49.8009 159.072C49.871 148.59 76.5823 140.288 109.433 140.506C142.283 140.725 168.879 149.393 168.809 159.867Z" fill="#9895A2" fill-opacity="0.05"/>
</g>
<g style="mix-blend-mode:multiply" opacity="0.36">
<path d="M168.706 159.862C168.636 170.307 142.069 178.593 109.375 178.379C76.6815 178.164 50.2174 169.52 50.2833 159.08C50.3492 148.639 76.9205 140.353 109.614 140.572C142.308 140.79 168.772 149.426 168.706 159.862Z" fill="#9895A2" fill-opacity="0.05"/>
</g>
<g style="mix-blend-mode:multiply" opacity="0.37">
<path d="M168.599 159.862C168.529 170.274 142.094 178.535 109.553 178.316C77.0111 178.098 50.683 169.495 50.7531 159.083C50.8231 148.671 77.2584 140.419 109.804 140.633C142.349 140.847 168.669 149.458 168.599 159.862Z" fill="#9895A2" fill-opacity="0.05"/>
</g>
<g style="mix-blend-mode:multiply" opacity="0.37">
<path d="M168.496 159.863C168.426 170.237 142.126 178.474 109.738 178.259C77.3486 178.045 51.1565 169.463 51.2306 159.084C51.3048 148.705 77.5999 140.481 109.989 140.695C142.378 140.91 168.566 149.492 168.496 159.863Z" fill="#9895A2" fill-opacity="0.05"/>
</g>
<g style="mix-blend-mode:multiply" opacity="0.37">
<path d="M168.393 159.862C168.323 170.204 142.148 178.403 109.923 178.197C77.6993 177.991 51.6308 169.429 51.7008 159.088C51.7709 148.746 77.9465 140.547 110.171 140.757C142.395 140.967 168.459 149.525 168.393 159.862Z" fill="#9895A2" fill-opacity="0.05"/>
</g>
<g style="mix-blend-mode:multiply" opacity="0.38">
<path d="M168.286 159.862C168.22 170.163 142.172 178.353 110.108 178.139C78.0449 177.925 52.1041 169.4 52.17 159.092C52.236 148.783 78.288 140.608 110.351 140.818C142.415 141.029 168.36 149.557 168.286 159.862Z" fill="#9895A2" fill-opacity="0.05"/>
</g>
<g style="mix-blend-mode:multiply" opacity="0.38">
<path d="M168.183 159.862C168.117 170.134 142.197 178.292 110.294 178.082C78.3911 177.872 52.5822 169.368 52.6481 159.096C52.714 148.824 78.6342 140.654 110.541 140.881C142.448 141.107 168.253 149.591 168.183 159.862Z" fill="#9895A2" fill-opacity="0.05"/>
</g>
<g style="mix-blend-mode:multiply" opacity="0.38">
<path d="M168.08 159.858C168.01 170.101 142.226 178.23 110.48 178.02C78.7334 177.81 53.0563 169.339 53.1222 159.096C53.1881 148.853 78.9806 140.732 110.727 140.942C142.473 141.153 168.146 149.624 168.08 159.858Z" fill="#9895A2" fill-opacity="0.05"/>
</g>
<g style="mix-blend-mode:multiply" opacity="0.39">
<path d="M167.977 159.858C167.907 170.068 142.25 178.172 110.665 177.962C79.0793 177.752 53.5299 169.31 53.5958 159.1C53.6618 148.89 79.3224 140.794 110.912 141.004C142.502 141.214 168.043 149.656 167.977 159.858Z" fill="#9895A2" fill-opacity="0.05"/>
</g>
<g style="mix-blend-mode:multiply" opacity="0.39">
<path d="M167.87 159.859C167.804 170.031 142.275 178.111 110.85 177.901C79.4253 177.691 53.9912 169.277 54.0695 159.105C54.1478 148.932 79.6684 140.86 111.089 141.066C142.51 141.272 167.948 149.69 167.87 159.859Z" fill="#9895A2" fill-opacity="0.05"/>
</g>
<g style="mix-blend-mode:multiply" opacity="0.39">
<path d="M167.767 159.858C167.701 169.998 142.3 178.049 111.036 177.843C79.7719 177.637 54.478 169.248 54.548 159.108C54.618 148.969 80.015 140.922 111.279 141.128C142.543 141.334 167.833 149.719 167.767 159.858Z" fill="#9895A2" fill-opacity="0.05"/>
</g>
<g style="mix-blend-mode:multiply" opacity="0.4">
<path d="M167.664 159.858C167.598 169.965 142.328 177.987 111.217 177.781C80.1052 177.575 54.9472 169.219 55.0172 159.108C55.0873 148.997 80.3524 140.979 111.464 141.19C142.576 141.4 167.73 149.755 167.664 159.858Z" fill="#9895A2" fill-opacity="0.05"/>
</g>
<g style="mix-blend-mode:multiply" opacity="0.4">
<path d="M167.561 159.858C167.491 169.932 142.353 177.929 111.406 177.723C80.4596 177.517 55.4252 169.186 55.4953 159.112C55.5653 149.038 80.7027 141.066 111.65 141.251C142.596 141.437 167.627 149.788 167.561 159.858Z" fill="#9895A2" fill-opacity="0.05"/>
</g>
<g style="mix-blend-mode:multiply" opacity="0.4">
<path d="M167.453 159.854C167.387 169.895 142.378 177.867 111.592 177.665C80.8055 177.464 55.903 169.157 55.9689 159.125C56.0348 149.092 81.0444 141.119 111.835 141.321C142.625 141.523 167.536 149.821 167.453 159.854Z" fill="#9895A2" fill-opacity="0.05"/>
</g>
<g style="mix-blend-mode:multiply" opacity="0.41">
<path d="M167.351 159.854C167.285 169.862 142.403 177.806 111.778 177.604C81.1524 177.402 56.3776 169.124 56.4435 159.121C56.5094 149.117 81.3913 141.173 112.021 141.379C142.651 141.585 167.417 149.854 167.351 159.854Z" fill="#9895A2" fill-opacity="0.05"/>
</g>
<g style="mix-blend-mode:multiply" opacity="0.41">
<path d="M167.248 159.854C167.182 169.829 142.432 177.749 111.963 177.547C81.4941 177.345 56.8512 169.084 56.9171 159.125C56.983 149.167 81.7372 141.239 112.202 141.441C142.667 141.643 167.314 149.888 167.248 159.854Z" fill="#9895A2" fill-opacity="0.05"/>
</g>
<g style="mix-blend-mode:multiply" opacity="0.42">
<path d="M167.145 159.854C167.075 169.792 142.457 177.686 112.148 177.485C81.8401 177.283 57.3248 169.083 57.3908 159.125C57.4567 149.166 82.079 141.301 112.387 141.503C142.695 141.705 167.207 149.92 167.145 159.854Z" fill="#9895A2" fill-opacity="0.05"/>
</g>
<g style="mix-blend-mode:multiply" opacity="0.42">
<path d="M167.037 159.854C166.972 169.742 142.481 177.624 112.333 177.427C82.186 177.229 57.7985 169.034 57.8644 159.129C57.9303 149.224 82.4249 141.362 112.572 141.564C142.72 141.766 167.124 149.953 167.037 159.854Z" fill="#9895A2" fill-opacity="0.05"/>
</g>
<g style="mix-blend-mode:multiply" opacity="0.42">
<path d="M166.935 159.854C166.869 169.742 142.506 177.571 112.519 177.365C82.5323 177.159 58.2725 169.005 58.3508 159.133C58.4291 149.261 82.7795 141.416 112.77 141.626C142.761 141.836 167.001 149.986 166.935 159.854Z" fill="#9895A2" fill-opacity="0.05"/>
</g>
<g style="mix-blend-mode:multiply" opacity="0.43">
<path d="M166.831 159.85C166.766 169.689 142.522 177.505 112.704 177.307C82.8864 177.11 58.7296 168.972 58.8161 159.137C58.9027 149.302 83.1254 141.49 112.943 141.688C142.761 141.886 166.897 150.019 166.831 159.85Z" fill="#9895A2" fill-opacity="0.05"/>
</g>
<g style="mix-blend-mode:multiply" opacity="0.43">
<path d="M166.712 159.85C166.65 169.656 142.547 177.443 112.877 177.245C83.2076 177.048 59.2116 168.943 59.2775 159.137C59.3434 149.331 83.4425 141.552 113.116 141.75C142.79 141.948 166.79 150.052 166.712 159.85Z" fill="#9895A2" fill-opacity="0.05"/>
</g>
<g style="mix-blend-mode:multiply" opacity="0.43">
<path d="M166.622 159.851C166.556 169.624 142.584 177.386 113.059 177.188C83.5336 176.991 59.6818 168.915 59.7477 159.142C59.8136 149.369 83.785 141.615 113.31 141.812C142.836 142.01 166.688 150.086 166.622 159.851Z" fill="#9895A2" fill-opacity="0.05"/>
</g>
<g style="mix-blend-mode:multiply" opacity="0.44">
<path d="M166.518 159.85C166.452 169.586 142.621 177.324 113.264 177.13C83.908 176.937 60.1715 168.89 60.2374 159.146C60.3034 149.401 84.1346 141.68 113.495 141.874C142.856 142.067 166.584 150.131 166.518 159.85Z" fill="#9895A2" fill-opacity="0.05"/>
</g>
<g style="mix-blend-mode:multiply" opacity="0.44">
<path d="M166.415 159.85C166.349 169.553 142.637 177.262 113.45 177.068C84.2622 176.875 60.6452 168.853 60.7111 159.149C60.777 149.446 84.4888 141.742 113.68 141.935C142.872 142.129 166.477 150.151 166.415 159.85Z" fill="#9895A2" fill-opacity="0.05"/>
</g>
<g style="mix-blend-mode:multiply" opacity="0.44">
<path d="M166.3 159.845C166.238 169.52 142.654 177.2 113.627 177.01C84.6002 176.821 61.1151 168.823 61.1769 159.149C61.2387 149.475 84.8269 141.803 113.858 141.997C142.889 142.19 166.374 150.184 166.3 159.845Z" fill="#9895A2" fill-opacity="0.05"/>
</g>
<g style="mix-blend-mode:multiply" opacity="0.45">
<path d="M166.205 159.846C166.143 169.483 142.687 177.151 113.821 176.949C84.9546 176.747 61.5971 168.791 61.6466 159.154C61.696 149.516 85.1647 141.849 114.039 142.059C142.913 142.269 166.271 150.217 166.205 159.846Z" fill="#9895A2" fill-opacity="0.05"/>
</g>
<g style="mix-blend-mode:multiply" opacity="0.45">
<path d="M166.102 159.846C166.036 169.45 142.712 177.081 114.006 176.891C85.3008 176.702 62.0917 168.762 62.1329 159.174C62.1741 149.586 85.5439 141.931 114.237 142.121C142.93 142.31 166.164 150.25 166.102 159.846Z" fill="#9895A2" fill-opacity="0.05"/>
</g>
<g style="mix-blend-mode:multiply" opacity="0.45">
<path d="M166 159.846C165.934 169.417 142.741 177.019 114.192 176.829C85.6434 176.639 62.5455 168.729 62.6115 159.162C62.6774 149.594 85.87 141.993 114.419 142.182C142.968 142.372 166.062 150.283 166 159.846Z" fill="#9895A2" fill-opacity="0.05"/>
</g>
<g style="mix-blend-mode:multiply" opacity="0.46">
<path d="M165.888 159.846C165.826 169.384 142.761 176.962 114.385 176.772C86.0095 176.582 63.027 168.701 63.0929 159.162C63.1588 149.624 86.2196 142.055 114.595 142.245C142.971 142.434 165.958 150.316 165.888 159.846Z" fill="#9895A2" fill-opacity="0.05"/>
</g>
<g style="mix-blend-mode:multiply" opacity="0.46">
<path d="M165.788 159.846C165.727 169.347 142.789 176.899 114.562 176.714C86.3344 176.529 63.4713 168.671 63.5579 159.166C63.6444 149.661 86.5568 142.121 114.797 142.302C143.037 142.483 165.85 150.349 165.788 159.846Z" fill="#9895A2" fill-opacity="0.05"/>
</g>
<g style="mix-blend-mode:multiply" opacity="0.46">
<path d="M165.686 159.842C165.62 169.319 142.819 176.838 114.748 176.653C86.677 176.467 63.9705 168.639 64.0324 159.171C64.0942 149.703 86.8995 142.183 114.975 142.369C143.05 142.554 165.748 150.378 165.686 159.842Z" fill="#9895A2" fill-opacity="0.05"/>
</g>
<g style="mix-blend-mode:multiply" opacity="0.47">
<path d="M165.579 159.842C165.517 169.281 142.843 176.78 114.933 176.595C87.0229 176.409 64.4442 168.61 64.506 159.195C64.5678 149.78 87.2454 142.265 115.16 142.451C143.074 142.636 165.645 150.411 165.579 159.842Z" fill="#9895A2" fill-opacity="0.05"/>
</g>
<g style="mix-blend-mode:multiply" opacity="0.47">
<path d="M165.476 159.842C165.414 169.244 142.868 176.735 115.119 176.533C87.3693 176.331 64.9183 168.581 64.9801 159.195C65.0419 149.809 87.6042 142.302 115.341 142.492C143.079 142.681 165.538 150.444 165.476 159.842Z" fill="#9895A2" fill-opacity="0.05"/>
</g>
<g style="mix-blend-mode:multiply" opacity="0.47">
<path d="M165.373 159.842C165.311 169.211 142.893 176.656 115.304 176.475C87.7149 176.294 65.3916 168.548 65.4493 159.17C65.507 149.793 87.9292 142.364 115.522 142.545C143.115 142.727 165.434 150.477 165.373 159.842Z" fill="#9895A2" fill-opacity="0.05"/>
</g>
<g style="mix-blend-mode:multiply" opacity="0.48">
<path d="M165.27 159.841C165.208 169.178 142.922 176.598 115.489 176.413C88.057 176.228 65.8656 168.519 65.9274 159.195C65.9892 149.871 88.2795 142.446 115.712 142.627C143.144 142.809 165.331 150.509 165.27 159.841Z" fill="#9895A2" fill-opacity="0.05"/>
</g>
<g style="mix-blend-mode:multiply" opacity="0.48">
<path d="M165.163 159.841C165.101 169.141 142.946 176.537 115.675 176.355C88.4032 176.174 66.3395 168.486 66.4054 159.195C66.4713 149.904 88.6216 142.504 115.897 142.685C143.173 142.866 165.224 150.542 165.163 159.841Z" fill="#9895A2" fill-opacity="0.05"/>
</g>
<g style="mix-blend-mode:multiply" opacity="0.48">
<path d="M165.064 159.837C165.002 169.108 142.975 176.475 115.864 176.293C88.7534 176.112 66.8339 168.465 66.8834 159.186C66.9328 149.908 88.9718 142.561 116.087 142.738C143.202 142.916 165.121 150.575 165.064 159.837Z" fill="#9895A2" fill-opacity="0.05"/>
</g>
<g style="mix-blend-mode:multiply" opacity="0.49">
<path d="M164.956 159.838C164.894 169.075 142.996 176.413 116.045 176.236C89.095 176.059 67.2909 168.428 67.3527 159.195C67.4145 149.962 89.3134 142.628 116.268 142.805C143.222 142.982 165.018 150.609 164.956 159.838Z" fill="#9895A2" fill-opacity="0.05"/>
</g>
<g style="mix-blend-mode:multiply" opacity="0.49">
<path d="M164.854 159.838C164.792 169.038 143.017 176.356 116.236 176.179C89.4542 176.001 67.7655 168.395 67.8273 159.195C67.8891 149.995 89.6644 142.685 116.446 142.863C143.227 143.04 164.912 150.641 164.854 159.838Z" fill="#9895A2" fill-opacity="0.05"/>
</g>
<g style="mix-blend-mode:multiply" opacity="0.49">
<path d="M164.747 159.838C164.689 169.005 143.05 176.294 116.417 176.117C89.7837 175.939 68.2391 168.367 68.3009 159.195C68.3627 150.023 90.002 142.743 116.635 142.92C143.268 143.097 164.808 150.674 164.747 159.838Z" fill="#9895A2" fill-opacity="0.05"/>
</g>
<g style="mix-blend-mode:multiply" opacity="0.5">
<path d="M164.652 159.837C164.59 168.972 143.082 176.232 116.61 176.059C90.1378 175.886 68.7127 168.333 68.7745 159.195C68.8364 150.056 90.3438 142.809 116.82 142.982C143.297 143.155 164.705 150.707 164.652 159.837Z" fill="#9895A2" fill-opacity="0.05"/>
</g>
<g style="mix-blend-mode:multiply" opacity="0.5">
<path d="M164.54 159.837C164.478 168.935 143.115 176.174 116.787 175.997C90.459 175.82 69.1864 168.304 69.2482 159.194C69.31 150.085 90.6732 142.866 117.005 143.039C143.338 143.212 164.598 150.74 164.54 159.837Z" fill="#9895A2" fill-opacity="0.05"/>
</g>
<g style="mix-blend-mode:multiply" opacity="0.5">
<path d="M164.437 159.834C164.375 168.899 143.127 176.113 116.972 175.94C90.8172 175.767 69.6641 168.26 69.7218 159.196C69.7795 150.131 91.0356 142.937 117.191 143.127C143.346 143.316 164.495 150.774 164.437 159.834Z" fill="#9895A2" fill-opacity="0.05"/>
</g>
<g style="mix-blend-mode:multiply" opacity="0.51">
<path d="M164.331 159.834C164.273 168.869 143.153 176.051 117.159 175.878C91.1641 175.705 70.1387 168.26 70.1964 159.195C70.2541 150.131 91.3784 142.986 117.377 143.159C143.375 143.332 164.393 150.806 164.331 159.834Z" fill="#9895A2" fill-opacity="0.05"/>
</g>
<g style="mix-blend-mode:multiply" opacity="0.51">
<path d="M164.24 159.834C164.178 168.836 143.19 175.993 117.356 175.82C91.5225 175.647 70.6249 168.214 70.6867 159.216C70.7485 150.217 91.7244 143.064 117.558 143.237C143.392 143.41 164.285 150.839 164.24 159.834Z" fill="#9895A2" fill-opacity="0.05"/>
</g>
<g style="mix-blend-mode:multiply" opacity="0.51">
<path d="M164.125 159.834C164.063 168.799 143.202 175.931 117.529 175.762C91.8562 175.593 71.0863 168.185 71.1481 159.216C71.2099 150.246 92.0664 143.147 117.743 143.299C143.421 143.452 164.182 150.872 164.125 159.834Z" fill="#9895A2" fill-opacity="0.05"/>
</g>
<g style="mix-blend-mode:multiply" opacity="0.52">
<path d="M164.017 159.834C163.96 168.767 143.231 175.87 117.714 175.701C92.198 175.532 71.5681 168.153 71.6217 159.22C71.6752 150.287 92.4122 143.192 117.929 143.361C143.445 143.53 164.079 150.905 164.017 159.834Z" fill="#9895A2" fill-opacity="0.05"/>
</g>
<g style="mix-blend-mode:multiply" opacity="0.52">
<path d="M163.914 159.834C163.856 168.733 143.255 175.808 117.9 175.643C92.5439 175.478 72.0377 168.124 72.0953 159.224C72.153 150.324 92.7582 143.254 118.114 143.423C143.47 143.592 163.972 150.955 163.914 159.834Z" fill="#9895A2" fill-opacity="0.05"/>
</g>
<g style="mix-blend-mode:multiply" opacity="0.52">
<path d="M163.827 159.829C163.77 168.696 143.296 175.75 118.093 175.581C92.8899 175.412 72.5196 168.09 72.5773 159.228C72.635 150.365 93.1083 143.315 118.312 143.484C143.515 143.653 163.869 150.954 163.827 159.829Z" fill="#9895A2" fill-opacity="0.05"/>
</g>
<g style="mix-blend-mode:multiply" opacity="0.53">
<path d="M163.708 159.829C163.646 168.671 143.305 175.675 118.271 175.523C93.2362 175.371 72.9854 168.061 73.0431 159.228C73.1008 150.394 93.4463 143.377 118.505 143.538C143.565 143.699 163.766 151.004 163.708 159.829Z" fill="#9895A2" fill-opacity="0.05"/>
</g>
<g style="mix-blend-mode:multiply" opacity="0.53">
<path d="M163.601 159.83C163.543 168.63 143.334 175.626 118.456 175.462C93.578 175.297 73.459 168.045 73.5167 159.232C73.5744 150.419 93.7881 143.444 118.666 143.608C143.544 143.773 163.659 151.037 163.601 159.83Z" fill="#9895A2" fill-opacity="0.05"/>
</g>
<g style="mix-blend-mode:multiply" opacity="0.54">
<path d="M163.498 159.829C163.44 168.593 143.358 175.568 118.641 175.404C93.9241 175.239 73.9329 168 74.007 159.236C74.0812 150.472 94.1507 143.505 118.868 143.67C143.585 143.835 163.556 151.07 163.498 159.829Z" fill="#9895A2" fill-opacity="0.05"/>
</g>
<g style="mix-blend-mode:multiply" opacity="0.54">
<path d="M163.416 159.829C163.358 168.56 143.404 175.507 118.848 175.342C94.2911 175.177 74.4194 167.971 74.4688 159.24C74.5183 150.51 94.4807 143.584 119.037 143.732C143.594 143.88 163.453 151.103 163.416 159.829Z" fill="#9895A2" fill-opacity="0.05"/>
</g>
<g style="mix-blend-mode:multiply" opacity="0.54">
<path d="M163.292 159.83C163.23 168.527 143.408 175.445 119.012 175.284C94.6163 175.124 74.8846 167.942 74.9258 159.24C74.967 150.539 94.8058 143.633 119.206 143.794C143.606 143.954 163.345 151.136 163.292 159.83Z" fill="#9895A2" fill-opacity="0.05"/>
</g>
<g style="mix-blend-mode:multiply" opacity="0.55">
<path d="M163.185 159.825C163.127 168.478 143.437 175.387 119.197 175.227C94.9583 175.066 75.3585 167.909 75.4161 159.244C75.4738 150.579 95.1684 143.695 119.408 143.855C143.647 144.016 163.242 151.169 163.185 159.825Z" fill="#9895A2" fill-opacity="0.05"/>
</g>
<g style="mix-blend-mode:multiply" opacity="0.55">
<path d="M163.082 159.825C163.024 168.477 143.462 175.325 119.383 175.164C95.3047 175.004 75.8326 167.88 75.8903 159.248C75.9479 150.616 95.5107 143.756 119.593 143.917C143.676 144.078 163.14 151.201 163.082 159.825Z" fill="#9895A2" fill-opacity="0.05"/>
</g>
<g style="mix-blend-mode:multiply" opacity="0.55">
<path d="M162.979 159.826C162.921 168.425 143.486 175.264 119.568 175.107C95.6506 174.951 76.3062 167.848 76.3639 159.253C76.4216 150.658 95.8442 143.819 119.774 143.979C143.705 144.14 163.037 151.235 162.979 159.826Z" fill="#9895A2" fill-opacity="0.05"/>
</g>
<g style="mix-blend-mode:multiply" opacity="0.56">
<path d="M162.872 159.825C162.818 168.387 143.507 175.206 119.754 175.045C96.0006 174.885 76.7798 167.818 76.8375 159.253C76.8952 150.687 96.2025 143.884 119.96 144.041C143.717 144.197 162.929 151.268 162.872 159.825Z" fill="#9895A2" fill-opacity="0.05"/>
</g>
<g style="mix-blend-mode:multiply" opacity="0.56">
<path d="M162.769 159.825C162.711 168.354 143.54 175.144 119.939 174.987C96.3387 174.831 77.2539 167.789 77.3033 159.256C77.3528 150.723 96.5447 143.95 120.153 144.102C143.762 144.255 162.826 151.3 162.769 159.825Z" fill="#9895A2" fill-opacity="0.05"/>
</g>
<g style="mix-blend-mode:multiply" opacity="0.56">
<path d="M162.666 159.821C162.608 168.321 143.565 175.066 120.125 174.926C96.6851 174.785 77.7322 167.756 77.7858 159.269C77.8393 150.781 96.8911 144.024 120.331 144.172C143.771 144.321 162.724 151.333 162.666 159.821Z" fill="#9895A2" fill-opacity="0.05"/>
</g>
<g style="mix-blend-mode:multiply" opacity="0.57">
<path d="M162.563 159.821C162.505 168.288 143.589 175.021 120.31 174.868C97.0309 174.716 78.2056 167.728 78.2633 159.265C78.321 150.802 97.2163 144.074 120.516 144.226C143.816 144.379 162.616 151.366 162.563 159.821Z" fill="#9895A2" fill-opacity="0.05"/>
</g>
<g style="mix-blend-mode:multiply" opacity="0.57">
<path d="M162.456 159.821C162.402 168.251 143.614 174.963 120.496 174.81C97.3772 174.658 78.6798 167.695 78.7374 159.265C78.7951 150.835 97.5791 144.135 120.702 144.288C143.824 144.44 162.514 151.399 162.456 159.821Z" fill="#9895A2" fill-opacity="0.05"/>
</g>
<g style="mix-blend-mode:multiply" opacity="0.57">
<path d="M162.353 159.821C162.299 168.218 143.643 174.901 120.681 174.749C97.719 174.596 79.1534 167.666 79.2111 159.269C79.2688 150.872 97.9044 144.198 120.883 144.362C143.861 144.527 162.41 151.433 162.353 159.821Z" fill="#9895A2" fill-opacity="0.05"/>
</g>
<g style="mix-blend-mode:multiply" opacity="0.58">
<path d="M162.25 159.821C162.192 168.185 143.668 174.839 120.867 174.691C98.0654 174.543 79.6275 167.637 79.6646 159.273C79.7017 150.909 98.2467 144.259 121.048 144.412C143.849 144.564 162.304 151.466 162.25 159.821Z" fill="#9895A2" fill-opacity="0.05"/>
</g>
<g style="mix-blend-mode:multiply" opacity="0.58">
<path d="M162.146 159.821C162.089 168.148 143.692 174.781 121.051 174.629C98.4108 174.476 80.1007 167.604 80.1583 159.277C80.216 150.95 98.6127 144.325 121.253 144.473C143.894 144.621 162.2 151.498 162.146 159.821Z" fill="#9895A2" fill-opacity="0.05"/>
</g>
<g style="mix-blend-mode:multiply" opacity="0.58">
<path d="M162.04 159.817C161.986 168.116 143.717 174.72 121.249 174.572C98.782 174.424 80.5872 167.568 80.6407 159.278C80.6943 150.988 98.9633 144.387 121.431 144.536C143.898 144.684 162.097 151.532 162.04 159.817Z" fill="#9895A2" fill-opacity="0.05"/>
</g>
<g style="mix-blend-mode:multiply" opacity="0.59">
<path d="M161.937 159.817C161.883 168.082 143.746 174.65 121.427 174.51C99.1078 174.37 81.0489 167.547 81.1066 159.265C81.1643 150.983 99.3014 144.432 121.625 144.581C143.948 144.729 161.99 151.564 161.937 159.817Z" fill="#9895A2" fill-opacity="0.05"/>
</g>
<g style="mix-blend-mode:multiply" opacity="0.59">
<path d="M161.834 159.817C161.776 168.057 143.771 174.6 121.612 174.452C99.4536 174.303 81.5266 167.513 81.5802 159.285C81.6338 151.057 99.6432 144.514 121.806 144.659C143.968 144.803 161.887 151.597 161.834 159.817Z" fill="#9895A2" fill-opacity="0.05"/>
</g>
<g style="mix-blend-mode:multiply" opacity="0.59">
<path d="M161.727 159.818C161.673 168.013 143.795 174.539 121.798 174.391C99.7998 174.242 82.0006 167.485 82.0582 159.29C82.1159 151.095 99.9894 144.577 121.991 144.721C143.993 144.865 161.768 151.631 161.727 159.818Z" fill="#9895A2" fill-opacity="0.05"/>
</g>
<g style="mix-blend-mode:multiply" opacity="0.6">
<path d="M161.623 159.817C161.57 167.98 143.82 174.477 121.983 174.333C100.146 174.189 82.4742 167.452 82.5319 159.294C82.5896 151.136 100.335 144.639 122.176 144.775C144.018 144.911 161.677 151.664 161.623 159.817Z" fill="#9895A2" fill-opacity="0.05"/>
</g>
<g style="mix-blend-mode:multiply" opacity="0.6">
<path d="M161.52 159.817C161.467 167.942 143.849 174.419 122.168 174.275C100.488 174.131 82.9519 167.435 83.0055 159.294C83.0591 151.152 100.677 144.7 122.362 144.844C144.046 144.988 161.574 151.696 161.52 159.817Z" fill="#9895A2" fill-opacity="0.05"/>
</g>
<g style="mix-blend-mode:multiply" opacity="0.6">
<path d="M161.417 159.812C161.364 167.909 143.873 174.357 122.354 174.233C100.834 174.11 83.4259 167.394 83.4835 159.297C83.5412 151.201 101.027 144.765 122.551 144.906C144.075 145.046 161.471 151.729 161.417 159.812Z" fill="#9895A2" fill-opacity="0.05"/>
</g>
<g style="mix-blend-mode:multiply" opacity="0.61">
<path d="M161.311 159.813C161.257 167.876 143.899 174.296 122.539 174.155C101.18 174.015 83.9002 167.361 83.9537 159.323C84.0073 151.284 101.366 144.848 122.733 144.993C144.1 145.137 161.356 151.779 161.311 159.813Z" fill="#9895A2" fill-opacity="0.05"/>
</g>
<g style="mix-blend-mode:multiply" opacity="0.61">
<path d="M161.207 159.813C161.154 167.839 143.923 174.234 122.725 174.094C101.526 173.953 84.3738 167.332 84.4274 159.306C84.4809 151.28 101.712 144.885 122.914 145.034C144.117 145.182 161.261 151.779 161.207 159.813Z" fill="#9895A2" fill-opacity="0.05"/>
</g>
<g style="mix-blend-mode:multiply" opacity="0.61">
<path d="M161.104 159.813C161.051 167.807 143.952 174.176 122.91 174.036C101.868 173.896 84.8474 167.304 84.901 159.307C84.9546 151.309 102.058 144.956 123.099 145.096C144.141 145.236 161.158 151.824 161.104 159.813Z" fill="#9895A2" fill-opacity="0.05"/>
</g>
<g style="mix-blend-mode:multiply" opacity="0.62">
<path d="M161.002 159.813C160.948 167.773 143.977 174.114 123.096 173.974C102.214 173.834 85.3216 167.271 85.3751 159.31C85.4287 151.35 102.4 145.017 123.281 145.158C144.162 145.298 161.051 151.857 161.002 159.813Z" fill="#9895A2" fill-opacity="0.05"/>
</g>
<g style="mix-blend-mode:multiply" opacity="0.62">
<path d="M160.894 159.813C160.845 167.74 144.001 174.052 123.281 173.916C102.56 173.78 85.787 167.242 85.8488 159.314C85.9106 151.387 102.742 145.079 123.47 145.219C144.199 145.359 160.944 151.89 160.894 159.813Z" fill="#9895A2" fill-opacity="0.05"/>
</g>
<g style="mix-blend-mode:multiply" opacity="0.62">
<path d="M160.791 159.808C160.738 167.703 144.026 173.994 123.466 173.858C102.906 173.722 86.2732 167.208 86.3268 159.318C86.3804 151.428 103.088 145.145 123.656 145.28C144.224 145.416 160.845 151.922 160.791 159.808Z" fill="#9895A2" fill-opacity="0.05"/>
</g>
<g style="mix-blend-mode:multiply" opacity="0.63">
<path d="M160.689 159.809C160.635 167.67 144.055 173.933 123.652 173.818C103.249 173.702 86.7473 167.201 86.8009 159.339C86.8545 151.478 103.434 145.228 123.842 145.364C144.249 145.499 160.738 151.956 160.689 159.809Z" fill="#9895A2" fill-opacity="0.05"/>
</g>
<g style="mix-blend-mode:multiply" opacity="0.63">
<path d="M160.585 159.809C160.532 167.637 144.08 173.871 123.837 173.739C103.595 173.608 87.221 167.147 87.2745 159.319C87.3281 151.49 103.78 145.265 124.023 145.401C144.265 145.537 160.635 151.989 160.585 159.809Z" fill="#9895A2" fill-opacity="0.05"/>
</g>
<g style="mix-blend-mode:multiply" opacity="0.63">
<path d="M160.478 159.809C160.429 167.6 144.105 173.818 124.023 173.678C103.941 173.537 87.6948 167.118 87.7649 159.327C87.8349 151.536 104.139 145.318 124.225 145.466C144.311 145.615 160.532 152.022 160.478 159.809Z" fill="#9895A2" fill-opacity="0.05"/>
</g>
<g style="mix-blend-mode:multiply" opacity="0.64">
<path d="M160.375 159.809C160.321 167.567 144.129 173.752 124.208 173.62C104.286 173.488 88.1683 167.089 88.2218 159.331C88.2754 151.573 104.468 145.397 124.393 145.528C144.318 145.66 160.424 152.055 160.375 159.809Z" fill="#9895A2" fill-opacity="0.05"/>
</g>
<g style="mix-blend-mode:multiply" opacity="0.64">
<path d="M160.273 159.809C160.219 167.534 144.158 173.69 124.394 173.558C104.629 173.426 88.647 167.056 88.6964 159.331C88.7458 151.605 104.811 145.458 124.579 145.59C144.348 145.722 160.322 152.088 160.273 159.809Z" fill="#9895A2" fill-opacity="0.05"/>
</g>
<g style="mix-blend-mode:multiply" opacity="0.64">
<path d="M160.165 159.804C160.116 167.497 144.183 173.632 124.579 173.5C104.975 173.368 89.1206 167.023 89.17 159.335C89.2195 151.646 105.156 145.52 124.764 145.652C144.373 145.783 160.219 152.12 160.165 159.804Z" fill="#9895A2" fill-opacity="0.05"/>
</g>
<g style="mix-blend-mode:multiply" opacity="0.65">
<path d="M160.062 159.804C160.013 167.463 144.208 173.57 124.764 173.438C105.321 173.306 89.5943 166.998 89.6643 159.338C89.7343 151.679 105.523 145.585 124.97 145.713C144.418 145.841 160.12 152.153 160.062 159.804Z" fill="#9895A2" fill-opacity="0.05"/>
</g>
<g style="mix-blend-mode:multiply" opacity="0.65">
<path d="M159.959 159.805C159.909 167.431 144.236 173.509 124.937 173.381C105.638 173.253 90.0759 166.966 90.1212 159.343C90.1665 151.721 105.844 145.648 125.143 145.775C144.442 145.903 160.008 152.191 159.959 159.805Z" fill="#9895A2" fill-opacity="0.05"/>
</g>
<g style="mix-blend-mode:multiply" opacity="0.66">
<path d="M159.856 159.804C159.802 167.394 144.261 173.446 125.135 173.323C106.009 173.199 90.5249 166.937 90.595 159.343C90.665 151.749 106.19 145.709 125.316 145.837C144.442 145.965 159.905 152.219 159.856 159.804Z" fill="#9895A2" fill-opacity="0.05"/>
</g>
<g style="mix-blend-mode:multiply" opacity="0.66">
<path d="M159.748 159.805C159.699 167.361 144.285 173.402 125.32 173.261C106.354 173.121 91.0149 166.908 91.0685 159.348C91.1221 151.787 106.532 145.751 125.501 145.899C144.47 146.047 159.798 152.253 159.748 159.805Z" fill="#9895A2" fill-opacity="0.05"/>
</g>
<g style="mix-blend-mode:multiply" opacity="0.66">
<path d="M159.646 159.805C159.596 167.328 144.31 173.327 125.51 173.204C106.709 173.08 91.4976 166.875 91.547 159.352C91.5964 151.828 106.882 145.837 125.691 145.961C144.5 146.084 159.708 152.285 159.646 159.805Z" fill="#9895A2" fill-opacity="0.05"/>
</g>
<g style="mix-blend-mode:multiply" opacity="0.67">
<path d="M159.543 159.8C159.493 167.291 144.339 173.265 125.691 173.142C107.043 173.018 91.9673 166.846 92.0167 159.355C92.0662 151.865 107.224 145.899 125.872 146.022C144.521 146.146 159.592 152.318 159.543 159.8Z" fill="#9895A2" fill-opacity="0.05"/>
</g>
<g style="mix-blend-mode:multiply" opacity="0.67">
<path d="M159.44 159.8C159.386 167.258 144.364 173.207 125.877 173.084C107.389 172.96 92.4413 166.813 92.5031 159.355C92.5649 151.898 107.579 145.96 126.07 146.084C144.562 146.208 159.489 152.351 159.44 159.8Z" fill="#9895A2" fill-opacity="0.05"/>
</g>
<g style="mix-blend-mode:multiply" opacity="0.67">
<path d="M159.332 159.801C159.283 167.217 144.388 173.146 126.062 173.022C107.735 172.899 92.9147 166.784 92.9601 159.36C93.0054 151.935 107.908 146.027 126.235 146.146C144.562 146.266 159.382 152.384 159.332 159.801Z" fill="#9895A2" fill-opacity="0.05"/>
</g>
<g style="mix-blend-mode:multiply" opacity="0.68">
<path d="M159.229 159.801C159.18 167.193 144.397 173.085 126.268 172.965C108.139 172.846 93.4092 166.756 93.4586 159.369C93.5081 151.981 108.291 146.093 126.445 146.213C144.599 146.332 159.295 152.418 159.229 159.801Z" fill="#9895A2" fill-opacity="0.05"/>
</g>
<g style="mix-blend-mode:multiply" opacity="0.68">
<path d="M159.127 159.8C159.077 167.155 144.442 173.026 126.433 172.907C108.423 172.787 93.8831 166.726 93.9161 159.367C93.949 152.009 108.6 146.15 126.61 146.269C144.619 146.389 159.176 152.45 159.127 159.8Z" fill="#9895A2" fill-opacity="0.05"/>
</g>
<g style="mix-blend-mode:multiply" opacity="0.68">
<path d="M159.019 159.801C158.974 167.122 144.467 172.965 126.618 172.845C108.769 172.726 94.3403 166.694 94.3898 159.368C94.4392 152.042 108.942 146.212 126.795 146.332C144.648 146.451 159.069 152.483 159.019 159.801Z" fill="#9895A2" fill-opacity="0.05"/>
</g>
<g style="mix-blend-mode:multiply" opacity="0.69">
<path d="M158.917 159.796C158.867 167.089 144.496 172.903 126.804 172.787C109.112 172.672 94.8145 166.665 94.8639 159.372C94.9133 152.079 109.285 146.278 126.981 146.393C144.677 146.509 158.966 152.516 158.917 159.796Z" fill="#9895A2" fill-opacity="0.05"/>
</g>
<g style="mix-blend-mode:multiply" opacity="0.69">
<path d="M158.813 159.796C158.764 167.052 144.516 172.841 126.989 172.725C109.462 172.61 95.2881 166.631 95.3375 159.376C95.387 152.12 109.635 146.339 127.166 146.455C144.698 146.57 158.883 152.549 158.813 159.796Z" fill="#9895A2" fill-opacity="0.05"/>
</g>
<g style="mix-blend-mode:multiply" opacity="0.69">
<path d="M158.71 159.797C158.661 167.024 144.545 172.792 127.158 172.668C109.77 172.545 95.7617 166.612 95.8112 159.381C95.8606 152.15 109.976 146.402 127.347 146.517C144.718 146.633 158.756 152.603 158.71 159.797Z" fill="#9895A2" fill-opacity="0.05"/>
</g>
<g style="mix-blend-mode:multiply" opacity="0.7">
<path d="M158.603 159.796C158.558 166.986 144.57 172.721 127.36 172.606C110.15 172.491 96.2564 166.57 96.2852 159.384C96.314 152.199 110.323 146.467 127.533 146.579C144.743 146.69 158.653 152.602 158.603 159.796Z" fill="#9895A2" fill-opacity="0.05"/>
</g>
<g style="mix-blend-mode:multiply" opacity="0.7">
<path d="M158.5 159.796C158.455 166.949 144.594 172.659 127.545 172.548C110.496 172.437 96.7136 166.541 96.7589 159.384C96.8042 152.227 110.665 146.529 127.718 146.64C144.772 146.752 158.55 152.648 158.5 159.796Z" fill="#9895A2" fill-opacity="0.05"/>
</g>
<g style="mix-blend-mode:multiply" opacity="0.7">
<path d="M158.397 159.793C158.348 166.917 144.619 172.602 127.73 172.487C110.842 172.372 97.1873 166.513 97.2409 159.389C97.2944 152.265 111.019 146.592 127.912 146.703C144.805 146.814 158.442 152.681 158.397 159.793Z" fill="#9895A2" fill-opacity="0.05"/>
</g>
<g style="mix-blend-mode:multiply" opacity="0.71">
<path d="M158.294 159.792C158.245 166.883 144.648 172.54 127.916 172.429C111.184 172.318 97.6613 166.479 97.7067 159.393C97.752 152.306 111.357 146.657 128.089 146.768C144.821 146.879 158.34 152.714 158.294 159.792Z" fill="#9895A2" fill-opacity="0.05"/>
</g>
<g style="mix-blend-mode:multiply" opacity="0.71">
<path d="M158.188 159.792C158.142 166.846 144.674 172.478 128.11 172.371C111.547 172.264 98.1441 166.45 98.1935 159.396C98.2429 152.343 111.708 146.719 128.271 146.83C144.834 146.941 158.237 152.746 158.188 159.792Z" fill="#9895A2" fill-opacity="0.05"/>
</g>
</g>
<path d="M211 86.2311C211 131.886 173.991 168.891 128.34 168.891C82.6895 168.891 45.6807 131.886 45.6807 86.2311C45.6807 40.576 82.6895 3.57129 128.357 3.57129C174.024 3.57129 211 40.5801 211 86.2311Z" fill="url(#paint0_linear)"/>
<path d="M210.998 85.9389C211.076 96.8045 208.995 107.578 204.875 117.639C200.756 127.699 194.68 136.848 186.997 144.559C179.314 152.27 170.175 158.389 160.108 162.565C150.041 166.741 139.245 168.891 128.34 168.891C117.436 168.891 106.639 166.741 96.5725 162.565C86.5056 158.389 77.3674 152.27 69.6842 144.559C62.001 136.848 55.9248 127.699 51.8056 117.639C47.6863 107.578 45.6054 96.8045 45.6827 85.9389C45.6827 40.4463 82.7052 3.57129 128.338 3.57129C173.972 3.57129 210.998 40.4463 210.998 85.9389Z" fill="url(#paint1_radial)"/>
<path style="mix-blend-mode:multiply" d="M118.328 175.209C163.209 168.205 193.914 126.145 186.91 81.2639C179.906 36.3833 137.845 5.67827 92.9642 12.6823C48.0836 19.6864 17.3786 61.7472 24.3826 106.628C31.3867 151.508 73.4475 182.213 118.328 175.209Z" fill="url(#paint2_radial)" fill-opacity="0.7"/>
<path style="mix-blend-mode:screen" d="M89.7836 20.1715C95.9639 4.98035 122.032 1.2186 148.002 11.7952C173.972 22.3717 190.028 43.2406 183.848 58.4359C177.668 73.6312 151.603 77.3888 125.629 66.8123C99.6556 56.2357 83.6033 35.3627 89.7836 20.1715Z" fill="url(#paint3_radial)"/>
<path style="mix-blend-mode:screen" d="M132.353 19.4418C134.648 12.4003 144.759 9.38433 154.936 12.7011C165.113 16.0179 171.503 24.4107 169.208 31.4522C166.914 38.4936 156.823 41.5096 146.626 38.1928C136.428 34.876 130.042 26.4791 132.353 19.4418Z" fill="url(#paint4_radial)"/>
<path style="mix-blend-mode:screen" d="M141.579 35.7915C145.077 25.0584 160.495 20.4602 176.011 25.5157C191.528 30.5712 201.272 43.3727 197.774 54.1058C194.276 64.839 178.858 69.4412 163.342 64.3816C147.825 59.322 138.085 46.5246 141.579 35.7915Z" fill="url(#paint5_radial)"/>
<path style="mix-blend-mode:screen" d="M141.579 35.7915C145.077 25.0584 160.495 20.4602 176.011 25.5157C191.528 30.5712 201.272 43.3727 197.774 54.1058C194.276 64.839 178.858 69.4412 163.342 64.3816C147.825 59.322 138.085 46.5246 141.579 35.7915Z" fill="url(#paint6_radial)"/>
<path style="mix-blend-mode:screen" d="M163.028 42.1277C164.264 38.3206 169.732 36.6931 175.228 38.4854C180.724 40.2777 184.181 44.8099 182.941 48.617C181.701 52.4241 176.238 54.0474 170.741 52.2551C165.245 50.4629 161.792 45.9265 163.028 42.1277Z" fill="url(#paint7_radial)"/>
<defs>
<linearGradient id="paint0_linear" x1="128.34" y1="162.755" x2="128.34" y2="-2.56883" gradientUnits="userSpaceOnUse">
<stop stop-color="#8F8E92"/>
<stop offset="0.16" stop-color="#A9A7AD"/>
<stop offset="0.53" stop-color="#C9C8CD"/>
<stop offset="0.83" stop-color="#E1E0E3"/>
<stop offset="1" stop-color="#E4E3E7"/>
</linearGradient>
<radialGradient id="paint1_radial" cx="0" cy="0" r="1" gradientUnits="userSpaceOnUse" gradientTransform="translate(132.348 2.43386) scale(176.708 176.083)">
<stop offset="0.01" stop-color="#E2E1E4"/>
<stop offset="1" stop-color="#9895A2"/>
</radialGradient>
<radialGradient id="paint2_radial" cx="0" cy="0" r="1" gradientUnits="userSpaceOnUse" gradientTransform="translate(104.769 93.5978) scale(90.6279)">
<stop offset="0.04" stop-color="#303030"/>
<stop offset="0.33" stop-color="#7C7C7C"/>
<stop offset="0.73" stop-color="#EDEDED"/>
<stop offset="0.81" stop-color="#F4F4F4"/>
<stop offset="0.97" stop-color="white"/>
</radialGradient>
<radialGradient id="paint3_radial" cx="0" cy="0" r="1" gradientUnits="userSpaceOnUse" gradientTransform="translate(140.714 40.9979) rotate(-157.751) scale(40.2714 23.557)">
<stop offset="0.23" stop-color="#E6E6E6"/>
<stop offset="0.33" stop-color="#BDBDBD"/>
<stop offset="0.51" stop-color="#7A7A7A"/>
<stop offset="0.68" stop-color="#464646"/>
<stop offset="0.82" stop-color="#202020"/>
<stop offset="0.93" stop-color="#090909"/>
<stop offset="1"/>
</radialGradient>
<radialGradient id="paint4_radial" cx="0" cy="0" r="1" gradientUnits="userSpaceOnUse" gradientTransform="translate(151.597 25.2227) rotate(-161.946) scale(15.3895 10.6345)">
<stop offset="0.13" stop-color="#E6E6E6"/>
<stop offset="0.22" stop-color="#D7D7D7"/>
<stop offset="0.39" stop-color="#B1B1B1"/>
<stop offset="0.62" stop-color="#727272"/>
<stop offset="0.91" stop-color="#1D1D1D"/>
<stop offset="1"/>
</radialGradient>
<radialGradient id="paint5_radial" cx="0" cy="0" r="1" gradientUnits="userSpaceOnUse" gradientTransform="translate(15771.1 8159.54) scale(1723.32 1285.39)">
<stop offset="0.13" stop-color="#E6E6E6"/>
<stop offset="0.22" stop-color="#D7D7D7"/>
<stop offset="0.39" stop-color="#B1B1B1"/>
<stop offset="0.62" stop-color="#727272"/>
<stop offset="0.91" stop-color="#1D1D1D"/>
<stop offset="1"/>
</radialGradient>
<radialGradient id="paint6_radial" cx="0" cy="0" r="1" gradientUnits="userSpaceOnUse" gradientTransform="translate(15771.1 8159.54) scale(1723.32 1285.39)">
<stop offset="0.13" stop-color="#E6E6E6"/>
<stop offset="0.22" stop-color="#D7D7D7"/>
<stop offset="0.39" stop-color="#B1B1B1"/>
<stop offset="0.62" stop-color="#727272"/>
<stop offset="0.91" stop-color="#1D1D1D"/>
<stop offset="1"/>
</radialGradient>
<radialGradient id="paint7_radial" cx="0" cy="0" r="1" gradientUnits="userSpaceOnUse" gradientTransform="translate(5641.57 2928.88) scale(216.408 161.413)">
<stop offset="0.13" stop-color="#E6E6E6"/>
<stop offset="0.22" stop-color="#D7D7D7"/>
<stop offset="0.39" stop-color="#B1B1B1"/>
<stop offset="0.62" stop-color="#727272"/>
<stop offset="0.91" stop-color="#1D1D1D"/>
<stop offset="1"/>
</radialGradient>
</defs>
</svg>
