<svg width="120" height="107" viewBox="0 0 120 107" fill="none" xmlns="http://www.w3.org/2000/svg">
<g style="mix-blend-mode:multiply" opacity="0.96">
<g style="mix-blend-mode:multiply" opacity="0.01">
<path d="M102.105 90.9591C102.051 98.8816 79.2745 105.152 51.2282 104.965C23.1819 104.777 0.485264 98.2091 0.539158 90.2866C0.593053 82.3641 23.3694 76.0959 51.418 76.2834C79.4667 76.4709 102.156 83.039 102.105 90.9591Z" fill="#9895A2" fill-opacity="0.05"/>
</g>
<g style="mix-blend-mode:multiply" opacity="0.01">
<path d="M102.044 90.959C101.992 98.8628 79.2887 105.117 51.3337 104.932C23.3788 104.747 0.75713 98.1926 0.808682 90.2889C0.860233 82.3851 23.578 76.1333 51.5235 76.3185C79.4691 76.5036 102.098 83.0576 102.044 90.959Z" fill="#9895A2" fill-opacity="0.05"/>
</g>
<g style="mix-blend-mode:multiply" opacity="0.01">
<path d="M101.985 90.9591C101.934 98.8441 79.3025 105.082 51.4389 104.897C23.5754 104.712 1.02639 98.1739 1.08262 90.2889C1.13886 82.4039 23.7676 76.1685 51.6311 76.3536C79.4946 76.5387 102.037 83.0764 101.985 90.9591Z" fill="#9895A2" fill-opacity="0.05"/>
</g>
<g style="mix-blend-mode:multiply" opacity="0.02">
<path d="M101.926 90.9591C101.875 98.823 79.3164 105.047 51.5466 104.864C23.7768 104.681 1.29571 98.1575 1.34726 90.303C1.39881 82.4484 23.9572 76.2154 51.727 76.4005C79.4968 76.5856 101.978 83.0951 101.926 90.9591Z" fill="#9895A2" fill-opacity="0.05"/>
</g>
<g style="mix-blend-mode:multiply" opacity="0.02">
<path d="M101.868 90.9587C101.814 98.8039 79.3328 105.018 51.6497 104.831C23.9667 104.643 1.56524 98.1384 1.61679 90.3026C1.66834 82.4668 24.1541 76.2431 51.8372 76.4329C79.5203 76.6227 101.919 83.1135 101.868 90.9587Z" fill="#9895A2" fill-opacity="0.05"/>
</g>
<g style="mix-blend-mode:multiply" opacity="0.02">
<path d="M101.807 90.9567C101.755 98.7854 79.347 104.979 51.7553 104.796C24.1636 104.613 1.84422 98.1223 1.88874 90.2959C1.93326 82.4694 24.3487 76.2762 51.9428 76.459C79.5368 76.6418 101.859 83.1326 101.807 90.9567Z" fill="#9895A2" fill-opacity="0.05"/>
</g>
<g style="mix-blend-mode:multiply" opacity="0.03">
<path d="M101.749 90.9565C101.697 98.7665 79.3612 104.943 51.8609 104.763C24.3605 104.582 2.10674 98.1057 2.15829 90.3027C2.20984 82.4997 24.5457 76.3182 52.0483 76.501C79.551 76.6838 101.8 83.1511 101.749 90.9565Z" fill="#9895A2" fill-opacity="0.05"/>
</g>
<g style="mix-blend-mode:multiply" opacity="0.03">
<path d="M101.69 90.9569C101.638 98.7458 79.3753 104.911 51.9664 104.728C24.5574 104.545 2.37627 98.0874 2.42782 90.3031C2.47938 82.5189 24.7425 76.3515 52.1515 76.5342C79.5604 76.717 101.742 83.168 101.69 90.9569Z" fill="#9895A2" fill-opacity="0.05"/>
</g>
<g style="mix-blend-mode:multiply" opacity="0.03">
<path d="M101.629 90.9562C101.578 98.7264 79.3917 104.875 52.0719 104.695C24.752 104.514 2.6458 98.0703 2.69736 90.3025C2.74891 82.5346 24.9371 76.3859 52.257 76.5664C79.5769 76.7468 101.681 83.186 101.629 90.9562Z" fill="#9895A2" fill-opacity="0.05"/>
</g>
<g style="mix-blend-mode:multiply" opacity="0.04">
<path d="M101.57 90.9566C101.519 98.7081 79.4054 104.84 52.1769 104.66C24.9484 104.48 2.91491 98.0543 2.95709 90.3029C2.99927 82.5514 25.1242 76.4192 52.3527 76.5996C79.5812 76.78 101.622 83.2052 101.57 90.9566Z" fill="#9895A2" fill-opacity="0.05"/>
</g>
<g style="mix-blend-mode:multiply" opacity="0.04">
<path d="M101.512 90.957C101.46 98.6898 79.4195 104.808 52.2824 104.628C25.1452 104.447 3.19139 98.036 3.23591 90.3033C3.28043 82.5706 25.328 76.4524 52.4675 76.6328C79.6069 76.8132 101.563 83.2243 101.512 90.957Z" fill="#9895A2" fill-opacity="0.05"/>
</g>
<g style="mix-blend-mode:multiply" opacity="0.04">
<path d="M101.453 90.9536C101.402 98.6675 79.4266 104.779 52.3879 104.594C25.3492 104.408 3.45391 98.0185 3.50546 90.2998C3.55701 82.5812 25.532 76.4747 52.573 76.6645C79.614 76.8543 101.502 83.242 101.453 90.9536Z" fill="#9895A2" fill-opacity="0.05"/>
</g>
<g style="mix-blend-mode:multiply" opacity="0.05">
<path d="M101.393 90.9548C101.343 98.65 79.4506 104.738 52.4939 104.56C25.5372 104.382 3.72627 97.9986 3.77547 90.308C3.82468 82.6175 25.72 76.5274 52.679 76.7172C79.638 76.907 101.444 83.2736 101.393 90.9548Z" fill="#9895A2" fill-opacity="0.05"/>
</g>
<g style="mix-blend-mode:multiply" opacity="0.05">
<path d="M101.334 90.9545C101.282 98.6286 79.4643 104.705 52.5943 104.527C25.7243 104.348 3.99542 97.9842 4.04697 90.303C4.09852 82.6219 25.9165 76.5552 52.7865 76.7333C79.6564 76.9114 101.385 83.2733 101.334 90.9545Z" fill="#9895A2" fill-opacity="0.05"/>
</g>
<g style="mix-blend-mode:multiply" opacity="0.05">
<path d="M101.275 90.9539C101.224 98.6093 79.4831 104.669 52.7045 104.491C25.9259 104.313 4.26495 97.9672 4.3165 90.3025C4.36805 82.6377 26.1087 76.5875 52.8873 76.7656C79.6659 76.9436 101.324 83.2985 101.275 90.9539Z" fill="#9895A2" fill-opacity="0.05"/>
</g>
<g style="mix-blend-mode:multiply" opacity="0.06">
<path d="M101.217 90.9538C101.165 98.5905 79.4926 104.634 52.8101 104.458C26.1275 104.282 4.53453 97.9484 4.59779 90.3024C4.66106 82.6564 26.3197 76.6249 53.0045 76.8006C79.6894 76.9764 101.266 83.3172 101.217 90.9538Z" fill="#9895A2" fill-opacity="0.05"/>
</g>
<g style="mix-blend-mode:multiply" opacity="0.06">
<path d="M101.156 90.9519C101.107 98.5698 79.509 104.599 52.9155 104.423C26.322 104.247 4.80401 97.9324 4.85556 90.3145C4.90711 82.6966 26.5048 76.6698 53.103 76.8455C79.7011 77.0213 101.207 83.3363 101.156 90.9519Z" fill="#9895A2" fill-opacity="0.05"/>
</g>
<g style="mix-blend-mode:multiply" opacity="0.07">
<path d="M101.097 90.9516C101.048 98.5508 79.5227 104.566 53.0206 104.39C26.5185 104.214 5.06605 97.9134 5.12463 90.3166C5.18321 82.7198 26.6989 76.7117 53.2033 76.8804C79.7078 77.0491 101.139 83.3548 101.097 90.9516Z" fill="#9895A2" fill-opacity="0.05"/>
</g>
<g style="mix-blend-mode:multiply" opacity="0.07">
<path d="M101.038 90.9524C100.987 98.5328 79.5367 104.543 53.126 104.356C26.7153 104.168 5.34492 97.8978 5.39413 90.3197C5.44334 82.7417 26.8957 76.7289 53.3088 76.9164C79.7218 77.1038 101.088 83.3744 101.038 90.9524Z" fill="#9895A2" fill-opacity="0.05"/>
</g>
<g style="mix-blend-mode:multiply" opacity="0.07">
<path d="M100.98 90.9524C100.929 98.5117 79.5513 104.496 53.232 104.323C26.9127 104.15 5.61494 97.8814 5.66415 90.3197C5.71336 82.7581 27.0931 76.7781 53.4124 76.9468C79.7318 77.1156 101.03 83.3931 100.98 90.9524Z" fill="#9895A2" fill-opacity="0.05"/>
</g>
<g style="mix-blend-mode:multiply" opacity="0.08">
<path d="M100.919 90.9518C100.87 98.5041 79.5673 104.463 53.337 104.29C27.1068 104.116 5.88398 97.8621 5.93319 90.3215C5.9824 82.781 27.2872 76.8127 53.5175 76.9861C79.7477 77.1595 100.971 83.4113 100.919 90.9518Z" fill="#9895A2" fill-opacity="0.05"/>
</g>
<g style="mix-blend-mode:multiply" opacity="0.08">
<path d="M100.86 90.9519C100.811 98.4737 79.5809 104.428 53.442 104.254C27.3032 104.081 6.15303 97.8457 6.20223 90.3239C6.25144 82.8021 27.4836 76.8479 53.6225 77.0213C79.7614 77.1947 100.904 83.43 100.86 90.9519Z" fill="#9895A2" fill-opacity="0.05"/>
</g>
<g style="mix-blend-mode:multiply" opacity="0.08">
<path d="M100.801 90.9494C100.75 98.4478 79.5951 104.393 53.5475 104.222C27.5 104.051 6.42256 97.8292 6.47177 90.3261C6.52097 82.8231 27.6758 76.8853 53.7256 77.0563C79.7755 77.2274 100.851 83.4487 100.801 90.9494Z" fill="#9895A2" fill-opacity="0.05"/>
</g>
<g style="mix-blend-mode:multiply" opacity="0.09">
<path d="M100.741 90.9495C100.692 98.4338 79.6098 104.36 53.6536 104.186C27.6975 104.013 6.69268 97.8011 6.74424 90.3261C6.79579 82.8512 27.8756 76.9204 53.8434 77.0915C79.8113 77.2626 100.793 83.4675 100.741 90.9495Z" fill="#9895A2" fill-opacity="0.05"/>
</g>
<g style="mix-blend-mode:multiply" opacity="0.09">
<path d="M100.683 90.9499C100.633 98.4154 79.6262 104.325 53.7591 104.154C27.8921 103.983 6.96455 97.7945 7.01376 90.3289C7.06297 82.8633 28.0725 76.9466 53.9396 77.1271C79.8067 77.3075 100.732 83.4866 100.683 90.9499Z" fill="#9895A2" fill-opacity="0.05"/>
</g>
<g style="mix-blend-mode:multiply" opacity="0.09">
<path d="M100.624 90.9494C100.574 98.3962 79.6398 104.289 53.8642 104.118C28.0885 103.947 7.23359 97.7753 7.2828 90.3308C7.33201 82.8863 28.2642 76.993 54.0399 77.1617C79.8156 77.3305 100.67 83.5072 100.624 90.9494Z" fill="#9895A2" fill-opacity="0.05"/>
</g>
<g style="mix-blend-mode:multiply" opacity="0.1">
<path d="M100.565 90.9494C100.516 98.3751 79.654 104.257 53.9697 104.086C28.2854 103.915 7.50313 97.7589 7.55233 90.3331C7.60154 82.9074 28.4634 77.0282 54.1477 77.1969C79.8321 77.3656 100.614 83.5237 100.565 90.9494Z" fill="#9895A2" fill-opacity="0.05"/>
</g>
<g style="mix-blend-mode:multiply" opacity="0.1">
<path d="M100.504 90.9494C100.455 98.3564 79.6704 104.222 54.0752 104.053C28.4799 103.884 7.77266 97.7425 7.82186 90.3332C7.87107 82.9238 28.658 77.0634 54.2533 77.2321C79.8485 77.4008 100.553 83.5424 100.504 90.9494Z" fill="#9895A2" fill-opacity="0.05"/>
</g>
<g style="mix-blend-mode:multiply" opacity="0.1">
<path d="M100.436 90.9471C100.387 98.3377 79.6753 104.186 54.1714 104.018C28.6675 103.849 8.03291 97.7238 8.08212 90.3355C8.13133 82.9473 28.8456 77.0985 54.3495 77.2672C79.8534 77.4359 100.495 83.5612 100.436 90.9471Z" fill="#9895A2" fill-opacity="0.05"/>
</g>
<g style="mix-blend-mode:multiply" opacity="0.11">
<path d="M100.387 90.9467C100.338 98.3162 79.6985 104.151 54.2861 103.985C28.8736 103.818 8.31395 97.707 8.35847 90.3375C8.40299 82.968 29.0493 77.1356 54.4618 77.3044C79.8743 77.4731 100.436 83.5796 100.387 90.9467Z" fill="#9895A2" fill-opacity="0.05"/>
</g>
<g style="mix-blend-mode:multiply" opacity="0.11">
<path d="M100.329 90.9467C100.28 98.2975 79.7082 104.118 54.4012 103.949C29.0941 103.781 8.58136 97.6906 8.63291 90.3398C8.68446 82.9891 29.2535 77.1708 54.5605 77.3395C79.8675 77.5082 100.376 83.5983 100.329 90.9467Z" fill="#9895A2" fill-opacity="0.05"/>
</g>
<g style="mix-blend-mode:multiply" opacity="0.11">
<path d="M100.268 90.9473C100.219 98.2699 79.7293 104.083 54.509 103.917C29.2887 103.751 8.86494 97.6724 8.91415 90.3404C8.96336 83.0083 29.455 77.2182 54.6847 77.3752C79.9145 77.5322 100.317 83.6176 100.268 90.9473Z" fill="#9895A2" fill-opacity="0.05"/>
</g>
<g style="mix-blend-mode:multiply" opacity="0.12">
<path d="M100.202 90.9467C100.153 98.2576 79.7361 104.048 54.5955 103.881C29.4548 103.715 9.11543 97.6554 9.16464 90.3421C9.21385 83.0288 29.6305 77.2434 54.7712 77.4098C79.9119 77.5761 100.258 83.6357 100.202 90.9467Z" fill="#9895A2" fill-opacity="0.05"/>
</g>
<g style="mix-blend-mode:multiply" opacity="0.12">
<path d="M100.15 90.9472C100.101 98.2394 79.7641 104.015 54.7078 103.849C29.6515 103.683 9.3918 97.6372 9.44101 90.345C9.49022 83.0528 29.8272 77.279 54.8835 77.4571C79.9399 77.6352 100.202 83.655 100.15 90.9472Z" fill="#9895A2" fill-opacity="0.05"/>
</g>
<g style="mix-blend-mode:multiply" opacity="0.12">
<path d="M100.089 90.9453C100.043 98.2094 79.7712 103.981 54.8133 103.814C29.8554 103.648 9.66133 97.6212 9.71054 90.3478C9.75975 83.0744 30.0312 77.3147 54.9891 77.4811C79.947 77.6474 100.139 83.6742 100.089 90.9453Z" fill="#9895A2" fill-opacity="0.05"/>
</g>
<g style="mix-blend-mode:multiply" opacity="0.13">
<path d="M100.031 90.9444C99.9844 98.2084 79.788 103.945 54.9191 103.781C30.0503 103.617 9.93352 97.6039 9.98741 90.3492C10.0413 83.0945 30.233 77.3489 55.1019 77.5152C79.9707 77.6816 100.08 83.692 100.031 90.9444Z" fill="#9895A2" fill-opacity="0.05"/>
</g>
<g style="mix-blend-mode:multiply" opacity="0.13">
<path d="M99.967 90.9453C99.9178 98.1812 79.7964 103.913 55.0189 103.749C30.2415 103.585 10.1974 97.586 10.2442 90.3501C10.2911 83.1142 30.4219 77.3873 55.2111 77.5513C80.0003 77.7153 100.019 83.7117 99.967 90.9453Z" fill="#9895A2" fill-opacity="0.05"/>
</g>
<g style="mix-blend-mode:multiply" opacity="0.13">
<path d="M99.9134 90.9446C99.8642 98.1618 79.8154 103.877 55.1293 103.713C30.4432 103.549 10.4718 97.569 10.5186 90.3564C10.5655 83.1439 30.6073 77.4147 55.3027 77.5858C79.9982 77.7568 99.9673 83.7415 99.9134 90.9446Z" fill="#9895A2" fill-opacity="0.05"/>
</g>
<g style="mix-blend-mode:multiply" opacity="0.14">
<path d="M99.8531 90.9449C99.8063 98.1434 79.8301 103.833 55.2378 103.68C30.6454 103.528 10.7419 97.5505 10.7911 90.3544C10.8403 83.1583 30.8141 77.4666 55.4088 77.6212C80.0035 77.7759 99.9024 83.7418 99.8531 90.9449Z" fill="#9895A2" fill-opacity="0.05"/>
</g>
<g style="mix-blend-mode:multiply" opacity="0.14">
<path d="M99.7944 90.9452C99.7475 98.1226 79.8464 103.807 55.3431 103.646C30.8398 103.484 11.0112 97.5344 11.0557 90.3571C11.1003 83.1797 31.0061 77.495 55.5094 77.6567C80.0127 77.8184 99.8413 83.7679 99.7944 90.9452Z" fill="#9895A2" fill-opacity="0.05"/>
</g>
<g style="mix-blend-mode:multiply" opacity="0.14">
<path d="M99.7332 90.9419C99.6863 98.1029 79.8578 103.774 55.4458 103.612C31.0339 103.45 11.278 97.5194 11.3272 90.3561C11.3764 83.1928 31.2026 77.5292 55.6146 77.6909C80.0265 77.8526 99.7824 83.7857 99.7332 90.9419Z" fill="#9895A2" fill-opacity="0.05"/>
</g>
<g style="mix-blend-mode:multiply" opacity="0.15">
<path d="M99.6771 90.9429C99.6279 98.0851 79.8743 103.739 55.5538 103.578C31.2332 103.416 11.5523 97.4993 11.5992 90.3594C11.6461 83.2196 31.402 77.5653 55.7248 77.727C80.0477 77.8887 99.7333 83.8054 99.6771 90.9429Z" fill="#9895A2" fill-opacity="0.05"/>
</g>
<g style="mix-blend-mode:multiply" opacity="0.15">
<path d="M99.6164 90.9419C99.5695 98.0631 79.8886 103.703 55.6595 103.544C31.4303 103.385 11.822 97.4819 11.8619 90.3608C11.9017 83.2397 31.5897 77.5995 55.8212 77.7612C80.0527 77.9229 99.6633 83.8232 99.6164 90.9419Z" fill="#9895A2" fill-opacity="0.05"/>
</g>
<g style="mix-blend-mode:multiply" opacity="0.15">
<path d="M99.5572 90.9428C99.5103 98.0452 79.9044 103.671 55.7643 103.512C31.6242 103.353 12.0956 97.4664 12.1378 90.3641C12.1799 83.2617 31.7929 77.6379 55.933 77.7972C80.0731 77.9566 99.6041 83.8428 99.5572 90.9428Z" fill="#9895A2" fill-opacity="0.05"/>
</g>
<g style="mix-blend-mode:multiply" opacity="0.16">
<path d="M99.4987 90.9425C99.4518 98.0261 79.9185 103.636 55.8698 103.476C31.8211 103.317 12.3604 97.4473 12.4073 90.3543C12.4542 83.2613 31.9898 77.6633 56.0385 77.8227C80.0872 77.982 99.5455 83.8612 99.4987 90.9425Z" fill="#9895A2" fill-opacity="0.05"/>
</g>
<g style="mix-blend-mode:multiply" opacity="0.16">
<path d="M99.4378 90.9427C99.391 98.0052 79.9327 103.596 55.9753 103.444C32.018 103.292 12.6253 97.4311 12.6769 90.3663C12.7284 83.3014 32.1844 77.7127 56.1441 77.8674C80.1037 78.022 99.4847 83.8802 99.4378 90.9427Z" fill="#9895A2" fill-opacity="0.05"/>
</g>
<g style="mix-blend-mode:multiply" opacity="0.16">
<path d="M99.3793 90.9405C99.3324 97.9866 79.9468 103.568 56.0808 103.409C32.2149 103.25 12.8995 97.4125 12.9464 90.3687C12.9932 83.3249 32.3812 77.7457 56.2495 77.9026C80.1178 78.0596 99.4262 83.899 99.3793 90.9405Z" fill="#9895A2" fill-opacity="0.05"/>
</g>
<g style="mix-blend-mode:multiply" opacity="0.17">
<path d="M99.3209 90.9405C99.274 97.9702 79.9633 103.533 56.1864 103.376C32.4095 103.219 13.1715 97.3961 13.2183 90.3711C13.2652 83.346 32.5759 77.7808 56.3551 77.9378C80.1344 78.0948 99.3677 83.9178 99.3209 90.9405Z" fill="#9895A2" fill-opacity="0.05"/>
</g>
<g style="mix-blend-mode:multiply" opacity="0.17">
<path d="M99.2647 90.9405C99.2178 97.9468 79.9798 103.498 56.2943 103.341C32.6088 103.184 13.441 97.3797 13.4879 90.3711C13.5347 83.3624 32.7728 77.816 56.4583 77.973C80.1438 78.13 99.3069 83.9365 99.2647 90.9405Z" fill="#9895A2" fill-opacity="0.05"/>
</g>
<g style="mix-blend-mode:multiply" opacity="0.17">
<path d="M99.2012 90.9405C99.1566 97.9281 79.9866 103.465 56.3971 103.308C32.8077 103.151 13.7102 97.361 13.7501 90.3734C13.7899 83.3859 32.9647 77.8511 56.5565 78.0081C80.1482 78.1651 99.248 83.9529 99.2012 90.9405Z" fill="#9895A2" fill-opacity="0.05"/>
</g>
<g style="mix-blend-mode:multiply" opacity="0.18">
<path d="M99.1427 90.9398C99.0958 97.9086 80.0054 103.429 56.4956 103.272C32.9858 103.115 13.9728 97.3439 14.0196 90.3845C14.0665 83.4251 33.1569 77.8973 56.6667 78.052C80.1764 78.2066 99.1895 83.9757 99.1427 90.9398Z" fill="#9895A2" fill-opacity="0.05"/>
</g>
<g style="mix-blend-mode:multiply" opacity="0.18">
<path d="M99.0839 90.9404C99.0371 97.8905 80.0216 103.395 56.6079 103.24C33.1942 103.085 14.2491 97.3328 14.296 90.3781C14.3429 83.4233 33.3606 77.9237 56.7743 78.0784C80.188 78.233 99.1285 83.9904 99.0839 90.9404Z" fill="#9895A2" fill-opacity="0.05"/>
</g>
<g style="mix-blend-mode:multiply" opacity="0.19">
<path d="M99.0301 90.9381C98.9832 97.8694 80.0498 103.357 56.7181 103.207C33.3864 103.057 14.521 97.3094 14.5655 90.3781C14.61 83.4468 33.5458 77.9589 56.8798 78.1135C80.2139 78.2682 99.0699 84.0091 99.0301 90.9381Z" fill="#9895A2" fill-opacity="0.05"/>
</g>
<g style="mix-blend-mode:multiply" opacity="0.19">
<path d="M98.9645 90.938C98.92 97.8506 80.0499 103.327 56.819 103.172C33.588 103.017 14.7905 97.2929 14.835 90.3804C14.8796 83.4678 33.7521 77.9963 56.9853 78.1486C80.2186 78.3009 99.0114 84.0278 98.9645 90.938Z" fill="#9895A2" fill-opacity="0.05"/>
</g>
<g style="mix-blend-mode:multiply" opacity="0.19">
<path d="M98.906 90.9381C98.8615 97.8319 80.064 103.292 56.9245 103.139C33.7849 102.987 15.06 97.2812 15.1046 90.3827C15.1491 83.4842 33.9466 78.0315 57.0861 78.1838C80.2257 78.3361 98.9529 84.0466 98.906 90.9381Z" fill="#9895A2" fill-opacity="0.05"/>
</g>
<g style="mix-blend-mode:multiply" opacity="0.2">
<path d="M98.8472 90.9381C98.8003 97.8108 80.0801 103.257 57.0296 103.104C33.9791 102.952 15.3199 97.2461 15.3761 90.3851C15.4323 83.524 34.1431 78.0666 57.1936 78.2189C80.2441 78.3712 98.8917 84.0653 98.8472 90.9381Z" fill="#9895A2" fill-opacity="0.05"/>
</g>
<g style="mix-blend-mode:multiply" opacity="0.2">
<path d="M98.7961 90.938C98.7492 97.792 80.1017 103.224 57.1426 103.071C34.1835 102.919 15.6109 97.2413 15.646 90.385C15.6812 83.5287 34.3405 78.104 57.2996 78.254C80.2587 78.404 98.8336 84.084 98.7961 90.938Z" fill="#9895A2" fill-opacity="0.05"/>
</g>
<g style="mix-blend-mode:multiply" opacity="0.2">
<path d="M98.7277 90.9355C98.6832 97.7731 80.1083 103.188 57.2523 103.036C34.3963 102.884 15.88 97.2224 15.9268 90.3825C15.9737 83.5425 34.5463 78.1343 57.4163 78.2843C80.2864 78.4343 98.7746 84.1026 98.7277 90.9355Z" fill="#9895A2" fill-opacity="0.05"/>
</g>
<g style="mix-blend-mode:multiply" opacity="0.21">
<path d="M98.6692 90.9354C98.6247 97.7519 80.1224 103.153 57.3461 103.003C34.5697 102.853 16.1401 97.2059 16.1847 90.3894C16.2292 83.5729 34.7314 78.1741 57.5101 78.3264C80.2888 78.4787 98.7137 84.1212 98.6692 90.9354Z" fill="#9895A2" fill-opacity="0.05"/>
</g>
<g style="mix-blend-mode:multiply" opacity="0.21">
<path d="M98.6112 90.9355C98.5644 97.7309 80.1394 103.12 57.4521 102.97C34.7649 102.82 16.4102 97.1873 16.4454 90.3919C16.4805 83.5965 34.9172 78.207 57.6068 78.3616C80.2964 78.5163 98.6558 84.1401 98.6112 90.9355Z" fill="#9895A2" fill-opacity="0.05"/>
</g>
<g style="mix-blend-mode:multiply" opacity="0.21">
<path d="M98.5615 90.9353C98.517 97.7143 80.1647 103.085 57.5688 102.935C34.9729 102.785 16.6909 97.1707 16.7354 90.3917C16.78 83.6127 35.1346 78.2467 57.7422 78.3966C80.3498 78.5466 98.5967 84.1587 98.5615 90.9353Z" fill="#9895A2" fill-opacity="0.05"/>
</g>
<g style="mix-blend-mode:multiply" opacity="0.22">
<path d="M98.4913 90.9353C98.4468 97.6933 80.1671 103.05 57.6626 102.902C35.1581 102.755 16.9487 97.1543 16.9932 90.3941C17.0378 83.6338 35.3198 78.2818 57.8243 78.4318C80.3288 78.5818 98.5358 84.1774 98.4913 90.9353Z" fill="#9895A2" fill-opacity="0.05"/>
</g>
<g style="mix-blend-mode:multiply" opacity="0.22">
<path d="M98.4327 90.9354C98.3882 97.6745 80.1812 103.017 57.7681 102.867C35.3549 102.717 17.2299 97.1356 17.2627 90.3964C17.2955 83.6572 35.5143 78.317 57.9298 78.467C80.3452 78.6169 98.4773 84.1962 98.4327 90.9354Z" fill="#9895A2" fill-opacity="0.05"/>
</g>
<g style="mix-blend-mode:multiply" opacity="0.22">
<path d="M98.3744 90.9329C98.3299 97.6557 80.1978 102.982 57.8737 102.834C35.5496 102.687 17.4856 97.1191 17.5348 90.3987C17.584 83.6782 35.7113 78.3544 58.0354 78.502C80.3595 78.6496 98.4189 84.2102 98.3744 90.9329Z" fill="#9895A2" fill-opacity="0.05"/>
</g>
<g style="mix-blend-mode:multiply" opacity="0.23">
<path d="M98.313 90.9339C98.2685 97.6356 80.2114 102.948 57.9787 102.8C35.746 102.652 17.7593 97.099 17.8038 90.402C17.8483 83.705 35.9054 78.3905 58.1404 78.5382C80.3755 78.6858 98.3575 84.2346 98.313 90.9339Z" fill="#9895A2" fill-opacity="0.05"/>
</g>
<g style="mix-blend-mode:multiply" opacity="0.23">
<path d="M98.2545 90.933C98.2099 97.6159 80.2255 102.912 58.0842 102.766C35.9429 102.621 18.0288 97.084 18.0733 90.401C18.1178 83.7181 36.1022 78.4247 58.2576 78.5724C80.413 78.72 98.299 84.2524 98.2545 90.933Z" fill="#9895A2" fill-opacity="0.05"/>
</g>
<g style="mix-blend-mode:multiply" opacity="0.23">
<path d="M98.196 90.9333C98.1515 97.5975 80.2397 102.884 58.1898 102.732C36.1398 102.579 18.2984 97.0679 18.3546 90.4037C18.4109 83.7395 36.3109 78.4531 58.3608 78.6078C80.4108 78.7625 98.2405 84.2714 98.196 90.9333Z" fill="#9895A2" fill-opacity="0.05"/>
</g>
<g style="mix-blend-mode:multiply" opacity="0.24">
<path d="M98.1377 90.9329C98.0932 97.5783 80.2564 102.844 58.3026 102.698C36.3487 102.553 18.5752 97.0488 18.6197 90.4057C18.6642 83.7626 36.501 78.4973 58.4549 78.6426C80.4087 78.7879 98.1799 84.2898 98.1377 90.9329Z" fill="#9895A2" fill-opacity="0.05"/>
</g>
<g style="mix-blend-mode:multiply" opacity="0.24">
<path d="M98.0766 90.9329C98.032 97.5573 80.2679 102.808 58.4007 102.666C36.5336 102.523 18.8374 97.0418 18.8819 90.408C18.9264 83.7743 36.6906 78.5325 58.5601 78.6778C80.4296 78.823 98.1211 84.3086 98.0766 90.9329Z" fill="#9895A2" fill-opacity="0.05"/>
</g>
<g style="mix-blend-mode:multiply" opacity="0.24">
<path d="M98.018 90.9306C97.9735 97.5385 80.2844 102.776 58.5062 102.63C36.7281 102.485 19.1069 97.0066 19.1515 90.408C19.196 83.8095 36.8851 78.5676 58.6656 78.7129C80.446 78.8582 98.0625 84.3273 98.018 90.9306Z" fill="#9895A2" fill-opacity="0.05"/>
</g>
<g style="mix-blend-mode:multiply" opacity="0.25">
<path d="M97.9595 90.9311C97.915 97.5203 80.2985 102.741 58.6117 102.598C36.925 102.455 19.3788 96.9978 19.421 90.4132C19.4632 83.8287 37.082 78.608 58.7711 78.7509C80.4601 78.8939 98.0017 84.3466 97.9595 90.9311Z" fill="#9895A2" fill-opacity="0.05"/>
</g>
<g style="mix-blend-mode:multiply" opacity="0.25">
<path d="M97.8986 90.9305C97.8565 97.4916 80.3243 102.705 58.7172 102.562C37.1102 102.419 19.6483 96.9808 19.6905 90.4127C19.7327 83.8446 37.2789 78.6402 58.8742 78.7831C80.4696 78.9261 97.9432 84.3648 97.8986 90.9305Z" fill="#9895A2" fill-opacity="0.05"/>
</g>
<g style="mix-blend-mode:multiply" opacity="0.25">
<path d="M97.8397 90.9312C97.7975 97.4923 80.3287 102.673 58.8223 102.53C37.316 102.387 19.9245 96.9651 19.962 90.4157C19.9995 83.8663 37.473 78.6761 58.9793 78.8213C80.4856 78.9666 97.8842 84.3842 97.8397 90.9312Z" fill="#9895A2" fill-opacity="0.05"/>
</g>
<g style="mix-blend-mode:multiply" opacity="0.26">
<path d="M97.7812 90.931C97.7367 97.4617 80.3428 102.647 58.9279 102.495C37.513 102.343 20.187 96.9461 20.2315 90.4155C20.2761 83.8849 37.67 78.6993 59.0849 78.854C80.4998 79.0086 97.8234 84.4028 97.7812 90.931Z" fill="#9895A2" fill-opacity="0.05"/>
</g>
<g style="mix-blend-mode:multiply" opacity="0.26">
<path d="M97.7227 90.9315C97.6782 97.441 80.3569 102.603 59.0334 102.463C37.7099 102.322 20.4565 96.9302 20.5011 90.4183C20.5456 83.9064 37.8715 78.7489 59.1951 78.8895C80.5186 79.0301 97.7649 84.4219 97.7227 90.9315Z" fill="#9895A2" fill-opacity="0.05"/>
</g>
<g style="mix-blend-mode:multiply" opacity="0.26">
<path d="M97.6616 90.9281C97.6194 97.4213 80.3731 102.569 59.1387 102.429C37.9042 102.288 20.7282 96.9105 20.7657 90.4197C20.8032 83.9289 38.0565 78.7831 59.291 78.9237C80.5254 79.0643 97.7061 84.4444 97.6616 90.9281Z" fill="#9895A2" fill-opacity="0.05"/>
</g>
<g style="mix-blend-mode:multiply" opacity="0.27">
<path d="M97.6032 90.9291C97.561 97.4034 80.3874 102.535 59.2443 102.395C38.1012 102.254 20.9979 96.895 21.0494 90.4229C21.101 83.9509 38.2582 78.8215 59.4013 78.9598C80.5444 79.098 97.6454 84.4594 97.6032 90.9291Z" fill="#9895A2" fill-opacity="0.05"/>
</g>
<g style="mix-blend-mode:multiply" opacity="0.27">
<path d="M97.5448 90.9281C97.5026 97.3814 80.4016 102.499 59.3499 102.361C38.2982 102.223 21.2675 96.8776 21.3096 90.4102C21.3518 83.9429 38.4528 78.844 59.5045 78.9822C80.5563 79.1205 97.5869 84.4771 97.5448 90.9281Z" fill="#9895A2" fill-opacity="0.05"/>
</g>
<g style="mix-blend-mode:multiply" opacity="0.27">
<path d="M97.4862 90.9291C97.4417 97.3636 80.4157 102.465 59.4554 102.327C38.4951 102.188 21.537 96.8645 21.5792 90.4253C21.6214 83.9861 38.6497 78.8918 59.61 79.0301C80.5704 79.1683 97.5284 84.4969 97.4862 90.9291Z" fill="#9895A2" fill-opacity="0.05"/>
</g>
<g style="mix-blend-mode:multiply" opacity="0.28">
<path d="M97.4254 90.9291C97.3832 97.3449 80.4322 102.432 59.5609 102.294C38.6896 102.156 21.8065 96.8435 21.8487 90.4277C21.8909 84.0118 38.8443 78.927 59.7155 79.0653C80.5868 79.2035 97.4676 84.5156 97.4254 90.9291Z" fill="#9895A2" fill-opacity="0.05"/>
</g>
<g style="mix-blend-mode:multiply" opacity="0.28">
<path d="M97.3669 90.9281C97.3247 97.3322 80.4463 102.396 59.6641 102.253C38.8818 102.11 22.0737 96.8191 22.1183 90.4243C22.1628 84.0296 39.0435 78.9612 59.8211 79.0994C80.5986 79.2377 97.409 84.5334 97.3669 90.9281Z" fill="#9895A2" fill-opacity="0.05"/>
</g>
<g style="mix-blend-mode:multiply" opacity="0.28">
<path d="M97.308 90.9257C97.2658 97.304 80.46 102.361 59.7715 102.225C39.083 102.089 22.3475 96.8073 22.3897 90.429C22.4319 84.0506 39.2377 78.9986 59.9262 79.1345C80.6147 79.2704 97.3501 84.5521 97.308 90.9257Z" fill="#9895A2" fill-opacity="0.05"/>
</g>
<g style="mix-blend-mode:multiply" opacity="0.29">
<path d="M97.2494 90.9257C97.2049 97.2853 80.4765 102.328 59.8793 102.19C39.2822 102.051 22.6218 96.8003 22.6592 90.4313C22.6967 84.0624 39.4322 79.0338 60.0317 79.1697C80.6311 79.3056 97.2892 84.5709 97.2494 90.9257Z" fill="#9895A2" fill-opacity="0.05"/>
</g>
<g style="mix-blend-mode:multiply" opacity="0.29">
<path d="M97.1886 90.9257C97.1464 97.2666 80.4906 102.293 59.9849 102.157C39.4791 102.021 22.8866 96.7675 22.9288 90.4407C22.971 84.1139 39.6291 79.0689 60.1325 79.2048C80.6359 79.3407 97.2307 84.5896 97.1886 90.9257Z" fill="#9895A2" fill-opacity="0.05"/>
</g>
<g style="mix-blend-mode:multiply" opacity="0.29">
<path d="M97.13 90.9266C97.0879 97.2534 80.5047 102.259 60.0904 102.125C39.676 101.991 23.1561 96.7566 23.1983 90.4369C23.2405 84.1172 39.8236 79.1073 60.2403 79.2409C80.657 79.3745 97.1722 84.6093 97.13 90.9266Z" fill="#9895A2" fill-opacity="0.05"/>
</g>
<g style="mix-blend-mode:multiply" opacity="0.3">
<path d="M97.0715 90.9267C97.0293 97.2276 80.5188 102.226 60.1959 102.09C39.8729 101.954 23.4257 96.7403 23.4679 90.4369C23.51 84.1336 40.0205 79.1425 60.3458 79.2761C80.6711 79.4096 97.1113 84.628 97.0715 90.9267Z" fill="#9895A2" fill-opacity="0.05"/>
</g>
<g style="mix-blend-mode:multiply" opacity="0.3">
<path d="M97.0106 90.9267C96.9708 97.2089 80.5352 102.191 60.3013 102.057C40.0674 101.924 23.6952 96.7215 23.7467 90.4393C23.7983 84.1571 40.215 79.1777 60.4513 79.3112C80.6875 79.4448 97.0528 84.6468 97.0106 90.9267Z" fill="#9895A2" fill-opacity="0.05"/>
</g>
<g style="mix-blend-mode:multiply" opacity="0.31">
<path d="M96.9517 90.9243C96.9096 97.1878 80.549 102.155 60.3971 102.022C40.2452 101.888 23.9573 96.7051 23.9971 90.4416C24.037 84.1781 40.3999 79.2151 60.5518 79.3463C80.7037 79.4775 96.9939 84.6655 96.9517 90.9243Z" fill="#9895A2" fill-opacity="0.05"/>
</g>
<g style="mix-blend-mode:multiply" opacity="0.31">
<path d="M96.8933 90.924C96.8511 97.1687 80.5632 102.12 60.5121 101.989C40.461 101.858 24.2363 96.686 24.2809 90.4436C24.3254 84.2012 40.6109 79.2499 60.6644 79.3835C80.7179 79.5171 96.9355 84.6792 96.8933 90.924Z" fill="#9895A2" fill-opacity="0.05"/>
</g>
<g style="mix-blend-mode:multiply" opacity="0.31">
<path d="M96.8347 90.9238C96.7925 97.1498 80.5772 102.087 60.6175 101.953C40.6577 101.82 24.5151 96.6695 24.5479 90.4435C24.5807 84.2174 40.803 79.2896 60.7651 79.4185C80.7272 79.5474 96.8745 84.7025 96.8347 90.9238Z" fill="#9895A2" fill-opacity="0.05"/>
</g>
<g style="mix-blend-mode:multiply" opacity="0.32">
<path d="M96.7738 90.9232C96.734 97.1281 80.5937 102.051 60.723 101.92C40.8523 101.789 24.7753 96.6525 24.8175 90.4382C24.8596 84.2239 40.9999 79.3125 60.8706 79.446C80.7413 79.5796 96.816 84.7207 96.7738 90.9232Z" fill="#9895A2" fill-opacity="0.05"/>
</g>
<g style="mix-blend-mode:multiply" opacity="0.32">
<path d="M96.7153 90.9239C96.6872 97.1101 80.6078 102.019 60.8355 101.888C41.0632 101.757 25.0448 96.6297 25.087 90.4483C25.1292 84.2668 41.1945 79.3577 60.9761 79.4889C80.7578 79.6201 96.7575 84.7378 96.7153 90.9239Z" fill="#9895A2" fill-opacity="0.05"/>
</g>
<g style="mix-blend-mode:multiply" opacity="0.32">
<path d="M96.6568 90.9216C96.6146 97.0914 80.6219 101.984 60.934 101.853C41.2461 101.722 25.3167 96.618 25.3565 90.4506C25.3964 84.2832 41.3867 79.3928 61.0816 79.5241C80.7766 79.6553 96.6872 84.7565 96.6568 90.9216Z" fill="#9895A2" fill-opacity="0.05"/>
</g>
<g style="mix-blend-mode:multiply" opacity="0.33">
<path d="M96.5983 90.9216C96.5561 97.0703 80.6361 101.949 61.0395 101.82C41.443 101.691 25.5862 96.6017 25.6261 90.453C25.6659 84.3043 41.5882 79.428 61.1871 79.5592C80.786 79.6904 96.6381 84.7753 96.5983 90.9216Z" fill="#9895A2" fill-opacity="0.05"/>
</g>
<g style="mix-blend-mode:multiply" opacity="0.33">
<path d="M96.5368 90.9216C96.497 97.0515 80.6519 101.914 61.1538 101.785C41.6557 101.656 25.8645 96.5828 25.9044 90.4529C25.9442 84.323 41.7822 79.4654 61.3038 79.5943C80.8253 79.7232 96.579 84.794 96.5368 90.9216Z" fill="#9895A2" fill-opacity="0.05"/>
</g>
<g style="mix-blend-mode:multiply" opacity="0.33">
<path d="M96.4784 90.9216C96.4386 97.0327 80.6662 101.881 61.2501 101.752C41.834 101.623 26.1249 96.5664 26.1553 90.4553C26.1858 84.3441 41.9699 79.5006 61.386 79.6295C80.8021 79.7583 96.5183 84.8127 96.4784 90.9216Z" fill="#9895A2" fill-opacity="0.05"/>
</g>
<g style="mix-blend-mode:multiply" opacity="0.34">
<path d="M96.4202 90.9216C96.378 97.014 80.6806 101.846 61.3559 101.717C42.0311 101.588 26.3946 96.5477 26.4415 90.4576C26.4884 84.3675 42.1811 79.5358 61.5082 79.6646C80.8352 79.7935 96.453 84.8315 96.4202 90.9216Z" fill="#9895A2" fill-opacity="0.05"/>
</g>
<g style="mix-blend-mode:multiply" opacity="0.34">
<path d="M96.3591 90.9216C96.3193 96.9929 80.6945 101.811 61.4611 101.684C42.2278 101.558 26.664 96.529 26.7061 90.46C26.7483 84.391 42.3707 79.5709 61.6064 79.6998C80.8421 79.8287 96.4013 84.8502 96.3591 90.9216Z" fill="#9895A2" fill-opacity="0.05"/>
</g>
<g style="mix-blend-mode:multiply" opacity="0.34">
<path d="M96.3006 90.9192C96.2607 96.9741 80.7109 101.778 61.5666 101.649C42.4223 101.52 26.9358 96.5148 26.9757 90.4599C27.0155 84.405 42.5582 79.6083 61.7119 79.7349C80.8656 79.8614 96.3404 84.8689 96.3006 90.9192Z" fill="#9895A2" fill-opacity="0.05"/>
</g>
<g style="mix-blend-mode:multiply" opacity="0.35">
<path d="M96.242 90.9192C96.2022 96.9554 80.7251 101.743 61.6721 101.616C42.6192 101.49 27.2054 96.4961 27.2452 90.4623C27.285 84.4284 42.7622 79.6435 61.8174 79.77C80.8727 79.8966 96.2819 84.8877 96.242 90.9192Z" fill="#9895A2" fill-opacity="0.05"/>
</g>
<g style="mix-blend-mode:multiply" opacity="0.35">
<path d="M96.183 90.9189C96.1432 96.934 80.7387 101.698 61.7772 101.583C42.8156 101.468 27.4744 96.4795 27.5142 90.4644C27.5541 84.4492 42.9586 79.6854 61.9224 79.8049C80.8863 79.9244 96.2182 84.9132 96.183 90.9189Z" fill="#9895A2" fill-opacity="0.05"/>
</g>
<g style="mix-blend-mode:multiply" opacity="0.35">
<path d="M96.1222 90.9191C96.0824 96.9155 80.7529 101.672 61.8827 101.55C43.0126 101.429 27.744 96.4609 27.7955 90.4669C27.8471 84.4729 43.1649 79.7161 62.0374 79.8403C80.9099 79.9645 96.162 84.9251 96.1222 90.9191Z" fill="#9895A2" fill-opacity="0.05"/>
</g>
<g style="mix-blend-mode:multiply" opacity="0.36">
<path d="M96.0641 90.9189C96.0243 96.8965 80.7698 101.639 61.9887 101.515C43.2076 101.391 28.0116 96.4443 28.0538 90.4666C28.096 84.489 43.3505 79.758 62.1316 79.8752C80.9127 79.9923 96.104 84.9436 96.0641 90.9189Z" fill="#9895A2" fill-opacity="0.05"/>
</g>
<g style="mix-blend-mode:multiply" opacity="0.36">
<path d="M96.0051 90.9195C95.9653 96.8761 80.774 101.605 62.0937 101.481C43.4133 101.356 28.283 96.4285 28.3228 90.4673C28.3627 84.5061 43.5539 79.7845 62.2366 79.9086C80.9193 80.0328 96.0449 84.963 96.0051 90.9195Z" fill="#9895A2" fill-opacity="0.05"/>
</g>
<g style="mix-blend-mode:multiply" opacity="0.36">
<path d="M95.9463 90.9168C95.9064 96.857 80.7972 101.569 62.2036 101.447C43.6099 101.326 28.5593 96.4094 28.5967 90.4716C28.6342 84.5338 43.7458 79.8216 62.3395 79.9458C80.9331 80.07 95.9838 84.9814 95.9463 90.9168Z" fill="#9895A2" fill-opacity="0.05"/>
</g>
<g style="mix-blend-mode:multiply" opacity="0.37">
<path d="M95.8858 90.9168C95.846 96.8381 80.8117 101.536 62.3048 101.412C43.7978 101.288 28.8245 96.3953 28.8643 90.4739C28.9042 84.5525 43.9384 79.859 62.4477 79.9808C80.957 80.1027 95.9257 85.0001 95.8858 90.9168Z" fill="#9895A2" fill-opacity="0.05"/>
</g>
<g style="mix-blend-mode:multiply" opacity="0.37">
<path d="M95.8269 90.9168C95.7871 96.8171 80.8301 101.501 62.4099 101.379C43.9897 101.258 29.0937 96.3765 29.1358 90.4739C29.178 84.5713 44.1326 79.8942 62.5528 80.016C80.9731 80.1378 95.8667 85.0188 95.8269 90.9168Z" fill="#9895A2" fill-opacity="0.05"/>
</g>
<g style="mix-blend-mode:multiply" opacity="0.37">
<path d="M95.7688 90.9167C95.7289 96.7982 80.8423 101.461 62.5158 101.344C44.1893 101.227 29.3636 96.3577 29.4034 90.4762C29.4432 84.5946 44.3299 79.9316 62.6564 80.0511C80.9829 80.1706 95.8063 85.0375 95.7688 90.9167Z" fill="#9895A2" fill-opacity="0.05"/>
</g>
<g style="mix-blend-mode:multiply" opacity="0.38">
<path d="M95.7073 90.9167C95.6698 96.7748 80.8558 101.433 62.6207 101.311C44.3856 101.189 29.6325 96.3413 29.67 90.4785C29.7075 84.6157 44.5238 79.9667 62.759 80.0862C80.9941 80.2057 95.7495 85.0563 95.7073 90.9167Z" fill="#9895A2" fill-opacity="0.05"/>
</g>
<g style="mix-blend-mode:multiply" opacity="0.38">
<path d="M95.6489 90.9171C95.6114 96.7588 80.8701 101.398 62.7263 101.279C44.5826 101.159 29.9045 96.323 29.942 90.4812C29.9795 84.6395 44.7208 79.9929 62.8669 80.1218C81.013 80.2506 95.6887 85.0754 95.6489 90.9171Z" fill="#9895A2" fill-opacity="0.05"/>
</g>
<g style="mix-blend-mode:multiply" opacity="0.38">
<path d="M95.5904 90.9144C95.5505 96.7397 80.8865 101.363 62.8318 101.243C44.7771 101.124 30.174 96.3062 30.2115 90.4809C30.249 84.6556 44.9177 80.0371 62.9724 80.1566C81.0271 80.2761 95.6279 85.0938 95.5904 90.9144Z" fill="#9895A2" fill-opacity="0.05"/>
</g>
<g style="mix-blend-mode:multiply" opacity="0.39">
<path d="M95.5318 90.9144C95.492 96.721 80.9006 101.33 62.9373 101.211C44.974 101.091 30.4435 96.2898 30.481 90.4833C30.5185 84.6767 45.1122 80.0722 63.0779 80.1917C81.0436 80.3112 95.5693 85.1125 95.5318 90.9144Z" fill="#9895A2" fill-opacity="0.05"/>
</g>
<g style="mix-blend-mode:multiply" opacity="0.39">
<path d="M95.471 90.9143C95.4335 96.6998 80.9148 101.295 63.0428 101.175C45.1709 101.056 30.7061 96.271 30.7506 90.4855C30.7951 84.7001 45.3092 80.1096 63.1788 80.2268C81.0483 80.344 95.5155 85.1312 95.471 90.9143Z" fill="#9895A2" fill-opacity="0.05"/>
</g>
<g style="mix-blend-mode:multiply" opacity="0.39">
<path d="M95.4126 90.9144C95.3751 96.6811 80.929 101.26 63.1484 101.143C45.3679 101.025 30.9827 96.2546 31.0225 90.4879C31.0624 84.7212 45.5061 80.1448 63.2867 80.262C81.0672 80.3791 95.4501 85.1476 95.4126 90.9144Z" fill="#9895A2" fill-opacity="0.05"/>
</g>
<g style="mix-blend-mode:multiply" opacity="0.4">
<path d="M95.354 90.9145C95.3165 96.6624 80.9453 101.225 63.2515 101.108C45.5576 100.99 31.2498 96.2383 31.2896 90.488C31.3295 84.7377 45.6982 80.1777 63.3921 80.2972C81.0859 80.4167 95.3914 85.1688 95.354 90.9145Z" fill="#9895A2" fill-opacity="0.05"/>
</g>
<g style="mix-blend-mode:multiply" opacity="0.4">
<path d="M95.2955 90.914C95.2557 96.6432 80.9595 101.191 63.3594 101.074C45.7593 100.957 31.5218 96.2191 31.5616 90.4898C31.6014 84.7606 45.8976 80.2264 63.4977 80.3319C81.0978 80.4373 95.333 85.1871 95.2955 90.914Z" fill="#9895A2" fill-opacity="0.05"/>
</g>
<g style="mix-blend-mode:multiply" opacity="0.4">
<path d="M95.2342 90.9122C95.1967 96.6226 80.9732 101.157 63.4644 101.042C45.9557 100.927 31.7931 96.2032 31.8306 90.4974C31.8681 84.7916 46.0916 80.2574 63.6027 80.3723C81.1138 80.4871 95.281 85.2064 95.2342 90.9122Z" fill="#9895A2" fill-opacity="0.05"/>
</g>
<g style="mix-blend-mode:multiply" opacity="0.41">
<path d="M95.1761 90.9117C95.1386 96.6034 80.9878 101.121 63.5704 101.006C46.1531 100.892 32.0632 96.184 32.1007 90.4946C32.1382 84.8052 46.289 80.2874 63.7087 80.4046C81.1284 80.5217 95.2136 85.2246 95.1761 90.9117Z" fill="#9895A2" fill-opacity="0.05"/>
</g>
<g style="mix-blend-mode:multiply" opacity="0.41">
<path d="M95.1176 90.9116C95.0801 96.5846 81.0042 101.088 63.6759 100.973C46.3476 100.859 32.3327 96.1605 32.3702 90.4969C32.4077 84.8332 46.4859 80.3248 63.8118 80.4396C81.1378 80.5545 95.1551 85.2433 95.1176 90.9116Z" fill="#9895A2" fill-opacity="0.05"/>
</g>
<g style="mix-blend-mode:multiply" opacity="0.42">
<path d="M95.0581 90.9116C95.0183 96.5635 81.0174 101.053 63.7805 100.938C46.5436 100.824 32.6013 96.1605 32.6387 90.4969C32.6762 84.8333 46.6795 80.36 63.9164 80.4748C81.1533 80.5896 95.0932 85.2621 95.0581 90.9116Z" fill="#9895A2" fill-opacity="0.05"/>
</g>
<g style="mix-blend-mode:multiply" opacity="0.42">
<path d="M94.9972 90.9116C94.9597 96.5354 81.0315 101.018 63.886 100.906C46.7404 100.793 32.8708 96.1324 32.9083 90.4992C32.9458 84.8661 46.8764 80.3952 64.0219 80.51C81.1674 80.6248 95.0464 85.2808 94.9972 90.9116Z" fill="#9895A2" fill-opacity="0.05"/>
</g>
<g style="mix-blend-mode:multiply" opacity="0.42">
<path d="M94.9395 90.9118C94.902 96.5356 81.0464 100.988 63.9923 100.871C46.9382 100.753 33.1411 96.1162 33.1857 90.5018C33.2302 84.8873 47.0787 80.4258 64.1352 80.5453C81.1917 80.6648 94.977 85.2998 94.9395 90.9118Z" fill="#9895A2" fill-opacity="0.05"/>
</g>
<g style="mix-blend-mode:multiply" opacity="0.43">
<path d="M94.8803 90.9102C94.8428 96.5059 81.0552 100.951 64.0971 100.839C47.1391 100.726 33.4006 96.0982 33.4498 90.5048C33.499 84.9115 47.275 80.4687 64.233 80.5812C81.1911 80.6937 94.9178 85.3192 94.8803 90.9102Z" fill="#9895A2" fill-opacity="0.05"/>
</g>
<g style="mix-blend-mode:multiply" opacity="0.43">
<path d="M94.8121 90.9093C94.7769 96.4862 81.069 100.915 64.1953 100.802C47.3216 100.69 33.6745 96.0808 33.712 90.5039C33.7495 84.9269 47.4551 80.5029 64.3312 80.6154C81.2072 80.7279 94.8566 85.337 94.8121 90.9093Z" fill="#9895A2" fill-opacity="0.05"/>
</g>
<g style="mix-blend-mode:multiply" opacity="0.43">
<path d="M94.761 90.9093C94.7235 96.4674 81.0905 100.882 64.2988 100.77C47.5071 100.657 33.9421 96.0644 33.9796 90.5062C34.0171 84.9481 47.6501 80.5381 64.4418 80.6505C81.2334 80.763 94.7985 85.3558 94.761 90.9093Z" fill="#9895A2" fill-opacity="0.05"/>
</g>
<g style="mix-blend-mode:multiply" opacity="0.44">
<path d="M94.7024 90.9102C94.6649 96.4473 81.1116 100.848 64.4159 100.738C47.7203 100.628 34.2209 96.0513 34.2584 90.5095C34.2959 84.9677 47.8492 80.5765 64.5472 80.6866C81.2451 80.7967 94.7399 85.3825 94.7024 90.9102Z" fill="#9895A2" fill-opacity="0.05"/>
</g>
<g style="mix-blend-mode:multiply" opacity="0.44">
<path d="M94.6438 90.9092C94.6064 96.4276 81.121 100.812 64.5214 100.702C47.9219 100.592 34.4904 96.0292 34.5279 90.5109C34.5654 84.9925 48.0508 80.6106 64.6527 80.7208C81.2546 80.8309 94.679 85.3932 94.6438 90.9092Z" fill="#9895A2" fill-opacity="0.05"/>
</g>
<g style="mix-blend-mode:multiply" opacity="0.44">
<path d="M94.5781 90.9069C94.5429 96.4088 81.1302 100.777 64.6221 100.669C48.1139 100.561 34.7574 96.0128 34.7925 90.5109C34.8277 85.0089 48.2428 80.6458 64.7533 80.7559C81.2638 80.8661 94.6203 85.412 94.5781 90.9069Z" fill="#9895A2" fill-opacity="0.05"/>
</g>
<g style="mix-blend-mode:multiply" opacity="0.45">
<path d="M94.5241 90.9073C94.489 96.3881 81.1489 100.749 64.7321 100.634C48.3154 100.519 35.0315 95.9944 35.0596 90.5136C35.0877 85.0327 48.4349 80.672 64.8563 80.7915C81.2778 80.911 94.5616 85.4311 94.5241 90.9073Z" fill="#9895A2" fill-opacity="0.05"/>
</g>
<g style="mix-blend-mode:multiply" opacity="0.45">
<path d="M94.4654 90.9068C94.4279 96.3689 81.1628 100.709 64.8374 100.601C48.512 100.493 35.3125 95.9776 35.336 90.5249C35.3594 85.0721 48.6503 80.7184 64.9686 80.8262C81.287 80.934 94.5005 85.4494 94.4654 90.9068Z" fill="#9895A2" fill-opacity="0.05"/>
</g>
<g style="mix-blend-mode:multiply" opacity="0.45">
<path d="M94.4075 90.9068C94.37 96.3502 81.1799 100.673 64.9436 100.566C48.7072 100.458 35.571 95.9589 35.6085 90.5179C35.646 85.0768 48.8361 80.7536 65.0724 80.8613C81.3088 80.9691 94.4427 85.4682 94.4075 90.9068Z" fill="#9895A2" fill-opacity="0.05"/>
</g>
<g style="mix-blend-mode:multiply" opacity="0.46">
<path d="M94.3435 90.9069C94.3084 96.3315 81.1909 100.641 65.053 100.533C48.915 100.425 35.8444 95.9425 35.8819 90.5179C35.9194 85.0933 49.0346 80.7887 65.1725 80.8965C81.3104 81.0043 94.3834 85.4869 94.3435 90.9069Z" fill="#9895A2" fill-opacity="0.05"/>
</g>
<g style="mix-blend-mode:multiply" opacity="0.46">
<path d="M94.2872 90.9071C94.2521 96.3106 81.2072 100.606 65.1537 100.5C49.1001 100.395 36.0974 95.9263 36.1466 90.5205C36.1958 85.1146 49.2266 80.8265 65.2872 80.9296C81.3478 81.0327 94.3224 85.5059 94.2872 90.9071Z" fill="#9895A2" fill-opacity="0.05"/>
</g>
<g style="mix-blend-mode:multiply" opacity="0.46">
<path d="M94.2291 90.9045C94.1916 96.2939 81.2241 100.57 65.2596 100.465C49.2951 100.359 36.3814 95.9073 36.4166 90.5225C36.4517 85.1377 49.4216 80.8613 65.3885 80.9668C81.3553 81.0722 94.2643 85.522 94.2291 90.9045Z" fill="#9895A2" fill-opacity="0.05"/>
</g>
<g style="mix-blend-mode:multiply" opacity="0.47">
<path d="M94.1678 90.9045C94.1326 96.2728 81.2377 100.538 65.3646 100.432C49.4914 100.327 36.6505 95.8909 36.6856 90.5366C36.7208 85.1823 49.618 80.9082 65.4935 81.0136C81.369 81.1191 94.2052 85.5408 94.1678 90.9045Z" fill="#9895A2" fill-opacity="0.05"/>
</g>
<g style="mix-blend-mode:multiply" opacity="0.47">
<path d="M94.1097 90.9055C94.0746 96.2528 81.2523 100.513 65.4706 100.398C49.6888 100.283 36.9205 95.8756 36.9556 90.5376C36.9908 85.1997 49.8224 80.9303 65.5971 81.0381C81.3718 81.1459 94.1449 85.5606 94.1097 90.9055Z" fill="#9895A2" fill-opacity="0.05"/>
</g>
<g style="mix-blend-mode:multiply" opacity="0.47">
<path d="M94.0511 90.9052C94.0159 96.2337 81.2663 100.468 65.576 100.365C49.8856 100.262 37.1899 95.8565 37.2227 90.5232C37.2555 85.19 50.0075 80.9652 65.7002 81.0683C81.3929 81.1714 94.0862 85.579 94.0511 90.9052Z" fill="#9895A2" fill-opacity="0.05"/>
</g>
<g style="mix-blend-mode:multiply" opacity="0.48">
<path d="M93.9922 90.9052C93.957 96.215 81.2824 100.435 65.6811 100.33C50.0798 100.224 37.4591 95.8401 37.4942 90.5373C37.5294 85.2346 50.2063 81.012 65.8076 81.1151C81.409 81.2182 94.0273 85.5978 93.9922 90.9052Z" fill="#9895A2" fill-opacity="0.05"/>
</g>
<g style="mix-blend-mode:multiply" opacity="0.48">
<path d="M93.9309 90.9056C93.8958 96.1943 81.2962 100.4 65.7862 100.297C50.2763 100.194 37.7282 95.8217 37.7657 90.5377C37.8032 85.2537 50.4005 81.0452 65.9128 81.1483C81.4251 81.2514 93.9661 85.6169 93.9309 90.9056Z" fill="#9895A2" fill-opacity="0.05"/>
</g>
<g style="mix-blend-mode:multiply" opacity="0.48">
<path d="M93.8753 90.903C93.8402 96.1753 81.3132 100.365 65.8946 100.262C50.4761 100.159 38.01 95.8098 38.0381 90.5328C38.0663 85.2558 50.6003 81.0778 66.0212 81.1785C81.4421 81.2793 93.9081 85.6354 93.8753 90.903Z" fill="#9895A2" fill-opacity="0.05"/>
</g>
<g style="mix-blend-mode:multiply" opacity="0.49">
<path d="M93.8139 90.9026C93.7787 96.1562 81.3244 100.33 65.9972 100.229C50.6701 100.128 38.2696 95.7883 38.3048 90.5371C38.3399 85.2859 50.7943 81.1149 66.1238 81.2157C81.4533 81.3164 93.849 85.6538 93.8139 90.9026Z" fill="#9895A2" fill-opacity="0.05"/>
</g>
<g style="mix-blend-mode:multiply" opacity="0.49">
<path d="M93.7554 90.903C93.7202 96.1355 81.3362 100.297 66.1051 100.196C50.874 100.096 38.5391 95.77 38.5743 90.5375C38.6094 85.305 50.9935 81.1481 66.2246 81.2489C81.4557 81.3496 93.7882 85.6729 93.7554 90.903Z" fill="#9895A2" fill-opacity="0.05"/>
</g>
<g style="mix-blend-mode:multiply" opacity="0.49">
<path d="M93.6945 90.9025C93.6617 96.1162 81.355 100.261 66.2082 100.161C51.0615 100.06 38.8087 95.753 38.8438 90.5369C38.879 85.3209 51.1857 81.1803 66.3324 81.2811C81.4792 81.3819 93.7296 85.6911 93.6945 90.9025Z" fill="#9895A2" fill-opacity="0.05"/>
</g>
<g style="mix-blend-mode:multiply" opacity="0.5">
<path d="M93.6407 90.9024C93.6055 96.0974 81.3738 100.226 66.3184 100.128C51.2631 100.029 39.0782 95.7342 39.1134 90.5368C39.1485 85.3395 51.3802 81.2178 66.4379 81.3162C81.4956 81.4146 93.6711 85.7098 93.6407 90.9024Z" fill="#9895A2" fill-opacity="0.05"/>
</g>
<g style="mix-blend-mode:multiply" opacity="0.5">
<path d="M93.5774 90.9028C93.5423 96.0767 81.3926 100.194 66.4192 100.093C51.4459 99.9922 39.3477 95.7182 39.3829 90.5372C39.418 85.3563 51.5678 81.251 66.5434 81.3494C81.5191 81.4478 93.6103 85.7289 93.5774 90.9028Z" fill="#9895A2" fill-opacity="0.05"/>
</g>
<g style="mix-blend-mode:multiply" opacity="0.5">
<path d="M93.5189 90.9004C93.4838 96.0556 81.3997 100.159 66.5247 100.06C51.6498 99.9618 39.6196 95.6924 39.6524 90.5372C39.6852 85.3821 51.774 81.2908 66.6489 81.3986C81.5238 81.5064 93.5517 85.7476 93.5189 90.9004Z" fill="#9895A2" fill-opacity="0.05"/>
</g>
<g style="mix-blend-mode:multiply" opacity="0.51">
<path d="M93.458 90.9009C93.4252 96.0396 81.4138 100.124 66.6302 100.025C51.8467 99.9271 39.8891 95.6928 39.9219 90.5377C39.9547 85.3825 51.9686 81.3194 66.7544 81.4178C81.5403 81.5162 93.4932 85.7668 93.458 90.9009Z" fill="#9895A2" fill-opacity="0.05"/>
</g>
<g style="mix-blend-mode:multiply" opacity="0.51">
<path d="M93.4065 90.9003C93.3713 96.0203 81.4348 100.091 66.7427 99.9921C52.0505 99.8937 40.1656 95.6665 40.2008 90.5488C40.2359 85.4312 52.1654 81.3633 66.8575 81.4617C81.5497 81.5601 93.4322 85.785 93.4065 90.9003Z" fill="#9895A2" fill-opacity="0.05"/>
</g>
<g style="mix-blend-mode:multiply" opacity="0.51">
<path d="M93.3406 90.8999C93.3055 95.9988 81.4416 100.055 66.8409 99.9589C52.2401 99.8628 40.4278 95.6497 40.463 90.5484C40.4981 85.4472 52.3596 81.4098 66.9627 81.4965C81.5658 81.5832 93.3734 85.8034 93.3406 90.8999Z" fill="#9895A2" fill-opacity="0.05"/>
</g>
<g style="mix-blend-mode:multiply" opacity="0.52">
<path d="M93.2797 90.9002C93.2469 95.9804 81.4581 100.02 66.9464 99.9241C52.4346 99.828 40.702 95.6313 40.7325 90.5511C40.7629 85.4709 52.5565 81.4359 67.0682 81.532C81.5799 81.628 93.3149 85.8224 93.2797 90.9002Z" fill="#9895A2" fill-opacity="0.05"/>
</g>
<g style="mix-blend-mode:multiply" opacity="0.52">
<path d="M93.2212 90.9003C93.1884 95.9617 81.4722 99.985 67.0519 99.8913C52.6316 99.7976 40.9692 95.6149 41.002 90.5535C41.0348 85.4921 52.7534 81.471 67.1737 81.5671C81.5941 81.6632 93.254 85.8506 93.2212 90.9003Z" fill="#9895A2" fill-opacity="0.05"/>
</g>
<g style="mix-blend-mode:multiply" opacity="0.52">
<path d="M93.1723 90.8979C93.1395 95.9406 81.4959 99.9522 67.1623 99.8562C52.8286 99.7601 41.2436 95.5961 41.2764 90.5558C41.3092 85.5155 52.9528 81.5062 67.2865 81.6023C81.6201 81.6984 93.1957 85.8506 93.1723 90.8979Z" fill="#9895A2" fill-opacity="0.05"/>
</g>
<g style="mix-blend-mode:multiply" opacity="0.53">
<path d="M93.1042 90.8976C93.069 95.9262 81.5004 99.9097 67.2629 99.823C53.0253 99.7363 41.5083 95.5794 41.5411 90.5555C41.5739 85.5316 53.1448 81.541 67.3964 81.6324C81.6481 81.7238 93.137 85.8784 93.1042 90.8976Z" fill="#9895A2" fill-opacity="0.05"/>
</g>
<g style="mix-blend-mode:multiply" opacity="0.53">
<path d="M93.0433 90.8979C93.0105 95.903 81.5169 99.8819 67.3684 99.7881C53.2199 99.6944 41.7778 95.5703 41.8106 90.5581C41.8434 85.5459 53.3394 81.5788 67.4879 81.6725C81.6364 81.7663 93.0761 85.8974 93.0433 90.8979Z" fill="#9895A2" fill-opacity="0.05"/>
</g>
<g style="mix-blend-mode:multiply" opacity="0.54">
<path d="M92.9848 90.8979C92.952 95.882 81.531 99.8491 67.4738 99.7554C53.4167 99.6616 42.0473 95.5445 42.0895 90.5605C42.1317 85.5764 53.5456 81.614 67.6027 81.7077C81.6599 81.8014 93.0176 85.9161 92.9848 90.8979Z" fill="#9895A2" fill-opacity="0.05"/>
</g>
<g style="mix-blend-mode:multiply" opacity="0.54">
<path d="M92.9376 90.8986C92.9048 95.8639 81.5564 99.8146 67.5907 99.7209C53.625 99.6272 42.3235 95.5288 42.3516 90.5635C42.3797 85.5982 53.7328 81.6592 67.6985 81.7435C81.6642 81.8279 92.9587 85.9356 92.9376 90.8986Z" fill="#9895A2" fill-opacity="0.05"/>
</g>
<g style="mix-blend-mode:multiply" opacity="0.54">
<path d="M92.8674 90.8978C92.8323 95.8444 81.5589 99.7787 67.6846 99.6873C53.8102 99.596 42.5884 95.5117 42.6119 90.5628C42.6353 85.6138 53.918 81.6865 67.7947 81.7779C81.6714 81.8693 92.8979 85.9536 92.8674 90.8978Z" fill="#9895A2" fill-opacity="0.05"/>
</g>
<g style="mix-blend-mode:multiply" opacity="0.55">
<path d="M92.8065 90.8955C92.7737 95.8163 81.5753 99.7459 67.79 99.6546C54.0047 99.5632 42.8579 95.493 42.8907 90.5651C42.9235 85.6373 54.1242 81.7217 67.9095 81.8131C81.6948 81.9045 92.8393 85.9724 92.8065 90.8955Z" fill="#9895A2" fill-opacity="0.05"/>
</g>
<g style="mix-blend-mode:multiply" opacity="0.55">
<path d="M92.748 90.8955C92.7152 95.8163 81.5894 99.7108 67.8955 99.6194C54.2016 99.528 43.1274 95.4766 43.1602 90.5675C43.193 85.6584 54.3188 81.7569 68.015 81.8483C81.7113 81.9396 92.7808 85.9911 92.748 90.8955Z" fill="#9895A2" fill-opacity="0.05"/>
</g>
<g style="mix-blend-mode:multiply" opacity="0.55">
<path d="M92.6894 90.8955C92.6566 95.7859 81.6035 99.6757 68.001 99.5866C54.3985 99.4976 43.397 95.4578 43.4298 90.5698C43.4626 85.6818 54.5086 81.792 68.1182 81.8834C81.7277 81.9748 92.7222 86.0099 92.6894 90.8955Z" fill="#9895A2" fill-opacity="0.05"/>
</g>
<g style="mix-blend-mode:multiply" opacity="0.56">
<path d="M92.6286 90.8955C92.5981 95.7647 81.6153 99.6428 68.1065 99.5514C54.5977 99.46 43.6665 95.4414 43.6993 90.5698C43.7321 85.6982 54.7125 81.8295 68.2237 81.9185C81.7348 82.0075 92.6614 86.0286 92.6286 90.8955Z" fill="#9895A2" fill-opacity="0.05"/>
</g>
<g style="mix-blend-mode:multiply" opacity="0.56">
<path d="M92.5698 90.8954C92.537 95.7459 81.6339 99.6076 68.2118 99.5186C54.7897 99.4295 43.9358 95.4249 43.9639 90.572C43.992 85.7192 54.9069 81.8669 68.3337 81.9536C81.7605 82.0403 92.6026 86.0472 92.5698 90.8954Z" fill="#9895A2" fill-opacity="0.05"/>
</g>
<g style="mix-blend-mode:multiply" opacity="0.56">
<path d="M92.5115 90.8932C92.4787 95.7273 81.6482 99.5632 68.3175 99.4835C54.9868 99.4039 44.2079 95.4063 44.2383 90.5792C44.2688 85.7521 55.104 81.9092 68.4347 81.9936C81.7654 82.0779 92.5443 86.0661 92.5115 90.8932Z" fill="#9895A2" fill-opacity="0.05"/>
</g>
<g style="mix-blend-mode:multiply" opacity="0.57">
<path d="M92.4526 90.8931C92.4198 95.7085 81.662 99.5373 68.4227 99.4506C55.1833 99.3639 44.477 95.3898 44.5098 90.5767C44.5426 85.7637 55.2888 81.9372 68.5398 82.0239C81.7909 82.1106 92.4831 86.0848 92.4526 90.8931Z" fill="#9895A2" fill-opacity="0.05"/>
</g>
<g style="mix-blend-mode:multiply" opacity="0.57">
<path d="M92.3918 90.8931C92.3613 95.6874 81.6761 99.5045 68.5282 99.4178C55.3802 99.3311 44.7466 95.371 44.7794 90.5768C44.8122 85.7825 55.495 81.9724 68.6453 82.0591C81.7956 82.1458 92.4246 86.1035 92.3918 90.8931Z" fill="#9895A2" fill-opacity="0.05"/>
</g>
<g style="mix-blend-mode:multiply" opacity="0.57">
<path d="M92.3332 90.8932C92.3028 95.6687 81.6926 99.4694 68.6337 99.3827C55.5748 99.296 45.0161 95.3547 45.0489 90.5792C45.0817 85.8036 55.6802 82.0076 68.7485 82.1013C81.8168 82.195 92.366 86.1223 92.3332 90.8932Z" fill="#9895A2" fill-opacity="0.05"/>
</g>
<g style="mix-blend-mode:multiply" opacity="0.58">
<path d="M92.2747 90.8931C92.2419 95.6499 81.7066 99.4342 68.7391 99.3499C55.7716 99.2655 45.2856 95.3383 45.3067 90.5815C45.3278 85.8247 55.8747 82.0427 68.8422 82.1294C81.8097 82.2161 92.3051 86.141 92.2747 90.8931Z" fill="#9895A2" fill-opacity="0.05"/>
</g>
<g style="mix-blend-mode:multiply" opacity="0.58">
<path d="M92.2162 90.8931C92.1834 95.6288 81.7208 99.4014 68.8447 99.3147C55.9685 99.228 45.5552 95.3195 45.588 90.5838C45.6208 85.8481 56.0834 82.0801 68.9595 82.1645C81.8356 82.2488 92.2467 86.1597 92.2162 90.8931Z" fill="#9895A2" fill-opacity="0.05"/>
</g>
<g style="mix-blend-mode:multiply" opacity="0.58">
<path d="M92.1555 90.8907C92.125 95.61 81.7351 99.3662 68.9574 99.2819C56.1797 99.1975 45.8319 95.2984 45.8624 90.5838C45.8928 85.8692 56.2828 82.1153 69.0605 82.1996C81.8382 82.284 92.1883 86.1785 92.1555 90.8907Z" fill="#9895A2" fill-opacity="0.05"/>
</g>
<g style="mix-blend-mode:multiply" opacity="0.59">
<path d="M92.0968 90.8913C92.0663 95.5919 81.7514 99.327 69.058 99.2473C56.3647 99.1677 46.0942 95.2873 46.127 90.5773C46.1598 85.8674 56.4748 82.1417 69.1705 82.226C81.8662 82.3104 92.1273 86.1978 92.0968 90.8913Z" fill="#9895A2" fill-opacity="0.05"/>
</g>
<g style="mix-blend-mode:multiply" opacity="0.59">
<path d="M92.0383 90.8907C92.0055 95.5772 81.7655 99.2983 69.1635 99.2139C56.5615 99.1295 46.3661 95.2679 46.3966 90.5884C46.427 85.9089 56.6693 82.1879 69.2736 82.2699C81.878 82.3519 92.0687 86.2159 92.0383 90.8907Z" fill="#9895A2" fill-opacity="0.05"/>
</g>
<g style="mix-blend-mode:multiply" opacity="0.59">
<path d="M91.977 90.8907C91.9466 95.5514 81.7792 99.2631 69.2686 99.1788C56.7581 99.0944 46.6352 95.2515 46.668 90.5908C46.7009 85.93 56.8658 82.223 69.3788 82.305C81.8917 82.3871 92.0005 86.2347 91.977 90.8907Z" fill="#9895A2" fill-opacity="0.05"/>
</g>
<g style="mix-blend-mode:multiply" opacity="0.6">
<path d="M91.9185 90.8913C91.888 95.5333 81.7933 99.2286 69.3741 99.1466C56.955 99.0646 46.9048 95.2334 46.9376 90.5937C46.9704 85.9541 57.0627 82.2588 69.4843 82.3362C81.9058 82.4135 91.949 86.2541 91.9185 90.8913Z" fill="#9895A2" fill-opacity="0.05"/>
</g>
<g style="mix-blend-mode:multiply" opacity="0.6">
<path d="M91.86 90.8907C91.8295 95.5116 81.8098 99.1952 69.4796 99.1132C57.1495 99.0311 47.1766 95.2234 47.2071 90.5931C47.2376 85.9629 57.2573 82.2934 69.5898 82.3754C81.9223 82.4574 91.8904 86.2722 91.86 90.8907Z" fill="#9895A2" fill-opacity="0.05"/>
</g>
<g style="mix-blend-mode:multiply" opacity="0.6">
<path d="M91.8011 90.8883C91.7706 95.4928 81.8235 99.16 69.5848 99.0897C57.346 99.0194 47.4458 95.1999 47.4786 90.5954C47.5114 85.9909 57.4561 82.3308 69.6972 82.4105C81.9384 82.4901 91.8315 86.2909 91.8011 90.8883Z" fill="#9895A2" fill-opacity="0.05"/>
</g>
<g style="mix-blend-mode:multiply" opacity="0.61">
<path d="M91.7406 90.889C91.7101 95.4747 81.838 99.1255 69.6907 99.0458C57.5433 98.9661 47.7157 95.1818 47.7462 90.6101C47.7766 86.0385 57.6487 82.3783 69.8008 82.4603C81.9529 82.5423 91.7664 86.3197 91.7406 90.889Z" fill="#9895A2" fill-opacity="0.05"/>
</g>
<g style="mix-blend-mode:multiply" opacity="0.61">
<path d="M91.6821 90.8891C91.6516 95.4537 81.8521 99.0904 69.7962 99.0108C57.7402 98.9311 47.9852 95.1655 48.0157 90.6009C48.0462 86.0362 57.8456 82.3995 69.9039 82.4839C81.9623 82.5682 91.7125 86.3198 91.6821 90.8891Z" fill="#9895A2" fill-opacity="0.05"/>
</g>
<g style="mix-blend-mode:multiply" opacity="0.61">
<path d="M91.6235 90.8889C91.5931 95.4348 81.8686 99.0575 69.9017 98.9778C57.9347 98.8982 48.2548 95.149 48.2852 90.6007C48.3157 86.0525 58.0425 82.4392 70.0094 82.5189C81.9764 82.5985 91.654 86.3454 91.6235 90.8889Z" fill="#9895A2" fill-opacity="0.05"/>
</g>
<g style="mix-blend-mode:multiply" opacity="0.62">
<path d="M91.565 90.889C91.5346 95.4161 81.8827 99.0224 70.0072 98.9427C58.1316 98.863 48.5243 95.1302 48.5548 90.6031C48.5852 86.0759 58.237 82.4744 70.1126 82.554C81.9882 82.6337 91.5931 86.3641 91.565 90.889Z" fill="#9895A2" fill-opacity="0.05"/>
</g>
<g style="mix-blend-mode:multiply" opacity="0.62">
<path d="M91.5037 90.889C91.4756 95.3974 81.8964 98.9872 70.1122 98.9099C58.328 98.8326 48.7887 95.1138 48.8238 90.6054C48.859 86.097 58.4311 82.5095 70.22 82.5892C82.0089 82.6689 91.5318 86.3829 91.5037 90.889Z" fill="#9895A2" fill-opacity="0.05"/>
</g>
<g style="mix-blend-mode:multiply" opacity="0.62">
<path d="M91.4452 90.8866C91.4148 95.3762 81.9106 98.9544 70.2178 98.877C58.525 98.7997 49.0653 95.095 49.0958 90.6077C49.1262 86.1204 58.6281 82.547 70.3256 82.6243C82.0231 82.7016 91.4757 86.4016 91.4452 90.8866Z" fill="#9895A2" fill-opacity="0.05"/>
</g>
<g style="mix-blend-mode:multiply" opacity="0.63">
<path d="M91.3867 90.8866C91.3563 95.3575 81.927 98.9192 70.3233 98.8536C58.7195 98.788 49.3348 95.0904 49.3653 90.6194C49.3958 86.1485 58.825 82.5938 70.4311 82.6712C82.0372 82.7485 91.4148 86.4204 91.3867 90.8866Z" fill="#9895A2" fill-opacity="0.05"/>
</g>
<g style="mix-blend-mode:multiply" opacity="0.63">
<path d="M91.3282 90.886C91.2977 95.3382 81.9412 98.8835 70.4288 98.8085C58.9164 98.7335 49.6044 95.0593 49.6348 90.6071C49.6653 86.155 59.0219 82.6143 70.5342 82.6917C82.0466 82.769 91.3563 86.4385 91.3282 90.886Z" fill="#9895A2" fill-opacity="0.05"/>
</g>
<g style="mix-blend-mode:multiply" opacity="0.63">
<path d="M91.2668 90.8859C91.2387 95.3169 81.9547 98.8529 70.5338 98.7732C59.1128 98.6936 49.8734 95.0428 49.9132 90.6117C49.953 86.1806 59.2253 82.6447 70.6486 82.729C82.0719 82.8134 91.2973 86.4571 91.2668 90.8859Z" fill="#9895A2" fill-opacity="0.05"/>
</g>
<g style="mix-blend-mode:multiply" opacity="0.64">
<path d="M91.2083 90.8865C91.1779 95.2989 81.9689 98.8161 70.6393 98.7411C59.3097 98.6661 50.143 95.027 50.1734 90.6147C50.2039 86.2024 59.4128 82.6899 70.7448 82.7649C82.0767 82.8398 91.2364 86.4765 91.2083 90.8865Z" fill="#9895A2" fill-opacity="0.05"/>
</g>
<g style="mix-blend-mode:multiply" opacity="0.64">
<path d="M91.1503 90.8866C91.1198 95.2801 81.9858 98.7809 70.7453 98.706C59.5048 98.631 50.4153 95.0083 50.4434 90.6147C50.4715 86.2212 59.6079 82.725 70.8507 82.8C82.0936 82.875 91.1784 86.4953 91.1503 90.8866Z" fill="#9895A2" fill-opacity="0.05"/>
</g>
<g style="mix-blend-mode:multiply" opacity="0.64">
<path d="M91.0889 90.8842C91.0608 95.2591 81.9995 98.7481 70.8503 98.6732C59.7012 98.5982 50.6843 94.9896 50.7125 90.6171C50.7406 86.2446 59.8043 82.7602 70.9558 82.8352C82.1073 82.9102 91.1194 86.5141 91.0889 90.8842Z" fill="#9895A2" fill-opacity="0.05"/>
</g>
<g style="mix-blend-mode:multiply" opacity="0.65">
<path d="M91.031 90.8841C91.0028 95.2402 82.0141 98.7129 70.9564 98.638C59.8986 98.563 50.9544 94.9755 50.9943 90.6194C51.0341 86.2633 60.0134 82.7976 71.0735 82.8703C82.1337 82.9429 91.0638 86.5327 91.031 90.8841Z" fill="#9895A2" fill-opacity="0.05"/>
</g>
<g style="mix-blend-mode:multiply" opacity="0.65">
<path d="M90.972 90.8842C90.9438 95.2215 82.0301 98.6778 71.0544 98.6052C60.0786 98.5325 51.2282 94.9567 51.254 90.6217C51.2797 86.2867 60.1958 82.8328 71.1715 82.9054C82.1473 82.9781 91.0001 86.5539 90.972 90.8842Z" fill="#9895A2" fill-opacity="0.05"/>
</g>
<g style="mix-blend-mode:multiply" opacity="0.66">
<path d="M90.9135 90.8842C90.883 95.2004 82.0443 98.6427 71.167 98.5724C60.2896 98.5021 51.4837 94.9403 51.5236 90.6217C51.5634 86.3031 60.3927 82.8679 71.2701 82.9406C82.1474 83.0132 90.9416 86.5703 90.9135 90.8842Z" fill="#9895A2" fill-opacity="0.05"/>
</g>
<g style="mix-blend-mode:multiply" opacity="0.66">
<path d="M90.8526 90.8846C90.8245 95.1821 82.0584 98.6173 71.2724 98.5376C60.4865 98.458 51.7626 94.9243 51.793 90.6245C51.8235 86.3246 60.5872 82.8918 71.3755 82.9761C82.1638 83.0605 90.8807 86.5894 90.8526 90.8846Z" fill="#9895A2" fill-opacity="0.05"/>
</g>
<g style="mix-blend-mode:multiply" opacity="0.66">
<path d="M90.7937 90.8841C90.7655 95.1629 82.0721 98.5747 71.3799 98.5044C60.6877 98.4341 52.0364 94.9051 52.0645 90.6264C52.0926 86.3476 60.7861 82.9405 71.483 83.0108C82.1799 83.0811 90.8288 86.6077 90.7937 90.8841Z" fill="#9895A2" fill-opacity="0.05"/>
</g>
<g style="mix-blend-mode:multiply" opacity="0.67">
<path d="M90.7355 90.8818C90.7074 95.1418 82.089 98.5395 71.4834 98.4692C60.8779 98.3989 52.304 94.8888 52.3321 90.6287C52.3602 86.3687 60.981 82.9757 71.5865 83.046C82.1921 83.1163 90.7637 86.6265 90.7355 90.8818Z" fill="#9895A2" fill-opacity="0.05"/>
</g>
<g style="mix-blend-mode:multiply" opacity="0.67">
<path d="M90.6769 90.8818C90.6464 95.1231 82.1029 98.5067 71.5888 98.4364C61.0747 98.3661 52.5734 94.87 52.6085 90.6288C52.6437 86.3875 61.1824 83.0109 71.6989 83.0812C82.2154 83.1515 90.705 86.6452 90.6769 90.8818Z" fill="#9895A2" fill-opacity="0.05"/>
</g>
<g style="mix-blend-mode:multiply" opacity="0.67">
<path d="M90.6156 90.8817C90.5874 95.0996 82.1166 98.4715 71.6938 98.4012C61.2711 98.3309 52.8424 94.8536 52.8682 90.631C52.894 86.4085 61.3695 83.0483 71.7923 83.1162C82.215 83.1842 90.6437 86.6639 90.6156 90.8817Z" fill="#9895A2" fill-opacity="0.05"/>
</g>
<g style="mix-blend-mode:multiply" opacity="0.68">
<path d="M90.5571 90.8814C90.529 95.0852 82.1215 98.436 71.8112 98.368C61.5009 98.3001 53.1238 94.8368 53.1519 90.6353C53.18 86.4339 61.5876 83.0854 71.9119 83.1534C82.2363 83.2213 90.5946 86.6823 90.5571 90.8814Z" fill="#9895A2" fill-opacity="0.05"/>
</g>
<g style="mix-blend-mode:multiply" opacity="0.68">
<path d="M90.4987 90.8818C90.4706 95.0645 82.1473 98.4036 71.905 98.3357C61.6627 98.2677 53.3934 94.8208 53.4121 90.6357C53.4309 86.4507 61.7635 83.1186 72.0058 83.1866C82.2481 83.2545 90.5268 86.7014 90.4987 90.8818Z" fill="#9895A2" fill-opacity="0.05"/>
</g>
<g style="mix-blend-mode:multiply" opacity="0.68">
<path d="M90.4378 90.8818C90.4121 95.0457 82.1615 98.3685 72.0106 98.3005C61.8596 98.2325 53.6536 94.802 53.6817 90.6357C53.7098 86.4695 61.9581 83.1538 72.1113 83.2217C82.2646 83.2897 90.466 86.7202 90.4378 90.8818Z" fill="#9895A2" fill-opacity="0.05"/>
</g>
<g style="mix-blend-mode:multiply" opacity="0.69">
<path d="M90.3793 90.8794C90.3512 95.0269 82.178 98.3333 72.1161 98.2676C62.0542 98.202 53.9231 94.7856 53.9512 90.638C53.9794 86.4905 62.1526 83.1912 72.2168 83.2568C82.2811 83.3224 90.4074 86.7389 90.3793 90.8794Z" fill="#9895A2" fill-opacity="0.05"/>
</g>
<g style="mix-blend-mode:multiply" opacity="0.69">
<path d="M90.3208 90.8794C90.2927 95.0059 82.1897 98.2981 72.2216 98.2325C62.2534 98.1669 54.1927 94.7668 54.2208 90.6404C54.2489 86.5139 62.3518 83.2264 72.3223 83.292C82.2929 83.3576 90.3606 86.7576 90.3208 90.8794Z" fill="#9895A2" fill-opacity="0.05"/>
</g>
<g style="mix-blend-mode:multiply" opacity="0.69">
<path d="M90.2618 90.8794C90.2337 94.9895 82.2057 98.27 72.3172 98.1997C62.4287 98.1294 54.4617 94.7552 54.4898 90.6428C54.5179 86.5304 62.5459 83.2615 72.425 83.3271C82.3041 83.3928 90.2876 86.7881 90.2618 90.8794Z" fill="#9895A2" fill-opacity="0.05"/>
</g>
<g style="mix-blend-mode:multiply" opacity="0.7">
<path d="M90.2014 90.8794C90.1756 94.9683 82.2203 98.2301 72.4325 98.1645C62.6448 98.0989 54.7434 94.7317 54.7598 90.645C54.7762 86.5584 62.7432 83.299 72.531 83.3622C82.3187 83.4255 90.2295 86.7881 90.2014 90.8794Z" fill="#9895A2" fill-opacity="0.05"/>
</g>
<g style="mix-blend-mode:multiply" opacity="0.7">
<path d="M90.1424 90.8794C90.1166 94.9472 82.2339 98.195 72.5376 98.1317C62.8412 98.0684 55.0031 94.7153 55.0289 90.645C55.0546 86.5748 62.9373 83.3341 72.636 83.3974C82.3347 83.4607 90.1705 86.8138 90.1424 90.8794Z" fill="#9895A2" fill-opacity="0.05"/>
</g>
<g style="mix-blend-mode:multiply" opacity="0.7">
<path d="M90.0836 90.877C90.0555 94.9285 82.2478 98.1622 72.6428 98.0966C63.0379 98.031 55.2724 94.6989 55.3028 90.6474C55.3333 86.5959 63.1386 83.3693 72.7459 83.4326C82.3532 83.4958 90.1094 86.8326 90.0836 90.877Z" fill="#9895A2" fill-opacity="0.05"/>
</g>
<g style="mix-blend-mode:multiply" opacity="0.71">
<path d="M90.0249 90.8767C89.9967 94.9094 82.264 98.1267 72.7481 98.0634C63.2322 98.0001 55.5417 94.6797 55.5674 90.6494C55.5932 86.619 63.3306 83.4064 72.8465 83.4697C82.3625 83.5329 90.0506 86.851 90.0249 90.8767Z" fill="#9895A2" fill-opacity="0.05"/>
</g>
<g style="mix-blend-mode:multiply" opacity="0.71">
<path d="M89.9643 90.8767C89.9385 94.8883 82.2785 98.0915 72.8586 98.0306C63.4388 97.9697 55.8162 94.6634 55.8443 90.6517C55.8724 86.6401 63.5302 83.4416 72.95 83.5048C82.3698 83.5681 89.9924 86.8697 89.9643 90.8767Z" fill="#9895A2" fill-opacity="0.05"/>
</g>
</g>
<path d="M120 49.0416C120 75.0065 98.9524 96.0519 72.9898 96.0519C47.0272 96.0519 25.9795 75.0065 25.9795 49.0416C25.9795 23.0766 47.0272 2.03125 72.9991 2.03125C98.9711 2.03125 120 23.0789 120 49.0416Z" fill="url(#paint0_linear)"/>
<path d="M119.999 48.8754C120.043 55.0549 118.859 61.182 116.517 66.9037C114.174 72.6254 110.718 77.8287 106.349 82.2138C101.979 86.599 96.7821 90.0793 91.0569 92.4542C85.3316 94.8292 79.1914 96.0519 72.9898 96.0519C66.7883 96.0519 60.648 94.8292 54.9227 92.4542C49.1975 90.0793 44.0004 86.599 39.6308 82.2138C35.2612 77.8287 31.8056 72.6254 29.4628 66.9037C27.1201 61.182 25.9367 55.0549 25.9807 48.8754C25.9807 23.0028 47.0361 2.03125 72.9886 2.03125C98.9412 2.03125 119.999 23.0028 119.999 48.8754Z" fill="url(#paint1_radial)"/>
<path style="mix-blend-mode:multiply" d="M67.2955 99.6448C92.82 95.6615 110.283 71.7406 106.299 46.2161C102.316 20.6916 78.3951 3.22898 52.8705 7.21233C27.346 11.1957 9.88343 35.1165 13.8668 60.641C17.8501 86.1656 41.771 103.628 67.2955 99.6448Z" fill="url(#paint2_radial)" fill-opacity="0.7"/>
<path style="mix-blend-mode:screen" d="M51.0619 11.4716C54.5767 2.83206 69.4024 0.692677 84.1719 6.70779C98.9414 12.7229 108.073 24.5914 104.558 33.2333C101.043 41.8752 86.2199 44.0122 71.4481 37.9971C56.6763 31.982 47.547 20.1111 51.0619 11.4716Z" fill="url(#paint3_radial)"/>
<path style="mix-blend-mode:screen" d="M75.2719 11.057C76.577 7.05237 82.3274 5.33712 88.1152 7.22343C93.903 9.10974 97.5374 13.8829 96.2322 17.8875C94.927 21.8921 89.1884 23.6074 83.3889 21.7211C77.5893 19.8348 73.9573 15.0592 75.2719 11.057Z" fill="url(#paint4_radial)"/>
<path style="mix-blend-mode:screen" d="M80.519 20.3549C82.5084 14.2507 91.2769 11.6357 100.102 14.5108C108.926 17.386 114.468 24.6664 112.479 30.7706C110.489 36.8747 101.721 39.4921 92.8961 36.6146C84.0714 33.7371 78.532 26.459 80.519 20.3549Z" fill="url(#paint5_radial)"/>
<path style="mix-blend-mode:screen" d="M80.519 20.3549C82.5084 14.2507 91.2769 11.6357 100.102 14.5108C108.926 17.386 114.468 24.6664 112.479 30.7706C110.489 36.8747 101.721 39.4921 92.8961 36.6146C84.0714 33.7371 78.532 26.459 80.519 20.3549Z" fill="url(#paint6_radial)"/>
<path style="mix-blend-mode:screen" d="M92.7178 23.9584C93.4208 21.7933 96.5303 20.8677 99.6562 21.887C102.782 22.9063 104.748 25.4839 104.043 27.649C103.337 29.8142 100.23 30.7374 97.1044 29.7181C93.9785 28.6988 92.0149 26.1189 92.7178 23.9584Z" fill="url(#paint7_radial)"/>
<defs>
<linearGradient id="paint0_linear" x1="72.9898" y1="92.5622" x2="72.9898" y2="-1.46076" gradientUnits="userSpaceOnUse">
<stop stop-color="#8F8E92"/>
<stop offset="0.16" stop-color="#A9A7AD"/>
<stop offset="0.53" stop-color="#C9C8CD"/>
<stop offset="0.83" stop-color="#E1E0E3"/>
<stop offset="1" stop-color="#E4E3E7"/>
</linearGradient>
<radialGradient id="paint1_radial" cx="0" cy="0" r="1" gradientUnits="userSpaceOnUse" gradientTransform="translate(75.2688 1.38437) scale(100.497 100.142)">
<stop offset="0.01" stop-color="#E2E1E4"/>
<stop offset="1" stop-color="#9895A2"/>
</radialGradient>
<radialGradient id="paint2_radial" cx="0" cy="0" r="1" gradientUnits="userSpaceOnUse" gradientTransform="translate(59.5839 53.2306) scale(51.5419)">
<stop offset="0.04" stop-color="#303030"/>
<stop offset="0.33" stop-color="#7C7C7C"/>
<stop offset="0.73" stop-color="#EDEDED"/>
<stop offset="0.81" stop-color="#F4F4F4"/>
<stop offset="0.97" stop-color="white"/>
</radialGradient>
<radialGradient id="paint3_radial" cx="0" cy="0" r="1" gradientUnits="userSpaceOnUse" gradientTransform="translate(80.0272 23.316) rotate(-157.751) scale(22.9031 13.3973)">
<stop offset="0.23" stop-color="#E6E6E6"/>
<stop offset="0.33" stop-color="#BDBDBD"/>
<stop offset="0.51" stop-color="#7A7A7A"/>
<stop offset="0.68" stop-color="#464646"/>
<stop offset="0.82" stop-color="#202020"/>
<stop offset="0.93" stop-color="#090909"/>
<stop offset="1"/>
</radialGradient>
<radialGradient id="paint4_radial" cx="0" cy="0" r="1" gradientUnits="userSpaceOnUse" gradientTransform="translate(86.2162 14.3447) rotate(-161.946) scale(8.75231 6.04804)">
<stop offset="0.13" stop-color="#E6E6E6"/>
<stop offset="0.22" stop-color="#D7D7D7"/>
<stop offset="0.39" stop-color="#B1B1B1"/>
<stop offset="0.62" stop-color="#727272"/>
<stop offset="0.91" stop-color="#1D1D1D"/>
<stop offset="1"/>
</radialGradient>
<radialGradient id="paint5_radial" cx="0" cy="0" r="1" gradientUnits="userSpaceOnUse" gradientTransform="translate(8969.37 4640.5) scale(980.086 731.028)">
<stop offset="0.13" stop-color="#E6E6E6"/>
<stop offset="0.22" stop-color="#D7D7D7"/>
<stop offset="0.39" stop-color="#B1B1B1"/>
<stop offset="0.62" stop-color="#727272"/>
<stop offset="0.91" stop-color="#1D1D1D"/>
<stop offset="1"/>
</radialGradient>
<radialGradient id="paint6_radial" cx="0" cy="0" r="1" gradientUnits="userSpaceOnUse" gradientTransform="translate(8969.37 4640.5) scale(980.086 731.028)">
<stop offset="0.13" stop-color="#E6E6E6"/>
<stop offset="0.22" stop-color="#D7D7D7"/>
<stop offset="0.39" stop-color="#B1B1B1"/>
<stop offset="0.62" stop-color="#727272"/>
<stop offset="0.91" stop-color="#1D1D1D"/>
<stop offset="1"/>
</radialGradient>
<radialGradient id="paint7_radial" cx="0" cy="0" r="1" gradientUnits="userSpaceOnUse" gradientTransform="translate(3208.48 1665.71) scale(123.076 91.7989)">
<stop offset="0.13" stop-color="#E6E6E6"/>
<stop offset="0.22" stop-color="#D7D7D7"/>
<stop offset="0.39" stop-color="#B1B1B1"/>
<stop offset="0.62" stop-color="#727272"/>
<stop offset="0.91" stop-color="#1D1D1D"/>
<stop offset="1"/>
</radialGradient>
</defs>
</svg>
