<svg width="80" height="72" viewBox="0 0 80 72" fill="none" xmlns="http://www.w3.org/2000/svg">
<g style="mix-blend-mode:multiply" opacity="0.96">
<g style="mix-blend-mode:multiply" opacity="0.01">
<path d="M68.0698 60.6401C68.0339 65.9217 52.8497 70.1021 34.1521 69.9771C15.4546 69.8521 0.323509 65.4734 0.359439 60.1917C0.395369 54.9101 15.5796 50.7313 34.2787 50.8562C52.9778 50.9812 68.1042 55.36 68.0698 60.6401Z" fill="#9895A2" fill-opacity="0.05"/>
</g>
<g style="mix-blend-mode:multiply" opacity="0.01">
<path d="M68.0293 60.64C67.9949 65.9092 52.8591 70.0786 34.2225 69.9552C15.5859 69.8318 0.504754 65.4624 0.539121 60.1932C0.573489 54.9241 15.7187 50.7562 34.349 50.8796C52.9794 51.003 68.0652 55.3724 68.0293 60.64Z" fill="#9895A2" fill-opacity="0.05"/>
</g>
<g style="mix-blend-mode:multiply" opacity="0.01">
<path d="M67.9901 60.64C67.9557 65.8967 52.8683 70.0552 34.2926 69.9318C15.717 69.8084 0.684258 65.4499 0.72175 60.1933C0.759242 54.9366 15.845 50.7797 34.4207 50.9031C52.9964 51.0265 68.0244 55.3849 67.9901 60.64Z" fill="#9895A2" fill-opacity="0.05"/>
</g>
<g style="mix-blend-mode:multiply" opacity="0.02">
<path d="M67.9512 60.64C67.9169 65.8827 52.8779 70.0318 34.3647 69.9099C15.8515 69.7881 0.864129 65.439 0.898496 60.2026C0.932864 54.9663 15.9718 50.8109 34.485 50.9343C52.9982 51.0577 67.9856 55.3974 67.9512 60.64Z" fill="#9895A2" fill-opacity="0.05"/>
</g>
<g style="mix-blend-mode:multiply" opacity="0.02">
<path d="M67.9122 60.6398C67.8763 65.8699 52.8889 70.0128 34.4335 69.8878C15.9781 69.7628 1.04382 65.4263 1.07818 60.2024C1.11255 54.9785 16.1031 50.8294 34.5585 50.9559C53.0139 51.0825 67.9466 55.4097 67.9122 60.6398Z" fill="#9895A2" fill-opacity="0.05"/>
</g>
<g style="mix-blend-mode:multiply" opacity="0.02">
<path d="M67.8715 60.6384C67.8371 65.8576 52.8982 69.9864 34.5037 69.8646C16.1092 69.7427 1.22964 65.4155 1.25932 60.1979C1.289 54.9803 16.2327 50.8515 34.6287 50.9733C53.0247 51.0952 67.9059 55.4224 67.8715 60.6384Z" fill="#9895A2" fill-opacity="0.05"/>
</g>
<g style="mix-blend-mode:multiply" opacity="0.03">
<path d="M67.832 60.6386C67.7977 65.8453 52.9071 69.9632 34.5736 69.8429C16.24 69.7226 1.40417 65.4048 1.43854 60.2028C1.4729 55.0008 16.3634 50.8798 34.6986 51.0017C53.0337 51.1235 67.8664 55.4351 67.832 60.6386Z" fill="#9895A2" fill-opacity="0.05"/>
</g>
<g style="mix-blend-mode:multiply" opacity="0.03">
<path d="M67.7935 60.6383C67.7591 65.8309 52.917 69.9409 34.6444 69.8191C16.3718 69.6972 1.58434 65.3919 1.61871 60.2024C1.65308 55.0129 16.4952 50.9013 34.7678 51.0231C53.0404 51.145 67.8279 55.4456 67.7935 60.6383Z" fill="#9895A2" fill-opacity="0.05"/>
</g>
<g style="mix-blend-mode:multiply" opacity="0.03">
<path d="M67.7524 60.6388C67.7181 65.8189 52.9275 69.918 34.7142 69.7978C16.501 69.6775 1.76354 65.3815 1.79791 60.2029C1.83228 55.0244 16.6244 50.9253 34.8377 51.0455C53.0509 51.1658 67.7868 55.4587 67.7524 60.6388Z" fill="#9895A2" fill-opacity="0.05"/>
</g>
<g style="mix-blend-mode:multiply" opacity="0.04">
<path d="M67.7138 60.6384C67.6794 65.806 52.9373 69.8942 34.785 69.774C16.6326 69.6537 1.9436 65.3702 1.97172 60.2026C1.99984 55.0349 16.7498 50.9468 34.9021 51.067C53.0544 51.1873 67.7482 55.4708 67.7138 60.6384Z" fill="#9895A2" fill-opacity="0.05"/>
</g>
<g style="mix-blend-mode:multiply" opacity="0.04">
<path d="M67.6744 60.638C67.64 65.7932 52.9463 69.872 34.8549 69.7517C16.7635 69.6314 2.12759 65.3573 2.15727 60.2022C2.18695 55.0471 16.8853 50.9682 34.9783 51.0885C53.0713 51.2088 67.7088 55.4829 67.6744 60.638Z" fill="#9895A2" fill-opacity="0.05"/>
</g>
<g style="mix-blend-mode:multiply" opacity="0.04">
<path d="M67.6354 60.6364C67.601 65.779 52.9511 69.8531 34.9253 69.7297C16.8995 69.6063 2.30261 65.3463 2.33697 60.2005C2.37134 55.0548 17.0213 50.9838 35.0487 51.1103C53.076 51.2368 67.6682 55.4953 67.6354 60.6364Z" fill="#9895A2" fill-opacity="0.05"/>
</g>
<g style="mix-blend-mode:multiply" opacity="0.05">
<path d="M67.5948 60.6372C67.562 65.7673 52.9667 69.8258 34.9956 69.7071C17.0245 69.5884 2.48385 65.333 2.51666 60.206C2.54946 55.079 17.1463 51.0189 35.119 51.1455C53.0917 51.272 67.6292 55.5164 67.5948 60.6372Z" fill="#9895A2" fill-opacity="0.05"/>
</g>
<g style="mix-blend-mode:multiply" opacity="0.05">
<path d="M67.5557 60.6366C67.5213 65.7527 52.976 69.8034 35.0627 69.6847C17.1494 69.566 2.66345 65.3231 2.69781 60.2024C2.73218 55.0816 17.2775 51.0371 35.1908 51.1559C53.1041 51.2746 67.5901 55.5159 67.5557 60.6366Z" fill="#9895A2" fill-opacity="0.05"/>
</g>
<g style="mix-blend-mode:multiply" opacity="0.05">
<path d="M67.5167 60.6372C67.4823 65.7408 52.9886 69.7806 35.1362 69.6618C17.2838 69.5431 2.84314 65.3128 2.8775 60.203C2.91187 55.0931 17.4056 51.0596 35.258 51.1783C53.1104 51.2971 67.5495 55.5337 67.5167 60.6372Z" fill="#9895A2" fill-opacity="0.05"/>
</g>
<g style="mix-blend-mode:multiply" opacity="0.06">
<path d="M67.4777 60.6372C67.4433 65.7283 52.9949 69.7571 35.2065 69.6399C17.4182 69.5228 3.02286 65.3002 3.06503 60.2029C3.10721 55.1056 17.5463 51.0846 35.3362 51.2017C53.1261 51.3189 67.5105 55.5461 67.4777 60.6372Z" fill="#9895A2" fill-opacity="0.05"/>
</g>
<g style="mix-blend-mode:multiply" opacity="0.06">
<path d="M67.4371 60.6352C67.4043 65.7138 53.0058 69.7333 35.2768 69.6161C17.5479 69.4989 3.20251 65.2889 3.23688 60.2103C3.27125 55.1317 17.6697 51.1139 35.4018 51.231C53.1339 51.3482 67.4715 55.5582 67.4371 60.6352Z" fill="#9895A2" fill-opacity="0.05"/>
</g>
<g style="mix-blend-mode:multiply" opacity="0.07">
<path d="M67.3976 60.6351C67.3648 65.7012 53.0148 69.7112 35.3467 69.5941C17.6786 69.4769 3.37704 65.2762 3.4161 60.2117C3.45515 55.1472 17.7989 51.1418 35.4686 51.2543C53.1382 51.3667 67.4257 55.5705 67.3976 60.6351Z" fill="#9895A2" fill-opacity="0.05"/>
</g>
<g style="mix-blend-mode:multiply" opacity="0.07">
<path d="M67.3591 60.6356C67.3247 65.6892 53.0246 69.6961 35.4175 69.5712C17.8104 69.4462 3.56344 65.2658 3.59625 60.2138C3.62905 55.1618 17.9307 51.1533 35.5394 51.2782C53.1481 51.4032 67.3919 55.5836 67.3591 60.6356Z" fill="#9895A2" fill-opacity="0.05"/>
</g>
<g style="mix-blend-mode:multiply" opacity="0.07">
<path d="M67.32 60.6353C67.2857 65.6748 53.0341 69.6646 35.4878 69.549C17.9416 69.4334 3.74313 65.2546 3.77594 60.2135C3.80874 55.1724 18.0619 51.1857 35.6081 51.2982C53.1544 51.4107 67.3528 55.5957 67.32 60.6353Z" fill="#9895A2" fill-opacity="0.05"/>
</g>
<g style="mix-blend-mode:multiply" opacity="0.08">
<path d="M67.279 60.6352C67.2462 65.6701 53.0446 69.6426 35.5577 69.527C18.0708 69.4114 3.92233 65.242 3.95514 60.215C3.98794 55.188 18.1911 51.2091 35.678 51.3247C53.1648 51.4403 67.3134 55.6082 67.279 60.6352Z" fill="#9895A2" fill-opacity="0.05"/>
</g>
<g style="mix-blend-mode:multiply" opacity="0.08">
<path d="M67.24 60.6352C67.2072 65.6498 53.054 69.6192 35.628 69.5036C18.2021 69.388 4.10202 65.2311 4.13482 60.2166C4.16763 55.202 18.3224 51.2326 35.7483 51.3482C53.1742 51.4638 67.2696 55.6207 67.24 60.6352Z" fill="#9895A2" fill-opacity="0.05"/>
</g>
<g style="mix-blend-mode:multiply" opacity="0.08">
<path d="M67.2009 60.6336C67.1666 65.6325 53.0634 69.5957 35.6984 69.4817C18.3334 69.3677 4.28171 65.2201 4.31451 60.2181C4.34732 55.216 18.4505 51.2575 35.8171 51.3715C53.1837 51.4856 67.2338 55.6331 67.2009 60.6336Z" fill="#9895A2" fill-opacity="0.05"/>
</g>
<g style="mix-blend-mode:multiply" opacity="0.09">
<path d="M67.1608 60.6336C67.128 65.6232 53.0732 69.5739 35.7691 69.4583C18.465 69.3427 4.46179 65.2014 4.49616 60.2181C4.53052 55.2348 18.5837 51.2809 35.8956 51.395C53.2075 51.509 67.1951 55.6456 67.1608 60.6336Z" fill="#9895A2" fill-opacity="0.05"/>
</g>
<g style="mix-blend-mode:multiply" opacity="0.09">
<path d="M67.1217 60.6339C67.0889 65.611 53.0842 69.5507 35.8394 69.4367C18.5947 69.3226 4.64303 65.197 4.67584 60.2199C4.70864 55.2429 18.715 51.2984 35.9597 51.4187C53.2044 51.539 67.1546 55.6584 67.1217 60.6339Z" fill="#9895A2" fill-opacity="0.05"/>
</g>
<g style="mix-blend-mode:multiply" opacity="0.09">
<path d="M67.0827 60.6336C67.0499 65.5981 53.0936 69.527 35.9098 69.4129C18.726 69.2989 4.82272 65.1842 4.85553 60.2212C4.88833 55.2582 18.8431 51.3293 36.0269 51.4418C53.2107 51.5543 67.114 55.6721 67.0827 60.6336Z" fill="#9895A2" fill-opacity="0.05"/>
</g>
<g style="mix-blend-mode:multiply" opacity="0.1">
<path d="M67.0437 60.6336C67.0109 65.5841 53.103 69.5051 35.9801 69.3911C18.8572 69.277 5.00241 65.1732 5.03521 60.2227C5.06802 55.2722 18.976 51.3528 36.0988 51.4653C53.2217 51.5777 67.0765 55.6831 67.0437 60.6336Z" fill="#9895A2" fill-opacity="0.05"/>
</g>
<g style="mix-blend-mode:multiply" opacity="0.1">
<path d="M67.0026 60.6336C66.9698 65.5716 53.1135 69.4817 36.0499 69.3692C18.9864 69.2567 5.18161 65.1623 5.21441 60.2228C5.24722 55.2832 19.1052 51.3762 36.1687 51.4887C53.2322 51.6012 67.0355 55.6956 67.0026 60.6336Z" fill="#9895A2" fill-opacity="0.05"/>
</g>
<g style="mix-blend-mode:multiply" opacity="0.1">
<path d="M66.9573 60.632C66.9245 65.5591 53.1165 69.4583 36.1139 69.3458C19.1114 69.2333 5.35495 65.1498 5.38775 60.2243C5.42056 55.2988 19.2301 51.3997 36.2327 51.5121C53.2352 51.6246 66.9963 55.7081 66.9573 60.632Z" fill="#9895A2" fill-opacity="0.05"/>
</g>
<g style="mix-blend-mode:multiply" opacity="0.11">
<path d="M66.9247 60.6324C66.8919 65.5455 53.1324 69.4352 36.1907 69.3243C19.249 69.2134 5.54263 65.1393 5.57231 60.2263C5.60199 55.3133 19.3662 51.4251 36.3079 51.5375C53.2495 51.65 66.9575 55.721 66.9247 60.6324Z" fill="#9895A2" fill-opacity="0.05"/>
</g>
<g style="mix-blend-mode:multiply" opacity="0.11">
<path d="M66.8855 60.6325C66.8527 65.533 53.1385 69.4134 36.2671 69.3009C19.3958 69.1884 5.72058 65.1284 5.75495 60.2279C5.78932 55.3274 19.502 51.4485 36.3733 51.561C53.2447 51.6735 66.9168 55.7335 66.8855 60.6325Z" fill="#9895A2" fill-opacity="0.05"/>
</g>
<g style="mix-blend-mode:multiply" opacity="0.11">
<path d="M66.8449 60.6322C66.8121 65.5139 53.1526 69.3896 36.339 69.2787C19.5255 69.1678 5.90964 65.1156 5.94244 60.2276C5.97525 55.3395 19.6364 51.4794 36.4562 51.5841C53.276 51.6888 66.8777 55.7457 66.8449 60.6322Z" fill="#9895A2" fill-opacity="0.05"/>
</g>
<g style="mix-blend-mode:multiply" opacity="0.12">
<path d="M66.801 60.6324C66.7682 65.5064 53.1571 69.3665 36.3967 69.2556C19.6362 69.1446 6.07663 65.1049 6.10943 60.2294C6.14224 55.3539 19.7534 51.4969 36.5138 51.6078C53.2743 51.7187 66.8385 55.7585 66.801 60.6324Z" fill="#9895A2" fill-opacity="0.05"/>
</g>
<g style="mix-blend-mode:multiply" opacity="0.12">
<path d="M66.7669 60.6318C66.7341 65.4932 53.1761 69.344 36.4719 69.2331C19.7677 69.1221 6.2612 65.0918 6.294 60.2303C6.32681 55.3689 19.8848 51.5197 36.589 51.6384C53.2932 51.7571 66.8013 55.7703 66.7669 60.6318Z" fill="#9895A2" fill-opacity="0.05"/>
</g>
<g style="mix-blend-mode:multiply" opacity="0.12">
<path d="M66.7263 60.6309C66.6951 65.4736 53.1808 69.3212 36.5422 69.2103C19.9036 69.0994 6.44089 65.0815 6.47369 60.2325C6.5065 55.3836 20.0208 51.5438 36.6594 51.6547C53.298 51.7656 66.7591 55.7835 66.7263 60.6309Z" fill="#9895A2" fill-opacity="0.05"/>
</g>
<g style="mix-blend-mode:multiply" opacity="0.13">
<path d="M66.6875 60.6309C66.6563 65.4736 53.192 69.2978 36.6127 69.1884C20.0335 69.0791 6.62235 65.0706 6.65828 60.2341C6.6942 55.3976 20.1554 51.5672 36.7346 51.6781C53.3138 51.789 66.7203 55.796 66.6875 60.6309Z" fill="#9895A2" fill-opacity="0.05"/>
</g>
<g style="mix-blend-mode:multiply" opacity="0.13">
<path d="M66.6449 60.6308C66.6121 65.4548 53.1978 69.2758 36.6795 69.1665C20.1611 69.0571 6.7984 65.058 6.82964 60.234C6.86089 55.4101 20.2814 51.5922 36.8076 51.7015C53.3337 51.8109 66.6792 55.8084 66.6449 60.6308Z" fill="#9895A2" fill-opacity="0.05"/>
</g>
<g style="mix-blend-mode:multiply" opacity="0.13">
<path d="M66.6093 60.631C66.5765 65.4425 53.2106 69.2526 36.7532 69.1433C20.2958 69.0339 6.98151 65.0473 7.01275 60.2389C7.04399 55.4306 20.4052 51.6111 36.8688 51.7251C53.3325 51.8392 66.6452 55.8289 66.6093 60.631Z" fill="#9895A2" fill-opacity="0.05"/>
</g>
<g style="mix-blend-mode:multiply" opacity="0.14">
<path d="M66.5686 60.6306C66.5374 65.4296 53.2199 69.2225 36.825 69.121C20.4301 69.0194 7.1611 65.0343 7.19391 60.2369C7.22671 55.4395 20.5426 51.645 36.9391 51.7481C53.3355 51.8512 66.6014 55.8285 66.5686 60.6306Z" fill="#9895A2" fill-opacity="0.05"/>
</g>
<g style="mix-blend-mode:multiply" opacity="0.14">
<path d="M66.5293 60.6308C66.498 65.4157 53.2306 69.2055 36.8951 69.0977C20.5595 68.9899 7.34049 65.0236 7.37017 60.2387C7.39985 55.4538 20.6704 51.664 37.006 51.7718C53.3415 51.8796 66.5605 55.8459 66.5293 60.6308Z" fill="#9895A2" fill-opacity="0.05"/>
</g>
<g style="mix-blend-mode:multiply" opacity="0.14">
<path d="M66.4891 60.6293C66.4579 65.4032 53.2388 69.1837 36.9642 69.0759C20.6896 68.9681 7.51901 65.0142 7.55182 60.2387C7.58462 55.4632 20.8021 51.6874 37.0767 51.7952C53.3513 51.903 66.5219 55.8584 66.4891 60.6293Z" fill="#9895A2" fill-opacity="0.05"/>
</g>
<g style="mix-blend-mode:multiply" opacity="0.15">
<path d="M66.4511 60.6293C66.4183 65.3907 53.2492 69.1602 37.0355 69.0525C20.8218 68.9447 7.70123 65.0002 7.73248 60.2403C7.76372 55.4804 20.9343 51.7109 37.1496 51.8187C53.3648 51.9265 66.4886 55.8709 66.4511 60.6293Z" fill="#9895A2" fill-opacity="0.05"/>
</g>
<g style="mix-blend-mode:multiply" opacity="0.15">
<path d="M66.4108 60.6293C66.3795 65.3767 53.2589 69.1368 37.1061 69.0306C20.9534 68.9244 7.8812 64.9893 7.90776 60.2419C7.93431 55.4944 21.0596 51.7343 37.2139 51.8421C53.3683 51.9499 66.442 55.8834 66.4108 60.6293Z" fill="#9895A2" fill-opacity="0.05"/>
</g>
<g style="mix-blend-mode:multiply" opacity="0.15">
<path d="M66.3715 60.6292C66.3402 65.3641 53.2696 69.1149 37.1762 69.0087C21.0828 68.9024 8.06372 64.9783 8.09184 60.2434C8.11996 55.5084 21.1953 51.7593 37.2887 51.8655C53.3821 51.9717 66.4027 55.8959 66.3715 60.6292Z" fill="#9895A2" fill-opacity="0.05"/>
</g>
<g style="mix-blend-mode:multiply" opacity="0.16">
<path d="M66.3324 60.6286C66.3012 65.3511 53.279 69.0909 37.2465 68.9847C21.2141 68.8784 8.2403 64.9652 8.27154 60.2365C8.30278 55.5079 21.3265 51.7759 37.359 51.8821C53.3915 51.9883 66.3637 55.9078 66.3324 60.6286Z" fill="#9895A2" fill-opacity="0.05"/>
</g>
<g style="mix-blend-mode:multiply" opacity="0.16">
<path d="M66.2919 60.6291C66.2606 65.3375 53.2884 69.0648 37.3169 68.9633C21.3453 68.8617 8.41687 64.9547 8.45124 60.2448C8.48561 55.5349 21.4563 51.8091 37.4294 51.9122C53.4025 52.0153 66.3231 55.9208 66.2919 60.6291Z" fill="#9895A2" fill-opacity="0.05"/>
</g>
<g style="mix-blend-mode:multiply" opacity="0.16">
<path d="M66.2529 60.6276C66.2216 65.325 53.2978 69.0461 37.3872 68.9399C21.4766 68.8337 8.59967 64.9423 8.63092 60.2465C8.66216 55.5506 21.5875 51.8311 37.4997 51.9357C53.4119 52.0404 66.2841 55.9333 66.2529 60.6276Z" fill="#9895A2" fill-opacity="0.05"/>
</g>
<g style="mix-blend-mode:multiply" opacity="0.17">
<path d="M66.2142 60.6276C66.183 65.3141 53.3092 69.0227 37.4579 68.918C21.6067 68.8134 8.78131 64.9314 8.81256 60.248C8.8438 55.5647 21.7176 51.8545 37.5704 51.9592C53.4233 52.0639 66.2455 55.9458 66.2142 60.6276Z" fill="#9895A2" fill-opacity="0.05"/>
</g>
<g style="mix-blend-mode:multiply" opacity="0.17">
<path d="M66.1763 60.6276C66.1451 65.2985 53.3197 68.9993 37.5294 68.8946C21.739 68.79 8.96051 64.9205 8.99176 60.248C9.023 55.5756 21.8484 51.878 37.6387 51.9826C53.4291 52.0873 66.2044 55.9583 66.1763 60.6276Z" fill="#9895A2" fill-opacity="0.05"/>
</g>
<g style="mix-blend-mode:multiply" opacity="0.17">
<path d="M66.1344 60.6277C66.1048 65.286 53.3247 68.9774 37.5984 68.8728C21.8721 68.7681 9.14048 64.908 9.16703 60.2496C9.19359 55.5912 21.9768 51.9014 37.7046 52.0061C53.4325 52.1107 66.1657 55.9693 66.1344 60.6277Z" fill="#9895A2" fill-opacity="0.05"/>
</g>
<g style="mix-blend-mode:multiply" opacity="0.18">
<path d="M66.0954 60.6272C66.0642 65.2731 53.3372 68.9535 37.6641 68.8489C21.9909 68.7442 9.31549 64.8966 9.34674 60.257C9.37798 55.6174 22.1049 51.9322 37.7781 52.0353C53.4513 52.1384 66.1267 55.9845 66.0954 60.6272Z" fill="#9895A2" fill-opacity="0.05"/>
</g>
<g style="mix-blend-mode:multiply" opacity="0.18">
<path d="M66.0556 60.6276C66.0244 65.261 53.3474 68.9305 37.7383 68.8274C22.1292 68.7243 9.49909 64.8892 9.53033 60.2527C9.56157 55.6162 22.2401 51.9498 37.8492 52.0529C53.4584 52.156 66.0853 55.9942 66.0556 60.6276Z" fill="#9895A2" fill-opacity="0.05"/>
</g>
<g style="mix-blend-mode:multiply" opacity="0.19">
<path d="M66.0202 60.6261C65.989 65.2469 53.3667 68.9055 37.8123 68.8055C22.2578 68.7056 9.68082 64.8736 9.7105 60.2527C9.74018 55.6318 22.364 51.9732 37.92 52.0763C53.4761 52.1794 66.0468 56.0067 66.0202 60.6261Z" fill="#9895A2" fill-opacity="0.05"/>
</g>
<g style="mix-blend-mode:multiply" opacity="0.19">
<path d="M65.9765 60.626C65.9468 65.2344 53.3667 68.8852 37.8795 68.7821C22.3922 68.679 9.86051 64.8626 9.89019 60.2542C9.91987 55.6458 22.5015 51.9982 37.9904 52.0997C53.4792 52.2013 66.0078 56.0192 65.9765 60.626Z" fill="#9895A2" fill-opacity="0.05"/>
</g>
<g style="mix-blend-mode:multiply" opacity="0.19">
<path d="M65.937 60.626C65.9073 65.2219 53.3757 68.8618 37.9493 68.7602C22.523 68.6587 10.0397 64.8548 10.0694 60.2558C10.0991 55.6568 22.6307 52.0216 38.0571 52.1232C53.4835 52.2247 65.9683 56.0317 65.937 60.626Z" fill="#9895A2" fill-opacity="0.05"/>
</g>
<g style="mix-blend-mode:multiply" opacity="0.2">
<path d="M65.8984 60.626C65.8672 65.2079 53.3871 68.8383 38.0201 68.7368C22.6531 68.6352 10.2136 64.8314 10.2511 60.2574C10.2886 55.6833 22.7624 52.0451 38.1294 52.1466C53.4964 52.2481 65.9281 56.0442 65.8984 60.626Z" fill="#9895A2" fill-opacity="0.05"/>
</g>
<g style="mix-blend-mode:multiply" opacity="0.2">
<path d="M65.8641 60.626C65.8328 65.1953 53.4011 68.8164 38.095 68.7149C22.789 68.6133 10.4073 64.8282 10.4307 60.2573C10.4541 55.6864 22.8936 52.07 38.1997 52.17C53.5058 52.27 65.8891 56.0567 65.8641 60.626Z" fill="#9895A2" fill-opacity="0.05"/>
</g>
<g style="mix-blend-mode:multiply" opacity="0.2">
<path d="M65.8188 60.6246C65.7891 65.183 53.4059 68.7932 38.1685 68.6916C22.9312 68.5901 10.587 64.8159 10.6182 60.256C10.6495 55.696 23.0312 52.0905 38.2779 52.1905C53.5246 52.2905 65.8501 56.0694 65.8188 60.6246Z" fill="#9895A2" fill-opacity="0.05"/>
</g>
<g style="mix-blend-mode:multiply" opacity="0.21">
<path d="M65.7798 60.6249C65.7501 65.1692 53.4153 68.77 38.2311 68.67C23.0468 68.5701 10.7604 64.8052 10.7901 60.2609C10.8198 55.7166 23.1546 52.1174 38.3404 52.2189C53.5262 52.3204 65.8095 56.0821 65.7798 60.6249Z" fill="#9895A2" fill-opacity="0.05"/>
</g>
<g style="mix-blend-mode:multiply" opacity="0.21">
<path d="M65.7407 60.624C65.7094 65.1543 53.4261 68.7472 38.3013 68.6473C23.1764 68.5473 10.94 64.7918 10.9634 60.2616C10.9868 55.7313 23.2779 52.1383 38.4044 52.2414C53.5308 52.3445 65.7703 56.0937 65.7407 60.624Z" fill="#9895A2" fill-opacity="0.05"/>
</g>
<g style="mix-blend-mode:multiply" opacity="0.21">
<path d="M65.708 60.6249C65.6783 65.1442 53.4435 68.7247 38.3795 68.6247C23.3156 68.5247 11.1276 64.7818 11.1573 60.2624C11.187 55.7431 23.4234 52.1657 38.4951 52.2657C53.5669 52.3657 65.7315 56.1071 65.708 60.6249Z" fill="#9895A2" fill-opacity="0.05"/>
</g>
<g style="mix-blend-mode:multiply" opacity="0.22">
<path d="M65.6612 60.6249C65.6315 65.1301 53.4451 68.7013 38.4421 68.6028C23.439 68.5044 11.2995 64.7708 11.3292 60.264C11.3588 55.7572 23.5468 52.1892 38.5498 52.2892C53.5529 52.3891 65.6909 56.1196 65.6612 60.6249Z" fill="#9895A2" fill-opacity="0.05"/>
</g>
<g style="mix-blend-mode:multiply" opacity="0.22">
<path d="M65.6222 60.6249C65.5925 65.1177 53.4545 68.6794 38.5124 68.5794C23.5703 68.4794 11.4869 64.7584 11.5088 60.2656C11.5307 55.7728 23.6765 52.2126 38.6202 52.3126C53.5638 52.4126 65.6518 56.1321 65.6222 60.6249Z" fill="#9895A2" fill-opacity="0.05"/>
</g>
<g style="mix-blend-mode:multiply" opacity="0.22">
<path d="M65.5826 60.6233C65.5529 65.1051 53.4649 68.6559 38.5822 68.5575C23.6994 68.4591 11.6567 64.7474 11.6895 60.2671C11.7223 55.7868 23.8072 52.2376 38.6899 52.336C53.5727 52.4344 65.6123 56.1414 65.5826 60.6233Z" fill="#9895A2" fill-opacity="0.05"/>
</g>
<g style="mix-blend-mode:multiply" opacity="0.23">
<path d="M65.542 60.6233C65.5123 65.0911 53.4743 68.6325 38.6525 68.5341C23.8307 68.4356 11.8395 64.7333 11.8692 60.2687C11.8989 55.804 23.9369 52.261 38.7603 52.3594C53.5836 52.4578 65.5717 56.157 65.542 60.6233Z" fill="#9895A2" fill-opacity="0.05"/>
</g>
<g style="mix-blend-mode:multiply" opacity="0.23">
<path d="M65.503 60.6233C65.4733 65.0786 53.4837 68.6091 38.7228 68.5122C23.9619 68.4153 12.0192 64.724 12.0489 60.2687C12.0786 55.8134 24.0682 52.2845 38.8384 52.3829C53.6087 52.4813 65.5327 56.1696 65.503 60.6233Z" fill="#9895A2" fill-opacity="0.05"/>
</g>
<g style="mix-blend-mode:multiply" opacity="0.23">
<path d="M65.464 60.6225C65.4343 65.0653 53.4931 68.5895 38.7932 68.488C24.0932 68.3865 12.1989 64.7122 12.2364 60.2695C12.2739 55.8267 24.2073 52.3024 38.9072 52.4055C53.6072 52.5086 65.4937 56.1813 65.464 60.6225Z" fill="#9895A2" fill-opacity="0.05"/>
</g>
<g style="mix-blend-mode:multiply" opacity="0.24">
<path d="M65.4251 60.6232C65.3955 65.0535 53.5043 68.5637 38.8684 68.4669C24.2325 68.37 12.3835 64.7005 12.4131 60.2718C12.4428 55.843 24.334 52.3328 38.9699 52.4297C53.6058 52.5265 65.4533 56.1945 65.4251 60.6232Z" fill="#9895A2" fill-opacity="0.05"/>
</g>
<g style="mix-blend-mode:multiply" opacity="0.24">
<path d="M65.3844 60.6232C65.3547 65.0395 53.5119 68.5403 38.9338 68.445C24.3557 68.3497 12.5583 64.6958 12.5879 60.2733C12.6176 55.8508 24.4604 52.3563 39.0401 52.4531C53.6197 52.55 65.4141 56.207 65.3844 60.6232Z" fill="#9895A2" fill-opacity="0.05"/>
</g>
<g style="mix-blend-mode:multiply" opacity="0.24">
<path d="M65.3454 60.6217C65.3157 65.027 53.5229 68.5184 39.0042 68.4216C24.4854 68.3247 12.738 64.6724 12.7676 60.2733C12.7973 55.8743 24.5901 52.3797 39.1104 52.4766C53.6307 52.5734 65.375 56.2195 65.3454 60.6217Z" fill="#9895A2" fill-opacity="0.05"/>
</g>
<g style="mix-blend-mode:multiply" opacity="0.25">
<path d="M65.3063 60.6211C65.2766 65.0139 53.5323 68.4944 39.0745 68.3991C24.6167 68.3038 12.9192 64.6655 12.9473 60.2758C12.9754 55.8861 24.7213 52.4056 39.1807 52.5009C53.6401 52.5962 65.3344 56.2314 65.3063 60.6211Z" fill="#9895A2" fill-opacity="0.05"/>
</g>
<g style="mix-blend-mode:multiply" opacity="0.25">
<path d="M65.2658 60.6217C65.2376 64.9957 53.5495 68.4715 39.1448 68.3762C24.7401 68.2809 13.0989 64.6552 13.127 60.2764C13.1551 55.8977 24.8526 52.4281 39.2495 52.5234C53.6464 52.6187 65.2954 56.2445 65.2658 60.6217Z" fill="#9895A2" fill-opacity="0.05"/>
</g>
<g style="mix-blend-mode:multiply" opacity="0.25">
<path d="M65.2266 60.6211C65.1985 64.9952 53.5526 68.4491 39.2151 68.3538C24.8775 68.2586 13.2832 64.6437 13.3081 60.2775C13.3331 55.9112 24.9822 52.451 39.3197 52.5479C53.6573 52.6447 65.2563 56.2565 65.2266 60.6211Z" fill="#9895A2" fill-opacity="0.05"/>
</g>
<g style="mix-blend-mode:multiply" opacity="0.26">
<path d="M65.1876 60.621C65.158 64.9748 53.562 68.4318 39.2854 68.3303C25.0088 68.2288 13.4582 64.6311 13.4879 60.2773C13.5175 55.9236 25.1135 52.4665 39.3901 52.5696C53.6667 52.6727 65.2158 56.2688 65.1876 60.621Z" fill="#9895A2" fill-opacity="0.05"/>
</g>
<g style="mix-blend-mode:multiply" opacity="0.26">
<path d="M65.1486 60.6216C65.1189 64.9613 53.5714 68.4028 39.3557 68.309C25.1401 68.2153 13.6379 64.6208 13.6675 60.2795C13.6972 55.9383 25.2479 52.4999 39.4635 52.5937C53.6792 52.6874 65.1767 56.2819 65.1486 60.6216Z" fill="#9895A2" fill-opacity="0.05"/>
</g>
<g style="mix-blend-mode:multiply" opacity="0.26">
<path d="M65.1077 60.6201C65.0796 64.9488 53.5821 68.3809 39.4258 68.2872C25.2695 68.1934 13.8188 64.6083 13.8438 60.2811C13.8688 55.9539 25.371 52.5234 39.5273 52.6171C53.6836 52.7108 65.1374 56.2976 65.1077 60.6201Z" fill="#9895A2" fill-opacity="0.05"/>
</g>
<g style="mix-blend-mode:multiply" opacity="0.27">
<path d="M65.0691 60.62C65.041 64.9363 53.5919 68.3574 39.4965 68.2637C25.4011 68.17 13.9989 64.5973 14.0333 60.2826C14.0676 55.9679 25.5058 52.5483 39.6012 52.6405C53.6966 52.7327 65.0973 56.3069 65.0691 60.62Z" fill="#9895A2" fill-opacity="0.05"/>
</g>
<g style="mix-blend-mode:multiply" opacity="0.27">
<path d="M65.0295 60.62C65.0014 64.9222 53.6007 68.334 39.5663 68.2418C25.5318 68.1497 14.178 64.5864 14.2061 60.2748C14.2342 55.9632 25.6349 52.564 39.6694 52.6561C53.7038 52.7483 65.0576 56.3194 65.0295 60.62Z" fill="#9895A2" fill-opacity="0.05"/>
</g>
<g style="mix-blend-mode:multiply" opacity="0.27">
<path d="M64.9905 60.62C64.9608 64.9097 53.6101 68.3106 39.6366 68.2184C25.663 68.1262 14.3577 64.577 14.3858 60.2842C14.4139 55.9914 25.7662 52.5952 39.7397 52.6874C53.7132 52.7795 65.0186 56.3319 64.9905 60.62Z" fill="#9895A2" fill-opacity="0.05"/>
</g>
<g style="mix-blend-mode:multiply" opacity="0.28">
<path d="M64.9499 60.62C64.9218 64.8973 53.6211 68.2887 39.7069 68.1965C25.7927 68.1044 14.5374 64.563 14.5655 60.2858C14.5936 56.0086 25.8959 52.6187 39.81 52.7108C53.7242 52.803 64.978 56.3444 64.9499 60.62Z" fill="#9895A2" fill-opacity="0.05"/>
</g>
<g style="mix-blend-mode:multiply" opacity="0.28">
<path d="M64.9109 60.6201C64.8828 64.8895 53.6305 68.2653 39.7757 68.17C25.9209 68.0747 14.7155 64.5473 14.7452 60.2842C14.7749 56.0211 26.0287 52.6421 39.8804 52.7343C53.7321 52.8264 64.939 56.3569 64.9109 60.6201Z" fill="#9895A2" fill-opacity="0.05"/>
</g>
<g style="mix-blend-mode:multiply" opacity="0.28">
<path d="M64.8723 60.6184C64.8442 64.8707 53.6403 68.2418 39.848 68.1512C26.0557 68.0606 14.8987 64.5395 14.9268 60.2873C14.9549 56.0351 26.1588 52.667 39.9511 52.7576C53.7434 52.8483 64.9004 56.3694 64.8723 60.6184Z" fill="#9895A2" fill-opacity="0.05"/>
</g>
<g style="mix-blend-mode:multiply" opacity="0.29">
<path d="M64.8328 60.6185C64.8031 64.8582 53.6508 68.2199 39.9194 68.1278C26.188 68.0356 15.081 64.5348 15.106 60.2888C15.131 56.0429 26.288 52.6905 40.0209 52.7811C53.7539 52.8717 64.8593 56.3819 64.8328 60.6185Z" fill="#9895A2" fill-opacity="0.05"/>
</g>
<g style="mix-blend-mode:multiply" opacity="0.29">
<path d="M64.7922 60.6185C64.7641 64.8457 53.6602 68.1965 39.9897 68.1059C26.3193 68.0153 15.2576 64.5129 15.2857 60.2951C15.3138 56.0773 26.4192 52.7139 40.0882 52.8045C53.7571 52.8951 64.8203 56.3944 64.7922 60.6185Z" fill="#9895A2" fill-opacity="0.05"/>
</g>
<g style="mix-blend-mode:multiply" opacity="0.29">
<path d="M64.7537 60.6184C64.7256 64.8363 53.6701 68.173 40.0606 68.084C26.451 67.995 15.4378 64.5051 15.4659 60.2919C15.494 56.0788 26.5494 52.7389 40.1605 52.8279C53.7717 52.917 64.7818 56.4068 64.7537 60.6184Z" fill="#9895A2" fill-opacity="0.05"/>
</g>
<g style="mix-blend-mode:multiply" opacity="0.3">
<path d="M64.7147 60.6184C64.6866 64.8191 53.6795 68.1512 40.1309 68.0606C26.5823 67.97 15.6174 64.4942 15.6456 60.2919C15.6737 56.0897 26.6807 52.7623 40.2309 52.8514C53.7811 52.9404 64.7412 56.4193 64.7147 60.6184Z" fill="#9895A2" fill-opacity="0.05"/>
</g>
<g style="mix-blend-mode:multiply" opacity="0.3">
<path d="M64.6737 60.6184C64.6472 64.8066 53.6902 68.1278 40.2009 68.0387C26.7116 67.9497 15.7968 64.4817 15.8311 60.2935C15.8655 56.1054 26.81 52.7858 40.3009 52.8748C53.7917 52.9638 64.7019 56.4318 64.6737 60.6184Z" fill="#9895A2" fill-opacity="0.05"/>
</g>
<g style="mix-blend-mode:multiply" opacity="0.31">
<path d="M64.6345 60.6168C64.6064 64.7925 53.6993 68.1043 40.2647 68.0152C26.8301 67.9262 15.9715 64.4707 15.9981 60.295C16.0247 56.1194 26.9332 52.8107 40.3678 52.8982C53.8024 52.9857 64.6626 56.4443 64.6345 60.6168Z" fill="#9895A2" fill-opacity="0.05"/>
</g>
<g style="mix-blend-mode:multiply" opacity="0.31">
<path d="M64.5959 60.6163C64.5678 64.7795 53.7092 68.0803 40.3417 67.9928C26.9743 67.9054 16.1579 64.4577 16.1876 60.2961C16.2172 56.1345 27.0743 52.8336 40.4433 52.9227C53.8123 53.0117 64.624 56.4532 64.5959 60.6163Z" fill="#9895A2" fill-opacity="0.05"/>
</g>
<g style="mix-blend-mode:multiply" opacity="0.31">
<path d="M64.5564 60.6172C64.5283 64.7679 53.7182 68.0593 40.4116 67.9703C27.1051 67.8812 16.3434 64.4476 16.3653 60.2969C16.3871 56.1463 27.202 52.861 40.5101 52.947C53.8181 53.0329 64.583 56.4696 64.5564 60.6172Z" fill="#9895A2" fill-opacity="0.05"/>
</g>
<g style="mix-blend-mode:multiply" opacity="0.32">
<path d="M64.5159 60.6161C64.4893 64.7527 53.7291 68.0349 40.482 67.9474C27.2349 67.8599 16.5169 64.4356 16.545 60.2928C16.5731 56.1499 27.3333 52.8756 40.5804 52.9647C53.8276 53.0537 64.544 56.4811 64.5159 60.6161Z" fill="#9895A2" fill-opacity="0.05"/>
</g>
<g style="mix-blend-mode:multiply" opacity="0.32">
<path d="M64.4769 60.6163C64.4581 64.7404 53.7386 68.0131 40.557 67.9256C27.3755 67.8382 16.6965 64.4201 16.7247 60.2992C16.7528 56.1782 27.463 52.9054 40.6508 52.9929C53.8385 53.0804 64.505 56.4922 64.4769 60.6163Z" fill="#9895A2" fill-opacity="0.05"/>
</g>
<g style="mix-blend-mode:multiply" opacity="0.32">
<path d="M64.4378 60.6147C64.4097 64.7279 53.748 67.9897 40.6227 67.9022C27.4974 67.8147 16.8778 64.4123 16.9043 60.3007C16.9309 56.1891 27.5911 52.9289 40.7211 53.0164C53.8511 53.1038 64.4581 56.5047 64.4378 60.6147Z" fill="#9895A2" fill-opacity="0.05"/>
</g>
<g style="mix-blend-mode:multiply" opacity="0.33">
<path d="M64.3988 60.6147C64.3707 64.7139 53.7574 67.9663 40.693 67.8804C27.6286 67.7944 17.0575 64.4014 17.084 60.3023C17.1106 56.2032 27.7255 52.9523 40.7914 53.0398C53.8574 53.1273 64.4254 56.5172 64.3988 60.6147Z" fill="#9895A2" fill-opacity="0.05"/>
</g>
<g style="mix-blend-mode:multiply" opacity="0.33">
<path d="M64.3579 60.6147C64.3313 64.7013 53.768 67.9428 40.7692 67.8569C27.7704 67.771 17.243 64.3889 17.2696 60.3023C17.2961 56.2156 27.8548 52.9773 40.8692 53.0632C53.8836 53.1491 64.386 56.5296 64.3579 60.6147Z" fill="#9895A2" fill-opacity="0.05"/>
</g>
<g style="mix-blend-mode:multiply" opacity="0.33">
<path d="M64.3191 60.6147C64.2926 64.6888 53.7776 67.9209 40.8336 67.835C27.8895 67.7491 17.4167 64.378 17.437 60.3038C17.4573 56.2297 27.9801 53.0007 40.9242 53.0866C53.8682 53.1726 64.3457 56.5421 64.3191 60.6147Z" fill="#9895A2" fill-opacity="0.05"/>
</g>
<g style="mix-blend-mode:multiply" opacity="0.34">
<path d="M64.2799 60.6147C64.2518 64.6763 53.7869 67.8975 40.9037 67.8116C28.0206 67.7257 17.5963 64.3655 17.6275 60.3054C17.6588 56.2453 28.1206 53.0242 41.0053 53.1101C53.89 53.196 64.3018 56.5546 64.2799 60.6147Z" fill="#9895A2" fill-opacity="0.05"/>
</g>
<g style="mix-blend-mode:multiply" opacity="0.34">
<path d="M64.2391 60.6147C64.2125 64.6623 53.796 67.8741 40.9738 67.7897C28.1515 67.7054 17.7756 64.353 17.8038 60.307C17.8319 56.261 28.2468 53.0476 41.0706 53.1335C53.8944 53.2194 64.2672 56.5672 64.2391 60.6147Z" fill="#9895A2" fill-opacity="0.05"/>
</g>
<g style="mix-blend-mode:multiply" opacity="0.34">
<path d="M64.2001 60.6131C64.1735 64.6497 53.807 67.8522 41.0441 67.7663C28.2812 67.6803 17.9569 64.3436 17.9834 60.3069C18.01 56.2703 28.3718 53.0725 41.141 53.1569C53.9101 53.2413 64.2266 56.5796 64.2001 60.6131Z" fill="#9895A2" fill-opacity="0.05"/>
</g>
<g style="mix-blend-mode:multiply" opacity="0.35">
<path d="M64.161 60.6131C64.1345 64.6373 53.8164 67.8288 41.1144 67.7444C28.4125 67.66 18.1366 64.3311 18.1631 60.3085C18.1897 56.2859 28.5078 53.096 41.2113 53.1803C53.9148 53.2647 64.1876 56.5921 64.161 60.6131Z" fill="#9895A2" fill-opacity="0.05"/>
</g>
<g style="mix-blend-mode:multiply" opacity="0.35">
<path d="M64.122 60.6139C64.0955 64.624 53.8258 67.7999 41.1848 67.7233C28.5437 67.6468 18.3163 64.3209 18.3428 60.3109C18.3694 56.3008 28.639 53.1249 41.2816 53.2046C53.9242 53.2843 64.1454 56.6101 64.122 60.6139Z" fill="#9895A2" fill-opacity="0.05"/>
</g>
<g style="mix-blend-mode:multiply" opacity="0.35">
<path d="M64.0815 60.6131C64.0549 64.6107 53.8352 67.7818 41.2551 67.7006C28.675 67.6194 18.496 64.3076 18.5304 60.3116C18.5647 56.3156 28.7766 53.1444 41.3582 53.2272C53.9399 53.31 64.108 56.6171 64.0815 60.6131Z" fill="#9895A2" fill-opacity="0.05"/>
</g>
<g style="mix-blend-mode:multiply" opacity="0.36">
<path d="M64.0424 60.6139C64.0159 64.599 53.8462 67.7608 41.3255 67.678C28.8047 67.5952 18.6741 64.2975 18.7022 60.3124C18.7303 56.3273 28.9 53.1733 41.4207 53.2514C53.9415 53.3295 64.069 56.6304 64.0424 60.6139Z" fill="#9895A2" fill-opacity="0.05"/>
</g>
<g style="mix-blend-mode:multiply" opacity="0.36">
<path d="M64.0034 60.6137C63.9768 64.5847 53.8493 67.7372 41.3958 67.6544C28.9422 67.5716 18.8553 64.2863 18.8819 60.3122C18.9084 56.338 29.0359 53.1903 41.4911 53.2731C53.9462 53.3559 64.03 56.6427 64.0034 60.6137Z" fill="#9895A2" fill-opacity="0.05"/>
</g>
<g style="mix-blend-mode:multiply" opacity="0.36">
<path d="M63.9642 60.6115C63.9376 64.5716 53.8648 67.7131 41.469 67.6319C29.0733 67.5507 19.0395 64.2733 19.0645 60.3147C19.0895 56.3562 29.1639 53.2147 41.5596 53.2975C53.9554 53.3803 63.9892 56.6546 63.9642 60.6115Z" fill="#9895A2" fill-opacity="0.05"/>
</g>
<g style="mix-blend-mode:multiply" opacity="0.37">
<path d="M63.9237 60.6115C63.8972 64.5591 53.8743 67.6912 41.5364 67.6084C29.1984 67.5256 19.2162 64.2638 19.2427 60.3162C19.2693 56.3687 29.2921 53.2396 41.6317 53.3209C53.9712 53.4021 63.9503 56.667 63.9237 60.6115Z" fill="#9895A2" fill-opacity="0.05"/>
</g>
<g style="mix-blend-mode:multiply" opacity="0.37">
<path d="M63.8846 60.6115C63.858 64.545 53.8868 67.6678 41.6066 67.5866C29.3264 67.5053 19.3958 64.2513 19.4239 60.3163C19.452 56.3812 29.4217 53.2631 41.7019 53.3443C53.9821 53.4256 63.9112 56.6795 63.8846 60.6115Z" fill="#9895A2" fill-opacity="0.05"/>
</g>
<g style="mix-blend-mode:multiply" opacity="0.37">
<path d="M63.8457 60.6115C63.8191 64.5325 53.8947 67.6412 41.677 67.5631C29.4594 67.485 19.5755 64.2388 19.6021 60.3178C19.6287 56.3967 29.5531 53.288 41.7708 53.3677C53.9884 53.4474 63.8707 56.692 63.8457 60.6115Z" fill="#9895A2" fill-opacity="0.05"/>
</g>
<g style="mix-blend-mode:multiply" opacity="0.38">
<path d="M63.8052 60.6115C63.7802 64.5169 53.9042 67.6225 41.7475 67.5412C29.5907 67.46 19.7553 64.2279 19.7803 60.3193C19.8053 56.4108 29.6829 53.3115 41.8396 53.3912C53.9964 53.4708 63.8333 56.7045 63.8052 60.6115Z" fill="#9895A2" fill-opacity="0.05"/>
</g>
<g style="mix-blend-mode:multiply" opacity="0.38">
<path d="M63.7661 60.6117C63.7411 64.5062 53.9135 67.5993 41.8177 67.5196C29.7219 67.4399 19.9365 64.2156 19.9615 60.3212C19.9865 56.4267 29.814 53.3289 41.9114 53.4148C54.0088 53.5007 63.7926 56.7172 63.7661 60.6117Z" fill="#9895A2" fill-opacity="0.05"/>
</g>
<g style="mix-blend-mode:multiply" opacity="0.38">
<path d="M63.7266 60.6099C63.7 64.4935 53.924 67.5756 41.8875 67.4959C29.8511 67.4163 20.1157 64.2045 20.1407 60.3209C20.1657 56.4374 29.9448 53.3584 41.9813 53.438C54.0177 53.5177 63.7516 56.7295 63.7266 60.6099Z" fill="#9895A2" fill-opacity="0.05"/>
</g>
<g style="mix-blend-mode:multiply" opacity="0.39">
<path d="M63.6876 60.6099C63.661 64.481 53.9334 67.5537 41.9579 67.4741C29.9823 67.3944 20.2954 64.1935 20.3204 60.3225C20.3454 56.4515 30.0745 53.3818 42.0516 53.4615C54.0287 53.5411 63.7126 56.742 63.6876 60.6099Z" fill="#9895A2" fill-opacity="0.05"/>
</g>
<g style="mix-blend-mode:multiply" opacity="0.39">
<path d="M63.6475 60.6109C63.6225 64.4678 53.9433 67.5312 42.0287 67.4516C30.1141 67.3719 20.4709 64.182 20.5006 60.325C20.5302 56.468 30.2063 53.4077 42.1193 53.4858C54.0324 53.5639 63.6772 56.7554 63.6475 60.6109Z" fill="#9895A2" fill-opacity="0.05"/>
</g>
<g style="mix-blend-mode:multiply" opacity="0.39">
<path d="M63.6084 60.6099C63.5834 64.4544 53.9526 67.5069 42.099 67.4287C30.2453 67.3506 20.6551 64.1701 20.6817 60.3256C20.7083 56.4811 30.3374 53.4302 42.1911 53.5083C54.0448 53.5864 63.6334 56.7654 63.6084 60.6099Z" fill="#9895A2" fill-opacity="0.05"/>
</g>
<g style="mix-blend-mode:multiply" opacity="0.4">
<path d="M63.569 60.61C63.544 64.442 53.9632 67.4835 42.1673 67.4054C30.3714 67.3273 20.8329 64.1592 20.8594 60.3257C20.886 56.4921 30.4652 53.4521 42.2611 53.5318C54.057 53.6115 63.594 56.7795 63.569 60.61Z" fill="#9895A2" fill-opacity="0.05"/>
</g>
<g style="mix-blend-mode:multiply" opacity="0.4">
<path d="M63.5303 60.6106C63.5038 64.4301 53.973 67.4623 42.2396 67.3841C30.5062 67.306 21.0145 64.1474 21.0411 60.3279C21.0676 56.5084 30.5984 53.4856 42.3318 53.5559C54.0652 53.6262 63.5553 56.7927 63.5303 60.6106Z" fill="#9895A2" fill-opacity="0.05"/>
</g>
<g style="mix-blend-mode:multiply" opacity="0.4">
<path d="M63.4898 60.6091C63.4648 64.4161 53.9824 67.4389 42.31 67.3623C30.6375 67.2858 21.1958 64.1365 21.2208 60.3326C21.2457 56.5287 30.7281 53.5059 42.4021 53.5825C54.0762 53.659 63.521 56.8052 63.4898 60.6091Z" fill="#9895A2" fill-opacity="0.05"/>
</g>
<g style="mix-blend-mode:multiply" opacity="0.41">
<path d="M63.4507 60.6088C63.4257 64.4033 53.9919 67.4151 42.3803 67.3386C30.7687 67.262 21.3754 64.1236 21.4004 60.3307C21.4254 56.5378 30.8593 53.5259 42.4725 53.604C54.0856 53.6821 63.4757 56.8174 63.4507 60.6088Z" fill="#9895A2" fill-opacity="0.05"/>
</g>
<g style="mix-blend-mode:multiply" opacity="0.41">
<path d="M63.4117 60.6087C63.3867 64.3907 54.0028 67.3932 42.4506 67.3166C30.8984 67.2401 21.5551 64.108 21.5801 60.3322C21.6051 56.5565 30.9906 53.5509 42.5412 53.6274C54.0919 53.704 63.4367 56.8298 63.4117 60.6087Z" fill="#9895A2" fill-opacity="0.05"/>
</g>
<g style="mix-blend-mode:multiply" opacity="0.42">
<path d="M63.3722 60.6087C63.3457 64.3767 54.0117 67.3698 42.5205 67.2932C31.0292 67.2167 21.7343 64.108 21.7593 60.3322C21.7843 56.5565 31.1198 53.5743 42.6111 53.6509C54.1024 53.7274 63.3957 56.8424 63.3722 60.6087Z" fill="#9895A2" fill-opacity="0.05"/>
</g>
<g style="mix-blend-mode:multiply" opacity="0.42">
<path d="M63.3317 60.6087C63.3067 64.3579 54.0212 67.3463 42.5908 67.2714C31.1605 67.1964 21.914 64.0892 21.939 60.3338C21.964 56.5784 31.2511 53.5977 42.6814 53.6743C54.1118 53.7508 63.3645 56.8549 63.3317 60.6087Z" fill="#9895A2" fill-opacity="0.05"/>
</g>
<g style="mix-blend-mode:multiply" opacity="0.42">
<path d="M63.2929 60.6089C63.2679 64.3581 54.0308 67.3262 42.6614 67.2481C31.2919 67.1699 22.0939 64.0784 22.1236 60.3355C22.1533 56.5925 31.3857 53.6182 42.7567 53.6979C54.1276 53.7775 63.3178 56.8675 63.2929 60.6089Z" fill="#9895A2" fill-opacity="0.05"/>
</g>
<g style="mix-blend-mode:multiply" opacity="0.43">
<path d="M63.2536 60.6071C63.2286 64.3376 54.0368 67.301 42.7314 67.226C31.4261 67.151 22.2671 64.0658 22.2999 60.3369C22.3327 56.608 31.5167 53.6461 42.822 53.7211C54.1274 53.7961 63.2786 56.8798 63.2536 60.6071Z" fill="#9895A2" fill-opacity="0.05"/>
</g>
<g style="mix-blend-mode:multiply" opacity="0.43">
<path d="M63.2081 60.6071C63.1846 64.3251 54.046 67.2776 42.7968 67.2026C31.5477 67.1276 22.4497 64.0548 22.4747 60.3369C22.4997 56.6189 31.6368 53.6696 42.8874 53.7446C54.1381 53.8195 63.2377 56.8923 63.2081 60.6071Z" fill="#9895A2" fill-opacity="0.05"/>
</g>
<g style="mix-blend-mode:multiply" opacity="0.43">
<path d="M63.1743 60.6072C63.1493 64.3126 54.0607 67.2557 42.8662 67.1807C31.6717 67.1057 22.6284 64.0439 22.6534 60.3385C22.6784 56.633 31.767 53.693 42.9615 53.768C54.156 53.843 63.1993 56.9048 63.1743 60.6072Z" fill="#9895A2" fill-opacity="0.05"/>
</g>
<g style="mix-blend-mode:multiply" opacity="0.44">
<path d="M63.1349 60.6071C63.1099 64.2985 54.0744 67.2322 42.944 67.1588C31.8135 67.0854 22.8139 64.0345 22.8389 60.34C22.8639 56.6455 31.8995 53.718 43.0314 53.7914C54.1634 53.8648 63.1599 56.922 63.1349 60.6071Z" fill="#9895A2" fill-opacity="0.05"/>
</g>
<g style="mix-blend-mode:multiply" opacity="0.44">
<path d="M63.0959 60.6071C63.0709 64.286 54.0807 67.2088 43.0143 67.1354C31.9479 67.062 22.9936 64.0204 23.0186 60.3416C23.0436 56.6627 32.0339 53.7414 43.1018 53.8148C54.1697 53.8883 63.1193 56.9298 63.0959 60.6071Z" fill="#9895A2" fill-opacity="0.05"/>
</g>
<g style="mix-blend-mode:multiply" opacity="0.44">
<path d="M63.0519 60.6056C63.0285 64.2735 54.0866 67.1854 43.0812 67.1135C32.0758 67.0417 23.1714 64.0095 23.1949 60.3416C23.2183 56.6736 32.1617 53.7649 43.1687 53.8383C54.1757 53.9117 63.08 56.9423 63.0519 60.6056Z" fill="#9895A2" fill-opacity="0.05"/>
</g>
<g style="mix-blend-mode:multiply" opacity="0.45">
<path d="M63.0161 60.6058C62.9927 64.2597 54.0993 67.1669 43.1548 67.0904C32.2102 67.0138 23.3543 63.9973 23.3731 60.3434C23.3918 56.6895 32.2899 53.7823 43.2375 53.862C54.1852 53.9416 63.0411 56.955 63.0161 60.6058Z" fill="#9895A2" fill-opacity="0.05"/>
</g>
<g style="mix-blend-mode:multiply" opacity="0.45">
<path d="M62.9773 60.6055C62.9523 64.2469 54.1089 67.1401 43.2253 67.0682C32.3417 66.9963 23.542 63.986 23.5576 60.3509C23.5733 56.7157 32.4339 53.8132 43.3128 53.8851C54.1917 53.957 63.0007 56.9672 62.9773 60.6055Z" fill="#9895A2" fill-opacity="0.05"/>
</g>
<g style="mix-blend-mode:multiply" opacity="0.45">
<path d="M62.9382 60.6055C62.9132 64.2344 54.1198 67.1166 43.2955 67.0448C32.4713 66.9729 23.7138 63.9736 23.7388 60.3462C23.7638 56.7189 32.5572 53.8367 43.3815 53.9085C54.2057 53.9804 62.9616 56.9798 62.9382 60.6055Z" fill="#9895A2" fill-opacity="0.05"/>
</g>
<g style="mix-blend-mode:multiply" opacity="0.46">
<path d="M62.8958 60.6055C62.8724 64.222 54.1274 67.0948 43.3688 67.0229C32.6102 66.951 23.8964 63.9626 23.9214 60.3462C23.9464 56.7298 32.6899 53.8601 43.4485 53.932C54.2071 54.0038 62.9224 56.9923 62.8958 60.6055Z" fill="#9895A2" fill-opacity="0.05"/>
</g>
<g style="mix-blend-mode:multiply" opacity="0.46">
<path d="M62.8581 60.606C62.8347 64.2084 54.1381 67.0718 43.4358 67.0015C32.7334 66.9312 24.0649 63.9522 24.0977 60.3483C24.1306 56.7444 32.8177 53.8856 43.5248 53.9543C54.2319 54.0231 62.8816 57.0052 62.8581 60.606Z" fill="#9895A2" fill-opacity="0.05"/>
</g>
<g style="mix-blend-mode:multiply" opacity="0.46">
<path d="M62.8191 60.6039C62.7941 64.1969 54.1491 67.0479 43.5061 66.9776C32.863 66.9073 24.254 63.9392 24.2774 60.3493C24.3008 56.7595 32.9474 53.9085 43.592 53.9788C54.2366 54.0491 62.8425 57.0157 62.8191 60.6039Z" fill="#9895A2" fill-opacity="0.05"/>
</g>
<g style="mix-blend-mode:multiply" opacity="0.47">
<path d="M62.7785 60.604C62.7551 64.1829 54.1585 67.026 43.5764 66.9557C32.9943 66.8854 24.4336 63.9282 24.4571 60.3587C24.4805 56.7892 33.0787 53.9398 43.6623 54.0101C54.246 54.0804 62.8035 57.0282 62.7785 60.604Z" fill="#9895A2" fill-opacity="0.05"/>
</g>
<g style="mix-blend-mode:multiply" opacity="0.47">
<path d="M62.7395 60.604C62.716 64.1689 54.1679 67.0089 43.6467 66.9323C33.1256 66.8558 24.6133 63.9174 24.6368 60.3588C24.6602 56.8001 33.2146 53.9539 43.7311 54.0257C54.2476 54.0976 62.7629 57.0407 62.7395 60.604Z" fill="#9895A2" fill-opacity="0.05"/>
</g>
<g style="mix-blend-mode:multiply" opacity="0.47">
<path d="M62.7006 60.6041C62.6771 64.1565 54.1774 66.9793 43.7172 66.9106C33.2569 66.8418 24.7931 63.905 24.815 60.3495C24.8369 56.794 33.3381 53.9774 43.8 54.0462C54.2618 54.1149 62.724 57.0533 62.7006 60.6041Z" fill="#9895A2" fill-opacity="0.05"/>
</g>
<g style="mix-blend-mode:multiply" opacity="0.48">
<path d="M62.6614 60.6041C62.638 64.144 54.1883 66.9574 43.7874 66.8871C33.3865 66.8168 24.9727 63.894 24.9961 60.3589C25.0196 56.8237 33.4709 54.0087 43.8718 54.0774C54.2726 54.1461 62.6849 57.0658 62.6614 60.6041Z" fill="#9895A2" fill-opacity="0.05"/>
</g>
<g style="mix-blend-mode:multiply" opacity="0.48">
<path d="M62.6208 60.6037C62.5974 64.1295 54.1976 66.9336 43.8577 66.8649C33.5177 66.7962 25.1523 63.8812 25.1773 60.3585C25.2023 56.8358 33.6005 54.0302 43.942 54.0989C54.2835 54.1676 62.6442 57.0779 62.6208 60.6037Z" fill="#9895A2" fill-opacity="0.05"/>
</g>
<g style="mix-blend-mode:multiply" opacity="0.48">
<path d="M62.5832 60.6023C62.5598 64.1172 54.2085 66.9103 43.9294 66.8416C33.6504 66.7729 25.3397 63.8735 25.3584 60.3555C25.3772 56.8375 33.7332 54.0522 44.0138 54.1194C54.2944 54.1865 62.6051 57.0906 62.5832 60.6023Z" fill="#9895A2" fill-opacity="0.05"/>
</g>
<g style="mix-blend-mode:multiply" opacity="0.49">
<path d="M62.5428 60.6027C62.5193 64.1051 54.2164 66.8873 43.9983 66.8201C33.7802 66.753 25.5132 63.8598 25.5367 60.359C25.5601 56.8582 33.863 54.0776 44.0827 54.1447C54.3023 54.2119 62.5662 57.1035 62.5428 60.6027Z" fill="#9895A2" fill-opacity="0.05"/>
</g>
<g style="mix-blend-mode:multiply" opacity="0.49">
<path d="M62.5037 60.6023C62.4803 64.0907 54.2243 66.8651 44.0702 66.7979C33.9162 66.7307 25.6929 63.847 25.7164 60.3587C25.7398 56.8703 33.9958 54.0991 44.1499 54.1662C54.3039 54.2334 62.5256 57.1156 62.5037 60.6023Z" fill="#9895A2" fill-opacity="0.05"/>
</g>
<g style="mix-blend-mode:multiply" opacity="0.49">
<path d="M62.4632 60.6029C62.4413 64.0788 54.2368 66.8422 44.139 66.775C34.0412 66.7079 25.8726 63.8366 25.896 60.3592C25.9195 56.8819 34.124 54.1215 44.2218 54.1887C54.3196 54.2559 62.4866 57.1287 62.4632 60.6029Z" fill="#9895A2" fill-opacity="0.05"/>
</g>
<g style="mix-blend-mode:multiply" opacity="0.5">
<path d="M62.4273 60.6029C62.4038 64.0662 54.2493 66.8187 44.2124 66.7531C34.1756 66.6875 26.0523 63.8241 26.0757 60.3592C26.0992 56.8943 34.2537 54.1465 44.2921 54.2121C54.3306 54.2777 62.4476 57.1411 62.4273 60.6029Z" fill="#9895A2" fill-opacity="0.05"/>
</g>
<g style="mix-blend-mode:multiply" opacity="0.5">
<path d="M62.3851 60.6025C62.3617 64.0518 54.2619 66.7965 44.2797 66.7293C34.2974 66.6621 26.232 63.8128 26.2554 60.3588C26.2789 56.9049 34.3787 54.168 44.3624 54.2336C54.3462 54.2992 62.407 57.1533 62.3851 60.6025Z" fill="#9895A2" fill-opacity="0.05"/>
</g>
<g style="mix-blend-mode:multiply" opacity="0.5">
<path d="M62.3456 60.6006C62.3222 64.0374 54.2661 66.7727 44.3495 66.7071C34.4329 66.6415 26.4127 63.7952 26.4346 60.3585C26.4565 56.9217 34.5157 54.1942 44.4323 54.266C54.3489 54.3379 62.3675 57.1654 62.3456 60.6006Z" fill="#9895A2" fill-opacity="0.05"/>
</g>
<g style="mix-blend-mode:multiply" opacity="0.51">
<path d="M62.3055 60.6006C62.2837 64.0264 54.276 66.7493 44.4203 66.6836C34.5646 66.618 26.5929 63.7952 26.6148 60.3585C26.6367 56.9217 34.6459 54.2129 44.5031 54.2785C54.3604 54.3441 62.329 57.1779 62.3055 60.6006Z" fill="#9895A2" fill-opacity="0.05"/>
</g>
<g style="mix-blend-mode:multiply" opacity="0.51">
<path d="M62.2713 60.6012C62.2479 64.0145 54.2902 66.728 44.4955 66.6624C34.7007 66.5968 26.7774 63.7786 26.8008 60.3669C26.8243 56.9551 34.7772 54.2432 44.572 54.3088C54.3668 54.3744 62.2885 57.191 62.2713 60.6012Z" fill="#9895A2" fill-opacity="0.05"/>
</g>
<g style="mix-blend-mode:multiply" opacity="0.51">
<path d="M62.2274 60.6009C62.204 64.0002 54.2947 66.7043 44.5609 66.6403C34.8271 66.5762 26.9522 63.7674 26.9756 60.3666C26.9991 56.9658 34.9067 54.2742 44.6421 54.332C54.3775 54.3898 62.2493 57.2032 62.2274 60.6009Z" fill="#9895A2" fill-opacity="0.05"/>
</g>
<g style="mix-blend-mode:multiply" opacity="0.52">
<path d="M62.1868 60.6011C62.165 63.9879 54.3057 66.6811 44.6312 66.617C34.9568 66.553 27.135 63.7551 27.1553 60.3684C27.1756 56.9816 35.038 54.2916 44.7125 54.3556C54.3869 54.4197 62.2103 57.2159 62.1868 60.6011Z" fill="#9895A2" fill-opacity="0.05"/>
</g>
<g style="mix-blend-mode:multiply" opacity="0.52">
<path d="M62.1478 60.6011C62.1259 63.9754 54.3151 66.6576 44.7016 66.5952C35.088 66.5327 27.3131 63.7442 27.335 60.3699C27.3569 56.9957 35.1693 54.315 44.7828 54.3791C54.3964 54.4431 62.1697 57.2347 62.1478 60.6011Z" fill="#9895A2" fill-opacity="0.05"/>
</g>
<g style="mix-blend-mode:multiply" opacity="0.52">
<path d="M62.1149 60.5996C62.093 63.9614 54.3306 66.6358 44.7748 66.5717C35.2191 66.5077 27.4958 63.7317 27.5176 60.3715C27.5395 57.0113 35.3019 54.3384 44.8576 54.4025C54.4134 54.4665 62.1305 57.2347 62.1149 60.5996Z" fill="#9895A2" fill-opacity="0.05"/>
</g>
<g style="mix-blend-mode:multiply" opacity="0.53">
<path d="M62.0698 60.5997C62.0463 63.9521 54.3339 66.6078 44.8422 66.55C35.3505 66.4922 27.6725 63.7209 27.6944 60.3716C27.7163 57.0223 35.4302 54.362 44.9313 54.4229C54.4324 54.4838 62.0917 57.2535 62.0698 60.5997Z" fill="#9895A2" fill-opacity="0.05"/>
</g>
<g style="mix-blend-mode:multiply" opacity="0.53">
<path d="M62.0287 60.5996C62.0068 63.9363 54.3444 66.5889 44.9121 66.5264C35.4798 66.4639 27.8517 63.7145 27.8736 60.3731C27.8955 57.0316 35.5594 54.3868 44.9918 54.4493C54.4241 54.5118 62.0506 57.2659 62.0287 60.5996Z" fill="#9895A2" fill-opacity="0.05"/>
</g>
<g style="mix-blend-mode:multiply" opacity="0.54">
<path d="M61.9898 60.5996C61.968 63.9223 54.354 66.567 44.9826 66.5045C35.6111 66.4421 28.0315 63.6973 28.0596 60.3746C28.0878 57.0519 35.6971 54.4103 45.0685 54.4728C54.4399 54.5353 62.0117 57.2784 61.9898 60.5996Z" fill="#9895A2" fill-opacity="0.05"/>
</g>
<g style="mix-blend-mode:multiply" opacity="0.54">
<path d="M61.9584 60.5994C61.9365 63.9096 54.371 66.5434 45.0605 66.4809C35.75 66.4184 28.2157 63.6862 28.2344 60.376C28.2532 57.0658 35.8218 54.4398 45.1323 54.496C54.4428 54.5522 61.9724 57.2907 61.9584 60.5994Z" fill="#9895A2" fill-opacity="0.05"/>
</g>
<g style="mix-blend-mode:multiply" opacity="0.54">
<path d="M61.9119 60.5995C61.8885 63.8973 54.3729 66.5201 45.1234 66.4592C35.8738 66.3983 28.3926 63.6754 28.4082 60.3761C28.4238 57.0769 35.9457 54.4587 45.1968 54.5196C54.4479 54.5805 61.9323 57.3034 61.9119 60.5995Z" fill="#9895A2" fill-opacity="0.05"/>
</g>
<g style="mix-blend-mode:multiply" opacity="0.55">
<path d="M61.871 60.598C61.8491 63.8785 54.3835 66.4983 45.1933 66.4373C36.0031 66.3764 28.5719 63.6629 28.5938 60.3777C28.6157 57.0925 36.0828 54.4821 45.273 54.543C54.4632 54.604 61.8929 57.3159 61.871 60.598Z" fill="#9895A2" fill-opacity="0.05"/>
</g>
<g style="mix-blend-mode:multiply" opacity="0.55">
<path d="M61.832 60.598C61.8101 63.8785 54.393 66.4748 45.2637 66.4139C36.1344 66.353 28.7516 63.652 28.7735 60.3793C28.7954 57.1066 36.2125 54.5056 45.3434 54.5665C54.4742 54.6274 61.8539 57.3284 61.832 60.598Z" fill="#9895A2" fill-opacity="0.05"/>
</g>
<g style="mix-blend-mode:multiply" opacity="0.55">
<path d="M61.793 60.598C61.7711 63.8582 54.4024 66.4514 45.334 66.3921C36.2657 66.3327 28.9313 63.6395 28.9532 60.3809C28.975 57.1222 36.3391 54.529 45.4121 54.5899C54.4852 54.6508 61.8148 57.3409 61.793 60.598Z" fill="#9895A2" fill-opacity="0.05"/>
</g>
<g style="mix-blend-mode:multiply" opacity="0.56">
<path d="M61.7524 60.598C61.7321 63.8441 54.4102 66.4295 45.4044 66.3686C36.3985 66.3077 29.111 63.6286 29.1329 60.3808C29.1547 57.1331 36.475 54.5539 45.4825 54.6133C54.4899 54.6727 61.7743 57.3533 61.7524 60.598Z" fill="#9895A2" fill-opacity="0.05"/>
</g>
<g style="mix-blend-mode:multiply" opacity="0.56">
<path d="M61.7136 60.5979C61.6917 63.8316 54.4229 66.406 45.4749 66.3467C36.5268 66.2873 29.2909 63.6176 29.3096 60.3823C29.3284 57.1471 36.6049 54.5789 45.5561 54.6367C54.5073 54.6945 61.7354 57.3658 61.7136 60.5979Z" fill="#9895A2" fill-opacity="0.05"/>
</g>
<g style="mix-blend-mode:multiply" opacity="0.56">
<path d="M61.6744 60.5961C61.6525 63.8189 54.4322 66.3761 45.545 66.323C36.6579 66.2699 29.4719 63.6048 29.4922 60.3868C29.5125 57.1687 36.736 54.6068 45.6231 54.663C54.5103 54.7193 61.6962 57.3781 61.6744 60.5961Z" fill="#9895A2" fill-opacity="0.05"/>
</g>
<g style="mix-blend-mode:multiply" opacity="0.57">
<path d="M61.6353 60.5964C61.6134 63.8066 54.4415 66.3592 45.6153 66.3014C36.789 66.2436 29.6515 63.5942 29.6734 60.3855C29.6953 57.1768 36.8593 54.6258 45.6934 54.6836C54.5274 54.7414 61.6556 57.3908 61.6353 60.5964Z" fill="#9895A2" fill-opacity="0.05"/>
</g>
<g style="mix-blend-mode:multiply" opacity="0.57">
<path d="M61.5947 60.5964C61.5744 63.7926 54.4509 66.3373 45.6856 66.2795C36.9203 66.2217 29.8312 63.5817 29.8531 60.3855C29.8749 57.1893 36.9968 54.6492 45.7637 54.707C54.5306 54.7648 61.6165 57.4033 61.5947 60.5964Z" fill="#9895A2" fill-opacity="0.05"/>
</g>
<g style="mix-blend-mode:multiply" opacity="0.57">
<path d="M61.5557 60.5967C61.5353 63.7804 54.4619 66.3143 45.7559 66.2565C37.05 66.1987 30.0109 63.5711 30.0328 60.3874C30.0546 57.2037 37.1203 54.673 45.8325 54.7355C54.5447 54.798 61.5775 57.4162 61.5557 60.5967Z" fill="#9895A2" fill-opacity="0.05"/>
</g>
<g style="mix-blend-mode:multiply" opacity="0.58">
<path d="M61.5166 60.5964C61.4947 63.7676 54.4713 66.2905 45.8262 66.2342C37.1812 66.178 30.1906 63.5598 30.2046 60.3886C30.2187 57.2174 37.25 54.6961 45.895 54.7539C54.54 54.8117 61.5369 57.4283 61.5166 60.5964Z" fill="#9895A2" fill-opacity="0.05"/>
</g>
<g style="mix-blend-mode:multiply" opacity="0.58">
<path d="M61.4771 60.5964C61.4553 63.7535 54.4802 66.2686 45.8961 66.2108C37.312 66.153 30.3698 63.5473 30.3917 60.3901C30.4135 57.233 37.3886 54.7211 45.9727 54.7773C54.5568 54.8335 61.4975 57.4408 61.4771 60.5964Z" fill="#9895A2" fill-opacity="0.05"/>
</g>
<g style="mix-blend-mode:multiply" opacity="0.58">
<path d="M61.4368 60.5948C61.4165 63.741 54.4899 66.2451 45.9714 66.1889C37.453 66.1327 30.5544 63.5332 30.5748 60.3902C30.5951 57.2471 37.5217 54.7445 46.0402 54.8007C54.5586 54.857 61.4587 57.4533 61.4368 60.5948Z" fill="#9895A2" fill-opacity="0.05"/>
</g>
<g style="mix-blend-mode:multiply" opacity="0.59">
<path d="M61.3975 60.5942C61.3772 63.7279 54.5006 66.218 46.0384 66.1649C37.5761 66.1118 30.7292 63.5248 30.751 60.3849C30.7729 57.2449 37.6495 54.7611 46.1133 54.8173C54.5771 54.8736 61.4179 57.4652 61.3975 60.5942Z" fill="#9895A2" fill-opacity="0.05"/>
</g>
<g style="mix-blend-mode:multiply" opacity="0.59">
<path d="M61.3585 60.5948C61.3367 63.7191 54.51 66.1998 46.1087 66.1436C37.7074 66.0873 30.9104 63.5129 30.9307 60.3932C30.951 57.2736 37.7792 54.7929 46.1821 54.8476C54.585 54.9022 61.3788 57.4783 61.3585 60.5948Z" fill="#9895A2" fill-opacity="0.05"/>
</g>
<g style="mix-blend-mode:multiply" opacity="0.59">
<path d="M61.3183 60.5948C61.298 63.7019 54.5198 66.1764 46.1794 66.1201C37.839 66.0639 31.0905 63.502 31.1124 60.3948C31.1342 57.2877 37.9109 54.8163 46.2528 54.871C54.5948 54.9257 61.334 57.4908 61.3183 60.5948Z" fill="#9895A2" fill-opacity="0.05"/>
</g>
<g style="mix-blend-mode:multiply" opacity="0.6">
<path d="M61.2788 60.5949C61.2585 63.6895 54.5287 66.1531 46.2493 66.0984C37.9698 66.0437 31.2697 63.4896 31.2916 60.3965C31.3134 57.3034 38.0417 54.8399 46.3227 54.8914C54.6037 54.943 61.2991 57.5034 61.2788 60.5949Z" fill="#9895A2" fill-opacity="0.05"/>
</g>
<g style="mix-blend-mode:multiply" opacity="0.6">
<path d="M61.2398 60.5948C61.2195 63.6754 54.5397 66.1311 46.3196 66.0764C38.0995 66.0217 31.4509 63.4832 31.4712 60.3964C31.4915 57.3096 38.1714 54.8632 46.393 54.9179C54.6147 54.9726 61.2601 57.5158 61.2398 60.5948Z" fill="#9895A2" fill-opacity="0.05"/>
</g>
<g style="mix-blend-mode:multiply" opacity="0.6">
<path d="M61.2007 60.5932C61.1804 63.6628 54.549 66.1076 46.3898 66.0608C38.2307 66.0139 31.6305 63.4676 31.6524 60.3979C31.6743 57.3283 38.3041 54.8882 46.4648 54.9413C54.6256 54.9944 61.221 57.5282 61.2007 60.5932Z" fill="#9895A2" fill-opacity="0.05"/>
</g>
<g style="mix-blend-mode:multiply" opacity="0.61">
<path d="M61.1607 60.5927C61.1404 63.6498 54.559 66.0837 46.4608 66.0305C38.3625 65.9774 31.8108 63.4545 31.8311 60.4068C31.8514 57.359 38.4328 54.9189 46.5342 54.9736C54.6356 55.0282 61.1779 57.5464 61.1607 60.5927Z" fill="#9895A2" fill-opacity="0.05"/>
</g>
<g style="mix-blend-mode:multiply" opacity="0.61">
<path d="M61.1212 60.5927C61.1009 63.6358 54.5679 66.0603 46.5306 66.0072C38.4933 65.9541 31.99 63.4437 32.0103 60.4006C32.0306 57.3575 38.5636 54.933 46.6025 54.9892C54.6414 55.0455 61.1415 57.5465 61.1212 60.5927Z" fill="#9895A2" fill-opacity="0.05"/>
</g>
<g style="mix-blend-mode:multiply" opacity="0.61">
<path d="M61.0822 60.5926C61.0619 63.6232 54.5789 66.0383 46.6009 65.9852C38.623 65.9321 32.1697 63.4326 32.19 60.4005C32.2103 57.3683 38.6948 54.9595 46.6728 55.0126C54.6508 55.0657 61.1025 57.5636 61.0822 60.5926Z" fill="#9895A2" fill-opacity="0.05"/>
</g>
<g style="mix-blend-mode:multiply" opacity="0.62">
<path d="M61.0432 60.5936C61.0229 63.6117 54.5883 66.0159 46.6713 65.9628C38.7542 65.9097 32.3494 63.4211 32.3697 60.403C32.39 57.3849 38.8245 54.9839 46.7416 55.037C54.6586 55.0901 61.0619 57.5771 61.0432 60.5936Z" fill="#9895A2" fill-opacity="0.05"/>
</g>
<g style="mix-blend-mode:multiply" opacity="0.62">
<path d="M61.0026 60.5926C60.9839 63.5982 54.5978 65.9915 46.7416 65.9399C38.8855 65.8884 32.5259 63.4092 32.5494 60.4036C32.5728 57.398 38.9542 55.0063 46.8135 55.0595C54.6727 55.1126 61.0214 57.5886 61.0026 60.5926Z" fill="#9895A2" fill-opacity="0.05"/>
</g>
<g style="mix-blend-mode:multiply" opacity="0.62">
<path d="M60.9635 60.591C60.9432 63.5841 54.6071 65.9696 46.8119 65.918C39.0167 65.8665 32.7102 63.3967 32.7305 60.4051C32.7508 57.4136 39.0854 55.0313 46.8837 55.0829C54.682 55.1344 60.9838 57.6011 60.9635 60.591Z" fill="#9895A2" fill-opacity="0.05"/>
</g>
<g style="mix-blend-mode:multiply" opacity="0.63">
<path d="M60.9245 60.592C60.9042 63.5726 54.618 65.9471 46.8822 65.9034C39.1464 65.8596 32.8899 63.3945 32.9102 60.4139C32.9305 57.4333 39.2167 55.0635 46.9541 55.1151C54.6914 55.1666 60.9432 57.6145 60.9245 60.592Z" fill="#9895A2" fill-opacity="0.05"/>
</g>
<g style="mix-blend-mode:multiply" opacity="0.63">
<path d="M60.8855 60.5916C60.8652 63.5597 54.6274 65.9233 46.9525 65.8733C39.2776 65.8233 33.0696 63.3738 33.0899 60.4057C33.1102 57.4376 39.3479 55.0772 47.0228 55.1288C54.6977 55.1803 60.9042 57.6267 60.8855 60.5916Z" fill="#9895A2" fill-opacity="0.05"/>
</g>
<g style="mix-blend-mode:multiply" opacity="0.63">
<path d="M60.8445 60.5912C60.8258 63.5453 54.6365 65.9026 47.0225 65.8495C39.4085 65.7964 33.2489 63.3625 33.2755 60.4084C33.302 57.4544 39.4835 55.0971 47.0991 55.1533C54.7146 55.2096 60.8648 57.6387 60.8445 60.5912Z" fill="#9895A2" fill-opacity="0.05"/>
</g>
<g style="mix-blend-mode:multiply" opacity="0.64">
<path d="M60.8059 60.591C60.7856 63.5326 54.6463 65.8774 47.0932 65.8274C39.5401 65.7774 33.429 63.3514 33.4493 60.4098C33.4696 57.4683 39.6089 55.1266 47.1635 55.1766C54.7181 55.2266 60.8246 57.651 60.8059 60.591Z" fill="#9895A2" fill-opacity="0.05"/>
</g>
<g style="mix-blend-mode:multiply" opacity="0.64">
<path d="M60.7668 60.591C60.7465 63.5201 54.6572 65.854 47.1635 65.804C39.6698 65.754 33.6102 63.3389 33.6289 60.4098C33.6477 57.4808 39.7386 55.15 47.2338 55.2C54.7291 55.25 60.7856 57.6635 60.7668 60.591Z" fill="#9895A2" fill-opacity="0.05"/>
</g>
<g style="mix-blend-mode:multiply" opacity="0.64">
<path d="M60.7263 60.5905C60.7075 63.507 54.6666 65.8331 47.2339 65.7831C39.8011 65.7331 33.7899 63.3274 33.8086 60.4124C33.8274 57.4974 39.8698 55.1744 47.3042 55.2244C54.7385 55.2744 60.7466 57.677 60.7263 60.5905Z" fill="#9895A2" fill-opacity="0.05"/>
</g>
<g style="mix-blend-mode:multiply" opacity="0.65">
<path d="M60.6873 60.5894C60.6686 63.4935 54.6761 65.8086 47.3043 65.7586C39.9324 65.7086 33.9696 63.317 33.9962 60.4129C34.0227 57.5088 40.0089 55.1984 47.3824 55.2468C54.7558 55.2953 60.7092 57.6885 60.6873 60.5894Z" fill="#9895A2" fill-opacity="0.05"/>
</g>
<g style="mix-blend-mode:multiply" opacity="0.65">
<path d="M60.6476 60.5904C60.6289 63.482 54.6864 65.7862 47.3693 65.7378C40.0521 65.6893 34.1518 63.3055 34.169 60.4155C34.1862 57.5255 40.1302 55.2228 47.4474 55.2713C54.7645 55.3197 60.6664 57.7035 60.6476 60.5904Z" fill="#9895A2" fill-opacity="0.05"/>
</g>
<g style="mix-blend-mode:multiply" opacity="0.66">
<path d="M60.6087 60.5904C60.5884 63.4679 54.6959 65.7627 47.4443 65.7159C40.1928 65.669 34.3222 63.2945 34.3487 60.4155C34.3753 57.5364 40.2615 55.2463 47.5131 55.2947C54.7646 55.3431 60.6274 57.7145 60.6087 60.5904Z" fill="#9895A2" fill-opacity="0.05"/>
</g>
<g style="mix-blend-mode:multiply" opacity="0.66">
<path d="M60.5681 60.5897C60.5493 63.4547 54.7053 65.7449 47.5146 65.6918C40.324 65.6386 34.5081 63.2829 34.5284 60.4163C34.5487 57.5498 40.3912 55.2612 47.5834 55.3174C54.7756 55.3737 60.5868 57.7263 60.5681 60.5897Z" fill="#9895A2" fill-opacity="0.05"/>
</g>
<g style="mix-blend-mode:multiply" opacity="0.66">
<path d="M60.5294 60.5904C60.5107 63.4429 54.7151 65.7174 47.5869 65.6706C40.4588 65.6237 34.6913 63.2711 34.71 60.4186C34.7288 57.5661 40.5244 55.2947 47.6557 55.3415C54.7869 55.3884 60.5529 57.7394 60.5294 60.5904Z" fill="#9895A2" fill-opacity="0.05"/>
</g>
<g style="mix-blend-mode:multiply" opacity="0.67">
<path d="M60.49 60.5888C60.4713 63.4289 54.7257 65.694 47.6553 65.6471C40.585 65.6003 34.869 63.2601 34.8877 60.4201C34.9065 57.5801 40.6537 55.3181 47.724 55.365C54.7944 55.4118 60.5088 57.7519 60.49 60.5888Z" fill="#9895A2" fill-opacity="0.05"/>
</g>
<g style="mix-blend-mode:multiply" opacity="0.67">
<path d="M60.4512 60.5889C60.4309 63.4164 54.7353 65.6721 47.7259 65.6253C40.7164 65.5784 35.0489 63.2477 35.0723 60.4201C35.0958 57.5926 40.7883 55.3415 47.7993 55.3884C54.8103 55.4353 60.47 57.7645 60.4512 60.5889Z" fill="#9895A2" fill-opacity="0.05"/>
</g>
<g style="mix-blend-mode:multiply" opacity="0.67">
<path d="M60.41 60.5888C60.3913 63.4007 54.7441 65.6487 47.7956 65.6018C40.8471 65.5549 35.228 63.2367 35.2452 60.4217C35.2623 57.6066 40.9127 55.3665 47.8612 55.4118C54.8097 55.4571 60.4288 57.7769 60.41 60.5888Z" fill="#9895A2" fill-opacity="0.05"/>
</g>
<g style="mix-blend-mode:multiply" opacity="0.68">
<path d="M60.3714 60.5882C60.3527 63.3908 54.7476 65.6247 47.8741 65.5793C41.0006 65.534 35.4159 63.2252 35.4346 60.4242C35.4534 57.6233 41.0584 55.3909 47.9413 55.4362C54.8242 55.4815 60.3964 57.7888 60.3714 60.5882Z" fill="#9895A2" fill-opacity="0.05"/>
</g>
<g style="mix-blend-mode:multiply" opacity="0.68">
<path d="M60.3323 60.5888C60.3135 63.3773 54.7647 65.6034 47.9365 65.5581C41.1083 65.5128 35.5954 63.2148 35.6079 60.4248C35.6204 57.6348 41.1755 55.4134 48.0037 55.4587C54.8319 55.504 60.351 57.8019 60.3323 60.5888Z" fill="#9895A2" fill-opacity="0.05"/>
</g>
<g style="mix-blend-mode:multiply" opacity="0.68">
<path d="M60.2917 60.5888C60.2745 63.3648 54.7742 65.5799 48.0069 65.5346C41.2396 65.4893 35.7689 63.2023 35.7876 60.4248C35.8064 57.6473 41.3052 55.4368 48.0741 55.4821C54.8429 55.5274 60.3105 57.8144 60.2917 60.5888Z" fill="#9895A2" fill-opacity="0.05"/>
</g>
<g style="mix-blend-mode:multiply" opacity="0.69">
<path d="M60.2527 60.5872C60.234 63.3523 54.7852 65.5565 48.0772 65.5127C41.3693 65.469 35.9486 63.1914 35.9673 60.4263C35.9861 57.6613 41.4349 55.4618 48.1444 55.5055C54.8539 55.5493 60.2715 57.8269 60.2527 60.5872Z" fill="#9895A2" fill-opacity="0.05"/>
</g>
<g style="mix-blend-mode:multiply" opacity="0.69">
<path d="M60.2137 60.5872C60.195 63.3382 54.793 65.5331 48.1476 65.4893C41.5021 65.4456 36.1283 63.1789 36.147 60.4279C36.1658 57.6769 41.5677 55.4852 48.2147 55.529C54.8617 55.5727 60.2403 57.8394 60.2137 60.5872Z" fill="#9895A2" fill-opacity="0.05"/>
</g>
<g style="mix-blend-mode:multiply" opacity="0.69">
<path d="M60.1742 60.5873C60.1555 63.3273 54.8035 65.5143 48.2112 65.4675C41.6188 65.4206 36.3075 63.1711 36.3262 60.4295C36.345 57.6879 41.6969 55.5087 48.283 55.5524C54.8691 55.5961 60.1914 57.8597 60.1742 60.5873Z" fill="#9895A2" fill-opacity="0.05"/>
</g>
<g style="mix-blend-mode:multiply" opacity="0.7">
<path d="M60.1341 60.5872C60.1169 63.3132 54.8133 65.4877 48.2882 65.444C41.763 65.4002 36.4954 63.1554 36.5064 60.431C36.5173 57.7066 41.8287 55.5336 48.3538 55.5758C54.879 55.618 60.1528 57.8597 60.1341 60.5872Z" fill="#9895A2" fill-opacity="0.05"/>
</g>
<g style="mix-blend-mode:multiply" opacity="0.7">
<path d="M60.0946 60.5872C60.0774 63.2991 54.8223 65.4643 48.3581 65.4221C41.8938 65.3799 36.6684 63.1445 36.6856 60.431C36.7028 57.7175 41.9579 55.5571 48.4237 55.5992C54.8895 55.6414 60.1134 57.8769 60.0946 60.5872Z" fill="#9895A2" fill-opacity="0.05"/>
</g>
<g style="mix-blend-mode:multiply" opacity="0.7">
<path d="M60.0554 60.5857C60.0367 63.2867 54.8315 65.4424 48.4282 65.3987C42.0249 65.355 36.8479 63.1336 36.8682 60.4326C36.8885 57.7316 42.0921 55.5805 48.497 55.6227C54.9018 55.6649 60.0726 57.8894 60.0554 60.5857Z" fill="#9895A2" fill-opacity="0.05"/>
</g>
<g style="mix-blend-mode:multiply" opacity="0.71">
<path d="M60.0166 60.5851C59.9978 63.2736 54.8427 65.4184 48.4987 65.3762C42.1548 65.3341 37.0278 63.1205 37.045 60.4336C37.0621 57.7466 42.2204 55.6049 48.5644 55.6471C54.9083 55.6893 60.0338 57.9013 60.0166 60.5851Z" fill="#9895A2" fill-opacity="0.05"/>
</g>
<g style="mix-blend-mode:multiply" opacity="0.71">
<path d="M59.9762 60.5851C59.959 63.2595 54.8523 65.395 48.5724 65.3544C42.2925 65.3138 37.2108 63.1096 37.2295 60.4351C37.2483 57.7607 42.3534 55.6284 48.6333 55.6705C54.9132 55.7127 59.9949 57.9138 59.9762 60.5851Z" fill="#9895A2" fill-opacity="0.05"/>
</g>
</g>
<path d="M79.9998 32.6947C79.9998 50.0047 65.968 64.0349 48.6595 64.0349C31.3511 64.0349 17.3193 50.0047 17.3193 32.6947C17.3193 15.3847 31.3511 1.35449 48.6658 1.35449C65.9804 1.35449 79.9998 15.3863 79.9998 32.6947Z" fill="url(#paint0_linear)"/>
<path d="M79.999 32.5839C80.0283 36.7036 79.2393 40.7883 77.6775 44.6028C76.1157 48.4173 73.8119 51.8861 70.8989 54.8096C67.9858 57.733 64.5211 60.0532 60.7043 61.6365C56.8874 63.2198 52.7939 64.0349 48.6595 64.0349C44.5252 64.0349 40.4317 63.2198 36.6148 61.6365C32.798 60.0532 29.3333 57.733 26.4202 54.8096C23.5072 51.8861 21.2034 48.4173 19.6416 44.6028C18.0798 40.7883 17.2908 36.7036 17.3201 32.5839C17.3201 15.3355 31.3571 1.35449 48.6588 1.35449C65.9605 1.35449 79.999 15.3355 79.999 32.5839Z" fill="url(#paint1_radial)"/>
<path style="mix-blend-mode:multiply" d="M44.864 66.4296C61.8803 63.774 73.5221 47.8268 70.8665 30.8104C68.2109 13.7941 52.2637 2.15233 35.2474 4.80789C18.231 7.46345 6.58928 23.4107 9.24485 40.427C11.9004 57.4434 27.8476 69.0851 44.864 66.4296Z" fill="url(#paint2_radial)" fill-opacity="0.7"/>
<path style="mix-blend-mode:screen" d="M34.0409 7.64839C36.3842 1.88869 46.268 0.462435 56.1143 4.47251C65.9606 8.48258 72.0483 16.3949 69.7051 22.1562C67.3619 27.9175 57.4796 29.3421 47.6317 25.3321C37.7839 21.322 31.6977 13.4081 34.0409 7.64839Z" fill="url(#paint3_radial)"/>
<path style="mix-blend-mode:screen" d="M50.1812 7.37132C51.0514 4.70158 54.8849 3.55808 58.7435 4.81562C62.602 6.07316 65.0249 9.25529 64.1548 11.925C63.2847 14.5948 59.4589 15.7383 55.5926 14.4807C51.7262 13.2232 49.3049 10.0395 50.1812 7.37132Z" fill="url(#paint4_radial)"/>
<path style="mix-blend-mode:screen" d="M53.6794 13.5702C55.0056 9.5008 60.8512 7.75743 66.7344 9.6742C72.6175 11.591 76.312 16.4446 74.9857 20.514C73.6594 24.5835 67.8138 26.3284 61.9307 24.4101C56.0476 22.4917 52.3546 17.6397 53.6794 13.5702Z" fill="url(#paint5_radial)"/>
<path style="mix-blend-mode:screen" d="M53.6794 13.5702C55.0056 9.5008 60.8512 7.75743 66.7344 9.6742C72.6175 11.591 76.312 16.4446 74.9857 20.514C73.6594 24.5835 67.8138 26.3284 61.9307 24.4101C56.0476 22.4917 52.3546 17.6397 53.6794 13.5702Z" fill="url(#paint6_radial)"/>
<path style="mix-blend-mode:screen" d="M61.8119 15.9726C62.2805 14.5292 64.3535 13.9121 66.4375 14.5917C68.5214 15.2712 69.832 16.9896 69.3618 18.433C68.8916 19.8765 66.8202 20.492 64.7363 19.8124C62.6523 19.1329 61.3432 17.4129 61.8119 15.9726Z" fill="url(#paint7_radial)"/>
<defs>
<linearGradient id="paint0_linear" x1="48.6595" y1="61.7085" x2="48.6595" y2="-0.973513" gradientUnits="userSpaceOnUse">
<stop stop-color="#8F8E92"/>
<stop offset="0.16" stop-color="#A9A7AD"/>
<stop offset="0.53" stop-color="#C9C8CD"/>
<stop offset="0.83" stop-color="#E1E0E3"/>
<stop offset="1" stop-color="#E4E3E7"/>
</linearGradient>
<radialGradient id="paint1_radial" cx="0" cy="0" r="1" gradientUnits="userSpaceOnUse" gradientTransform="translate(50.1788 0.923241) scale(66.9981 66.7613)">
<stop offset="0.01" stop-color="#E2E1E4"/>
<stop offset="1" stop-color="#9895A2"/>
</radialGradient>
<radialGradient id="paint2_radial" cx="0" cy="0" r="1" gradientUnits="userSpaceOnUse" gradientTransform="translate(39.7229 35.4868) scale(34.3613)">
<stop offset="0.04" stop-color="#303030"/>
<stop offset="0.33" stop-color="#7C7C7C"/>
<stop offset="0.73" stop-color="#EDEDED"/>
<stop offset="0.81" stop-color="#F4F4F4"/>
<stop offset="0.97" stop-color="white"/>
</radialGradient>
<radialGradient id="paint3_radial" cx="0" cy="0" r="1" gradientUnits="userSpaceOnUse" gradientTransform="translate(53.3511 15.5446) rotate(-157.751) scale(15.2688 8.93155)">
<stop offset="0.23" stop-color="#E6E6E6"/>
<stop offset="0.33" stop-color="#BDBDBD"/>
<stop offset="0.51" stop-color="#7A7A7A"/>
<stop offset="0.68" stop-color="#464646"/>
<stop offset="0.82" stop-color="#202020"/>
<stop offset="0.93" stop-color="#090909"/>
<stop offset="1"/>
</radialGradient>
<radialGradient id="paint4_radial" cx="0" cy="0" r="1" gradientUnits="userSpaceOnUse" gradientTransform="translate(57.4775 9.56316) rotate(-161.946) scale(5.83487 4.03202)">
<stop offset="0.13" stop-color="#E6E6E6"/>
<stop offset="0.22" stop-color="#D7D7D7"/>
<stop offset="0.39" stop-color="#B1B1B1"/>
<stop offset="0.62" stop-color="#727272"/>
<stop offset="0.91" stop-color="#1D1D1D"/>
<stop offset="1"/>
</radialGradient>
<radialGradient id="paint5_radial" cx="0" cy="0" r="1" gradientUnits="userSpaceOnUse" gradientTransform="translate(5979.58 3093.67) scale(653.391 487.352)">
<stop offset="0.13" stop-color="#E6E6E6"/>
<stop offset="0.22" stop-color="#D7D7D7"/>
<stop offset="0.39" stop-color="#B1B1B1"/>
<stop offset="0.62" stop-color="#727272"/>
<stop offset="0.91" stop-color="#1D1D1D"/>
<stop offset="1"/>
</radialGradient>
<radialGradient id="paint6_radial" cx="0" cy="0" r="1" gradientUnits="userSpaceOnUse" gradientTransform="translate(5979.58 3093.67) scale(653.391 487.352)">
<stop offset="0.13" stop-color="#E6E6E6"/>
<stop offset="0.22" stop-color="#D7D7D7"/>
<stop offset="0.39" stop-color="#B1B1B1"/>
<stop offset="0.62" stop-color="#727272"/>
<stop offset="0.91" stop-color="#1D1D1D"/>
<stop offset="1"/>
</radialGradient>
<radialGradient id="paint7_radial" cx="0" cy="0" r="1" gradientUnits="userSpaceOnUse" gradientTransform="translate(2138.99 1110.48) scale(82.0504 61.1993)">
<stop offset="0.13" stop-color="#E6E6E6"/>
<stop offset="0.22" stop-color="#D7D7D7"/>
<stop offset="0.39" stop-color="#B1B1B1"/>
<stop offset="0.62" stop-color="#727272"/>
<stop offset="0.91" stop-color="#1D1D1D"/>
<stop offset="1"/>
</radialGradient>
</defs>
</svg>
