<svg width="54" height="49" viewBox="0 0 54 49" fill="none" xmlns="http://www.w3.org/2000/svg">
<g style="mix-blend-mode:multiply" opacity="0.3">
<g style="mix-blend-mode:multiply" opacity="0.96">
<g style="mix-blend-mode:multiply" opacity="0.01">
<path d="M45.9472 41.0835C45.923 44.6486 35.6736 47.4703 23.0528 47.386C10.432 47.3016 0.218466 44.346 0.242719 40.7808C0.266971 37.2157 10.5163 34.395 23.1382 34.4794C35.7601 34.5637 45.9704 37.5194 45.9472 41.0835Z" fill="#9895A2" fill-opacity="0.05"/>
</g>
<g style="mix-blend-mode:multiply" opacity="0.01">
<path d="M45.9197 41.0832C45.8965 44.6399 35.6798 47.4543 23.1001 47.371C10.5204 47.2877 0.340611 44.3384 0.363809 40.7817C0.387007 37.225 10.61 34.4117 23.1855 34.495C35.761 34.5783 45.9439 37.5276 45.9197 41.0832Z" fill="#9895A2" fill-opacity="0.05"/>
</g>
<g style="mix-blend-mode:multiply" opacity="0.01">
<path d="M45.8935 41.084C45.8703 44.6323 35.6863 47.4393 23.1477 47.356C10.6091 47.2727 0.462045 44.3307 0.487352 40.7824C0.512659 37.2342 10.6956 34.4283 23.2342 34.5116C35.7728 34.5949 45.9167 37.5368 45.8935 41.084Z" fill="#9895A2" fill-opacity="0.05"/>
</g>
<g style="mix-blend-mode:multiply" opacity="0.02">
<path d="M45.8671 41.0834C45.8439 44.6222 35.6926 47.4229 23.1962 47.3406C10.6998 47.2584 0.583287 44.3227 0.606485 40.7882C0.629683 37.2536 10.781 34.4488 23.2774 34.5321C35.7738 34.6154 45.8903 37.5447 45.8671 41.0834Z" fill="#9895A2" fill-opacity="0.05"/>
</g>
<g style="mix-blend-mode:multiply" opacity="0.02">
<path d="M45.8405 41.0844C45.8163 44.6147 35.6998 47.4112 23.2424 47.3268C10.785 47.2424 0.704381 44.3153 0.727579 40.7892C0.750777 37.263 10.8694 34.4624 23.3268 34.5478C35.7842 34.6332 45.8637 37.5541 45.8405 41.0844Z" fill="#9895A2" fill-opacity="0.05"/>
</g>
<g style="mix-blend-mode:multiply" opacity="0.02">
<path d="M45.8134 41.0833C45.7902 44.6063 35.7064 47.3932 23.2901 47.311C10.8738 47.2287 0.830093 44.3079 0.850128 40.786C0.870162 37.2641 10.9571 34.4771 23.3744 34.5594C35.7918 34.6416 45.8366 37.5625 45.8134 41.0833Z" fill="#9895A2" fill-opacity="0.05"/>
</g>
<g style="mix-blend-mode:multiply" opacity="0.03">
<path d="M45.7868 41.0829C45.7636 44.5974 35.7125 47.377 23.3374 47.2958C10.9622 47.2146 0.948034 44.3001 0.971232 40.7887C0.99443 37.2774 11.0455 34.4957 23.4217 34.5779C35.7979 34.6602 45.81 37.5705 45.7868 41.0829Z" fill="#9895A2" fill-opacity="0.05"/>
</g>
<g style="mix-blend-mode:multiply" opacity="0.03">
<path d="M45.7608 41.0828C45.7376 44.5878 35.7192 47.3621 23.3852 47.2799C11.0511 47.1976 1.06962 44.2915 1.09281 40.7886C1.11601 37.2857 11.1344 34.5104 23.4685 34.5926C35.8025 34.6749 45.784 37.5778 45.7608 41.0828Z" fill="#9895A2" fill-opacity="0.05"/>
</g>
<g style="mix-blend-mode:multiply" opacity="0.03">
<path d="M45.7327 41.0826C45.7095 44.5792 35.7259 47.3461 23.4319 47.2649C11.138 47.1838 1.19022 44.284 1.21342 40.7885C1.23662 37.2929 11.2213 34.526 23.5152 34.6072C35.8092 34.6884 45.7559 37.5861 45.7327 41.0826Z" fill="#9895A2" fill-opacity="0.05"/>
</g>
<g style="mix-blend-mode:multiply" opacity="0.04">
<path d="M45.707 41.0825C45.6838 44.5707 35.7328 47.3302 23.48 47.249C11.2272 47.1678 1.3121 44.2765 1.33108 40.7883C1.35006 37.3002 11.3063 34.5407 23.5591 34.6219C35.8119 34.7031 45.7302 37.5944 45.707 41.0825Z" fill="#9895A2" fill-opacity="0.05"/>
</g>
<g style="mix-blend-mode:multiply" opacity="0.04">
<path d="M45.6801 41.0824C45.6569 44.5621 35.7387 47.3153 23.527 47.2342C11.3153 47.153 1.43605 44.268 1.45609 40.7882C1.47612 37.3085 11.3975 34.5553 23.6103 34.6365C35.8231 34.7177 45.7033 37.6027 45.6801 41.0824Z" fill="#9895A2" fill-opacity="0.05"/>
</g>
<g style="mix-blend-mode:multiply" opacity="0.04">
<path d="M45.6541 41.0815C45.6309 44.5527 35.7422 47.3028 23.5748 47.2195C11.4074 47.1362 1.55448 44.2606 1.57768 40.7873C1.60088 37.3139 11.4896 34.5659 23.6581 34.6514C35.8265 34.7368 45.6763 37.6112 45.6541 41.0815Z" fill="#9895A2" fill-opacity="0.05"/>
</g>
<g style="mix-blend-mode:multiply" opacity="0.05">
<path d="M45.6265 41.0817C45.6044 44.5445 35.7526 47.284 23.622 47.2039C11.4915 47.1238 1.67662 44.2514 1.69877 40.7907C1.72091 37.3299 11.5738 34.5894 23.7054 34.6748C35.8369 34.7602 45.6497 37.6252 45.6265 41.0817Z" fill="#9895A2" fill-opacity="0.05"/>
</g>
<g style="mix-blend-mode:multiply" opacity="0.05">
<path d="M45.5999 41.0809C45.5767 44.5343 35.7586 47.2685 23.6671 47.1884C11.5757 47.1082 1.79764 44.2443 1.82084 40.7878C1.84404 37.3313 11.6621 34.6013 23.7536 34.6814C35.8451 34.7615 45.6231 37.6244 45.5999 41.0809Z" fill="#9895A2" fill-opacity="0.05"/>
</g>
<g style="mix-blend-mode:multiply" opacity="0.05">
<path d="M45.5739 41.0818C45.5507 44.5267 35.7674 47.2535 23.717 47.1734C11.6667 47.0933 1.91923 44.2378 1.94242 40.7887C1.96562 37.3395 11.7489 34.6169 23.7993 34.697C35.8496 34.7772 45.596 37.6369 45.5739 41.0818Z" fill="#9895A2" fill-opacity="0.05"/>
</g>
<g style="mix-blend-mode:multiply" opacity="0.06">
<path d="M45.5475 41.0816C45.5243 44.518 35.7716 47.2375 23.7644 47.1584C11.7573 47.0793 2.04044 44.2291 2.06891 40.7884C2.09738 37.3477 11.8438 34.6335 23.8519 34.7126C35.8601 34.7917 45.5696 37.6451 45.5475 41.0816Z" fill="#9895A2" fill-opacity="0.05"/>
</g>
<g style="mix-blend-mode:multiply" opacity="0.06">
<path d="M45.5202 41.081C45.4981 44.509 35.7791 47.2222 23.8121 47.1431C11.845 47.064 2.1619 44.2222 2.1851 40.7942C2.2083 37.3661 11.9273 34.654 23.8964 34.7331C35.8656 34.8122 45.5434 37.654 45.5202 41.081Z" fill="#9895A2" fill-opacity="0.05"/>
</g>
<g style="mix-blend-mode:multiply" opacity="0.07">
<path d="M45.4932 41.0816C45.4711 44.5013 35.7848 47.2081 23.8589 47.129C11.9329 47.0499 2.27936 44.2144 2.30572 40.7959C2.33208 37.3773 12.0141 34.6737 23.9411 34.7496C35.8681 34.8255 45.5122 37.6631 45.4932 41.0816Z" fill="#9895A2" fill-opacity="0.05"/>
</g>
<g style="mix-blend-mode:multiply" opacity="0.07">
<path d="M45.4672 41.0808C45.444 44.492 35.7915 47.1967 23.9066 47.1123C12.0218 47.028 2.40514 44.2063 2.42728 40.7961C2.44943 37.386 12.103 34.6803 23.9889 34.7646C35.8748 34.849 45.4893 37.6707 45.4672 41.0808Z" fill="#9895A2" fill-opacity="0.05"/>
</g>
<g style="mix-blend-mode:multiply" opacity="0.07">
<path d="M45.4411 41.0804C45.4179 44.4821 35.7981 47.1752 23.9544 47.0972C12.1107 47.0192 2.52672 44.1985 2.54887 40.7957C2.57101 37.393 12.1919 34.702 24.0356 34.7779C35.8793 34.8539 45.4633 37.6788 45.4411 41.0804Z" fill="#9895A2" fill-opacity="0.05"/>
</g>
<g style="mix-blend-mode:multiply" opacity="0.08">
<path d="M45.4136 41.0812C45.3914 44.4797 35.8053 47.1612 24.0017 47.0831C12.1981 47.0051 2.64782 44.1908 2.66996 40.7975C2.6921 37.4043 12.2793 34.7185 24.0829 34.7966C35.8865 34.8746 45.4368 37.6879 45.4136 41.0812Z" fill="#9895A2" fill-opacity="0.05"/>
</g>
<g style="mix-blend-mode:multiply" opacity="0.08">
<path d="M45.387 41.081C45.3649 44.4658 35.8115 47.1452 24.049 47.0671C12.2865 46.9891 2.76891 44.1832 2.79105 40.7984C2.8132 37.4136 12.3677 34.7342 24.1302 34.8122C35.8927 34.8902 45.4071 37.6962 45.387 41.081Z" fill="#9895A2" fill-opacity="0.05"/>
</g>
<g style="mix-blend-mode:multiply" opacity="0.08">
<path d="M45.3605 41.0797C45.3373 44.454 35.8176 47.1291 24.0962 47.0522C12.3749 46.9752 2.89 44.1756 2.91215 40.7992C2.93429 37.4228 12.454 34.7508 24.1764 34.8278C35.8988 34.9048 45.3826 37.7044 45.3605 41.0797Z" fill="#9895A2" fill-opacity="0.05"/>
</g>
<g style="mix-blend-mode:multiply" opacity="0.09">
<path d="M45.3333 41.0795C45.3112 44.4474 35.8242 47.1142 24.1439 47.0361C12.4637 46.9581 3.01151 44.1627 3.03471 40.799C3.05791 37.4353 12.5438 34.7664 24.2294 34.8434C35.9149 34.9204 45.3565 37.7126 45.3333 41.0795Z" fill="#9895A2" fill-opacity="0.05"/>
</g>
<g style="mix-blend-mode:multiply" opacity="0.09">
<path d="M45.3073 41.0795C45.2851 44.439 35.8319 47.0983 24.1917 47.0214C12.5515 46.9444 3.13415 44.1596 3.15629 40.8001C3.17843 37.4405 12.6327 34.778 24.2729 34.8592C35.9131 34.9404 45.3294 37.721 45.3073 41.0795Z" fill="#9895A2" fill-opacity="0.05"/>
</g>
<g style="mix-blend-mode:multiply" opacity="0.09">
<path d="M45.2807 41.0801C45.2586 44.4311 35.8381 47.0831 24.239 47.0061C12.6399 46.9291 3.25524 44.1517 3.27738 40.8017C3.29953 37.4517 12.719 34.7997 24.3181 34.8756C35.9171 34.9515 45.3018 37.7311 45.2807 41.0801Z" fill="#9895A2" fill-opacity="0.05"/>
</g>
<g style="mix-blend-mode:multiply" opacity="0.1">
<path d="M45.2547 41.0799C45.2326 44.4215 35.8447 47.0681 24.2868 46.9912C12.7288 46.9142 3.37682 44.1441 3.39897 40.8025C3.42111 37.461 12.809 34.8153 24.3669 34.8912C35.9248 34.9672 45.2768 37.7383 45.2547 41.0799Z" fill="#9895A2" fill-opacity="0.05"/>
</g>
<g style="mix-blend-mode:multiply" opacity="0.1">
<path d="M45.2266 41.0797C45.2045 44.4128 35.8514 47.0521 24.3336 46.9762C12.8157 46.9003 3.49743 44.1366 3.51957 40.8024C3.54171 37.4682 12.8958 34.831 24.4137 34.9069C35.9316 34.9828 45.2488 37.7465 45.2266 41.0797Z" fill="#9895A2" fill-opacity="0.05"/>
</g>
<g style="mix-blend-mode:multiply" opacity="0.1">
<path d="M45.1962 41.0784C45.174 44.4042 35.8537 47.0361 24.3769 46.9602C12.9002 46.8843 3.61461 44.1279 3.63676 40.8032C3.6589 37.4785 12.9803 34.8466 24.4571 34.9225C35.9338 34.9984 45.2226 37.7548 45.1962 41.0784Z" fill="#9895A2" fill-opacity="0.05"/>
</g>
<g style="mix-blend-mode:multiply" opacity="0.11">
<path d="M45.1741 41.0782C45.152 44.3945 35.8643 47.0201 24.4287 46.9452C12.9931 46.8703 3.74123 44.1203 3.76126 40.804C3.7813 37.4877 13.0721 34.8632 24.5078 34.9391C35.9434 35.015 45.1963 37.763 45.1741 41.0782Z" fill="#9895A2" fill-opacity="0.05"/>
</g>
<g style="mix-blend-mode:multiply" opacity="0.11">
<path d="M45.1479 41.079C45.1258 44.3868 35.8687 47.0061 24.4805 46.9302C13.0924 46.8542 3.86161 44.1137 3.88481 40.8059C3.90801 37.498 13.1641 34.8798 24.5522 34.9557C35.9404 35.0316 45.169 37.7722 45.1479 41.079Z" fill="#9895A2" fill-opacity="0.05"/>
</g>
<g style="mix-blend-mode:multiply" opacity="0.11">
<path d="M45.1205 41.0795C45.0983 44.3747 35.8781 46.9908 24.529 46.916C13.1798 46.8411 3.98913 44.1058 4.01127 40.8064C4.03341 37.507 13.2547 34.9015 24.608 34.9721C35.9614 35.0428 45.1426 37.7812 45.1205 41.0795Z" fill="#9895A2" fill-opacity="0.05"/>
</g>
<g style="mix-blend-mode:multiply" opacity="0.12">
<path d="M45.0909 41.0785C45.0687 44.3685 35.8812 46.974 24.5679 46.8992C13.2546 46.8243 4.10192 44.0975 4.12406 40.8065C4.14621 37.5155 13.3337 34.9121 24.647 34.9869C35.9603 35.0618 45.1162 37.7886 45.0909 41.0785Z" fill="#9895A2" fill-opacity="0.05"/>
</g>
<g style="mix-blend-mode:multiply" opacity="0.12">
<path d="M45.0678 41.0792C45.0456 44.3606 35.894 46.9599 24.6186 46.885C13.3433 46.8102 4.22643 44.0897 4.24858 40.8082C4.27072 37.5267 13.4224 34.9285 24.6977 35.0086C35.9731 35.0888 45.091 37.7977 45.0678 41.0792Z" fill="#9895A2" fill-opacity="0.05"/>
</g>
<g style="mix-blend-mode:multiply" opacity="0.12">
<path d="M45.0402 41.0781C45.0191 44.3469 35.897 46.944 24.6659 46.8692C13.4349 46.7943 4.34753 44.0822 4.36967 40.8092C4.39181 37.5362 13.5139 34.9443 24.745 35.0192C35.9761 35.094 45.0623 37.8061 45.0402 41.0781Z" fill="#9895A2" fill-opacity="0.05"/>
</g>
<g style="mix-blend-mode:multiply" opacity="0.13">
<path d="M45.0139 41.0779C44.9928 44.3467 35.9044 46.928 24.7135 46.8542C13.5225 46.7804 4.46994 44.0747 4.49419 40.8101C4.51844 37.5455 13.6047 34.9599 24.7957 35.0348C35.9867 35.1097 45.0361 37.8143 45.0139 41.0779Z" fill="#9895A2" fill-opacity="0.05"/>
</g>
<g style="mix-blend-mode:multiply" opacity="0.13">
<path d="M44.9852 41.0777C44.963 44.3338 35.9084 46.9131 24.7585 46.8392C13.6087 46.7654 4.58881 44.066 4.6099 40.8098C4.63099 37.5537 13.6899 34.9766 24.845 35.0504C36.0001 35.1242 45.0084 37.8226 44.9852 41.0777Z" fill="#9895A2" fill-opacity="0.05"/>
</g>
<g style="mix-blend-mode:multiply" opacity="0.13">
<path d="M44.9611 41.0776C44.9389 44.3253 35.917 46.8972 24.8082 46.8234C13.6995 46.7495 4.71235 44.0586 4.73344 40.8129C4.75452 37.5673 13.7733 34.9892 24.8863 35.0661C35.9992 35.1431 44.9853 37.8362 44.9611 41.0776Z" fill="#9895A2" fill-opacity="0.05"/>
</g>
<g style="mix-blend-mode:multiply" opacity="0.14">
<path d="M44.9339 41.0771C44.9128 44.3164 35.9236 46.8767 24.857 46.8081C13.7904 46.7396 4.83385 44.0496 4.856 40.8114C4.87814 37.5731 13.8664 35.0119 24.934 35.0815C36.0016 35.1511 44.9561 37.8357 44.9339 41.0771Z" fill="#9895A2" fill-opacity="0.05"/>
</g>
<g style="mix-blend-mode:multiply" opacity="0.14">
<path d="M44.907 41.0771C44.886 44.3069 35.9304 46.865 24.9039 46.7922C13.8774 46.7195 4.95461 44.0422 4.97464 40.8124C4.99468 37.5826 13.9523 35.0245 24.9788 35.0972C36.0053 35.17 44.9281 37.8472 44.907 41.0771Z" fill="#9895A2" fill-opacity="0.05"/>
</g>
<g style="mix-blend-mode:multiply" opacity="0.14">
<path d="M44.8804 41.0768C44.8593 44.2992 35.9364 46.851 24.9511 46.7783C13.9657 46.7055 5.07555 44.0367 5.0977 40.8132C5.11984 37.5897 14.0416 35.0411 25.027 35.1138C36.0124 35.1866 44.9025 37.8565 44.8804 41.0768Z" fill="#9895A2" fill-opacity="0.05"/>
</g>
<g style="mix-blend-mode:multiply" opacity="0.15">
<path d="M44.8543 41.0766C44.8322 44.2906 35.9431 46.835 24.9988 46.7623C14.0546 46.6895 5.19819 44.027 5.21928 40.814C5.24037 37.6011 14.1305 35.0567 25.0758 35.1295C36.0211 35.2022 44.8796 37.8647 44.8543 41.0766Z" fill="#9895A2" fill-opacity="0.05"/>
</g>
<g style="mix-blend-mode:multiply" opacity="0.15">
<path d="M44.8274 41.0764C44.8064 44.2809 35.95 46.819 25.0468 46.7473C14.1437 46.6756 5.31999 44.0194 5.33792 40.8149C5.35584 37.6104 14.2154 35.0723 25.1196 35.1451C36.0238 35.2178 44.8485 37.873 44.8274 41.0764Z" fill="#9895A2" fill-opacity="0.05"/>
</g>
<g style="mix-blend-mode:multiply" opacity="0.15">
<path d="M44.8007 41.0762C44.7796 44.2723 35.9569 46.804 25.0939 46.7323C14.2308 46.6606 5.44296 44.0118 5.46194 40.8157C5.48093 37.6197 14.3068 35.089 25.1698 35.1607C36.0329 35.2324 44.8218 37.8812 44.8007 41.0762Z" fill="#9895A2" fill-opacity="0.05"/>
</g>
<g style="mix-blend-mode:multiply" opacity="0.16">
<path d="M44.7742 41.0763C44.7531 44.2639 35.9631 46.7883 25.1412 46.7166C14.3192 46.6449 5.56196 44.0035 5.58305 40.8116C5.60414 37.6198 14.3952 35.1007 25.2171 35.1724C36.039 35.2441 44.7952 37.8897 44.7742 41.0763Z" fill="#9895A2" fill-opacity="0.05"/>
</g>
<g style="mix-blend-mode:multiply" opacity="0.16">
<path d="M44.7471 41.0757C44.726 44.2539 35.9697 46.7698 25.1889 46.7013C14.4082 46.6327 5.68144 43.9955 5.70464 40.8163C5.72783 37.6371 14.483 35.1222 25.2649 35.1918C36.0467 35.2614 44.7682 37.8976 44.7471 41.0757Z" fill="#9895A2" fill-opacity="0.05"/>
</g>
<g style="mix-blend-mode:multiply" opacity="0.16">
<path d="M44.7205 41.0755C44.6994 44.2463 35.9759 46.758 25.2362 46.6863C14.4965 46.6146 5.80463 43.9879 5.82572 40.8182C5.84681 37.6485 14.5714 35.1378 25.3121 35.2085C36.0529 35.2791 44.7416 37.9068 44.7205 41.0755Z" fill="#9895A2" fill-opacity="0.05"/>
</g>
<g style="mix-blend-mode:multiply" opacity="0.17">
<path d="M44.6944 41.0753C44.6733 44.2387 35.9835 46.742 25.2839 46.6713C14.5843 46.6007 5.92719 43.9803 5.94828 40.8191C5.96937 37.6578 14.6592 35.1535 25.3598 35.2241C36.0605 35.2948 44.7155 37.9151 44.6944 41.0753Z" fill="#9895A2" fill-opacity="0.05"/>
</g>
<g style="mix-blend-mode:multiply" opacity="0.17">
<path d="M44.6689 41.0751C44.6479 44.228 35.9907 46.726 25.3323 46.6553C14.6738 46.5847 6.04829 43.9728 6.06937 40.8189C6.09046 37.665 14.7476 35.1691 25.4061 35.2397C36.0645 35.3104 44.6879 37.9233 44.6689 41.0751Z" fill="#9895A2" fill-opacity="0.05"/>
</g>
<g style="mix-blend-mode:multiply" opacity="0.17">
<path d="M44.6405 41.0749C44.6205 44.2193 35.994 46.711 25.3787 46.6404C14.7635 46.5697 6.1696 43.9642 6.18753 40.8198C6.20545 37.6754 14.8341 35.1847 25.4504 35.2554C36.0667 35.326 44.6616 37.9305 44.6405 41.0749Z" fill="#9895A2" fill-opacity="0.05"/>
</g>
<g style="mix-blend-mode:multiply" opacity="0.18">
<path d="M44.6145 41.0763C44.5934 44.2123 36.0027 46.6966 25.4233 46.626C14.8439 46.5553 6.28803 43.9582 6.30912 40.8264C6.33021 37.6947 14.9209 35.2072 25.5003 35.2768C36.0797 35.3464 44.6356 37.9425 44.6145 41.0763Z" fill="#9895A2" fill-opacity="0.05"/>
</g>
<g style="mix-blend-mode:multiply" opacity="0.18">
<path d="M44.5877 41.0755C44.5666 44.203 36.0097 46.68 25.4735 46.6104C14.9374 46.5408 6.41206 43.9521 6.43314 40.8224C6.45423 37.6928 15.0122 35.218 25.5484 35.2876C36.0846 35.3572 44.6078 37.948 44.5877 41.0755Z" fill="#9895A2" fill-opacity="0.05"/>
</g>
<g style="mix-blend-mode:multiply" opacity="0.19">
<path d="M44.5638 41.0743C44.5427 44.1933 36.0227 46.6629 25.5234 46.5954C15.0241 46.5279 6.53469 43.9413 6.55472 40.8222C6.57476 37.7031 15.0958 35.2336 25.5962 35.3032C36.0965 35.3728 44.5817 37.9562 44.5638 41.0743Z" fill="#9895A2" fill-opacity="0.05"/>
</g>
<g style="mix-blend-mode:multiply" opacity="0.19">
<path d="M44.5341 41.074C44.5141 44.1847 36.0225 46.649 25.5686 46.5794C15.1147 46.5098 6.65578 43.9337 6.67582 40.8231C6.69585 37.7124 15.1885 35.2502 25.6434 35.3188C36.0984 35.3873 44.5552 37.9644 44.5341 41.074Z" fill="#9895A2" fill-opacity="0.05"/>
</g>
<g style="mix-blend-mode:multiply" opacity="0.19">
<path d="M44.5076 41.0748C44.4875 44.177 36.0287 46.6339 25.6159 46.5654C15.2031 46.4968 6.77688 43.9292 6.79691 40.8249C6.81695 37.7206 15.2758 35.2668 25.6886 35.3354C36.1014 35.4039 44.5287 37.9736 44.5076 41.0748Z" fill="#9895A2" fill-opacity="0.05"/>
</g>
<g style="mix-blend-mode:multiply" opacity="0.2">
<path d="M44.4815 41.0736C44.4604 44.1664 36.0363 46.6169 25.6636 46.5484C15.2908 46.4799 6.89418 43.9122 6.91949 40.8248C6.9448 37.7373 15.3647 35.2815 25.7374 35.35C36.1101 35.4186 44.5015 37.9809 44.4815 41.0736Z" fill="#9895A2" fill-opacity="0.05"/>
</g>
<g style="mix-blend-mode:multiply" opacity="0.2">
<path d="M44.4581 41.0744C44.437 44.1587 36.0456 46.6029 25.714 46.5344C15.3824 46.4658 7.02473 43.9109 7.04055 40.8255C7.05637 37.7402 15.453 35.2991 25.7846 35.3666C36.1162 35.4341 44.4749 37.9901 44.4581 41.0744Z" fill="#9895A2" fill-opacity="0.05"/>
</g>
<g style="mix-blend-mode:multiply" opacity="0.2">
<path d="M44.4279 41.0733C44.4079 44.1502 36.0492 46.5871 25.764 46.5185C15.4788 46.45 7.14643 43.9024 7.16752 40.8245C7.18861 37.7465 15.5463 35.3128 25.8378 35.3803C36.1293 35.4478 44.449 37.9985 44.4279 41.0733Z" fill="#9895A2" fill-opacity="0.05"/>
</g>
<g style="mix-blend-mode:multiply" opacity="0.21">
<path d="M44.4013 41.0729C44.3813 44.1404 36.0552 46.5709 25.8059 46.5034C15.5565 46.4359 7.2632 43.8947 7.28324 40.8272C7.30327 37.7598 15.6293 35.3303 25.8797 35.3989C36.1301 35.4674 44.4213 38.0066 44.4013 41.0729Z" fill="#9895A2" fill-opacity="0.05"/>
</g>
<g style="mix-blend-mode:multiply" opacity="0.21">
<path d="M44.3751 41.0728C44.354 44.1307 36.0627 46.556 25.8535 46.4885C15.6442 46.421 7.3846 43.8861 7.40041 40.8281C7.41623 37.7702 15.7127 35.345 25.9231 35.4145C36.1334 35.4841 44.3951 38.0148 44.3751 41.0728Z" fill="#9895A2" fill-opacity="0.05"/>
</g>
<g style="mix-blend-mode:multiply" opacity="0.21">
<path d="M44.353 41.0735C44.333 44.124 36.0745 46.5409 25.9063 46.4734C15.7381 46.4059 7.51125 43.8794 7.53129 40.8289C7.55132 37.7783 15.8109 35.3636 25.9843 35.4311C36.1578 35.4986 44.3689 38.024 44.353 41.0735Z" fill="#9895A2" fill-opacity="0.05"/>
</g>
<g style="mix-blend-mode:multiply" opacity="0.22">
<path d="M44.3211 41.0733C44.3011 44.1144 36.0753 46.5249 25.9482 46.4584C15.8212 46.392 7.62697 43.8718 7.64701 40.8297C7.66704 37.7876 15.8939 35.3792 26.021 35.4467C36.148 35.5142 44.3412 38.0322 44.3211 41.0733Z" fill="#9895A2" fill-opacity="0.05"/>
</g>
<g style="mix-blend-mode:multiply" opacity="0.22">
<path d="M44.2951 41.0731C44.275 44.1057 36.0819 46.5099 25.996 46.4424C15.9101 46.3749 7.75381 43.8632 7.76857 40.8306C7.78334 37.798 15.9818 35.3948 26.0687 35.4623C36.1557 35.5298 44.3151 38.0405 44.2951 41.0731Z" fill="#9895A2" fill-opacity="0.05"/>
</g>
<g style="mix-blend-mode:multiply" opacity="0.22">
<path d="M44.2685 41.0718C44.2485 44.0971 36.089 46.4939 26.0432 46.4274C15.9974 46.361 7.86853 43.8556 7.89067 40.8314C7.91281 37.8072 16.0701 35.4115 26.116 35.4779C36.1618 35.5443 44.2885 38.0466 44.2685 41.0718Z" fill="#9895A2" fill-opacity="0.05"/>
</g>
<g style="mix-blend-mode:multiply" opacity="0.23">
<path d="M44.2409 41.0716C44.2209 44.0874 36.0952 46.4779 26.0905 46.4114C16.0858 46.345 7.99172 43.8459 8.01176 40.8323C8.03179 37.8186 16.1575 35.4271 26.1632 35.4935C36.169 35.56 44.2609 38.0569 44.2409 41.0716Z" fill="#9895A2" fill-opacity="0.05"/>
</g>
<g style="mix-blend-mode:multiply" opacity="0.23">
<path d="M44.2144 41.0714C44.1943 44.0788 36.1013 46.4618 26.1378 46.3965C16.1742 46.3311 8.11282 43.8394 8.13285 40.8321C8.15288 37.8248 16.2459 35.4427 26.2158 35.5092C36.1857 35.5756 44.2344 38.0652 44.2144 41.0714Z" fill="#9895A2" fill-opacity="0.05"/>
</g>
<g style="mix-blend-mode:multiply" opacity="0.23">
<path d="M44.1884 41.0714C44.1684 44.0703 36.1081 46.4491 26.1856 46.3806C16.2632 46.3121 8.23452 43.832 8.25983 40.8331C8.28513 37.8342 16.3402 35.4553 26.2626 35.5249C36.1851 35.5945 44.2085 38.0736 44.1884 41.0714Z" fill="#9895A2" fill-opacity="0.05"/>
</g>
<g style="mix-blend-mode:multiply" opacity="0.24">
<path d="M44.162 41.073C44.142 44.0634 36.1155 46.4328 26.2362 46.3674C16.357 46.3021 8.35891 43.8251 8.37894 40.8357C8.39898 37.8463 16.4255 35.477 26.3048 35.5423C36.184 35.6077 44.181 38.0836 44.162 41.073Z" fill="#9895A2" fill-opacity="0.05"/>
</g>
<g style="mix-blend-mode:multiply" opacity="0.24">
<path d="M44.1347 41.0718C44.1147 44.0528 36.1208 46.4158 26.2806 46.3515C16.4404 46.2872 8.47707 43.8208 8.49711 40.8356C8.51714 37.8504 16.511 35.4916 26.3523 35.557C36.1936 35.6224 44.1547 38.0909 44.1347 41.0718Z" fill="#9895A2" fill-opacity="0.05"/>
</g>
<g style="mix-blend-mode:multiply" opacity="0.24">
<path d="M44.1082 41.0706C44.0881 44.0441 36.128 46.4009 26.3279 46.3355C16.5277 46.2701 8.59817 43.8048 8.6182 40.8354C8.63824 37.8661 16.5984 35.5072 26.3996 35.5726C36.2008 35.638 44.1282 38.0991 44.1082 41.0706Z" fill="#9895A2" fill-opacity="0.05"/>
</g>
<g style="mix-blend-mode:multiply" opacity="0.25">
<path d="M44.0816 41.0712C44.0616 44.0364 36.1342 46.3857 26.3751 46.3214C16.6161 46.2571 8.72031 43.8012 8.73929 40.8382C8.75827 37.8752 16.6868 35.5258 26.4468 35.5902C36.2069 35.6545 44.1006 38.1082 44.0816 41.0712Z" fill="#9895A2" fill-opacity="0.05"/>
</g>
<g style="mix-blend-mode:multiply" opacity="0.25">
<path d="M44.0545 41.0711C44.0356 44.0236 36.1461 46.3698 26.4229 46.3055C16.6997 46.2411 8.84189 43.7937 8.86087 40.8381C8.87985 37.8824 16.7757 35.5405 26.4936 35.6048C36.2115 35.6691 44.0746 38.1165 44.0545 41.0711Z" fill="#9895A2" fill-opacity="0.05"/>
</g>
<g style="mix-blend-mode:multiply" opacity="0.25">
<path d="M44.0279 41.0709C44.0089 44.0234 36.1479 46.3548 26.4701 46.2905C16.7923 46.2262 8.96607 43.7861 8.98294 40.8389C8.99981 37.8917 16.8629 35.5561 26.5408 35.6215C36.2186 35.6868 44.048 38.1247 44.0279 41.0709Z" fill="#9895A2" fill-opacity="0.05"/>
</g>
<g style="mix-blend-mode:multiply" opacity="0.26">
<path d="M44.0019 41.071C43.9818 44.0097 36.1546 46.3433 26.5179 46.2747C16.8812 46.2062 9.0845 43.7778 9.10453 40.839C9.12457 37.9002 16.9518 35.5667 26.5885 35.6363C36.2252 35.7059 44.0209 38.1332 44.0019 41.071Z" fill="#9895A2" fill-opacity="0.05"/>
</g>
<g style="mix-blend-mode:multiply" opacity="0.26">
<path d="M43.9754 41.0705C43.9553 43.9998 36.1608 46.3228 26.5652 46.2595C16.9696 46.1963 9.20559 43.7699 9.22562 40.8396C9.24566 37.9093 17.0423 35.5884 26.6379 35.6517C36.2335 35.7149 43.9943 38.1412 43.9754 41.0705Z" fill="#9895A2" fill-opacity="0.05"/>
</g>
<g style="mix-blend-mode:multiply" opacity="0.26">
<path d="M43.9479 41.0693C43.9289 43.9912 36.1681 46.3078 26.6126 46.2446C17.0571 46.1813 9.32788 43.7613 9.34475 40.8405C9.36163 37.9196 17.1256 35.604 26.6811 35.6673C36.2366 35.7305 43.9679 38.1516 43.9479 41.0693Z" fill="#9895A2" fill-opacity="0.05"/>
</g>
<g style="mix-blend-mode:multiply" opacity="0.27">
<path d="M43.9219 41.07C43.9029 43.9835 36.1748 46.2928 26.6604 46.2295C17.146 46.1662 9.44951 43.7547 9.47271 40.8423C9.49591 37.9298 17.2167 35.6216 26.7311 35.6838C36.2454 35.7461 43.9409 38.1587 43.9219 41.07Z" fill="#9895A2" fill-opacity="0.05"/>
</g>
<g style="mix-blend-mode:multiply" opacity="0.27">
<path d="M43.8947 41.0702C43.8757 43.9742 36.1803 46.2772 26.707 46.2149C17.2337 46.1527 9.56992 43.7475 9.5889 40.8372C9.60788 37.9269 17.3033 35.6324 26.7766 35.6946C36.2499 35.7568 43.9137 38.1673 43.8947 41.0702Z" fill="#9895A2" fill-opacity="0.05"/>
</g>
<g style="mix-blend-mode:multiply" opacity="0.27">
<path d="M43.8687 41.0706C43.8486 43.9662 36.1869 46.2617 26.7548 46.1995C17.3226 46.1373 9.6915 43.7416 9.71048 40.8439C9.72946 37.9463 17.3922 35.6539 26.8244 35.7161C36.2565 35.7783 43.8876 38.1761 43.8687 41.0706Z" fill="#9895A2" fill-opacity="0.05"/>
</g>
<g style="mix-blend-mode:multiply" opacity="0.28">
<path d="M43.8411 41.0704C43.8221 43.9575 36.1941 46.2468 26.8021 46.1846C17.41 46.1224 9.8126 43.7319 9.83158 40.8448C9.85056 37.9577 17.4796 35.6695 26.8717 35.7317C36.2637 35.7939 43.8601 38.1844 43.8411 41.0704Z" fill="#9895A2" fill-opacity="0.05"/>
</g>
<g style="mix-blend-mode:multiply" opacity="0.28">
<path d="M43.815 41.0702C43.7961 43.9521 36.2008 46.2308 26.8488 46.1665C17.4968 46.1021 9.93313 43.7212 9.95316 40.8435C9.9732 37.9659 17.5695 35.6851 26.9194 35.7473C36.2693 35.8095 43.834 38.1926 43.815 41.0702Z" fill="#9895A2" fill-opacity="0.05"/>
</g>
<g style="mix-blend-mode:multiply" opacity="0.28">
<path d="M43.7889 41.069C43.7699 43.9392 36.2073 46.2147 26.8975 46.1536C17.5877 46.0924 10.0567 43.7157 10.0757 40.8454C10.0947 37.9752 17.6573 35.7018 26.9671 35.7629C36.2769 35.8241 43.8079 38.2008 43.7889 41.069Z" fill="#9895A2" fill-opacity="0.05"/>
</g>
<g style="mix-blend-mode:multiply" opacity="0.29">
<path d="M43.7619 41.0688C43.7419 43.9306 36.2141 46.1998 26.9454 46.1376C17.6767 46.0754 10.1794 43.7123 10.1963 40.8463C10.2132 37.9803 17.7441 35.7174 27.0139 35.7786C36.2837 35.8397 43.7798 38.2091 43.7619 41.0688Z" fill="#9895A2" fill-opacity="0.05"/>
</g>
<g style="mix-blend-mode:multiply" opacity="0.29">
<path d="M43.7348 41.0686C43.7158 43.922 36.2207 46.1838 26.9931 46.1226C17.7656 46.0615 10.2989 43.6974 10.3179 40.8503C10.3369 38.0033 17.833 35.733 27.0596 35.7942C36.2861 35.8553 43.7538 38.2173 43.7348 41.0686Z" fill="#9895A2" fill-opacity="0.05"/>
</g>
<g style="mix-blend-mode:multiply" opacity="0.29">
<path d="M43.7088 41.0684C43.6898 43.9154 36.2274 46.1677 27.0409 46.1076C17.8545 46.0475 10.4205 43.6919 10.4395 40.848C10.4585 38.0041 17.9209 35.7497 27.1084 35.8098C36.2959 35.8699 43.7277 38.2255 43.7088 41.0684Z" fill="#9895A2" fill-opacity="0.05"/>
</g>
<g style="mix-blend-mode:multiply" opacity="0.3">
<path d="M43.6822 41.0691C43.6632 43.9046 36.2335 46.1538 27.0882 46.0926C17.9429 46.0314 10.5416 43.6853 10.5606 40.8488C10.5796 38.0123 18.0093 35.7663 27.1557 35.8264C36.3021 35.8865 43.7002 38.2348 43.6822 41.0691Z" fill="#9895A2" fill-opacity="0.05"/>
</g>
<g style="mix-blend-mode:multiply" opacity="0.3">
<path d="M43.6548 41.069C43.6369 43.896 36.2409 46.1377 27.1357 46.0776C18.0304 46.0175 10.6629 43.6766 10.6861 40.8496C10.7093 38.0226 18.0968 35.7819 27.2032 35.842C36.3095 35.9021 43.6738 38.243 43.6548 41.069Z" fill="#9895A2" fill-opacity="0.05"/>
</g>
<g style="mix-blend-mode:multiply" opacity="0.31">
<path d="M43.6284 41.0687C43.6094 43.8872 36.2472 46.1227 27.1788 46.0626C18.1105 46.0025 10.7809 43.67 10.7989 40.8514C10.8168 38.0329 18.1801 35.7995 27.2484 35.8586C36.3168 35.9176 43.6474 38.2522 43.6284 41.0687Z" fill="#9895A2" fill-opacity="0.05"/>
</g>
<g style="mix-blend-mode:multiply" opacity="0.31">
<path d="M43.6024 41.0675C43.5834 43.8776 36.2539 46.1057 27.2309 46.0466C18.2078 45.9876 10.9068 43.6604 10.9268 40.8513C10.9468 38.0422 18.2753 35.8141 27.2994 35.8742C36.3235 35.9343 43.6214 38.2573 43.6024 41.0675Z" fill="#9895A2" fill-opacity="0.05"/>
</g>
<g style="mix-blend-mode:multiply" opacity="0.31">
<path d="M43.5755 41.0672C43.5565 43.8689 36.2596 46.0906 27.2777 46.0305C18.2958 45.9704 11.0316 43.6527 11.0464 40.851C11.0612 38.0493 18.3612 35.8318 27.3441 35.8898C36.3271 35.9478 43.5934 38.2676 43.5755 41.0672Z" fill="#9895A2" fill-opacity="0.05"/>
</g>
<g style="mix-blend-mode:multiply" opacity="0.32">
<path d="M43.5484 41.0683C43.5304 43.8605 36.2673 46.0759 27.3255 46.0169C18.3837 45.9578 11.149 43.6464 11.168 40.85C11.187 38.0536 18.4501 35.8434 27.3919 35.9035C36.3338 35.9636 43.5673 38.2771 43.5484 41.0683Z" fill="#9895A2" fill-opacity="0.05"/>
</g>
<g style="mix-blend-mode:multiply" opacity="0.32">
<path d="M43.5218 41.0678C43.5092 43.8516 36.2735 46.0607 27.3759 46.0016C18.4784 45.9426 11.2701 43.6354 11.2891 40.8538C11.3081 38.0721 18.5375 35.863 27.4392 35.9221C36.341 35.9811 43.5408 38.284 43.5218 41.0678Z" fill="#9895A2" fill-opacity="0.05"/>
</g>
<g style="mix-blend-mode:multiply" opacity="0.32">
<path d="M43.4953 41.0666C43.4763 43.843 36.2796 46.0447 27.4201 45.9856C18.5605 45.9266 11.3923 43.63 11.4102 40.8546C11.4281 38.0793 18.6238 35.8786 27.4865 35.9377C36.3492 35.9967 43.509 38.2923 43.4953 41.0666Z" fill="#9895A2" fill-opacity="0.05"/>
</g>
<g style="mix-blend-mode:multiply" opacity="0.33">
<path d="M43.4693 41.0664C43.4503 43.8333 36.2863 46.0287 27.4678 45.9707C18.6494 45.9127 11.5138 43.6224 11.5318 40.8555C11.5497 38.0886 18.7148 35.8943 27.5343 35.9533C36.3538 36.0124 43.4872 38.3005 43.4693 41.0664Z" fill="#9895A2" fill-opacity="0.05"/>
</g>
<g style="mix-blend-mode:multiply" opacity="0.33">
<path d="M43.4414 41.0671C43.4234 43.8256 36.2932 46.0136 27.519 45.9556C18.7449 45.8976 11.6388 43.6147 11.6568 40.8562C11.6747 38.0978 18.8018 35.9119 27.5865 35.9699C36.3712 36.0279 43.4603 38.3097 43.4414 41.0671Z" fill="#9895A2" fill-opacity="0.05"/>
</g>
<g style="mix-blend-mode:multiply" opacity="0.33">
<path d="M43.4154 41.0669C43.3975 43.817 36.2999 45.9987 27.5627 45.9407C18.8254 45.8827 11.7563 43.6071 11.77 40.8571C11.7837 38.1071 18.8866 35.9275 27.6238 35.9855C36.3611 36.0435 43.4334 38.318 43.4154 41.0669Z" fill="#9895A2" fill-opacity="0.05"/>
</g>
<g style="mix-blend-mode:multiply" opacity="0.34">
<path d="M43.3889 41.0668C43.3699 43.8084 36.3061 45.9827 27.6099 45.9247C18.9138 45.8667 11.8774 43.5985 11.8985 40.858C11.9196 38.1174 18.9813 35.9431 27.6785 36.0011C36.3757 36.0591 43.4036 38.3262 43.3889 41.0668Z" fill="#9895A2" fill-opacity="0.05"/>
</g>
<g style="mix-blend-mode:multiply" opacity="0.34">
<path d="M43.3614 41.0666C43.3435 43.7987 36.3124 45.9666 27.6574 45.9097C19.0024 45.8528 11.9986 43.5899 12.0176 40.8588C12.0366 38.1278 19.0667 35.9588 27.7227 36.0168C36.3788 36.0748 43.3804 38.3345 43.3614 41.0666Z" fill="#9895A2" fill-opacity="0.05"/>
</g>
<g style="mix-blend-mode:multiply" opacity="0.34">
<path d="M43.3349 41.0653C43.317 43.79 36.3196 45.9517 27.7046 45.8937C19.0897 45.8357 12.1208 43.5833 12.1387 40.8586C12.1566 38.1339 19.1509 35.9754 27.77 36.0324C36.3892 36.0893 43.3528 38.3427 43.3349 41.0653Z" fill="#9895A2" fill-opacity="0.05"/>
</g>
<g style="mix-blend-mode:multiply" opacity="0.35">
<path d="M43.3089 41.0651C43.2909 43.7814 36.3262 45.9357 27.7524 45.8787C19.1786 45.8218 12.2424 43.5747 12.2603 40.8595C12.2782 38.1442 19.2429 35.991 27.8178 36.048C36.3927 36.1049 43.3268 38.3509 43.3089 41.0651Z" fill="#9895A2" fill-opacity="0.05"/>
</g>
<g style="mix-blend-mode:multiply" opacity="0.35">
<path d="M43.2823 41.0648C43.2644 43.7716 36.3324 45.9153 27.7997 45.8636C19.267 45.812 12.3635 43.567 12.3814 40.8602C12.3993 38.1534 19.3313 36.0097 27.8651 36.0635C36.3988 36.1173 43.2981 38.3622 43.2823 41.0648Z" fill="#9895A2" fill-opacity="0.05"/>
</g>
<g style="mix-blend-mode:multiply" opacity="0.35">
<path d="M43.2549 41.0666C43.2369 43.765 36.3387 45.9056 27.8471 45.8507C19.3555 45.7959 12.4847 43.5604 12.5079 40.8631C12.5311 38.1658 19.4241 36.0253 27.9167 36.0811C36.4093 36.137 43.2728 38.3693 43.2549 41.0666Z" fill="#9895A2" fill-opacity="0.05"/>
</g>
<g style="mix-blend-mode:multiply" opacity="0.36">
<path d="M43.2287 41.0654C43.2108 43.7553 36.3463 45.8895 27.8948 45.8336C19.4433 45.7777 12.6051 43.5518 12.6241 40.8618C12.643 38.1719 19.5076 36.043 27.9591 36.0957C36.4106 36.1484 43.2466 38.3765 43.2287 41.0654Z" fill="#9895A2" fill-opacity="0.05"/>
</g>
<g style="mix-blend-mode:multiply" opacity="0.36">
<path d="M43.2022 41.0654C43.1842 43.7458 36.3482 45.8737 27.942 45.8178C19.5359 45.7619 12.7272 43.5444 12.7452 40.8618C12.7631 38.1793 19.5991 36.0546 28.0064 36.1105C36.4136 36.1663 43.2201 38.3849 43.2022 41.0654Z" fill="#9895A2" fill-opacity="0.05"/>
</g>
<g style="mix-blend-mode:multiply" opacity="0.36">
<path d="M43.176 41.065C43.158 43.7381 36.3589 45.8586 27.9917 45.8038C19.6246 45.7489 12.8518 43.5367 12.8687 40.8647C12.8856 38.1927 19.6858 36.0721 28.0529 36.128C36.42 36.1839 43.1928 38.3941 43.176 41.065Z" fill="#9895A2" fill-opacity="0.05"/>
</g>
<g style="mix-blend-mode:multiply" opacity="0.37">
<path d="M43.1485 41.0638C43.1305 43.7284 36.3651 45.8426 28.037 45.7867C19.7089 45.7308 12.9709 43.5291 12.9888 40.8645C13.0067 38.1999 19.7721 36.0878 28.1013 36.1426C36.4305 36.1975 43.1664 38.4013 43.1485 41.0638Z" fill="#9895A2" fill-opacity="0.05"/>
</g>
<g style="mix-blend-mode:multiply" opacity="0.37">
<path d="M43.1224 41.0646C43.1044 43.7197 36.3738 45.8276 28.0847 45.7728C19.7956 45.7179 13.0924 43.5215 13.1114 40.8653C13.1303 38.2091 19.8599 36.1044 28.149 36.1593C36.4381 36.2141 43.1403 38.4105 43.1224 41.0646Z" fill="#9895A2" fill-opacity="0.05"/>
</g>
<g style="mix-blend-mode:multiply" opacity="0.37">
<path d="M43.0959 41.0644C43.078 43.7111 36.379 45.8094 28.1321 45.7567C19.8851 45.704 13.2136 43.5128 13.2315 40.8661C13.2494 38.2194 19.9484 36.1211 28.1953 36.1748C36.4423 36.2286 43.1128 38.4187 43.0959 41.0644Z" fill="#9895A2" fill-opacity="0.05"/>
</g>
<g style="mix-blend-mode:multiply" opacity="0.38">
<path d="M43.0684 41.0642C43.0515 43.7003 36.3852 45.7966 28.1794 45.7418C19.9736 45.6869 13.3347 43.5053 13.3516 40.867C13.3685 38.2287 20.0358 36.1367 28.2416 36.1905C36.4474 36.2442 43.0874 38.427 43.0684 41.0642Z" fill="#9895A2" fill-opacity="0.05"/>
</g>
<g style="mix-blend-mode:multiply" opacity="0.38">
<path d="M43.0423 41.0642C43.0254 43.6929 36.3918 45.7808 28.2271 45.727C20.0624 45.6732 13.4573 43.4968 13.4742 40.868C13.491 38.2393 20.1246 36.1483 28.2904 36.2063C36.4561 36.2643 43.0602 38.4354 43.0423 41.0642Z" fill="#9895A2" fill-opacity="0.05"/>
</g>
<g style="mix-blend-mode:multiply" opacity="0.38">
<path d="M43.0153 41.0637C42.9973 43.6851 36.3985 45.7656 28.2739 45.7118C20.1493 45.658 13.5779 43.49 13.5948 40.8687C13.6116 38.2473 20.2126 36.1689 28.3372 36.2227C36.4618 36.2765 43.0321 38.4444 43.0153 41.0637Z" fill="#9895A2" fill-opacity="0.05"/>
</g>
<g style="mix-blend-mode:multiply" opacity="0.39">
<path d="M42.9892 41.0635C42.9713 43.6765 36.4052 45.7506 28.3217 45.6968C20.2382 45.6431 13.6995 43.4825 13.7163 40.8695C13.7332 38.2566 20.3004 36.1846 28.3849 36.2383C36.4695 36.2921 43.0061 38.4527 42.9892 41.0635Z" fill="#9895A2" fill-opacity="0.05"/>
</g>
<g style="mix-blend-mode:multiply" opacity="0.39">
<path d="M42.9621 41.0633C42.9453 43.6668 36.4118 45.7346 28.3695 45.6808C20.3271 45.627 13.8179 43.4738 13.8379 40.8703C13.858 38.2669 20.3893 36.2012 28.4306 36.2539C36.4719 36.3066 42.9822 38.4609 42.9621 41.0633Z" fill="#9895A2" fill-opacity="0.05"/>
</g>
<g style="mix-blend-mode:multiply" opacity="0.39">
<path d="M42.9355 41.0641C42.9186 43.6591 36.4179 45.7195 28.4166 45.6668C20.4154 45.6141 13.9421 43.4672 13.96 40.8722C13.9779 38.2772 20.4776 36.2178 28.4789 36.2705C36.4801 36.3232 42.9524 38.4691 42.9355 41.0641Z" fill="#9895A2" fill-opacity="0.05"/>
</g>
<g style="mix-blend-mode:multiply" opacity="0.4">
<path d="M42.9091 41.063C42.8922 43.6496 36.4252 45.7026 28.463 45.6499C20.5007 45.5971 14.0622 43.4587 14.0801 40.8711C14.098 38.2834 20.564 36.2314 28.5262 36.2852C36.4884 36.339 42.9259 38.4774 42.9091 41.063Z" fill="#9895A2" fill-opacity="0.05"/>
</g>
<g style="mix-blend-mode:multiply" opacity="0.4">
<path d="M42.8829 41.0635C42.865 43.6417 36.4317 45.6884 28.5117 45.6357C20.5916 45.5829 14.1847 43.4508 14.2027 40.8727C14.2206 38.2945 20.6539 36.2541 28.5739 36.3016C36.494 36.349 42.8998 38.4864 42.8829 41.0635Z" fill="#9895A2" fill-opacity="0.05"/>
</g>
<g style="mix-blend-mode:multiply" opacity="0.4">
<path d="M42.8558 41.0623C42.839 43.632 36.4384 45.6724 28.5595 45.6207C20.6805 45.569 14.3074 43.4433 14.3243 40.8756C14.3411 38.308 20.7417 36.2677 28.6217 36.3193C36.5017 36.371 42.8769 38.4947 42.8558 41.0623Z" fill="#9895A2" fill-opacity="0.05"/>
</g>
<g style="mix-blend-mode:multiply" opacity="0.41">
<path d="M42.8293 41.0622C42.8124 43.6235 36.4445 45.6565 28.6067 45.6048C20.7689 45.5532 14.4285 43.4347 14.4453 40.8745C14.4622 38.3143 20.8301 36.2813 28.669 36.334C36.5078 36.3867 42.8462 38.503 42.8293 41.0622Z" fill="#9895A2" fill-opacity="0.05"/>
</g>
<g style="mix-blend-mode:multiply" opacity="0.41">
<path d="M42.8028 41.063C42.7859 43.6158 36.4518 45.6425 28.654 45.5908C20.8563 45.5391 14.5496 43.4249 14.5664 40.8763C14.5833 38.3277 20.9185 36.2989 28.7152 36.3506C36.5119 36.4022 42.8196 38.5122 42.8028 41.063Z" fill="#9895A2" fill-opacity="0.05"/>
</g>
<g style="mix-blend-mode:multiply" opacity="0.42">
<path d="M42.7762 41.0628C42.7583 43.6061 36.4579 45.6265 28.7013 45.5748C20.9447 45.5231 14.6707 43.4248 14.6875 40.8761C14.7044 38.3275 21.0059 36.3145 28.7625 36.3662C36.5191 36.4179 42.7921 38.5205 42.7762 41.0628Z" fill="#9895A2" fill-opacity="0.05"/>
</g>
<g style="mix-blend-mode:multiply" opacity="0.42">
<path d="M42.7487 41.0626C42.7318 43.5933 36.4641 45.6105 28.7486 45.5599C21.0331 45.5092 14.7918 43.4119 14.8086 40.877C14.8255 38.3421 21.0943 36.3302 28.8097 36.3818C36.5252 36.4335 42.7708 38.5287 42.7487 41.0626Z" fill="#9895A2" fill-opacity="0.05"/>
</g>
<g style="mix-blend-mode:multiply" opacity="0.42">
<path d="M42.7229 41.0625C42.706 43.5932 36.471 45.5966 28.7966 45.5439C21.1223 45.4912 14.9136 43.4044 14.9336 40.8779C14.9537 38.3515 21.1855 36.3438 28.8609 36.3975C36.5364 36.4513 42.7398 38.537 42.7229 41.0625Z" fill="#9895A2" fill-opacity="0.05"/>
</g>
<g style="mix-blend-mode:multiply" opacity="0.43">
<path d="M42.696 41.0611C42.6792 43.5792 36.4747 45.5795 28.8436 45.5289C21.2125 45.4782 15.0302 43.3957 15.0523 40.8787C15.0744 38.3617 21.2736 36.3624 28.9047 36.413C36.5359 36.4637 42.7129 38.5452 42.696 41.0611Z" fill="#9895A2" fill-opacity="0.05"/>
</g>
<g style="mix-blend-mode:multiply" opacity="0.43">
<path d="M42.6655 41.0619C42.6497 43.5715 36.4811 45.5644 28.8879 45.5138C21.2947 45.4632 15.1536 43.3891 15.1704 40.8795C15.1873 38.3699 21.3549 36.379 28.9491 36.4297C36.5433 36.4803 42.6855 38.5544 42.6655 41.0619Z" fill="#9895A2" fill-opacity="0.05"/>
</g>
<g style="mix-blend-mode:multiply" opacity="0.43">
<path d="M42.6427 41.0617C42.6258 43.5629 36.491 45.5495 28.9347 45.4989C21.3784 45.4483 15.2742 43.3815 15.2911 40.8803C15.3079 38.3792 21.4428 36.3947 28.999 36.4453C36.5553 36.4959 42.6596 38.5626 42.6427 41.0617Z" fill="#9895A2" fill-opacity="0.05"/>
</g>
<g style="mix-blend-mode:multiply" opacity="0.44">
<path d="M42.6158 41.0625C42.599 43.5542 36.5 45.5344 28.987 45.4849C21.4739 45.4353 15.3992 43.3759 15.4161 40.8821C15.4329 38.3883 21.5319 36.4123 29.046 36.4618C36.5601 36.5114 42.6327 38.575 42.6158 41.0625Z" fill="#9895A2" fill-opacity="0.05"/>
</g>
<g style="mix-blend-mode:multiply" opacity="0.44">
<path d="M42.5898 41.0603C42.5729 43.5436 36.5045 45.5165 29.0347 45.4669C21.5649 45.4173 15.5208 43.3643 15.5376 40.8811C15.5545 38.3978 21.6229 36.426 29.0938 36.4755C36.5646 36.5251 42.6056 38.5781 42.5898 41.0603Z" fill="#9895A2" fill-opacity="0.05"/>
</g>
<g style="mix-blend-mode:multiply" opacity="0.44">
<path d="M42.5603 41.0601C42.5444 43.5359 36.5087 45.5014 29.08 45.4529C21.6514 45.4044 15.641 43.3577 15.6568 40.8818C15.6726 38.406 21.7094 36.4426 29.1391 36.4921C36.5688 36.5417 42.5792 38.5873 42.5603 41.0601Z" fill="#9895A2" fill-opacity="0.05"/>
</g>
<g style="mix-blend-mode:multiply" opacity="0.45">
<path d="M42.5359 41.06C42.5201 43.5264 36.5171 45.4888 29.1295 45.4371C21.742 45.3854 15.7642 43.3493 15.7769 40.8829C15.7895 38.4165 21.7957 36.4541 29.1854 36.5079C36.575 36.5617 42.5528 38.5957 42.5359 41.06Z" fill="#9895A2" fill-opacity="0.05"/>
</g>
<g style="mix-blend-mode:multiply" opacity="0.45">
<path d="M42.5096 41.0596C42.4928 43.5176 36.5235 45.4704 29.177 45.4219C21.8306 45.3734 15.8908 43.3415 15.9014 40.8878C15.9119 38.434 21.8928 36.4748 29.2361 36.5233C36.5793 36.5718 42.5254 38.6038 42.5096 41.0596Z" fill="#9895A2" fill-opacity="0.05"/>
</g>
<g style="mix-blend-mode:multiply" opacity="0.45">
<path d="M42.483 41.0604C42.4662 43.5099 36.5306 45.4554 29.2243 45.4069C21.9179 45.3584 16.0066 43.3338 16.0235 40.8854C16.0403 38.4369 21.9759 36.4914 29.2823 36.54C36.5886 36.5885 42.4989 38.613 42.483 41.0604Z" fill="#9895A2" fill-opacity="0.05"/>
</g>
<g style="mix-blend-mode:multiply" opacity="0.46">
<path d="M42.4547 41.0602C42.4389 43.5013 36.5361 45.4405 29.274 45.392C22.0119 45.3434 16.1301 43.3263 16.147 40.8852C16.1639 38.4441 22.0657 36.5071 29.3278 36.5556C36.5898 36.6041 42.4727 38.6213 42.4547 41.0602Z" fill="#9895A2" fill-opacity="0.05"/>
</g>
<g style="mix-blend-mode:multiply" opacity="0.46">
<path d="M42.4294 41.061C42.4136 43.4926 36.5434 45.4254 29.3193 45.378C22.0952 45.3305 16.244 43.3197 16.2662 40.887C16.2883 38.4544 22.1522 36.5247 29.3794 36.5711C36.6067 36.6175 42.4453 38.6305 42.4294 41.061Z" fill="#9895A2" fill-opacity="0.05"/>
</g>
<g style="mix-blend-mode:multiply" opacity="0.46">
<path d="M42.4029 41.0588C42.386 43.484 36.5506 45.4084 29.3666 45.361C22.1826 45.3135 16.3714 43.31 16.3872 40.8869C16.4031 38.4637 22.2395 36.5393 29.4246 36.5868C36.6097 36.6342 42.4187 38.6367 42.4029 41.0588Z" fill="#9895A2" fill-opacity="0.05"/>
</g>
<g style="mix-blend-mode:multiply" opacity="0.47">
<path d="M42.3753 41.0592C42.3595 43.4749 36.5568 45.394 29.4139 45.3466C22.271 45.2991 16.4925 43.3031 16.5083 40.8936C16.5242 38.4842 22.3279 36.5608 29.4719 36.6083C36.6158 36.6557 42.3922 38.6455 42.3753 41.0592Z" fill="#9895A2" fill-opacity="0.05"/>
</g>
<g style="mix-blend-mode:multiply" opacity="0.47">
<path d="M42.3492 41.0594C42.3334 43.4657 36.5634 45.3827 29.4616 45.331C22.3599 45.2793 16.6141 43.2959 16.6299 40.8938C16.6457 38.4918 22.42 36.5706 29.5186 36.6191C36.6172 36.6676 42.3651 38.6542 42.3492 41.0594Z" fill="#9895A2" fill-opacity="0.05"/>
</g>
<g style="mix-blend-mode:multiply" opacity="0.47">
<path d="M42.3228 41.0593C42.307 43.4571 36.5697 45.3625 29.509 45.3161C22.4483 45.2698 16.7353 43.2874 16.75 40.8874C16.7648 38.4875 22.5032 36.5863 29.5649 36.6327C36.6266 36.6791 42.3386 38.6625 42.3228 41.0593Z" fill="#9895A2" fill-opacity="0.05"/>
</g>
<g style="mix-blend-mode:multiply" opacity="0.48">
<path d="M42.2967 41.0597C42.2809 43.4491 36.5773 45.3482 29.5567 45.3007C22.5361 45.2533 16.8568 43.2804 16.8726 40.8941C16.8884 38.5079 22.593 36.6078 29.6136 36.6542C36.6342 36.7005 42.3125 38.6713 42.2967 41.0597Z" fill="#9895A2" fill-opacity="0.05"/>
</g>
<g style="mix-blend-mode:multiply" opacity="0.48">
<path d="M42.269 41.0586C42.2532 43.4385 36.5834 45.3313 29.6039 45.2849C22.6244 45.2385 16.9778 43.2709 16.9947 40.893C17.0115 38.5152 22.6803 36.6214 29.6608 36.6678C36.6414 36.7142 42.2848 38.6787 42.269 41.0586Z" fill="#9895A2" fill-opacity="0.05"/>
</g>
<g style="mix-blend-mode:multiply" opacity="0.48">
<path d="M42.2435 41.0585C42.2276 43.431 36.5905 45.3164 29.6521 45.27C22.7138 45.2236 17.1041 43.2665 17.1167 40.8918C17.1294 38.5172 22.7697 36.6371 29.7091 36.6824C36.6485 36.7278 42.2582 38.688 42.2435 41.0585Z" fill="#9895A2" fill-opacity="0.05"/>
</g>
<g style="mix-blend-mode:multiply" opacity="0.49">
<path d="M42.2164 41.0582C42.2006 43.4223 36.5962 45.3003 29.6989 45.2549C22.8017 45.2096 17.2215 43.2567 17.2373 40.8937C17.2532 38.5306 22.8576 36.6537 29.7559 36.699C36.6542 36.7444 42.2323 38.6962 42.2164 41.0582Z" fill="#9895A2" fill-opacity="0.05"/>
</g>
<g style="mix-blend-mode:multiply" opacity="0.49">
<path d="M42.1899 41.0581C42.1741 43.4127 36.6013 45.2854 29.7473 45.2401C22.8933 45.1947 17.3426 43.2482 17.3584 40.8936C17.3742 38.539 22.9471 36.6684 29.8011 36.7137C36.6551 36.759 42.2047 38.7045 42.1899 41.0581Z" fill="#9895A2" fill-opacity="0.05"/>
</g>
<g style="mix-blend-mode:multiply" opacity="0.49">
<path d="M42.1628 41.0589C42.1481 43.4051 36.61 45.2705 29.794 45.2251C22.978 45.1798 17.4642 43.2417 17.48 40.8944C17.4958 38.5472 23.0339 36.684 29.8499 36.7293C36.6659 36.7747 42.1786 38.7138 42.1628 41.0589Z" fill="#9895A2" fill-opacity="0.05"/>
</g>
<g style="mix-blend-mode:multiply" opacity="0.5">
<path d="M42.1384 41.0587C42.1226 43.3965 36.6183 45.2544 29.8434 45.2101C23.0685 45.1658 17.5853 43.233 17.6011 40.8942C17.6169 38.5554 23.1212 36.7006 29.8972 36.7449C36.6731 36.7892 42.1521 38.722 42.1384 41.0587Z" fill="#9895A2" fill-opacity="0.05"/>
</g>
<g style="mix-blend-mode:multiply" opacity="0.5">
<path d="M42.1098 41.0586C42.0939 43.3868 36.6266 45.2395 29.8886 45.1942C23.1506 45.1489 17.7064 43.2255 17.7222 40.8941C17.738 38.5627 23.2054 36.7153 29.9444 36.7596C36.6835 36.8039 42.1245 38.7304 42.1098 41.0586Z" fill="#9895A2" fill-opacity="0.05"/>
</g>
<g style="mix-blend-mode:multiply" opacity="0.5">
<path d="M42.0832 41.057C42.0674 43.3769 36.6295 45.2232 29.9358 45.1789C23.2421 45.1346 17.8285 43.2134 17.8433 40.8936C17.8581 38.5738 23.298 36.7327 29.9917 36.7812C36.6854 36.8297 42.098 38.7383 42.0832 41.057Z" fill="#9895A2" fill-opacity="0.05"/>
</g>
<g style="mix-blend-mode:multiply" opacity="0.51">
<path d="M42.0561 41.0573C42.0414 43.3697 36.6362 45.2076 29.9836 45.1633C23.331 45.119 17.9501 43.2136 17.9649 40.8938C17.9796 38.574 23.3859 36.7456 30.0395 36.7899C36.6931 36.8341 42.0719 38.7469 42.0561 41.0573Z" fill="#9895A2" fill-opacity="0.05"/>
</g>
<g style="mix-blend-mode:multiply" opacity="0.51">
<path d="M42.0329 41.0577C42.0171 43.3617 36.6457 45.1933 30.0342 45.149C23.4228 45.1047 18.0746 43.2025 18.0904 40.8996C18.1062 38.5966 23.4744 36.7661 30.0859 36.8104C36.6974 36.8546 42.0445 38.7558 42.0329 41.0577Z" fill="#9895A2" fill-opacity="0.05"/>
</g>
<g style="mix-blend-mode:multiply" opacity="0.51">
<path d="M42.0035 41.0574C41.9877 43.3519 36.6489 45.1771 30.0786 45.1339C23.5082 45.0907 18.1927 43.1947 18.2085 40.8992C18.2243 38.6036 23.562 36.7868 30.1334 36.8258C36.7048 36.8648 42.0182 38.7639 42.0035 41.0574Z" fill="#9895A2" fill-opacity="0.05"/>
</g>
<g style="mix-blend-mode:multiply" opacity="0.52">
<path d="M41.9759 41.0573C41.9611 43.3434 36.6561 45.1613 30.1259 45.118C23.5956 45.0748 18.3159 43.1863 18.3296 40.9002C18.3433 38.6141 23.6504 36.7983 30.1807 36.8416C36.711 36.8848 41.9917 38.7723 41.9759 41.0573Z" fill="#9895A2" fill-opacity="0.05"/>
</g>
<g style="mix-blend-mode:multiply" opacity="0.52">
<path d="M41.9499 41.0581C41.9351 43.3357 36.6628 45.1462 30.1736 45.1041C23.6845 45.0619 18.4364 43.1797 18.4512 40.902C18.466 38.6244 23.7393 36.8149 30.2285 36.8582C36.7176 36.9014 41.9646 38.7857 41.9499 41.0581Z" fill="#9895A2" fill-opacity="0.05"/>
</g>
<g style="mix-blend-mode:multiply" opacity="0.52">
<path d="M41.9274 41.0568C41.9126 43.326 36.673 45.1313 30.2229 45.0881C23.7727 45.0448 18.5595 43.171 18.5743 40.9029C18.589 38.6348 23.8286 36.8306 30.2788 36.8738C36.7289 36.917 41.9379 38.7855 41.9274 41.0568Z" fill="#9895A2" fill-opacity="0.05"/>
</g>
<g style="mix-blend-mode:multiply" opacity="0.53">
<path d="M41.8973 41.0567C41.8815 43.3196 36.6756 45.1122 30.2687 45.0732C23.8618 45.0342 18.6791 43.1636 18.6939 40.9028C18.7086 38.642 23.9156 36.8463 30.3288 36.8874C36.742 36.9285 41.912 38.7981 41.8973 41.0567Z" fill="#9895A2" fill-opacity="0.05"/>
</g>
<g style="mix-blend-mode:multiply" opacity="0.53">
<path d="M41.8692 41.0564C41.8544 43.3088 36.6823 45.0992 30.3155 45.0571C23.9487 45.0149 18.7997 43.159 18.8145 40.9035C18.8292 38.6481 24.0024 36.8629 30.3693 36.905C36.7361 36.9472 41.884 38.8062 41.8692 41.0564Z" fill="#9895A2" fill-opacity="0.05"/>
</g>
<g style="mix-blend-mode:multiply" opacity="0.54">
<path d="M41.8434 41.0562C41.8286 43.2991 36.6892 45.0843 30.3634 45.0421C24.0377 44.9999 18.9215 43.1472 18.9405 40.9044C18.9595 38.6616 24.0957 36.8785 30.4214 36.9207C36.7472 36.9628 41.8581 38.8145 41.8434 41.0562Z" fill="#9895A2" fill-opacity="0.05"/>
</g>
<g style="mix-blend-mode:multiply" opacity="0.54">
<path d="M41.8218 41.0569C41.8071 43.2913 36.7003 45.0691 30.4157 45.0269C24.1311 44.9848 19.0455 43.1405 19.0581 40.9061C19.0708 38.6717 24.1796 36.8992 30.4642 36.9371C36.7488 36.9751 41.8313 38.8235 41.8218 41.0569Z" fill="#9895A2" fill-opacity="0.05"/>
</g>
<g style="mix-blend-mode:multiply" opacity="0.54">
<path d="M41.7908 41.0558C41.775 43.2818 36.702 45.0522 30.4585 45.0111C24.2151 44.97 19.1653 43.1321 19.1758 40.905C19.1863 38.678 24.2636 36.9108 30.5081 36.9519C36.7526 36.993 41.8045 38.8309 41.7908 41.0558Z" fill="#9895A2" fill-opacity="0.05"/>
</g>
<g style="mix-blend-mode:multiply" opacity="0.55">
<path d="M41.7629 41.0546C41.7482 43.269 36.7089 45.0373 30.5055 44.9962C24.3021 44.955 19.2861 43.1234 19.3008 40.9059C19.3156 38.6884 24.3559 36.9264 30.5593 36.9675C36.7627 37.0086 41.7777 38.8392 41.7629 41.0546Z" fill="#9895A2" fill-opacity="0.05"/>
</g>
<g style="mix-blend-mode:multiply" opacity="0.55">
<path d="M41.7364 41.0544C41.7216 43.2688 36.7151 45.0213 30.5528 44.9802C24.3905 44.939 19.4071 43.1159 19.4219 40.9068C19.4367 38.6977 24.4432 36.942 30.6066 36.9831C36.7699 37.0243 41.7512 38.8474 41.7364 41.0544Z" fill="#9895A2" fill-opacity="0.05"/>
</g>
<g style="mix-blend-mode:multiply" opacity="0.55">
<path d="M41.7103 41.0542C41.6956 43.2549 36.7217 45.0053 30.6006 44.9652C24.4794 44.9251 19.5287 43.1072 19.5435 40.9076C19.5583 38.708 24.529 36.9576 30.6533 36.9988C36.7776 37.0399 41.7251 38.8557 41.7103 41.0542Z" fill="#9895A2" fill-opacity="0.05"/>
</g>
<g style="mix-blend-mode:multiply" opacity="0.56">
<path d="M41.6828 41.0559C41.6691 43.2471 36.7268 44.9922 30.6478 44.9511C24.5689 44.91 19.6498 43.1016 19.6646 40.9094C19.6793 38.7171 24.6205 36.9762 30.7006 37.0163C36.7806 37.0564 41.6975 38.8658 41.6828 41.0559Z" fill="#9895A2" fill-opacity="0.05"/>
</g>
<g style="mix-blend-mode:multiply" opacity="0.56">
<path d="M41.6569 41.0557C41.6421 43.2385 36.7357 44.9762 30.6958 44.9361C24.6558 44.8961 19.7716 43.094 19.7842 40.9102C19.7969 38.7264 24.7085 36.9929 30.7506 37.0319C36.7926 37.0709 41.6716 38.874 41.6569 41.0557Z" fill="#9895A2" fill-opacity="0.05"/>
</g>
<g style="mix-blend-mode:multiply" opacity="0.56">
<path d="M41.6302 41.0543C41.6154 43.2296 36.7417 44.9558 30.7429 44.9199C24.7441 44.8841 19.8935 43.0852 19.9073 40.913C19.921 38.7408 24.7968 37.0115 30.7956 37.0494C36.7944 37.0874 41.6449 38.8821 41.6302 41.0543Z" fill="#9895A2" fill-opacity="0.05"/>
</g>
<g style="mix-blend-mode:multiply" opacity="0.57">
<path d="M41.6036 41.0533C41.5888 43.2202 36.7478 44.9432 30.7901 44.9042C24.8324 44.8652 20.0146 43.0768 20.0293 40.9109C20.0441 38.7451 24.8798 37.0232 30.8428 37.0622C36.8058 37.1012 41.6173 38.8896 41.6036 41.0533Z" fill="#9895A2" fill-opacity="0.05"/>
</g>
<g style="mix-blend-mode:multiply" opacity="0.57">
<path d="M41.5765 41.0541C41.5628 43.2115 36.7544 44.9292 30.8379 44.8902C24.9213 44.8512 20.1362 43.0692 20.1509 40.9117C20.1657 38.7543 24.973 37.0398 30.8906 37.0788C36.8082 37.1178 41.5913 38.8988 41.5765 41.0541Z" fill="#9895A2" fill-opacity="0.05"/>
</g>
<g style="mix-blend-mode:multiply" opacity="0.57">
<path d="M41.55 41.0538C41.5362 43.2028 36.7617 44.9131 30.8851 44.8741C25.0086 44.8351 20.2572 43.0615 20.272 40.9125C20.2868 38.7635 25.0561 37.0553 30.9368 37.0974C36.8175 37.1396 41.5647 38.9069 41.55 41.0538Z" fill="#9895A2" fill-opacity="0.05"/>
</g>
<g style="mix-blend-mode:multiply" opacity="0.58">
<path d="M41.5238 41.0537C41.509 43.1943 36.7682 44.8972 30.9328 44.8593C25.0974 44.8213 20.3787 43.054 20.3882 40.9135C20.3977 38.7729 25.1438 37.071 30.9792 37.11C36.8146 37.149 41.5375 38.9153 41.5238 41.0537Z" fill="#9895A2" fill-opacity="0.05"/>
</g>
<g style="mix-blend-mode:multiply" opacity="0.58">
<path d="M41.4969 41.0545C41.4821 43.1855 36.774 44.8832 30.9797 44.8442C25.1855 44.8052 20.4994 43.0463 20.5142 40.9153C20.529 38.7842 25.2371 37.0886 31.0314 37.1266C36.8256 37.1646 41.5106 38.9245 41.4969 41.0545Z" fill="#9895A2" fill-opacity="0.05"/>
</g>
<g style="mix-blend-mode:multiply" opacity="0.58">
<path d="M41.4696 41.0532C41.4559 43.1769 36.7805 44.8672 31.0305 44.8292C25.2805 44.7913 20.624 43.0367 20.6377 40.9151C20.6514 38.7935 25.3269 37.1043 31.0769 37.1422C36.8269 37.1802 41.4844 38.9327 41.4696 41.0532Z" fill="#9895A2" fill-opacity="0.05"/>
</g>
<g style="mix-blend-mode:multiply" opacity="0.59">
<path d="M41.4433 41.0533C41.4296 43.1686 36.7878 44.8494 31.0758 44.8135C25.3638 44.7777 20.7421 43.0315 20.7569 40.912C20.7716 38.7926 25.4134 37.116 31.1264 37.154C36.8395 37.1919 41.457 38.9413 41.4433 41.0533Z" fill="#9895A2" fill-opacity="0.05"/>
</g>
<g style="mix-blend-mode:multiply" opacity="0.59">
<path d="M41.4172 41.0538C41.4025 43.1627 36.7945 44.8372 31.1236 44.7992C25.4527 44.7613 20.8647 43.0235 20.8784 40.9178C20.8922 38.812 25.5012 37.1375 31.1731 37.1744C36.8451 37.2113 41.4309 38.9501 41.4172 41.0538Z" fill="#9895A2" fill-opacity="0.05"/>
</g>
<g style="mix-blend-mode:multiply" opacity="0.59">
<path d="M41.3901 41.0536C41.3763 43.1509 36.801 44.8212 31.1713 44.7832C25.5415 44.7453 20.9862 43.0159 21.001 40.9186C21.0158 38.8213 25.59 37.1531 31.2208 37.1901C36.8517 37.227 41.4006 38.9584 41.3901 41.0536Z" fill="#9895A2" fill-opacity="0.05"/>
</g>
<g style="mix-blend-mode:multiply" opacity="0.6">
<path d="M41.363 41.0535C41.3493 43.1424 36.8067 44.8053 31.2181 44.7684C25.6294 44.7315 21.1069 43.0074 21.1216 40.9196C21.1364 38.8317 25.6779 37.1689 31.2676 37.2037C36.8573 37.2385 41.3767 38.9667 41.363 41.0535Z" fill="#9895A2" fill-opacity="0.05"/>
</g>
<g style="mix-blend-mode:multiply" opacity="0.6">
<path d="M41.337 41.0532C41.3233 43.1326 36.8144 44.7902 31.2658 44.7533C25.7173 44.7164 21.2295 43.0029 21.2432 40.9193C21.2569 38.8357 25.7658 37.1844 31.3154 37.2213C36.865 37.2582 41.3507 38.9749 41.337 41.0532Z" fill="#9895A2" fill-opacity="0.05"/>
</g>
<g style="mix-blend-mode:multiply" opacity="0.6">
<path d="M41.3104 41.0519C41.2967 43.124 36.8205 44.7742 31.313 44.7425C25.8056 44.7109 21.3505 42.9921 21.3653 40.9201C21.38 38.8481 25.8552 37.2011 31.3637 37.2369C36.8722 37.2728 41.3241 38.9831 41.3104 41.0519Z" fill="#9895A2" fill-opacity="0.05"/>
</g>
<g style="mix-blend-mode:multiply" opacity="0.61">
<path d="M41.2834 41.0523C41.2697 43.1159 36.8272 44.7587 31.3609 44.7229C25.8946 44.687 21.4722 42.9841 21.4859 40.9268C21.4996 38.8696 25.942 37.2225 31.4104 37.2594C36.8789 37.2963 41.295 38.9961 41.2834 41.0523Z" fill="#9895A2" fill-opacity="0.05"/>
</g>
<g style="mix-blend-mode:multiply" opacity="0.61">
<path d="M41.2568 41.0525C41.2431 43.1066 36.8334 44.7431 31.4082 44.7073C25.983 44.6714 21.5933 42.9769 21.607 40.9228C21.6207 38.8687 26.0304 37.2322 31.4567 37.2702C36.8829 37.3081 41.2705 38.9963 41.2568 41.0525Z" fill="#9895A2" fill-opacity="0.05"/>
</g>
<g style="mix-blend-mode:multiply" opacity="0.61">
<path d="M41.2303 41.0523C41.2166 43.0979 36.8406 44.7281 31.4555 44.6923C26.0703 44.6564 21.7144 42.9693 21.7281 40.9226C21.7418 38.8759 26.1188 37.2499 31.504 37.2857C36.8891 37.3216 41.244 39.0077 41.2303 41.0523Z" fill="#9895A2" fill-opacity="0.05"/>
</g>
<g style="mix-blend-mode:multiply" opacity="0.62">
<path d="M41.2043 41.0521C41.1905 43.0893 36.8472 44.7121 31.5032 44.6763C26.1592 44.6404 21.8359 42.9607 21.8496 40.9234C21.8633 38.8862 26.2067 37.2655 31.5507 37.3014C36.8947 37.3372 41.2169 39.0159 41.2043 41.0521Z" fill="#9895A2" fill-opacity="0.05"/>
</g>
<g style="mix-blend-mode:multiply" opacity="0.62">
<path d="M41.1767 41.0519C41.164 43.0807 36.8534 44.6961 31.5505 44.6613C26.2476 44.6265 21.9549 42.9531 21.9707 40.9243C21.9866 38.8955 26.294 37.2811 31.599 37.317C36.904 37.3528 41.1893 39.0242 41.1767 41.0519Z" fill="#9895A2" fill-opacity="0.05"/>
</g>
<g style="mix-blend-mode:multiply" opacity="0.62">
<path d="M41.1506 41.0516C41.1368 43.0719 36.86 44.6821 31.5982 44.6473C26.3364 44.6125 22.0796 42.9454 22.0933 40.9261C22.107 38.9068 26.3828 37.2988 31.6467 37.3336C36.9106 37.3684 41.1643 39.0334 41.1506 41.0516Z" fill="#9895A2" fill-opacity="0.05"/>
</g>
<g style="mix-blend-mode:multiply" opacity="0.63">
<path d="M41.124 41.051C41.1103 43.0629 36.8672 44.6657 31.6455 44.6362C26.4238 44.6066 22.2007 42.9427 22.2144 40.9308C22.2281 38.9189 26.4712 37.3193 31.694 37.3541C36.9167 37.3889 41.1367 39.0412 41.124 41.051Z" fill="#9895A2" fill-opacity="0.05"/>
</g>
<g style="mix-blend-mode:multiply" opacity="0.63">
<path d="M41.0975 41.0513C41.0838 43.0548 36.8733 44.6502 31.6928 44.6164C26.5122 44.5827 22.3218 42.9293 22.3355 40.9258C22.3492 38.9223 26.5596 37.329 31.7402 37.3638C36.9208 37.3986 41.1101 39.0499 41.0975 41.0513Z" fill="#9895A2" fill-opacity="0.05"/>
</g>
<g style="mix-blend-mode:multiply" opacity="0.63">
<path d="M41.0701 41.0511C41.0575 43.0451 36.8797 44.6363 31.7402 44.6004C26.6008 44.5646 22.4431 42.9217 22.461 40.9278C22.4789 38.9338 26.6514 37.3426 31.7919 37.3805C36.9324 37.4185 41.0838 39.0582 41.0701 41.0511Z" fill="#9895A2" fill-opacity="0.05"/>
</g>
<g style="mix-blend-mode:multiply" opacity="0.64">
<path d="M41.0439 41.0508C41.0302 43.0363 36.8861 44.6191 31.7878 44.5853C26.6895 44.5516 22.5645 42.914 22.5782 40.9285C22.5919 38.9429 26.7359 37.3623 31.8353 37.396C36.9346 37.4298 41.0565 39.0663 41.0439 41.0508Z" fill="#9895A2" fill-opacity="0.05"/>
</g>
<g style="mix-blend-mode:multiply" opacity="0.64">
<path d="M41.0178 41.0506C41.0041 43.0277 36.8938 44.6031 31.8356 44.5693C26.7773 44.5356 22.6871 42.9054 22.6997 40.9283C22.7124 38.9512 26.8237 37.3779 31.883 37.4117C36.9423 37.4454 41.0305 39.0746 41.0178 41.0506Z" fill="#9895A2" fill-opacity="0.05"/>
</g>
<g style="mix-blend-mode:multiply" opacity="0.64">
<path d="M40.9902 41.0503C40.9776 43.019 36.9 44.5891 31.8829 44.5554C26.8657 44.5216 22.8082 42.8978 22.8208 40.9301C22.8335 38.9625 26.9121 37.3945 31.9303 37.4283C36.9485 37.462 41.0039 39.0838 40.9902 41.0503Z" fill="#9895A2" fill-opacity="0.05"/>
</g>
<g style="mix-blend-mode:multiply" opacity="0.65">
<path d="M40.9638 41.0501C40.9512 43.0104 36.9063 44.5731 31.9303 44.5393C26.9543 44.5056 22.9294 42.8912 22.9473 40.931C22.9653 38.9707 27.0059 37.4112 31.983 37.4439C36.96 37.4766 40.9786 39.092 40.9638 41.0501Z" fill="#9895A2" fill-opacity="0.05"/>
</g>
<g style="mix-blend-mode:multiply" opacity="0.65">
<path d="M40.9371 41.0499C40.9244 43.0017 36.9133 44.5571 31.9742 44.5244C27.0351 44.4917 23.0524 42.8826 23.064 40.9318C23.0756 38.9811 27.0878 37.4268 32.0269 37.4595C36.966 37.4922 40.9497 39.1013 40.9371 41.0499Z" fill="#9895A2" fill-opacity="0.05"/>
</g>
<g style="mix-blend-mode:multiply" opacity="0.66">
<path d="M40.9111 41.0497C40.8974 42.992 36.9199 44.5411 32.0251 44.5094C27.1303 44.4778 23.1677 42.875 23.1856 40.9316C23.2035 38.9883 27.1767 37.4424 32.0715 37.4751C36.9663 37.5078 40.9237 39.1085 40.9111 41.0497Z" fill="#9895A2" fill-opacity="0.05"/>
</g>
<g style="mix-blend-mode:multiply" opacity="0.66">
<path d="M40.8835 41.0497C40.8708 42.9836 36.9261 44.5294 32.0724 44.4936C27.2187 44.4577 23.293 42.8676 23.3067 40.9327C23.3204 38.9977 27.2641 37.453 32.1188 37.4909C36.9735 37.5289 40.8961 39.1169 40.8835 41.0497Z" fill="#9895A2" fill-opacity="0.05"/>
</g>
<g style="mix-blend-mode:multiply" opacity="0.66">
<path d="M40.8573 41.0503C40.8447 42.9757 36.9326 44.511 32.1211 44.4794C27.3096 44.4478 23.4166 42.8598 23.4292 40.9343C23.4419 39.0089 27.3539 37.4757 32.1675 37.5073C36.9811 37.539 40.8732 39.1259 40.8573 41.0503Z" fill="#9895A2" fill-opacity="0.05"/>
</g>
<g style="mix-blend-mode:multiply" opacity="0.67">
<path d="M40.8309 41.0491C40.8182 42.9661 36.9399 44.495 32.1675 44.4634C27.395 44.4318 23.5367 42.8522 23.5493 40.9352C23.562 39.0182 27.4414 37.4913 32.2138 37.5229C36.9863 37.5546 40.8435 39.1342 40.8309 41.0491Z" fill="#9895A2" fill-opacity="0.05"/>
</g>
<g style="mix-blend-mode:multiply" opacity="0.67">
<path d="M40.8046 41.0489C40.7909 42.9574 36.9464 44.4801 32.215 44.4485C27.4836 44.4168 23.6581 42.8436 23.6739 40.935C23.6897 39.0264 27.5321 37.5069 32.2646 37.5386C36.997 37.5702 40.8173 39.1424 40.8046 41.0489Z" fill="#9895A2" fill-opacity="0.05"/>
</g>
<g style="mix-blend-mode:multiply" opacity="0.67">
<path d="M40.7768 41.0486C40.7642 42.9467 36.9523 44.464 32.2621 44.4324C27.5718 44.4008 23.779 42.836 23.7906 40.9358C23.8022 39.0357 27.6161 37.5236 32.3064 37.5542C36.9966 37.5847 40.7895 39.1506 40.7768 41.0486Z" fill="#9895A2" fill-opacity="0.05"/>
</g>
<g style="mix-blend-mode:multiply" opacity="0.68">
<path d="M40.7508 41.0484C40.7382 42.9401 36.9548 44.448 32.3152 44.4174C27.6755 44.3868 23.9058 42.8283 23.9185 40.9377C23.9311 39.047 27.7145 37.5402 32.3605 37.5708C37.0064 37.6013 40.7677 39.1588 40.7508 41.0484Z" fill="#9895A2" fill-opacity="0.05"/>
</g>
<g style="mix-blend-mode:multiply" opacity="0.68">
<path d="M40.7241 41.0492C40.7115 42.9315 36.966 44.4341 32.357 44.4035C27.7479 44.3729 24.0267 42.8218 24.0352 40.9385C24.0436 39.0553 27.7933 37.5558 32.4023 37.5864C37.0114 37.617 40.7368 39.1681 40.7241 41.0492Z" fill="#9895A2" fill-opacity="0.05"/>
</g>
<g style="mix-blend-mode:multiply" opacity="0.68">
<path d="M40.697 41.049C40.6854 42.9228 36.9727 44.4181 32.4048 44.3875C27.8368 44.3569 24.1441 42.8132 24.1568 40.9383C24.1694 39.0635 27.8811 37.5714 32.4501 37.602C37.0191 37.6326 40.7097 39.1763 40.697 41.049Z" fill="#9895A2" fill-opacity="0.05"/>
</g>
<g style="mix-blend-mode:multiply" opacity="0.69">
<path d="M40.6705 41.0478C40.6578 42.9142 36.9799 44.402 32.452 44.3725C27.9242 44.343 24.2652 42.8056 24.2779 40.9392C24.2905 39.0728 27.9685 37.5881 32.4974 37.6176C37.0263 37.6471 40.6832 39.1846 40.6705 41.0478Z" fill="#9895A2" fill-opacity="0.05"/>
</g>
<g style="mix-blend-mode:multiply" opacity="0.69">
<path d="M40.6445 41.0476C40.6318 42.9045 36.9855 44.386 32.4998 44.3565C28.0141 44.327 24.3868 42.7969 24.3994 40.94C24.4121 39.0831 28.0584 37.6037 32.5452 37.6332C37.0319 37.6628 40.6624 39.1928 40.6445 41.0476Z" fill="#9895A2" fill-opacity="0.05"/>
</g>
<g style="mix-blend-mode:multiply" opacity="0.69">
<path d="M40.6174 41.0484C40.6048 42.8979 36.9922 44.3741 32.5424 44.3425C28.0926 44.3109 24.5074 42.7925 24.5201 40.9419C24.5327 39.0913 28.1453 37.6203 32.5909 37.6499C37.0365 37.6794 40.629 39.2073 40.6174 41.0484Z" fill="#9895A2" fill-opacity="0.05"/>
</g>
<g style="mix-blend-mode:multiply" opacity="0.7">
<path d="M40.5903 41.0482C40.5787 42.8882 36.9988 44.356 32.5943 44.3265C28.1899 44.2969 24.6342 42.7817 24.6416 40.9427C24.649 39.1037 28.2342 37.637 32.6386 37.6654C37.0431 37.6939 40.603 39.2071 40.5903 41.0482Z" fill="#9895A2" fill-opacity="0.05"/>
</g>
<g style="mix-blend-mode:multiply" opacity="0.7">
<path d="M40.5638 41.048C40.5522 42.8785 37.005 44.34 32.6417 44.3115C28.2783 44.283 24.7511 42.7741 24.7627 40.9425C24.7743 39.1109 28.3215 37.6526 32.6859 37.6811C37.0503 37.7095 40.5765 39.2185 40.5638 41.048Z" fill="#9895A2" fill-opacity="0.05"/>
</g>
<g style="mix-blend-mode:multiply" opacity="0.7">
<path d="M40.5376 41.0467C40.525 42.8699 37.0115 44.325 32.6893 44.2955C28.367 44.266 24.8726 42.7665 24.8863 40.9434C24.9 39.1202 28.4124 37.6682 32.7357 37.6967C37.059 37.7252 40.5492 39.2267 40.5376 41.0467Z" fill="#9895A2" fill-opacity="0.05"/>
</g>
<g style="mix-blend-mode:multiply" opacity="0.71">
<path d="M40.5112 41.0474C40.4986 42.8622 37.0189 44.3099 32.7367 44.2815C28.4545 44.253 24.9938 42.7588 25.0054 40.9451C25.017 39.1315 28.4988 37.6858 32.781 37.7143C37.0632 37.7428 40.5228 39.2359 40.5112 41.0474Z" fill="#9895A2" fill-opacity="0.05"/>
</g>
<g style="mix-blend-mode:multiply" opacity="0.71">
<path d="M40.4839 41.0463C40.4723 42.8515 37.0253 44.2929 32.7864 44.2655C28.5474 44.2381 25.1173 42.7503 25.1299 40.945C25.1426 39.1398 28.5885 37.7005 32.8275 37.7289C37.0664 37.7574 40.4966 39.2431 40.4839 41.0463Z" fill="#9895A2" fill-opacity="0.05"/>
</g>
</g>
<path d="M53.9997 22.221C53.9997 33.9053 44.5283 43.3757 32.8451 43.3757C21.1619 43.3757 11.6904 33.9053 11.6904 22.221C11.6904 10.5368 21.1619 1.06641 32.8493 1.06641C44.5366 1.06641 53.9997 10.5379 53.9997 22.221Z" fill="url(#paint0_linear)"/>
<path d="M53.9992 22.1463C54.019 24.927 53.4864 27.6842 52.4322 30.259C51.378 32.8338 49.8229 35.1753 47.8566 37.1486C45.8903 39.1219 43.5516 40.688 40.9753 41.7567C38.3989 42.8255 35.6358 43.3757 32.8451 43.3757C30.0544 43.3757 27.2913 42.8255 24.7149 41.7567C22.1385 40.688 19.7998 39.1219 17.8335 37.1486C15.8672 35.1753 14.3122 32.8338 13.2579 30.259C12.2037 27.6842 11.6712 24.927 11.691 22.1463C11.691 10.5036 21.1659 1.06641 32.8445 1.06641C44.5232 1.06641 53.9992 10.5036 53.9992 22.1463Z" fill="url(#paint1_radial)"/>
<path style="mix-blend-mode:multiply" d="M30.2832 44.9916C41.7692 43.1991 49.6274 32.4347 47.8349 20.9487C46.0424 9.46262 35.278 1.60446 23.7919 3.39696C12.3059 5.18947 4.44774 15.9539 6.24025 27.4399C8.03275 38.9259 18.7971 46.7841 30.2832 44.9916Z" fill="url(#paint2_radial)" fill-opacity="0.7"/>
<path style="mix-blend-mode:screen" d="M22.9774 5.31461C24.5591 1.42682 31.2307 0.464097 37.8769 3.1709C44.5232 5.8777 48.6324 11.2185 47.0507 15.1074C45.4691 18.9962 38.7985 19.9579 32.1512 17.2511C25.5039 14.5443 21.3957 9.20241 22.9774 5.31461Z" fill="url(#paint3_radial)"/>
<path style="mix-blend-mode:screen" d="M33.8725 5.12857C34.4598 3.3265 37.0475 2.55463 39.652 3.40347C42.2565 4.25231 43.892 6.40025 43.3046 8.20232C42.7173 10.0044 40.1349 10.7763 37.5251 9.92742C34.9153 9.07858 33.2809 6.92959 33.8725 5.12857Z" fill="url(#paint4_radial)"/>
<path style="mix-blend-mode:screen" d="M36.2335 9.31267C37.1287 6.5658 41.0745 5.38902 45.0456 6.68284C49.0167 7.97667 51.5105 11.2529 50.6152 13.9997C49.72 16.7466 45.7742 17.9244 41.8031 16.6296C37.832 15.3347 35.3393 12.0595 36.2335 9.31267Z" fill="url(#paint5_radial)"/>
<path style="mix-blend-mode:screen" d="M36.2335 9.31267C37.1287 6.5658 41.0745 5.38902 45.0456 6.68284C49.0167 7.97667 51.5105 11.2529 50.6152 13.9997C49.72 16.7466 45.7742 17.9244 41.8031 16.6296C37.832 15.3347 35.3393 12.0595 36.2335 9.31267Z" fill="url(#paint6_radial)"/>
<path style="mix-blend-mode:screen" d="M41.7229 10.934C42.0392 9.95971 43.4385 9.5432 44.8451 10.0019C46.2518 10.4606 47.1365 11.6205 46.8191 12.5948C46.5017 13.5691 45.1035 13.9846 43.6968 13.5259C42.2902 13.0672 41.4065 11.9062 41.7229 10.934Z" fill="url(#paint7_radial)"/>
</g>
<defs>
<linearGradient id="paint0_linear" x1="32.8451" y1="41.8053" x2="32.8451" y2="-0.504997" gradientUnits="userSpaceOnUse">
<stop stop-color="#8F8E92"/>
<stop offset="0.16" stop-color="#A9A7AD"/>
<stop offset="0.53" stop-color="#C9C8CD"/>
<stop offset="0.83" stop-color="#E1E0E3"/>
<stop offset="1" stop-color="#E4E3E7"/>
</linearGradient>
<radialGradient id="paint1_radial" cx="0" cy="0" r="1" gradientUnits="userSpaceOnUse" gradientTransform="translate(33.8706 0.775312) scale(45.2237 45.0639)">
<stop offset="0.01" stop-color="#E2E1E4"/>
<stop offset="1" stop-color="#9895A2"/>
</radialGradient>
<radialGradient id="paint2_radial" cx="0" cy="0" r="1" gradientUnits="userSpaceOnUse" gradientTransform="translate(26.813 24.1052) scale(23.1939)">
<stop offset="0.04" stop-color="#303030"/>
<stop offset="0.33" stop-color="#7C7C7C"/>
<stop offset="0.73" stop-color="#EDEDED"/>
<stop offset="0.81" stop-color="#F4F4F4"/>
<stop offset="0.97" stop-color="white"/>
</radialGradient>
<radialGradient id="paint3_radial" cx="0" cy="0" r="1" gradientUnits="userSpaceOnUse" gradientTransform="translate(36.0118 10.6446) rotate(-157.751) scale(10.3064 6.0288)">
<stop offset="0.23" stop-color="#E6E6E6"/>
<stop offset="0.33" stop-color="#BDBDBD"/>
<stop offset="0.51" stop-color="#7A7A7A"/>
<stop offset="0.68" stop-color="#464646"/>
<stop offset="0.82" stop-color="#202020"/>
<stop offset="0.93" stop-color="#090909"/>
<stop offset="1"/>
</radialGradient>
<radialGradient id="paint4_radial" cx="0" cy="0" r="1" gradientUnits="userSpaceOnUse" gradientTransform="translate(38.7974 6.60806) rotate(-161.946) scale(3.93854 2.72162)">
<stop offset="0.13" stop-color="#E6E6E6"/>
<stop offset="0.22" stop-color="#D7D7D7"/>
<stop offset="0.39" stop-color="#B1B1B1"/>
<stop offset="0.62" stop-color="#727272"/>
<stop offset="0.91" stop-color="#1D1D1D"/>
<stop offset="1"/>
</radialGradient>
<radialGradient id="paint5_radial" cx="0" cy="0" r="1" gradientUnits="userSpaceOnUse" gradientTransform="translate(4036.22 2088.38) scale(441.039 328.963)">
<stop offset="0.13" stop-color="#E6E6E6"/>
<stop offset="0.22" stop-color="#D7D7D7"/>
<stop offset="0.39" stop-color="#B1B1B1"/>
<stop offset="0.62" stop-color="#727272"/>
<stop offset="0.91" stop-color="#1D1D1D"/>
<stop offset="1"/>
</radialGradient>
<radialGradient id="paint6_radial" cx="0" cy="0" r="1" gradientUnits="userSpaceOnUse" gradientTransform="translate(4036.22 2088.38) scale(441.039 328.963)">
<stop offset="0.13" stop-color="#E6E6E6"/>
<stop offset="0.22" stop-color="#D7D7D7"/>
<stop offset="0.39" stop-color="#B1B1B1"/>
<stop offset="0.62" stop-color="#727272"/>
<stop offset="0.91" stop-color="#1D1D1D"/>
<stop offset="1"/>
</radialGradient>
<radialGradient id="paint7_radial" cx="0" cy="0" r="1" gradientUnits="userSpaceOnUse" gradientTransform="translate(1443.81 749.723) scale(55.384 41.3095)">
<stop offset="0.13" stop-color="#E6E6E6"/>
<stop offset="0.22" stop-color="#D7D7D7"/>
<stop offset="0.39" stop-color="#B1B1B1"/>
<stop offset="0.62" stop-color="#727272"/>
<stop offset="0.91" stop-color="#1D1D1D"/>
<stop offset="1"/>
</radialGradient>
</defs>
</svg>
