<svg width="121" height="37" viewBox="0 0 121 37" fill="none" xmlns="http://www.w3.org/2000/svg">
<path d="M1.19 4.1H4.556V16H1.19V4.1ZM19.8375 4.1L14.7375 16H11.4225L6.33954 4.1H9.97754L13.2075 11.852L16.5055 4.1H19.8375ZM27.1511 16.238C25.9045 16.238 24.7825 15.9773 23.7851 15.456C22.7991 14.9233 22.0228 14.1867 21.4561 13.246C20.8895 12.3053 20.6061 11.24 20.6061 10.05C20.6061 8.86 20.8895 7.79467 21.4561 6.854C22.0228 5.91333 22.7991 5.18233 23.7851 4.661C24.7825 4.12833 25.9045 3.862 27.1511 3.862C28.2391 3.862 29.2195 4.05467 30.0921 4.44C30.9648 4.82533 31.6901 5.38067 32.2681 6.106L30.1261 8.044C29.3555 7.11467 28.4205 6.65 27.3211 6.65C26.6751 6.65 26.0971 6.79167 25.5871 7.075C25.0885 7.35833 24.6975 7.76067 24.4141 8.282C24.1421 8.792 24.0061 9.38133 24.0061 10.05C24.0061 10.7187 24.1421 11.3137 24.4141 11.835C24.6975 12.345 25.0885 12.7417 25.5871 13.025C26.0971 13.3083 26.6751 13.45 27.3211 13.45C28.4205 13.45 29.3555 12.9853 30.1261 12.056L32.2681 13.994C31.6901 14.7193 30.9648 15.2747 30.0921 15.66C29.2195 16.0453 28.2391 16.238 27.1511 16.238ZM45.9409 4.1V16H42.5749V11.359H37.9849V16H34.6189V4.1H37.9849V8.571H42.5749V4.1H45.9409ZM58.7192 13.399V16H49.1652V4.1H58.4982V6.701H52.4972V8.707H57.7842V11.223H52.4972V13.399H58.7192ZM72.7591 4.1V16H69.9881L64.7351 9.659V16H61.4371V4.1H64.2081L69.4611 10.441V4.1H72.7591ZM80.5734 11.682L79.3154 13.025V16H75.9834V4.1H79.3154V9.047L83.9224 4.1H87.6284L82.7664 9.37L87.8834 16H83.9734L80.5734 11.682ZM95.1859 16.238C93.9279 16.238 92.7946 15.9717 91.7859 15.439C90.7886 14.9063 90.0009 14.1697 89.4229 13.229C88.8563 12.2883 88.5729 11.2287 88.5729 10.05C88.5729 8.87133 88.8563 7.81167 89.4229 6.871C90.0009 5.93033 90.7886 5.19367 91.7859 4.661C92.7946 4.12833 93.9279 3.862 95.1859 3.862C96.4439 3.862 97.5716 4.12833 98.5689 4.661C99.5776 5.19367 100.365 5.93033 100.932 6.871C101.51 7.81167 101.799 8.87133 101.799 10.05C101.799 11.2287 101.51 12.2883 100.932 13.229C100.365 14.1697 99.5776 14.9063 98.5689 15.439C97.5716 15.9717 96.4439 16.238 95.1859 16.238ZM95.1859 13.45C95.7866 13.45 96.3306 13.3083 96.8179 13.025C97.3053 12.7417 97.6906 12.345 97.9739 11.835C98.2573 11.3137 98.3989 10.7187 98.3989 10.05C98.3989 9.38133 98.2573 8.792 97.9739 8.282C97.6906 7.76067 97.3053 7.35833 96.8179 7.075C96.3306 6.79167 95.7866 6.65 95.1859 6.65C94.5853 6.65 94.0413 6.79167 93.5539 7.075C93.0666 7.35833 92.6813 7.76067 92.3979 8.282C92.1146 8.792 91.9729 9.38133 91.9729 10.05C91.9729 10.7187 92.1146 11.3137 92.3979 11.835C92.6813 12.345 93.0666 12.7417 93.5539 13.025C94.0413 13.3083 94.5853 13.45 95.1859 13.45ZM105.287 16.153C104.743 16.153 104.284 15.9717 103.91 15.609C103.536 15.2463 103.349 14.7873 103.349 14.232C103.349 13.6653 103.53 13.2063 103.893 12.855C104.267 12.5037 104.732 12.328 105.287 12.328C105.854 12.328 106.318 12.5037 106.681 12.855C107.044 13.2063 107.225 13.6653 107.225 14.232C107.225 14.7873 107.038 15.2463 106.664 15.609C106.301 15.9717 105.842 16.153 105.287 16.153Z" fill="#F03454"/>
<path d="M0.94 25H4C4.74667 25 5.41 25.1467 5.99 25.44C6.57 25.7267 7.02 26.1367 7.34 26.67C7.66 27.1967 7.82 27.8067 7.82 28.5C7.82 29.1933 7.66 29.8067 7.34 30.34C7.02 30.8667 6.57 31.2767 5.99 31.57C5.41 31.8567 4.74667 32 4 32H0.94V25ZM3.94 30.9C4.45333 30.9 4.90333 30.8033 5.29 30.61C5.68333 30.41 5.98333 30.13 6.19 29.77C6.40333 29.4033 6.51 28.98 6.51 28.5C6.51 28.02 6.40333 27.6 6.19 27.24C5.98333 26.8733 5.68333 26.5933 5.29 26.4C4.90333 26.2 4.45333 26.1 3.94 26.1H2.24V30.9H3.94ZM27.7517 30.91V32H22.5017V25H27.6117V26.09H23.8017V27.91H27.1817V28.98H23.8017V30.91H27.7517ZM44.6709 32.1C44.1309 32.1 43.6076 32.0233 43.1009 31.87C42.6009 31.7167 42.2043 31.5133 41.9109 31.26L42.3609 30.25C42.6476 30.4767 42.9976 30.6633 43.4109 30.81C43.8309 30.95 44.2509 31.02 44.6709 31.02C45.1909 31.02 45.5776 30.9367 45.8309 30.77C46.0909 30.6033 46.2209 30.3833 46.2209 30.11C46.2209 29.91 46.1476 29.7467 46.0009 29.62C45.8609 29.4867 45.6809 29.3833 45.4609 29.31C45.2409 29.2367 44.9409 29.1533 44.5609 29.06C44.0276 28.9333 43.5943 28.8067 43.2609 28.68C42.9343 28.5533 42.6509 28.3567 42.4109 28.09C42.1776 27.8167 42.0609 27.45 42.0609 26.99C42.0609 26.6033 42.1643 26.2533 42.3709 25.94C42.5843 25.62 42.9009 25.3667 43.3209 25.18C43.7476 24.9933 44.2676 24.9 44.8809 24.9C45.3076 24.9 45.7276 24.9533 46.1409 25.06C46.5543 25.1667 46.9109 25.32 47.2109 25.52L46.8009 26.53C46.4943 26.35 46.1743 26.2133 45.8409 26.12C45.5076 26.0267 45.1843 25.98 44.8709 25.98C44.3576 25.98 43.9743 26.0667 43.7209 26.24C43.4743 26.4133 43.3509 26.6433 43.3509 26.93C43.3509 27.13 43.4209 27.2933 43.5609 27.42C43.7076 27.5467 43.8909 27.6467 44.1109 27.72C44.3309 27.7933 44.6309 27.8767 45.0109 27.97C45.5309 28.09 45.9576 28.2167 46.2909 28.35C46.6243 28.4767 46.9076 28.6733 47.1409 28.94C47.3809 29.2067 47.5009 29.5667 47.5009 30.02C47.5009 30.4067 47.3943 30.7567 47.1809 31.07C46.9743 31.3833 46.6576 31.6333 46.2309 31.82C45.8043 32.0067 45.2843 32.1 44.6709 32.1ZM62.09 25H63.39V32H62.09V25ZM83.3634 28.42H84.5934V31.21C84.2334 31.4967 83.8134 31.7167 83.3334 31.87C82.8534 32.0233 82.36 32.1 81.8534 32.1C81.14 32.1 80.4967 31.9467 79.9234 31.64C79.35 31.3267 78.9 30.8967 78.5734 30.35C78.2467 29.8033 78.0834 29.1867 78.0834 28.5C78.0834 27.8133 78.2467 27.1967 78.5734 26.65C78.9 26.1033 79.35 25.6767 79.9234 25.37C80.5034 25.0567 81.1534 24.9 81.8734 24.9C82.46 24.9 82.9934 24.9967 83.4734 25.19C83.9534 25.3833 84.3567 25.6667 84.6834 26.04L83.8634 26.84C83.33 26.3067 82.6867 26.04 81.9334 26.04C81.44 26.04 81 26.1433 80.6134 26.35C80.2334 26.5567 79.9334 26.8467 79.7134 27.22C79.5 27.5933 79.3934 28.02 79.3934 28.5C79.3934 28.9667 79.5 29.3867 79.7134 29.76C79.9334 30.1333 80.2334 30.4267 80.6134 30.64C81 30.8533 81.4367 30.96 81.9234 30.96C82.47 30.96 82.95 30.84 83.3634 30.6V28.42ZM105.828 25V32H104.758L100.898 27.26V32H99.608V25H100.678L104.538 29.74V25H105.828Z" fill="#817D8E"/>
</svg>
