<svg width="54" height="49" viewBox="0 0 54 49" fill="none" xmlns="http://www.w3.org/2000/svg">
    <g style="mix-blend-mode:multiply" opacity=".3">
        <g style="mix-blend-mode:multiply" opacity=".96">
            <path d="M45.947 41.084c-.024 3.565-10.273 6.386-22.894 6.302-12.621-.084-22.835-3.04-22.81-6.605.024-3.565 10.273-6.386 22.895-6.302 12.622.085 22.832 3.04 22.81 6.605z" fill="#9895A2" fill-opacity=".05" style="mix-blend-mode:multiply" opacity=".01"/>
            <path d="M45.92 41.083c-.023 3.557-10.24 6.371-22.82 6.288C10.52 47.288.34 44.338.364 40.781c.023-3.556 10.246-6.37 22.822-6.286 12.575.083 22.758 3.033 22.734 6.588z" fill="#9895A2" fill-opacity=".05" style="mix-blend-mode:multiply" opacity=".01"/>
            <path d="M45.894 41.084c-.024 3.548-10.208 6.355-22.746 6.272C10.609 47.273.462 44.331.488 40.782c.025-3.548 10.208-6.354 22.746-6.27 12.539.083 22.683 3.025 22.66 6.572z" fill="#9895A2" fill-opacity=".05" style="mix-blend-mode:multiply" opacity=".01"/>
            <path d="M45.867 41.083c-.023 3.54-10.174 6.34-22.67 6.258C10.7 47.258.582 44.323.606 40.788c.023-3.534 10.174-6.34 22.67-6.256 12.497.083 22.613 3.013 22.59 6.551z" fill="#9895A2" fill-opacity=".05" style="mix-blend-mode:multiply" opacity=".02"/>
            <path d="M45.84 41.084c-.024 3.53-10.14 6.327-22.598 6.243C10.785 47.242.704 44.315.728 40.789c.023-3.526 10.141-6.327 22.599-6.241 12.457.085 22.537 3.006 22.513 6.536z" fill="#9895A2" fill-opacity=".05" style="mix-blend-mode:multiply" opacity=".02"/>
            <path d="M45.813 41.083c-.023 3.523-10.107 6.31-22.523 6.228C10.874 47.229.83 44.308.85 40.786c.02-3.522 10.107-6.309 22.524-6.227 12.418.083 22.463 3.004 22.44 6.524z" fill="#9895A2" fill-opacity=".05" style="mix-blend-mode:multiply" opacity=".02"/>
            <path d="M45.787 41.083c-.023 3.514-10.075 6.294-22.45 6.213C10.962 47.215.948 44.3.971 40.789c.023-3.512 10.075-6.293 22.45-6.211 12.377.082 22.389 2.992 22.366 6.505z" fill="#9895A2" fill-opacity=".05" style="mix-blend-mode:multiply" opacity=".03"/>
            <path d="M45.76 41.083c-.022 3.505-10.04 6.28-22.375 6.197-12.334-.082-22.315-2.989-22.292-6.491.023-3.503 10.041-6.279 22.375-6.196 12.335.082 22.316 2.985 22.293 6.49z" fill="#9895A2" fill-opacity=".05" style="mix-blend-mode:multiply" opacity=".03"/>
            <path d="M45.733 41.083c-.023 3.496-10.007 6.263-22.301 6.182-12.294-.081-22.242-2.981-22.219-6.477.024-3.495 10.008-6.262 22.302-6.18 12.294.08 22.24 2.978 22.218 6.475z" fill="#9895A2" fill-opacity=".05" style="mix-blend-mode:multiply" opacity=".03"/>
            <path d="M45.707 41.083c-.023 3.488-9.974 6.247-22.227 6.166-12.253-.081-22.168-2.973-22.149-6.46.02-3.489 9.975-6.248 22.228-6.167 12.253.081 22.171 2.972 22.148 6.46z" fill="#9895A2" fill-opacity=".05" style="mix-blend-mode:multiply" opacity=".04"/>
            <path d="M45.68 41.082c-.023 3.48-9.941 6.233-22.153 6.152-12.212-.081-22.09-2.966-22.07-6.446.02-3.48 9.94-6.233 22.153-6.151 12.213.08 22.093 2.966 22.07 6.445z" fill="#9895A2" fill-opacity=".05" style="mix-blend-mode:multiply" opacity=".04"/>
            <path d="M45.654 41.081c-.023 3.472-9.912 6.222-22.08 6.138-12.167-.083-22.02-2.958-21.996-6.432.023-3.473 9.912-6.221 22.08-6.136 12.169.086 22.018 2.96 21.996 6.43z" fill="#9895A2" fill-opacity=".05" style="mix-blend-mode:multiply" opacity=".04"/>
            <path d="M45.627 41.082c-.023 3.462-9.874 6.202-22.005 6.122-12.13-.08-21.945-2.953-21.923-6.413.022-3.461 9.875-6.202 22.006-6.116 12.132.085 21.945 2.95 21.922 6.407z" fill="#9895A2" fill-opacity=".05" style="mix-blend-mode:multiply" opacity=".05"/>
            <path d="M45.6 41.08c-.023 3.454-9.841 6.189-21.933 6.108-12.091-.08-21.87-2.944-21.846-6.4.023-3.457 9.841-6.187 21.933-6.107 12.091.08 21.87 2.943 21.846 6.4z" fill="#9895A2" fill-opacity=".05" style="mix-blend-mode:multiply" opacity=".05"/>
            <path d="M45.574 41.082c-.023 3.445-9.807 6.172-21.857 6.091-12.05-.08-21.798-2.935-21.775-6.384.024-3.45 9.807-6.172 21.857-6.092 12.05.08 21.797 2.94 21.775 6.385z" fill="#9895A2" fill-opacity=".05" style="mix-blend-mode:multiply" opacity=".05"/>
            <path d="M45.547 41.082c-.023 3.436-9.775 6.155-21.783 6.076C11.757 47.08 2.04 44.23 2.07 40.788c.028-3.44 9.775-6.154 21.783-6.075 12.008.079 21.718 2.932 21.695 6.369z" fill="#9895A2" fill-opacity=".05" style="mix-blend-mode:multiply" opacity=".06"/>
            <path d="M45.52 41.081c-.022 3.428-9.74 6.141-21.708 6.062-11.967-.079-21.65-2.92-21.627-6.349.023-3.428 9.742-6.14 21.711-6.06 11.97.078 21.647 2.92 21.624 6.347z" fill="#9895A2" fill-opacity=".05" style="mix-blend-mode:multiply" opacity=".06"/>
            <path d="M45.493 41.082c-.022 3.42-9.708 6.126-21.634 6.047-11.926-.08-21.58-2.915-21.553-6.333.026-3.419 9.708-6.122 21.635-6.046 11.927.075 21.571 2.913 21.552 6.332z" fill="#9895A2" fill-opacity=".05" style="mix-blend-mode:multiply" opacity=".07"/>
            <path d="M45.467 41.08c-.023 3.412-9.675 6.117-21.56 6.032-11.885-.084-21.502-2.906-21.48-6.316.022-3.41 9.676-6.116 21.562-6.031 11.886.084 21.5 2.906 21.478 6.316z" fill="#9895A2" fill-opacity=".05" style="mix-blend-mode:multiply" opacity=".07"/>
            <path d="M45.441 41.08c-.023 3.402-9.643 6.095-21.487 6.017C12.111 47.02 2.527 44.2 2.55 40.796c.022-3.403 9.643-6.094 21.487-6.018 11.843.076 21.427 2.9 21.405 6.302z" fill="#9895A2" fill-opacity=".05" style="mix-blend-mode:multiply" opacity=".07"/>
            <path d="M45.414 41.081c-.023 3.399-9.609 6.08-21.412 6.002-11.804-.078-21.354-2.892-21.332-6.285.022-3.394 9.61-6.08 21.413-6.001 11.803.078 21.354 2.89 21.33 6.284z" fill="#9895A2" fill-opacity=".05" style="mix-blend-mode:multiply" opacity=".08"/>
            <path d="M45.387 41.081c-.022 3.385-9.575 6.064-21.338 5.986-11.762-.078-21.28-2.884-21.258-6.269.022-3.384 9.577-6.064 21.34-5.986 11.762.078 21.276 2.884 21.256 6.269z" fill="#9895A2" fill-opacity=".05" style="mix-blend-mode:multiply" opacity=".08"/>
            <path d="M45.36 41.08c-.023 3.374-9.542 6.05-21.264 5.972C12.375 46.975 2.89 44.176 2.912 40.8c.022-3.376 9.542-6.048 21.264-5.971 11.723.077 21.207 2.876 21.185 6.252z" fill="#9895A2" fill-opacity=".05" style="mix-blend-mode:multiply" opacity=".08"/>
            <path d="M45.333 41.08c-.022 3.367-9.509 6.034-21.19 5.956-11.68-.078-21.131-2.873-21.108-6.237.023-3.364 9.509-6.033 21.194-5.956 11.686.077 21.127 2.87 21.104 6.236z" fill="#9895A2" fill-opacity=".05" style="mix-blend-mode:multiply" opacity=".09"/>
            <path d="M45.307 41.08c-.022 3.359-9.475 6.018-21.115 5.941-11.64-.077-21.058-2.861-21.036-6.22.022-3.36 9.477-6.023 21.117-5.942 11.64.081 21.056 2.862 21.034 6.22z" fill="#9895A2" fill-opacity=".05" style="mix-blend-mode:multiply" opacity=".09"/>
            <path d="M45.28 41.08c-.021 3.351-9.442 6.003-21.041 5.926-11.6-.077-20.984-2.854-20.962-6.204.023-3.35 9.442-6.002 21.041-5.926 11.6.076 20.984 2.855 20.963 6.204z" fill="#9895A2" fill-opacity=".05" style="mix-blend-mode:multiply" opacity=".09"/>
            <path d="M45.255 41.08c-.022 3.342-9.41 5.988-20.968 5.911-11.558-.077-20.91-2.847-20.888-6.188.022-3.342 9.41-5.988 20.968-5.912 11.558.076 20.91 2.847 20.888 6.189z" fill="#9895A2" fill-opacity=".05" style="mix-blend-mode:multiply" opacity=".1"/>
            <path d="M45.227 41.08c-.022 3.333-9.376 5.972-20.893 5.896-11.518-.076-20.837-2.84-20.814-6.174.022-3.334 9.376-5.971 20.894-5.895 11.518.076 20.835 2.84 20.813 6.173z" fill="#9895A2" fill-opacity=".05" style="mix-blend-mode:multiply" opacity=".1"/>
            <path d="M45.196 41.078c-.022 3.326-9.342 5.958-20.82 5.882-11.476-.076-20.761-2.832-20.74-6.157.023-3.325 9.344-5.956 20.821-5.88 11.477.075 20.766 2.832 20.74 6.155z" fill="#9895A2" fill-opacity=".05" style="mix-blend-mode:multiply" opacity=".1"/>
            <path d="M45.174 41.078c-.022 3.316-9.31 5.942-20.745 5.867C12.993 46.87 3.74 44.12 3.76 40.804c.02-3.316 9.311-5.94 20.747-5.865 11.435.076 20.688 2.824 20.666 6.14z" fill="#9895A2" fill-opacity=".05" style="mix-blend-mode:multiply" opacity=".11"/>
            <path d="M45.148 41.079c-.022 3.308-9.28 5.927-20.668 5.851-11.388-.076-20.618-2.816-20.595-6.124.023-3.308 9.28-5.926 20.667-5.85 11.388.076 20.617 2.816 20.596 6.123z" fill="#9895A2" fill-opacity=".05" style="mix-blend-mode:multiply" opacity=".11"/>
            <path d="M45.12 41.08c-.022 3.295-9.242 5.91-20.591 5.836-11.35-.075-20.54-2.81-20.518-6.11.022-3.299 9.244-5.904 20.597-5.834 11.353.07 20.535 2.81 20.512 6.108z" fill="#9895A2" fill-opacity=".05" style="mix-blend-mode:multiply" opacity=".11"/>
            <path d="M45.09 41.078c-.021 3.29-9.209 5.896-20.522 5.821-11.313-.075-20.466-2.802-20.444-6.093.022-3.29 9.21-5.894 20.523-5.82 11.313.076 20.47 2.803 20.444 6.093z" fill="#9895A2" fill-opacity=".05" style="mix-blend-mode:multiply" opacity=".12"/>
            <path d="M45.068 41.08c-.022 3.28-9.174 5.88-20.45 5.805-11.275-.075-20.392-2.795-20.37-6.077.023-3.281 9.174-5.88 20.45-5.8 11.275.08 20.393 2.79 20.37 6.071z" fill="#9895A2" fill-opacity=".05" style="mix-blend-mode:multiply" opacity=".12"/>
            <path d="M45.04 41.078c-.02 3.269-9.143 5.866-20.374 5.791-11.231-.075-20.318-2.787-20.296-6.06.022-3.273 9.144-5.865 20.375-5.79 11.231.075 20.317 2.787 20.295 6.06z" fill="#9895A2" fill-opacity=".05" style="mix-blend-mode:multiply" opacity=".12"/>
            <path d="M45.014 41.078c-.021 3.269-9.11 5.85-20.3 5.776-11.191-.074-20.244-2.78-20.22-6.044.024-3.265 9.11-5.85 20.302-5.775 11.19.075 20.24 2.78 20.218 6.043z" fill="#9895A2" fill-opacity=".05" style="mix-blend-mode:multiply" opacity=".13"/>
            <path d="M44.985 41.078c-.022 3.256-9.077 5.835-20.226 5.761-11.15-.074-20.17-2.773-20.15-6.03.022-3.255 9.08-5.832 20.236-5.759 11.155.074 20.163 2.773 20.14 6.028z" fill="#9895A2" fill-opacity=".05" style="mix-blend-mode:multiply" opacity=".13"/>
            <path d="M44.961 41.078c-.022 3.247-9.044 5.82-20.153 5.745C13.7 46.75 4.712 44.06 4.733 40.813c.022-3.246 9.04-5.824 20.153-5.747 11.113.077 20.1 2.77 20.075 6.012z" fill="#9895A2" fill-opacity=".05" style="mix-blend-mode:multiply" opacity=".13"/>
            <path d="M44.934 41.077c-.021 3.24-9.01 5.8-20.077 5.731C13.79 46.74 4.834 44.05 4.856 40.811c.022-3.238 9.01-5.8 20.078-5.73 11.068.07 20.022 2.755 20 5.996z" fill="#9895A2" fill-opacity=".05" style="mix-blend-mode:multiply" opacity=".14"/>
            <path d="M44.907 41.077c-.021 3.23-8.977 5.788-20.003 5.715-11.027-.073-19.95-2.75-19.93-5.98.02-3.23 8.978-5.787 20.005-5.715 11.026.073 19.95 2.75 19.928 5.98z" fill="#9895A2" fill-opacity=".05" style="mix-blend-mode:multiply" opacity=".14"/>
            <path d="M44.88 41.077c-.02 3.222-8.944 5.774-19.929 5.701-10.985-.072-19.875-2.741-19.853-5.965.022-3.223 8.944-5.772 19.929-5.7 10.985.074 19.876 2.743 19.853 5.964z" fill="#9895A2" fill-opacity=".05" style="mix-blend-mode:multiply" opacity=".14"/>
            <path d="M44.854 41.077c-.022 3.214-8.91 5.758-19.855 5.685-10.944-.072-19.8-2.735-19.78-5.948.021-3.213 8.912-5.757 19.857-5.684 10.945.072 19.804 2.735 19.778 5.947z" fill="#9895A2" fill-opacity=".05" style="mix-blend-mode:multiply" opacity=".15"/>
            <path d="M44.827 41.076c-.02 3.205-8.877 5.743-19.78 5.671-10.903-.071-19.727-2.728-19.71-5.932.019-3.205 8.878-5.743 19.783-5.67 10.904.073 19.729 2.728 19.707 5.931z" fill="#9895A2" fill-opacity=".05" style="mix-blend-mode:multiply" opacity=".15"/>
            <path d="M44.8 41.076c-.02 3.196-8.843 5.728-19.706 5.656-10.863-.071-19.651-2.72-19.632-5.916.019-3.196 8.845-5.727 19.708-5.655 10.863.071 19.652 2.72 19.63 5.915z" fill="#9895A2" fill-opacity=".05" style="mix-blend-mode:multiply" opacity=".15"/>
            <path d="M44.774 41.076c-.02 3.188-8.81 5.712-19.633 5.64-10.822-.071-19.579-2.712-19.558-5.904.021-3.192 8.812-5.711 19.634-5.64 10.822.072 19.578 2.718 19.557 5.904z" fill="#9895A2" fill-opacity=".05" style="mix-blend-mode:multiply" opacity=".16"/>
            <path d="M44.747 41.076c-.021 3.178-8.777 5.694-19.558 5.625-10.78-.068-19.508-2.706-19.484-5.885.023-3.179 8.778-5.694 19.56-5.624 10.782.07 19.503 2.706 19.482 5.884z" fill="#9895A2" fill-opacity=".05" style="mix-blend-mode:multiply" opacity=".16"/>
            <path d="M44.72 41.075c-.02 3.171-8.744 5.683-19.484 5.611-10.74-.071-19.431-2.698-19.41-5.868.02-3.17 8.745-5.68 19.486-5.61 10.74.071 19.43 2.699 19.409 5.867z" fill="#9895A2" fill-opacity=".05" style="mix-blend-mode:multiply" opacity=".16"/>
            <path d="M44.694 41.075c-.02 3.164-8.71 5.667-19.41 5.596-10.7-.07-19.357-2.69-19.336-5.852.021-3.161 8.711-5.666 19.412-5.595 10.7.07 19.355 2.691 19.334 5.851z" fill="#9895A2" fill-opacity=".05" style="mix-blend-mode:multiply" opacity=".17"/>
            <path d="M44.669 41.075c-.021 3.153-8.678 5.651-19.337 5.58-10.658-.07-19.284-2.682-19.263-5.836.021-3.154 8.679-5.65 19.337-5.58 10.659.071 19.282 2.684 19.263 5.836z" fill="#9895A2" fill-opacity=".05" style="mix-blend-mode:multiply" opacity=".17"/>
            <path d="M44.64 41.075c-.02 3.144-8.646 5.636-19.261 5.565-10.616-.07-19.21-2.676-19.191-5.82.017-3.145 8.646-5.635 19.262-5.565 10.617.071 19.212 2.675 19.19 5.82z" fill="#9895A2" fill-opacity=".05" style="mix-blend-mode:multiply" opacity=".17"/>
            <path d="M44.614 41.076c-.02 3.136-8.611 5.62-19.19 5.55-10.58-.07-19.136-2.668-19.115-5.8.021-3.131 8.612-5.619 19.191-5.55 10.58.07 19.136 2.666 19.114 5.8z" fill="#9895A2" fill-opacity=".05" style="mix-blend-mode:multiply" opacity=".18"/>
            <path d="M44.588 41.075c-.021 3.128-8.578 5.605-19.114 5.535-10.537-.07-19.062-2.658-19.04-5.788.02-3.13 8.578-5.604 19.114-5.534 10.537.07 19.06 2.66 19.04 5.788z" fill="#9895A2" fill-opacity=".05" style="mix-blend-mode:multiply" opacity=".18"/>
            <path d="M44.564 41.074c-.021 3.12-8.541 5.589-19.04 5.521-10.5-.067-18.99-2.654-18.97-5.773.02-3.119 8.542-5.588 19.042-5.519 10.5.07 18.986 2.653 18.968 5.771z" fill="#9895A2" fill-opacity=".05" style="mix-blend-mode:multiply" opacity=".19"/>
            <path d="M44.534 41.074c-.02 3.11-8.511 5.575-18.965 5.505-10.454-.07-18.913-2.645-18.893-5.756.02-3.11 8.512-5.573 18.967-5.504 10.455.068 18.912 2.645 18.891 5.755z" fill="#9895A2" fill-opacity=".05" style="mix-blend-mode:multiply" opacity=".19"/>
            <path d="M44.508 41.075c-.02 3.102-8.48 5.559-18.892 5.49-10.413-.068-18.84-2.636-18.82-5.74.021-3.104 8.48-5.558 18.893-5.49 10.412.069 18.84 2.639 18.819 5.74z" fill="#9895A2" fill-opacity=".05" style="mix-blend-mode:multiply" opacity=".19"/>
            <path d="M44.481 41.074c-.02 3.092-8.445 5.543-18.817 5.474-10.373-.068-18.77-2.636-18.745-5.723.026-3.088 8.446-5.544 18.818-5.475 10.373.069 18.765 2.63 18.744 5.724z" fill="#9895A2" fill-opacity=".05" style="mix-blend-mode:multiply" opacity=".2"/>
            <path d="M44.458 41.074c-.021 3.085-8.412 5.529-18.744 5.46-10.332-.068-18.69-2.623-18.673-5.709.015-3.085 8.412-5.526 18.744-5.458 10.331.067 18.69 2.623 18.673 5.707z" fill="#9895A2" fill-opacity=".05" style="mix-blend-mode:multiply" opacity=".2"/>
            <path d="M44.428 41.073c-.02 3.077-8.379 5.514-18.664 5.446-10.285-.069-18.618-2.617-18.596-5.694.02-3.079 8.378-5.512 18.67-5.445 10.291.068 18.611 2.618 18.59 5.693z" fill="#9895A2" fill-opacity=".05" style="mix-blend-mode:multiply" opacity=".2"/>
            <path d="M44.401 41.073c-.02 3.067-8.346 5.498-18.595 5.43-10.25-.067-18.543-2.608-18.523-5.676.02-3.067 8.346-5.497 18.597-5.428 10.25.068 18.541 2.608 18.521 5.674z" fill="#9895A2" fill-opacity=".05" style="mix-blend-mode:multiply" opacity=".21"/>
            <path d="M44.375 41.073c-.021 3.058-8.312 5.483-18.521 5.416-10.21-.068-18.47-2.603-18.454-5.66.016-3.059 8.313-5.484 18.523-5.415 10.21.07 18.472 2.6 18.452 5.659z" fill="#9895A2" fill-opacity=".05" style="mix-blend-mode:multiply" opacity=".21"/>
            <path d="M44.353 41.074c-.02 3.05-8.279 5.467-18.447 5.4-10.168-.068-18.395-2.595-18.375-5.645.02-3.05 8.28-5.465 18.453-5.398 10.174.068 18.385 2.593 18.369 5.643z" fill="#9895A2" fill-opacity=".05" style="mix-blend-mode:multiply" opacity=".21"/>
            <path d="M44.321 41.073c-.02 3.041-8.246 5.452-18.373 5.385-10.127-.066-18.321-2.586-18.301-5.628.02-3.042 8.247-5.45 18.374-5.383 10.127.067 18.32 2.585 18.3 5.626z" fill="#9895A2" fill-opacity=".05" style="mix-blend-mode:multiply" opacity=".22"/>
            <path d="M44.295 41.073c-.02 3.033-8.213 5.437-18.299 5.37-10.086-.068-18.242-2.58-18.227-5.612.014-3.033 8.213-5.436 18.3-5.369 10.087.068 18.246 2.578 18.226 5.611z" fill="#9895A2" fill-opacity=".05" style="mix-blend-mode:multiply" opacity=".22"/>
            <path d="M44.269 41.072c-.02 3.025-8.18 5.422-18.226 5.355-10.046-.066-18.174-2.571-18.152-5.596.022-3.024 8.18-5.42 18.225-5.353 10.046.066 18.172 2.569 18.153 5.594z" fill="#9895A2" fill-opacity=".05" style="mix-blend-mode:multiply" opacity=".22"/>
            <path d="M44.24 41.072c-.02 3.015-8.145 5.406-18.15 5.34-10.004-.067-18.098-2.566-18.078-5.58.02-3.013 8.145-5.405 18.151-5.339 10.006.067 18.098 2.564 18.078 5.579z" fill="#9895A2" fill-opacity=".05" style="mix-blend-mode:multiply" opacity=".23"/>
            <path d="M44.214 41.071c-.02 3.008-8.113 5.39-18.076 5.326-9.964-.066-18.025-2.558-18.005-5.565.02-3.007 8.113-5.39 18.083-5.323 9.97.067 18.018 2.556 17.998 5.562z" fill="#9895A2" fill-opacity=".05" style="mix-blend-mode:multiply" opacity=".23"/>
            <path d="M44.188 41.071c-.02 3-8.08 5.378-18.002 5.31-9.923-.069-17.951-2.549-17.926-5.548.025-2.999 8.08-5.378 18.003-5.308 9.922.07 17.945 2.549 17.925 5.546z" fill="#9895A2" fill-opacity=".05" style="mix-blend-mode:multiply" opacity=".23"/>
            <path d="M44.162 41.073c-.02 2.99-8.047 5.36-17.926 5.294-9.879-.065-17.877-2.542-17.857-5.531.02-2.99 8.046-5.359 17.926-5.294 9.879.066 17.876 2.542 17.857 5.531z" fill="#9895A2" fill-opacity=".05" style="mix-blend-mode:multiply" opacity=".24"/>
            <path d="M44.135 41.072c-.02 2.98-8.014 5.344-17.854 5.28-9.84-.065-17.804-2.531-17.784-5.516.02-2.986 8.014-5.344 17.855-5.279 9.842.065 17.803 2.534 17.783 5.515z" fill="#9895A2" fill-opacity=".05" style="mix-blend-mode:multiply" opacity=".24"/>
            <path d="M44.108 41.07c-.02 2.974-7.98 5.33-17.78 5.266-9.8-.066-17.73-2.531-17.71-5.5.02-2.97 7.98-5.329 17.782-5.263 9.8.065 17.728 2.526 17.708 5.498z" fill="#9895A2" fill-opacity=".05" style="mix-blend-mode:multiply" opacity=".24"/>
            <path d="M44.082 41.071c-.02 2.965-7.948 5.315-17.707 5.25-9.759-.064-17.655-2.52-17.636-5.483.02-2.963 7.948-5.312 17.708-5.248 9.76.064 17.654 2.518 17.635 5.481z" fill="#9895A2" fill-opacity=".05" style="mix-blend-mode:multiply" opacity=".25"/>
            <path d="M44.054 41.071c-.018 2.953-7.908 5.299-17.631 5.235C16.7 46.24 8.842 43.794 8.86 40.838c.019-2.956 7.915-5.297 17.633-5.233 9.718.064 17.58 2.512 17.56 5.466z" fill="#9895A2" fill-opacity=".05" style="mix-blend-mode:multiply" opacity=".25"/>
            <path d="M44.028 41.07c-.02 2.953-7.88 5.285-17.558 5.22-9.678-.064-17.504-2.504-17.487-5.451.017-2.947 7.88-5.283 17.558-5.218 9.678.066 17.507 2.504 17.487 5.45z" fill="#9895A2" fill-opacity=".05" style="mix-blend-mode:multiply" opacity=".25"/>
            <path d="M44.002 41.071c-.02 2.939-7.847 5.272-17.484 5.204-9.637-.069-17.433-2.497-17.413-5.436.02-2.939 7.847-5.272 17.483-5.203 9.637.07 17.433 2.497 17.414 5.435z" fill="#9895A2" fill-opacity=".05" style="mix-blend-mode:multiply" opacity=".26"/>
            <path d="M43.975 41.07c-.02 2.93-7.814 5.253-17.41 5.19-9.595-.064-17.36-2.49-17.34-5.42.02-2.93 7.817-5.252 17.413-5.188 9.595.063 17.356 2.49 17.337 5.419z" fill="#9895A2" fill-opacity=".05" style="mix-blend-mode:multiply" opacity=".26"/>
            <path d="M43.948 41.07c-.02 2.921-7.78 5.238-17.335 5.175-9.556-.064-17.285-2.484-17.268-5.404.017-2.921 7.78-5.237 17.336-5.174 9.556.063 17.287 2.485 17.267 5.402z" fill="#9895A2" fill-opacity=".05" style="mix-blend-mode:multiply" opacity=".26"/>
            <path d="M43.922 41.07c-.02 2.913-7.747 5.223-17.262 5.16-9.514-.064-17.21-2.475-17.187-5.388.023-2.912 7.744-5.22 17.258-5.158 9.514.062 17.21 2.475 17.19 5.386z" fill="#9895A2" fill-opacity=".05" style="mix-blend-mode:multiply" opacity=".27"/>
            <path d="M43.895 41.07c-.02 2.904-7.715 5.207-17.188 5.145-9.473-.062-17.137-2.468-17.118-5.378.019-2.91 7.714-5.205 17.188-5.142 9.473.062 17.137 2.472 17.118 5.375z" fill="#9895A2" fill-opacity=".05" style="mix-blend-mode:multiply" opacity=".27"/>
            <path d="M43.869 41.07c-.02 2.896-7.682 5.192-17.114 5.13-9.432-.063-17.063-2.458-17.045-5.356.02-2.898 7.682-5.19 17.114-5.128 9.433.062 17.064 2.46 17.045 5.355z" fill="#9895A2" fill-opacity=".05" style="mix-blend-mode:multiply" opacity=".27"/>
            <path d="M43.841 41.07c-.019 2.888-7.647 5.177-17.039 5.115-9.392-.063-16.99-2.453-16.97-5.34.019-2.887 7.648-5.175 17.04-5.113 9.392.062 16.988 2.452 16.97 5.338z" fill="#9895A2" fill-opacity=".05" style="mix-blend-mode:multiply" opacity=".28"/>
            <path d="M43.815 41.07c-.019 2.882-7.614 5.16-16.966 5.096-9.352-.064-16.916-2.445-16.896-5.322.02-2.878 7.617-5.159 16.966-5.097 9.35.063 16.915 2.446 16.896 5.323z" fill="#9895A2" fill-opacity=".05" style="mix-blend-mode:multiply" opacity=".28"/>
            <path d="M43.789 41.069c-.02 2.87-7.582 5.146-16.892 5.085-9.31-.062-16.84-2.438-16.821-5.309.019-2.87 7.581-5.143 16.891-5.082 9.31.061 16.84 2.438 16.822 5.306z" fill="#9895A2" fill-opacity=".05" style="mix-blend-mode:multiply" opacity=".28"/>
            <path d="M43.762 41.069c-.02 2.862-7.548 5.13-16.817 5.069-9.268-.063-16.766-2.426-16.749-5.292.017-2.866 7.548-5.129 16.818-5.067 9.27.06 16.766 2.43 16.748 5.29z" fill="#9895A2" fill-opacity=".05" style="mix-blend-mode:multiply" opacity=".29"/>
            <path d="M43.735 41.069c-.02 2.853-7.514 5.115-16.742 5.054-9.227-.061-16.694-2.426-16.675-5.273.019-2.847 7.515-5.117 16.742-5.056 9.226.061 16.694 2.423 16.675 5.275z" fill="#9895A2" fill-opacity=".05" style="mix-blend-mode:multiply" opacity=".29"/>
            <path d="M43.709 41.068c-.02 2.847-7.482 5.1-16.668 5.04-9.186-.06-16.62-2.416-16.601-5.26.019-2.844 7.48-5.098 16.668-5.038 9.188.06 16.62 2.415 16.6 5.258z" fill="#9895A2" fill-opacity=".05" style="mix-blend-mode:multiply" opacity=".29"/>
            <path d="M43.682 41.07c-.019 2.835-7.449 5.084-16.594 5.023-9.145-.062-16.546-2.408-16.527-5.244.019-2.837 7.448-5.083 16.595-5.023 9.146.06 16.544 2.409 16.526 5.243z" fill="#9895A2" fill-opacity=".05" style="mix-blend-mode:multiply" opacity=".3"/>
            <path d="M43.655 41.069c-.018 2.827-7.414 5.069-16.52 5.009-9.105-.06-16.472-2.401-16.449-5.228.023-2.827 7.41-5.068 16.517-5.008 9.107.06 16.47 2.401 16.452 5.227z" fill="#9895A2" fill-opacity=".05" style="mix-blend-mode:multiply" opacity=".3"/>
            <path d="M43.628 41.069c-.019 2.818-7.38 5.054-16.45 4.994-9.068-.06-16.397-2.393-16.38-5.212.019-2.818 7.382-5.051 16.45-4.992 9.069.059 16.4 2.393 16.38 5.21z" fill="#9895A2" fill-opacity=".05" style="mix-blend-mode:multiply" opacity=".31"/>
            <path d="M43.602 41.068c-.019 2.81-7.348 5.038-16.371 4.979-9.023-.06-16.324-2.387-16.304-5.196.02-2.809 7.348-5.037 16.372-4.977 9.025.06 16.322 2.383 16.303 5.194z" fill="#9895A2" fill-opacity=".05" style="mix-blend-mode:multiply" opacity=".31"/>
            <path d="M43.575 41.067c-.019 2.802-7.315 5.024-16.297 4.964-8.982-.06-16.246-2.378-16.232-5.18.015-2.802 7.315-5.02 16.298-4.961 8.983.058 16.25 2.378 16.231 5.177z" fill="#9895A2" fill-opacity=".05" style="mix-blend-mode:multiply" opacity=".31"/>
            <path d="M43.548 41.068c-.018 2.793-7.28 5.008-16.223 4.949-8.941-.06-16.176-2.37-16.157-5.167.019-2.796 7.282-5.007 16.224-4.947 8.942.06 16.175 2.374 16.156 5.165z" fill="#9895A2" fill-opacity=".05" style="mix-blend-mode:multiply" opacity=".32"/>
            <path d="M43.522 41.068c-.013 2.784-7.248 4.993-16.146 4.934-8.898-.06-16.106-2.367-16.087-5.148.02-2.782 7.249-4.991 16.15-4.932 8.902.06 16.102 2.362 16.083 5.146z" fill="#9895A2" fill-opacity=".05" style="mix-blend-mode:multiply" opacity=".32"/>
            <path d="M43.495 41.067c-.019 2.776-7.215 4.978-16.075 4.919-8.86-.06-16.028-2.356-16.01-5.131.018-2.776 7.214-4.976 16.076-4.917 8.863.059 16.023 2.354 16.01 5.129z" fill="#9895A2" fill-opacity=".05" style="mix-blend-mode:multiply" opacity=".32"/>
            <path d="M43.47 41.066c-.02 2.767-7.184 4.963-16.002 4.905-8.819-.058-15.954-2.349-15.936-5.115.018-2.767 7.183-4.962 16.002-4.903 8.82.06 15.953 2.347 15.935 5.113z" fill="#9895A2" fill-opacity=".05" style="mix-blend-mode:multiply" opacity=".33"/>
            <path d="M43.441 41.067c-.018 2.759-7.148 4.947-15.922 4.889-8.774-.058-15.88-2.341-15.862-5.1.018-2.758 7.145-4.944 15.93-4.886 8.784.058 15.873 2.34 15.854 5.097z" fill="#9895A2" fill-opacity=".05" style="mix-blend-mode:multiply" opacity=".33"/>
            <path d="M43.415 41.067c-.017 2.75-7.115 4.932-15.852 4.874-8.738-.058-15.807-2.334-15.793-5.084.014-2.75 7.117-4.93 15.854-4.871 8.737.058 15.81 2.332 15.791 5.08z" fill="#9895A2" fill-opacity=".05" style="mix-blend-mode:multiply" opacity=".33"/>
            <path d="M43.389 41.067c-.02 2.741-7.083 4.916-15.78 4.858-8.695-.058-15.732-2.326-15.71-5.067.02-2.74 7.082-4.915 15.78-4.857 8.697.058 15.725 2.325 15.71 5.066z" fill="#9895A2" fill-opacity=".05" style="mix-blend-mode:multiply" opacity=".34"/>
            <path d="M43.361 41.067c-.017 2.732-7.049 4.9-15.704 4.843-8.655-.057-15.658-2.32-15.64-5.051.02-2.731 7.05-4.9 15.706-4.842 8.656.058 15.657 2.317 15.638 5.05z" fill="#9895A2" fill-opacity=".05" style="mix-blend-mode:multiply" opacity=".34"/>
            <path d="M43.335 41.065c-.018 2.725-7.015 4.887-15.63 4.829-8.615-.058-15.584-2.31-15.566-5.035.018-2.725 7.012-4.884 15.631-4.827 8.62.057 15.583 2.31 15.565 5.033z" fill="#9895A2" fill-opacity=".05" style="mix-blend-mode:multiply" opacity=".34"/>
            <path d="M43.309 41.065c-.018 2.716-6.983 4.87-15.557 4.814-8.573-.057-15.51-2.304-15.492-5.02.018-2.715 6.983-4.868 15.558-4.811 8.575.057 15.509 2.303 15.49 5.017z" fill="#9895A2" fill-opacity=".05" style="mix-blend-mode:multiply" opacity=".35"/>
            <path d="M43.282 41.065c-.018 2.707-6.95 4.85-15.482 4.799-8.533-.052-15.437-2.297-15.419-5.004.018-2.707 6.95-4.85 15.484-4.797 8.534.054 15.433 2.3 15.417 5.002z" fill="#9895A2" fill-opacity=".05" style="mix-blend-mode:multiply" opacity=".35"/>
            <path d="M43.255 41.067c-.018 2.698-6.916 4.839-15.408 4.784-8.492-.055-15.362-2.29-15.34-4.988.024-2.697 6.917-4.838 15.41-4.782 8.492.056 15.356 2.288 15.338 4.986z" fill="#9895A2" fill-opacity=".05" style="mix-blend-mode:multiply" opacity=".35"/>
            <path d="M43.229 41.065c-.018 2.69-6.883 4.825-15.334 4.769-8.452-.056-15.29-2.282-15.27-4.972.018-2.69 6.883-4.819 15.334-4.766 8.452.052 15.288 2.28 15.27 4.97z" fill="#9895A2" fill-opacity=".05" style="mix-blend-mode:multiply" opacity=".36"/>
            <path d="M43.202 41.065c-.018 2.68-6.854 4.809-15.26 4.753-8.406-.056-15.215-2.274-15.197-4.956.018-2.683 6.854-4.807 15.261-4.752 8.408.056 15.214 2.275 15.196 4.955z" fill="#9895A2" fill-opacity=".05" style="mix-blend-mode:multiply" opacity=".36"/>
            <path d="M43.176 41.065c-.018 2.673-6.817 4.794-15.184 4.739-8.367-.055-15.14-2.267-15.123-4.94.017-2.671 6.817-4.792 15.184-4.736 8.367.056 15.14 2.266 15.123 4.937z" fill="#9895A2" fill-opacity=".05" style="mix-blend-mode:multiply" opacity=".36"/>
            <path d="M43.148 41.064c-.018 2.664-6.783 4.779-15.111 4.723-8.328-.056-15.066-2.258-15.048-4.922.018-2.665 6.783-4.777 15.112-4.722 8.33.054 15.065 2.258 15.047 4.92z" fill="#9895A2" fill-opacity=".05" style="mix-blend-mode:multiply" opacity=".37"/>
            <path d="M43.122 41.065c-.018 2.655-6.748 4.763-15.037 4.708-8.29-.055-14.993-2.252-14.974-4.908.02-2.656 6.749-4.76 15.038-4.706 8.29.055 14.991 2.252 14.973 4.906z" fill="#9895A2" fill-opacity=".05" style="mix-blend-mode:multiply" opacity=".37"/>
            <path d="M43.096 41.064c-.018 2.647-6.717 4.745-14.964 4.693-8.247-.053-14.918-2.244-14.9-4.89.017-2.648 6.716-4.746 14.963-4.692 8.247.054 14.918 2.244 14.9 4.89z" fill="#9895A2" fill-opacity=".05" style="mix-blend-mode:multiply" opacity=".37"/>
            <path d="M43.068 41.064c-.017 2.636-6.683 4.733-14.889 4.678-8.205-.055-14.844-2.237-14.827-4.875.016-2.638 6.684-4.73 14.89-4.676 8.205.053 14.845 2.236 14.826 4.873z" fill="#9895A2" fill-opacity=".05" style="mix-blend-mode:multiply" opacity=".38"/>
            <path d="M43.042 41.064c-.017 2.629-6.65 4.717-14.815 4.663-8.165-.054-14.77-2.23-14.753-4.859.017-2.629 6.65-4.72 14.816-4.662 8.166.058 14.77 2.23 14.752 4.858z" fill="#9895A2" fill-opacity=".05" style="mix-blend-mode:multiply" opacity=".38"/>
            <path d="M43.015 41.064c-.018 2.621-6.617 4.702-14.741 4.648-8.125-.054-14.696-2.222-14.68-4.843.018-2.622 6.619-4.7 14.743-4.646 8.125.053 14.695 2.221 14.678 4.84z" fill="#9895A2" fill-opacity=".05" style="mix-blend-mode:multiply" opacity=".38"/>
            <path d="M42.99 41.063c-.019 2.613-6.585 4.688-14.668 4.634-8.084-.054-14.622-2.215-14.606-4.828.017-2.612 6.584-4.684 14.669-4.63 8.084.053 14.621 2.214 14.604 4.825z" fill="#9895A2" fill-opacity=".05" style="mix-blend-mode:multiply" opacity=".39"/>
            <path d="M42.962 41.063c-.017 2.604-6.55 4.672-14.593 4.618-8.042-.054-14.551-2.207-14.531-4.81.02-2.604 6.551-4.67 14.593-4.617 8.04.053 14.551 2.207 14.531 4.81z" fill="#9895A2" fill-opacity=".05" style="mix-blend-mode:multiply" opacity=".39"/>
            <path d="M42.935 41.064c-.016 2.595-6.517 4.655-14.518 4.603-8.002-.053-14.475-2.2-14.457-4.795.018-2.595 6.518-4.654 14.519-4.602 8.001.053 14.473 2.2 14.456 4.794z" fill="#9895A2" fill-opacity=".05" style="mix-blend-mode:multiply" opacity=".39"/>
            <path d="M42.91 41.063c-.018 2.587-6.485 4.64-14.447 4.587-7.962-.053-14.4-2.191-14.383-4.779.018-2.588 6.484-4.64 14.446-4.586 7.962.054 14.4 2.192 14.383 4.778z" fill="#9895A2" fill-opacity=".05" style="mix-blend-mode:multiply" opacity=".4"/>
            <path d="M42.883 41.063c-.018 2.579-6.451 4.625-14.371 4.573-7.92-.053-14.327-2.185-14.31-4.763.019-2.578 6.452-4.619 14.372-4.571 7.92.047 14.326 2.184 14.309 4.761z" fill="#9895A2" fill-opacity=".05" style="mix-blend-mode:multiply" opacity=".4"/>
            <path d="M42.856 41.062c-.017 2.57-6.418 4.61-14.297 4.559-7.879-.052-14.252-2.178-14.235-4.745.017-2.568 6.418-4.608 14.298-4.557 7.88.052 14.255 2.176 14.234 4.743z" fill="#9895A2" fill-opacity=".05" style="mix-blend-mode:multiply" opacity=".4"/>
            <path d="M42.83 41.062c-.018 2.562-6.386 4.595-14.223 4.543-7.838-.052-14.178-2.17-14.162-4.73.017-2.56 6.385-4.594 14.224-4.541 7.839.053 14.177 2.169 14.16 4.728z" fill="#9895A2" fill-opacity=".05" style="mix-blend-mode:multiply" opacity=".41"/>
            <path d="M42.803 41.063c-.017 2.553-6.351 4.58-14.149 4.528-7.798-.052-14.104-2.166-14.088-4.715.017-2.548 6.353-4.577 14.15-4.525 7.796.051 14.104 2.161 14.087 4.712z" fill="#9895A2" fill-opacity=".05" style="mix-blend-mode:multiply" opacity=".41"/>
            <path d="M42.776 41.063c-.018 2.543-6.318 4.563-14.075 4.512-7.756-.052-14.03-2.15-14.014-4.699.017-2.548 6.319-4.561 14.075-4.51 7.757.052 14.03 2.154 14.014 4.697z" fill="#9895A2" fill-opacity=".05" style="mix-blend-mode:multiply" opacity=".42"/>
            <path d="M42.749 41.063c-.017 2.53-6.285 4.547-14 4.497-7.716-.05-13.957-2.148-13.94-4.683.017-2.535 6.285-4.547 14-4.495 7.716.052 13.962 2.147 13.94 4.68z" fill="#9895A2" fill-opacity=".05" style="mix-blend-mode:multiply" opacity=".42"/>
            <path d="M42.723 41.063c-.017 2.53-6.252 4.534-13.926 4.48-7.675-.052-13.883-2.139-13.863-4.665.02-2.526 6.252-4.534 13.927-4.48 7.675.053 13.879 2.139 13.862 4.664z" fill="#9895A2" fill-opacity=".05" style="mix-blend-mode:multiply" opacity=".42"/>
            <path d="M42.696 41.061c-.017 2.518-6.221 4.519-13.852 4.468-7.632-.05-13.814-2.133-13.792-4.65.022-2.517 6.222-4.517 13.853-4.466 7.63.05 13.808 2.132 13.791 4.648z" fill="#9895A2" fill-opacity=".05" style="mix-blend-mode:multiply" opacity=".43"/>
            <path d="M42.666 41.062c-.016 2.51-6.185 4.502-13.778 4.452-7.593-.05-13.734-2.125-13.718-4.635.017-2.51 6.185-4.5 13.78-4.45 7.593.051 13.735 2.125 13.716 4.633z" fill="#9895A2" fill-opacity=".05" style="mix-blend-mode:multiply" opacity=".43"/>
            <path d="M42.643 41.062c-.017 2.5-6.152 4.488-13.708 4.437-7.557-.05-13.66-2.117-13.644-4.619.017-2.5 6.152-4.485 13.708-4.435 7.556.05 13.66 2.118 13.644 4.617z" fill="#9895A2" fill-opacity=".05" style="mix-blend-mode:multiply" opacity=".43"/>
            <path d="M42.616 41.063c-.017 2.491-6.116 4.471-13.629 4.422-7.513-.05-13.588-2.11-13.57-4.603.016-2.494 6.115-4.47 13.629-4.42 7.514.05 13.587 2.113 13.57 4.6z" fill="#9895A2" fill-opacity=".05" style="mix-blend-mode:multiply" opacity=".44"/>
            <path d="M42.59 41.06c-.017 2.484-6.086 4.456-13.555 4.407-7.47-.05-13.514-2.103-13.497-4.586.017-2.483 6.085-4.455 13.556-4.406 7.47.05 13.512 2.103 13.496 4.585z" fill="#9895A2" fill-opacity=".05" style="mix-blend-mode:multiply" opacity=".44"/>
            <path d="M42.56 41.06c-.016 2.476-6.051 4.441-13.48 4.393-7.429-.049-13.439-2.095-13.423-4.571.016-2.476 6.052-4.44 13.482-4.39 7.43.05 13.44 2.095 13.421 4.568z" fill="#9895A2" fill-opacity=".05" style="mix-blend-mode:multiply" opacity=".44"/>
            <path d="M42.536 41.06c-.016 2.466-6.019 4.429-13.407 4.377-7.387-.052-13.365-2.088-13.352-4.554.013-2.467 6.019-4.429 13.408-4.375 7.39.054 13.368 2.088 13.35 4.552z" fill="#9895A2" fill-opacity=".05" style="mix-blend-mode:multiply" opacity=".45"/>
            <path d="M42.51 41.06c-.017 2.458-5.986 4.41-13.333 4.362-7.346-.049-13.286-2.08-13.276-4.534.01-2.454 5.992-4.413 13.335-4.365 7.343.049 13.29 2.08 13.274 4.537z" fill="#9895A2" fill-opacity=".05" style="mix-blend-mode:multiply" opacity=".45"/>
            <path d="M42.483 41.06c-.017 2.45-5.952 4.395-13.259 4.347-7.306-.049-13.217-2.073-13.2-4.522.016-2.448 5.952-4.394 13.258-4.345 7.307.049 13.217 2.073 13.201 4.52z" fill="#9895A2" fill-opacity=".05" style="mix-blend-mode:multiply" opacity=".45"/>
            <path d="M42.455 41.06c-.016 2.441-5.919 4.38-13.181 4.332-7.262-.049-13.144-2.066-13.127-4.507.017-2.44 5.919-4.378 13.18-4.33 7.263.05 13.146 2.066 13.128 4.505z" fill="#9895A2" fill-opacity=".05" style="mix-blend-mode:multiply" opacity=".46"/>
            <path d="M42.43 41.061c-.016 2.432-5.887 4.364-13.11 4.317-7.225-.047-13.076-2.058-13.054-4.491.022-2.433 5.886-4.362 13.113-4.316 7.228.047 13.066 2.06 13.05 4.49z" fill="#9895A2" fill-opacity=".05" style="mix-blend-mode:multiply" opacity=".46"/>
            <path d="M42.403 41.059c-.017 2.425-5.852 4.35-13.036 4.302-7.184-.047-12.996-2.051-12.98-4.474.016-2.423 5.852-4.348 13.038-4.3 7.185.047 12.994 2.05 12.978 4.472z" fill="#9895A2" fill-opacity=".05" style="mix-blend-mode:multiply" opacity=".46"/>
            <path d="M42.375 41.06c-.016 2.415-5.818 4.334-12.961 4.287-7.143-.048-12.922-2.044-12.906-4.453.016-2.41 5.82-4.333 12.964-4.286 7.144.048 12.92 2.038 12.903 4.451z" fill="#9895A2" fill-opacity=".05" style="mix-blend-mode:multiply" opacity=".47"/>
            <path d="M42.35 41.06c-.017 2.406-5.787 4.323-12.888 4.271-7.102-.052-12.848-2.035-12.832-4.437.016-2.402 5.79-4.323 12.889-4.275 7.098.049 12.846 2.035 12.83 4.44z" fill="#9895A2" fill-opacity=".05" style="mix-blend-mode:multiply" opacity=".47"/>
            <path d="M42.323 41.06c-.016 2.397-5.753 4.302-12.814 4.256-7.06-.046-12.774-2.029-12.759-4.429.015-2.4 5.753-4.3 12.815-4.254 7.062.046 12.774 2.03 12.758 4.426z" fill="#9895A2" fill-opacity=".05" style="mix-blend-mode:multiply" opacity=".47"/>
            <path d="M42.297 41.06c-.016 2.39-5.72 4.288-12.74 4.24-7.02-.047-12.7-2.02-12.684-4.406.015-2.386 5.72-4.286 12.74-4.24 7.021.046 12.7 2.017 12.684 4.406z" fill="#9895A2" fill-opacity=".05" style="mix-blend-mode:multiply" opacity=".48"/>
            <path d="M42.269 41.059c-.016 2.38-5.686 4.272-12.665 4.226-6.98-.046-12.626-2.014-12.61-4.392.018-2.378 5.686-4.272 12.667-4.225 6.98.046 12.624 2.01 12.608 4.39z" fill="#9895A2" fill-opacity=".05" style="mix-blend-mode:multiply" opacity=".48"/>
            <path d="M42.243 41.059c-.015 2.372-5.653 4.257-12.59 4.211-6.94-.046-12.549-2.004-12.536-4.378.012-2.375 5.653-4.255 12.592-4.21 6.94.046 12.55 2.006 12.534 4.377z" fill="#9895A2" fill-opacity=".05" style="mix-blend-mode:multiply" opacity=".48"/>
            <path d="M42.216 41.058c-.015 2.364-5.62 4.242-12.517 4.197-6.897-.045-12.478-1.998-12.462-4.361.016-2.363 5.62-4.24 12.519-4.195 6.898.045 12.476 1.997 12.46 4.36z" fill="#9895A2" fill-opacity=".05" style="mix-blend-mode:multiply" opacity=".49"/>
            <path d="M42.19 41.058c-.016 2.355-5.589 4.227-12.443 4.182-6.854-.045-12.404-1.992-12.389-4.346.016-2.355 5.59-4.226 12.443-4.18 6.854.045 12.404 1.99 12.389 4.344z" fill="#9895A2" fill-opacity=".05" style="mix-blend-mode:multiply" opacity=".49"/>
            <path d="M42.163 41.059c-.015 2.346-5.553 4.212-12.369 4.166-6.816-.045-12.33-1.983-12.314-4.33.016-2.348 5.554-4.211 12.37-4.166 6.816.046 12.329 1.985 12.313 4.33z" fill="#9895A2" fill-opacity=".05" style="mix-blend-mode:multiply" opacity=".49"/>
            <path d="M42.138 41.059c-.015 2.338-5.52 4.195-12.295 4.151-6.774-.044-12.258-1.977-12.242-4.316.016-2.339 5.52-4.193 12.296-4.15 6.776.045 12.255 1.978 12.241 4.315z" fill="#9895A2" fill-opacity=".05" style="mix-blend-mode:multiply" opacity=".5"/>
            <path d="M42.11 41.059c-.016 2.328-5.483 4.18-12.221 4.135-6.738-.045-12.183-1.969-12.167-4.3.016-2.331 5.483-4.179 12.222-4.134 6.74.044 12.18 1.97 12.166 4.299z" fill="#9895A2" fill-opacity=".05" style="mix-blend-mode:multiply" opacity=".5"/>
            <path d="M42.083 41.057c-.016 2.32-5.453 4.166-12.147 4.122-6.694-.044-12.108-1.966-12.093-4.285.015-2.32 5.455-4.161 12.149-4.113 6.693.049 12.106 1.957 12.091 4.276z" fill="#9895A2" fill-opacity=".05" style="mix-blend-mode:multiply" opacity=".5"/>
            <path d="M42.056 41.057c-.015 2.313-5.42 4.15-12.072 4.106-6.653-.044-12.034-1.95-12.02-4.27.016-2.319 5.422-4.147 12.076-4.103 6.653.044 12.032 1.957 12.016 4.267z" fill="#9895A2" fill-opacity=".05" style="mix-blend-mode:multiply" opacity=".51"/>
            <path d="M42.033 41.058c-.016 2.304-5.387 4.135-11.999 4.091-6.611-.044-11.96-1.947-11.944-4.25.016-2.302 5.384-4.133 11.996-4.089 6.611.045 11.959 1.946 11.947 4.248z" fill="#9895A2" fill-opacity=".05" style="mix-blend-mode:multiply" opacity=".51"/>
            <path d="M42.004 41.057c-.016 2.295-5.355 4.12-11.925 4.077-6.57-.043-11.886-1.94-11.87-4.235.015-2.295 5.353-4.112 11.924-4.073 6.572.039 11.885 1.938 11.87 4.231z" fill="#9895A2" fill-opacity=".05" style="mix-blend-mode:multiply" opacity=".51"/>
            <path d="M41.976 41.057c-.015 2.286-5.32 4.104-11.85 4.061-6.53-.043-11.81-1.932-11.796-4.218.013-2.286 5.32-4.102 11.85-4.058 6.531.043 11.812 1.93 11.796 4.215z" fill="#9895A2" fill-opacity=".05" style="mix-blend-mode:multiply" opacity=".52"/>
            <path d="M41.95 41.058c-.015 2.278-5.287 4.088-11.776 4.046-6.49-.042-11.738-1.924-11.723-4.202.015-2.278 5.288-4.087 11.777-4.044 6.49.043 11.737 1.928 11.722 4.2z" fill="#9895A2" fill-opacity=".05" style="mix-blend-mode:multiply" opacity=".52"/>
            <path d="M41.927 41.057c-.014 2.269-5.254 4.074-11.704 4.031-6.45-.043-11.663-1.917-11.649-4.185.015-2.268 5.255-4.072 11.705-4.03 6.45.044 11.659 1.913 11.648 4.184z" fill="#9895A2" fill-opacity=".05" style="mix-blend-mode:multiply" opacity=".52"/>
            <path d="M41.897 41.057c-.015 2.263-5.221 4.055-11.628 4.016-6.407-.039-11.59-1.91-11.575-4.17.015-2.261 5.222-4.057 11.635-4.016 6.413.041 11.583 1.911 11.568 4.17z" fill="#9895A2" fill-opacity=".05" style="mix-blend-mode:multiply" opacity=".53"/>
            <path d="M41.87 41.056c-.016 2.253-5.188 4.043-11.554 4.001-6.367-.042-11.516-1.898-11.502-4.154.015-2.255 5.188-4.04 11.555-3.998 6.367.042 11.515 1.901 11.5 4.151z" fill="#9895A2" fill-opacity=".05" style="mix-blend-mode:multiply" opacity=".53"/>
            <path d="M41.843 41.056c-.014 2.243-5.154 4.028-11.48 3.986-6.325-.042-11.441-1.895-11.422-4.138.018-2.242 5.155-4.026 11.48-3.983 6.326.042 11.437 1.894 11.422 4.135z" fill="#9895A2" fill-opacity=".05" style="mix-blend-mode:multiply" opacity=".54"/>
            <path d="M41.822 41.057c-.015 2.234-5.122 4.012-11.406 3.97-6.285-.042-11.37-1.886-11.358-4.12.013-2.235 5.122-4.008 11.406-3.97 6.285.038 11.367 1.887 11.358 4.12z" fill="#9895A2" fill-opacity=".05" style="mix-blend-mode:multiply" opacity=".54"/>
            <path d="M41.79 41.056c-.015 2.226-5.088 3.996-11.331 3.955-6.244-.041-11.294-1.879-11.283-4.106.01-2.227 5.088-3.994 11.332-3.953 6.245.041 11.296 1.879 11.283 4.104z" fill="#9895A2" fill-opacity=".05" style="mix-blend-mode:multiply" opacity=".54"/>
            <path d="M41.763 41.055c-.015 2.214-5.054 3.982-11.257 3.941-6.204-.041-11.22-1.873-11.205-4.09.015-2.218 5.055-3.98 11.258-3.938 6.204.04 11.219 1.871 11.204 4.087z" fill="#9895A2" fill-opacity=".05" style="mix-blend-mode:multiply" opacity=".55"/>
            <path d="M41.736 41.054c-.014 2.215-5.02 3.967-11.183 3.926-6.163-.041-11.146-1.864-11.131-4.073.015-2.21 5.021-3.965 11.185-3.924 6.163.041 11.144 1.864 11.13 4.071z" fill="#9895A2" fill-opacity=".05" style="mix-blend-mode:multiply" opacity=".55"/>
            <path d="M41.71 41.054c-.014 2.2-4.988 3.951-11.11 3.911-6.12-.04-11.071-1.858-11.056-4.057.014-2.2 4.985-3.95 11.11-3.91 6.124.042 11.071 1.858 11.056 4.056z" fill="#9895A2" fill-opacity=".05" style="mix-blend-mode:multiply" opacity=".55"/>
            <path d="M41.683 41.056c-.014 2.191-4.956 3.936-11.035 3.895-6.08-.041-10.998-1.85-10.983-4.042.014-2.192 4.956-3.933 11.036-3.893 6.08.04 10.996 1.85 10.982 4.04z" fill="#9895A2" fill-opacity=".05" style="mix-blend-mode:multiply" opacity=".56"/>
            <path d="M41.657 41.056c-.015 2.183-4.921 3.92-10.961 3.88-6.04-.04-10.924-1.842-10.912-4.026.013-2.184 4.925-3.917 10.967-3.878 6.042.039 10.92 1.842 10.906 4.024z" fill="#9895A2" fill-opacity=".05" style="mix-blend-mode:multiply" opacity=".56"/>
            <path d="M41.63 41.054c-.015 2.176-4.888 3.902-10.887 3.866-5.999-.036-10.85-1.835-10.836-4.007.014-2.172 4.89-3.901 10.889-3.864 5.998.038 10.849 1.833 10.834 4.005z" fill="#9895A2" fill-opacity=".05" style="mix-blend-mode:multiply" opacity=".56"/>
            <path d="M41.604 41.053c-.015 2.167-4.856 3.89-10.814 3.851-5.958-.039-10.775-1.827-10.76-3.993.014-2.166 4.85-3.888 10.813-3.849 5.963.04 10.774 1.828 10.76 3.991z" fill="#9895A2" fill-opacity=".05" style="mix-blend-mode:multiply" opacity=".57"/>
            <path d="M41.577 41.054c-.014 2.157-4.823 3.875-10.74 3.836-5.916-.039-10.7-1.82-10.686-3.978.015-2.158 4.822-3.872 10.74-3.833 5.917.039 10.7 1.82 10.686 3.975z" fill="#9895A2" fill-opacity=".05" style="mix-blend-mode:multiply" opacity=".57"/>
            <path d="M41.55 41.054c-.014 2.149-4.788 3.86-10.665 3.82-5.876-.039-10.628-1.813-10.613-3.962.015-2.148 4.784-3.857 10.665-3.815 5.88.043 10.628 1.81 10.613 3.957z" fill="#9895A2" fill-opacity=".05" style="mix-blend-mode:multiply" opacity=".57"/>
            <path d="M41.524 41.054c-.015 2.14-4.756 3.843-10.591 3.805-5.836-.038-10.554-1.805-10.545-3.946.01-2.14 4.756-3.842 10.591-3.803 5.836.039 10.559 1.805 10.545 3.944z" fill="#9895A2" fill-opacity=".05" style="mix-blend-mode:multiply" opacity=".58"/>
            <path d="M41.497 41.054c-.015 2.131-4.723 3.83-10.517 3.79-5.794-.039-10.48-1.798-10.466-3.929.015-2.13 4.723-3.826 10.517-3.788 5.795.038 10.48 1.797 10.466 3.927z" fill="#9895A2" fill-opacity=".05" style="mix-blend-mode:multiply" opacity=".58"/>
            <path d="M41.47 41.053c-.014 2.124-4.69 3.814-10.44 3.776-5.75-.038-10.406-1.792-10.392-3.914.013-2.121 4.689-3.81 10.439-3.773 5.75.038 10.407 1.79 10.393 3.911z" fill="#9895A2" fill-opacity=".05" style="mix-blend-mode:multiply" opacity=".58"/>
            <path d="M41.443 41.053c-.013 2.116-4.655 3.796-10.367 3.76-5.712-.035-10.334-1.782-10.32-3.901.016-2.12 4.657-3.796 10.37-3.758 5.713.038 10.331 1.787 10.317 3.9z" fill="#9895A2" fill-opacity=".05" style="mix-blend-mode:multiply" opacity=".59"/>
            <path d="M41.417 41.054c-.014 2.109-4.623 3.783-10.293 3.745-5.671-.038-10.26-1.776-10.246-3.881.014-2.106 4.623-3.78 10.295-3.744 5.672.037 10.258 1.776 10.244 3.88z" fill="#9895A2" fill-opacity=".05" style="mix-blend-mode:multiply" opacity=".59"/>
            <path d="M41.39 41.054c-.014 2.097-4.589 3.767-10.219 3.73-5.63-.039-10.185-1.768-10.17-3.865.015-2.098 4.589-3.766 10.22-3.729 5.63.037 10.18 1.768 10.17 3.864z" fill="#9895A2" fill-opacity=".05" style="mix-blend-mode:multiply" opacity=".59"/>
            <path d="M41.363 41.053c-.014 2.09-4.556 3.752-10.145 3.715-5.589-.037-10.111-1.76-10.096-3.848.014-2.088 4.556-3.751 10.146-3.716 5.59.035 10.109 1.763 10.095 3.85z" fill="#9895A2" fill-opacity=".05" style="mix-blend-mode:multiply" opacity=".6"/>
            <path d="M41.337 41.053c-.014 2.08-4.523 3.737-10.071 3.7-5.549-.037-10.036-1.75-10.023-3.834.014-2.083 4.523-3.735 10.072-3.698 5.55.037 10.036 1.754 10.022 3.832z" fill="#9895A2" fill-opacity=".05" style="mix-blend-mode:multiply" opacity=".6"/>
            <path d="M41.31 41.052c-.013 2.072-4.49 3.722-9.997 3.69-5.507-.031-9.962-1.75-9.948-3.822.015-2.072 4.49-3.719 9.999-3.683 5.508.036 9.96 1.746 9.946 3.815z" fill="#9895A2" fill-opacity=".05" style="mix-blend-mode:multiply" opacity=".6"/>
            <path d="M41.283 41.052c-.013 2.064-4.456 3.707-9.922 3.67-5.466-.035-9.889-1.738-9.875-3.795.014-2.057 4.456-3.705 9.924-3.668 5.469.037 9.885 1.737 9.873 3.793z" fill="#9895A2" fill-opacity=".05" style="mix-blend-mode:multiply" opacity=".61"/>
            <path d="M41.257 41.053c-.014 2.054-4.424 3.69-9.849 3.654-5.425-.036-9.815-1.73-9.801-3.784.014-2.054 4.423-3.69 9.85-3.653 5.426.038 9.813 1.726 9.8 3.782z" fill="#9895A2" fill-opacity=".05" style="mix-blend-mode:multiply" opacity=".61"/>
            <path d="M41.23 41.052c-.013 2.046-4.39 3.676-9.774 3.64-5.386-.036-9.742-1.723-9.728-3.77.014-2.046 4.39-3.672 9.776-3.636 5.385.036 9.74 1.722 9.726 3.766z" fill="#9895A2" fill-opacity=".05" style="mix-blend-mode:multiply" opacity=".61"/>
            <path d="M41.204 41.052c-.014 2.037-4.357 3.66-9.7 3.624-5.345-.036-9.668-1.715-9.654-3.753.013-2.037 4.357-3.657 9.7-3.622 5.345.036 9.667 1.715 9.654 3.751z" fill="#9895A2" fill-opacity=".05" style="mix-blend-mode:multiply" opacity=".62"/>
            <path d="M41.177 41.052c-.013 2.029-4.324 3.644-9.627 3.61-5.302-.035-9.595-1.709-9.58-3.738.017-2.029 4.324-3.643 9.629-3.607 5.305.036 9.59 1.707 9.578 3.735z" fill="#9895A2" fill-opacity=".05" style="mix-blend-mode:multiply" opacity=".62"/>
            <path d="M41.15 41.052c-.013 2.02-4.29 3.63-9.552 3.595-5.262-.035-9.518-1.702-9.505-3.72.014-2.02 4.29-3.628 9.554-3.593 5.264.034 9.517 1.7 9.504 3.718z" fill="#9895A2" fill-opacity=".05" style="mix-blend-mode:multiply" opacity=".62"/>
            <path d="M41.124 41.051c-.014 2.012-4.257 3.615-9.479 3.585-5.221-.03-9.444-1.693-9.43-3.705.013-2.012 4.256-3.612 9.479-3.577 5.223.035 9.443 1.687 9.43 3.697z" fill="#9895A2" fill-opacity=".05" style="mix-blend-mode:multiply" opacity=".63"/>
            <path d="M41.097 41.051c-.013 2.004-4.224 3.6-9.404 3.565-5.18-.033-9.371-1.687-9.358-3.69.014-2.004 4.225-3.597 9.405-3.562 5.18.035 9.37 1.686 9.357 3.687z" fill="#9895A2" fill-opacity=".05" style="mix-blend-mode:multiply" opacity=".63"/>
            <path d="M41.07 41.051c-.013 1.994-4.19 3.585-9.33 3.55-5.14-.036-9.297-1.68-9.279-3.673.018-1.994 4.19-3.585 9.33-3.547 5.141.038 9.293 1.677 9.28 3.67z" fill="#9895A2" fill-opacity=".05" style="mix-blend-mode:multiply" opacity=".63"/>
            <path d="M41.044 41.05c-.014 1.986-4.158 3.57-9.256 3.535-5.099-.033-9.224-1.671-9.21-3.657.014-1.985 4.158-3.566 9.257-3.532 5.1.034 9.221 1.67 9.209 3.655z" fill="#9895A2" fill-opacity=".05" style="mix-blend-mode:multiply" opacity=".64"/>
            <path d="M41.018 41.05c-.014 1.978-4.124 3.553-9.182 3.52-5.059-.034-9.149-1.665-9.136-3.642.012-1.977 4.124-3.55 9.183-3.516 5.06.033 9.148 1.663 9.135 3.639z" fill="#9895A2" fill-opacity=".05" style="mix-blend-mode:multiply" opacity=".64"/>
            <path d="M40.99 41.05c-.012 1.969-4.09 3.54-9.107 3.505-5.017-.033-9.075-1.657-9.062-3.625.012-1.968 4.091-3.535 9.11-3.502 5.018.034 9.073 1.656 9.06 3.622z" fill="#9895A2" fill-opacity=".05" style="mix-blend-mode:multiply" opacity=".64"/>
            <path d="M40.964 41.05c-.013 1.96-4.058 3.523-9.034 3.49-4.976-.034-9-1.649-8.983-3.609.018-1.96 4.059-3.52 9.036-3.487 4.977.033 8.996 1.648 8.98 3.606z" fill="#9895A2" fill-opacity=".05" style="mix-blend-mode:multiply" opacity=".65"/>
            <path d="M40.937 41.05c-.013 1.952-4.024 3.507-8.963 3.474-4.939-.032-8.922-1.641-8.91-3.592.012-1.95 4.024-3.505 8.963-3.473 4.939.033 8.923 1.642 8.91 3.59z" fill="#9895A2" fill-opacity=".05" style="mix-blend-mode:multiply" opacity=".65"/>
            <path d="M40.911 41.05c-.014 1.942-3.991 3.491-8.886 3.46-4.895-.032-8.857-1.635-8.84-3.578.018-1.944 3.992-3.49 8.887-3.457 4.894.033 8.852 1.633 8.84 3.575z" fill="#9895A2" fill-opacity=".05" style="mix-blend-mode:multiply" opacity=".66"/>
            <path d="M40.883 41.05c-.012 1.934-3.957 3.48-8.81 3.444-4.854-.036-8.78-1.626-8.766-3.561.013-1.935 3.957-3.48 8.812-3.442 4.855.038 8.777 1.626 8.764 3.559z" fill="#9895A2" fill-opacity=".05" style="mix-blend-mode:multiply" opacity=".66"/>
            <path d="M40.857 41.05c-.012 1.926-3.924 3.461-8.736 3.43-4.811-.032-8.704-1.62-8.692-3.546.013-1.925 3.925-3.458 8.738-3.427 4.814.032 8.706 1.619 8.69 3.543z" fill="#9895A2" fill-opacity=".05" style="mix-blend-mode:multiply" opacity=".66"/>
            <path d="M40.83 41.05c-.012 1.916-3.89 3.445-8.663 3.413-4.772-.031-8.63-1.61-8.618-3.528.013-1.917 3.892-3.444 8.665-3.412 4.772.032 8.63 1.611 8.617 3.526z" fill="#9895A2" fill-opacity=".05" style="mix-blend-mode:multiply" opacity=".67"/>
            <path d="M40.805 41.049c-.014 1.908-3.859 3.431-8.59 3.4-4.731-.032-8.557-1.605-8.541-3.514.016-1.909 3.858-3.428 8.59-3.396 4.733.031 8.553 1.603 8.54 3.51z" fill="#9895A2" fill-opacity=".05" style="mix-blend-mode:multiply" opacity=".67"/>
            <path d="M40.777 41.049c-.013 1.898-3.825 3.415-8.515 3.383-4.69-.031-8.483-1.596-8.471-3.496.011-1.9 3.825-3.412 8.515-3.382 4.69.03 8.483 1.597 8.47 3.495z" fill="#9895A2" fill-opacity=".05" style="mix-blend-mode:multiply" opacity=".67"/>
            <path d="M40.75 41.048c-.012 1.892-3.795 3.4-8.435 3.37-4.64-.031-8.41-1.59-8.396-3.48.012-1.891 3.796-3.398 8.442-3.367 4.645.03 8.407 1.588 8.39 3.477z" fill="#9895A2" fill-opacity=".05" style="mix-blend-mode:multiply" opacity=".68"/>
            <path d="M40.724 41.05c-.012 1.882-3.758 3.384-8.367 3.354-4.61-.031-8.33-1.582-8.322-3.466.009-1.883 3.758-3.382 8.367-3.352 4.61.031 8.335 1.582 8.322 3.463z" fill="#9895A2" fill-opacity=".05" style="mix-blend-mode:multiply" opacity=".68"/>
            <path d="M40.697 41.049c-.012 1.874-3.724 3.37-8.292 3.339-4.568-.031-8.26-1.575-8.248-3.45.012-1.875 3.724-3.367 8.293-3.336 4.57.03 8.26 1.574 8.247 3.447z" fill="#9895A2" fill-opacity=".05" style="mix-blend-mode:multiply" opacity=".68"/>
            <path d="M40.67 41.048c-.012 1.866-3.69 3.354-8.218 3.325-4.528-.03-8.187-1.567-8.174-3.434.013-1.866 3.69-3.35 8.22-3.321 4.528.03 8.185 1.567 8.172 3.43z" fill="#9895A2" fill-opacity=".05" style="mix-blend-mode:multiply" opacity=".69"/>
            <path d="M40.645 41.048c-.013 1.856-3.66 3.338-8.145 3.308-4.486-.029-8.113-1.56-8.1-3.416.012-1.857 3.658-3.336 8.145-3.307 4.487.03 8.117 1.56 8.1 3.415z" fill="#9895A2" fill-opacity=".05" style="mix-blend-mode:multiply" opacity=".69"/>
            <path d="M40.617 41.048c-.012 1.85-3.625 3.326-8.075 3.294-4.45-.031-8.035-1.55-8.022-3.4.013-1.85 3.625-3.322 8.07-3.292 4.446.03 8.039 1.557 8.027 3.398z" fill="#9895A2" fill-opacity=".05" style="mix-blend-mode:multiply" opacity=".69"/>
            <path d="M40.59 41.048c-.011 1.84-3.591 3.308-7.996 3.279-4.404-.03-7.96-1.545-7.952-3.384.007-1.84 3.592-3.306 7.997-3.278 4.404.029 7.964 1.542 7.951 3.383z" fill="#9895A2" fill-opacity=".05" style="mix-blend-mode:multiply" opacity=".7"/>
            <path d="M40.564 41.048c-.012 1.83-3.559 3.292-7.922 3.264-4.364-.029-7.89-1.538-7.88-3.37.012-1.831 3.56-3.29 7.924-3.26 4.364.027 7.89 1.536 7.878 3.366z" fill="#9895A2" fill-opacity=".05" style="mix-blend-mode:multiply" opacity=".7"/>
            <path d="M40.538 41.047c-.013 1.823-3.526 3.278-7.849 3.248-4.322-.029-7.816-1.529-7.803-3.352.014-1.823 3.526-3.275 7.85-3.246 4.323.028 7.813 1.53 7.802 3.35z" fill="#9895A2" fill-opacity=".05" style="mix-blend-mode:multiply" opacity=".7"/>
            <path d="M40.511 41.047c-.012 1.815-3.492 3.263-7.774 3.235-4.283-.029-7.743-1.523-7.732-3.337.012-1.813 3.494-3.26 7.776-3.23 4.282.028 7.742 1.52 7.73 3.332z" fill="#9895A2" fill-opacity=".05" style="mix-blend-mode:multiply" opacity=".71"/>
            <path d="M40.484 41.046c-.012 1.806-3.459 3.247-7.698 3.22-4.239-.028-7.669-1.516-7.656-3.321.013-1.805 3.459-3.245 7.698-3.216 4.238.028 7.669 1.514 7.656 3.317z" fill="#9895A2" fill-opacity=".05" style="mix-blend-mode:multiply" opacity=".71"/>
        </g>
        <path d="M54 22.221c0 11.684-9.472 21.155-21.155 21.155-11.683 0-21.155-9.47-21.155-21.155 0-11.684 9.472-21.155 21.16-21.155C44.536 1.066 54 10.538 54 22.221z" fill="url(#a)"/>
        <path d="M54 22.146c.019 2.781-.514 5.538-1.568 8.113a21.074 21.074 0 0 1-4.575 6.89 21.159 21.159 0 0 1-6.882 4.608 21.219 21.219 0 0 1-16.26 0 21.158 21.158 0 0 1-6.881-4.608 21.075 21.075 0 0 1-4.576-6.89 21.015 21.015 0 0 1-1.567-8.113c0-11.642 9.475-21.08 21.153-21.08C44.524 1.066 54 10.504 54 22.146z" fill="url(#b)"/>
        <path style="mix-blend-mode:multiply" d="M30.283 44.992c11.486-1.793 19.344-12.557 17.552-24.043C46.042 9.463 35.278 1.604 23.792 3.397 12.306 5.189 4.448 15.954 6.24 27.44c1.793 11.486 12.557 19.344 24.043 17.552z" fill="url(#c)" fill-opacity=".7"/>
        <path style="mix-blend-mode:screen" d="M22.977 5.315c1.582-3.888 8.254-4.85 14.9-2.144 6.646 2.707 10.755 8.048 9.174 11.936-1.582 3.89-8.253 4.85-14.9 2.144-6.647-2.707-10.755-8.049-9.174-11.936z" fill="url(#d)"/>
        <path style="mix-blend-mode:screen" d="M33.873 5.129c.587-1.802 3.175-2.574 5.779-1.726 2.605.85 4.24 2.997 3.653 4.8-.588 1.801-3.17 2.573-5.78 1.724-2.61-.848-4.244-2.997-3.652-4.798z" fill="url(#e)"/>
        <path style="mix-blend-mode:screen" d="M36.233 9.313c.896-2.747 4.842-3.924 8.813-2.63 3.97 1.294 6.465 4.57 5.57 7.317-.896 2.747-4.842 3.924-8.813 2.63-3.971-1.295-6.464-4.57-5.57-7.317z" fill="url(#f)"/>
        <path style="mix-blend-mode:screen" d="M36.233 9.313c.896-2.747 4.842-3.924 8.813-2.63 3.97 1.294 6.465 4.57 5.57 7.317-.896 2.747-4.842 3.924-8.813 2.63-3.971-1.295-6.464-4.57-5.57-7.317z" fill="url(#g)"/>
        <path style="mix-blend-mode:screen" d="M41.723 10.934c.316-.974 1.715-1.39 3.122-.932 1.407.459 2.291 1.618 1.974 2.593-.317.974-1.716 1.39-3.122.93-1.407-.458-2.29-1.619-1.974-2.591z" fill="url(#h)"/>
    </g>
    <defs>
        <linearGradient id="a" x1="32.845" y1="41.805" x2="32.845" y2="-.505" gradientUnits="userSpaceOnUse">
            <stop stop-color="#8F8E92"/>
            <stop offset=".16" stop-color="#A9A7AD"/>
            <stop offset=".53" stop-color="#C9C8CD"/>
            <stop offset=".83" stop-color="#E1E0E3"/>
            <stop offset="1" stop-color="#E4E3E7"/>
        </linearGradient>
        <radialGradient id="b" cx="0" cy="0" r="1" gradientUnits="userSpaceOnUse" gradientTransform="matrix(45.2237 0 0 45.0639 33.87 .775)">
            <stop offset=".01" stop-color="#E2E1E4"/>
            <stop offset="1" stop-color="#9895A2"/>
        </radialGradient>
        <radialGradient id="c" cx="0" cy="0" r="1" gradientUnits="userSpaceOnUse" gradientTransform="translate(26.813 24.105) scale(23.1939)">
            <stop offset=".04" stop-color="#303030"/>
            <stop offset=".33" stop-color="#7C7C7C"/>
            <stop offset=".73" stop-color="#EDEDED"/>
            <stop offset=".81" stop-color="#F4F4F4"/>
            <stop offset=".97" stop-color="#fff"/>
        </radialGradient>
        <radialGradient id="d" cx="0" cy="0" r="1" gradientUnits="userSpaceOnUse" gradientTransform="matrix(-9.53906 -3.90234 2.2827 -5.57994 36.012 10.645)">
            <stop offset=".23" stop-color="#E6E6E6"/>
            <stop offset=".33" stop-color="#BDBDBD"/>
            <stop offset=".51" stop-color="#7A7A7A"/>
            <stop offset=".68" stop-color="#464646"/>
            <stop offset=".82" stop-color="#202020"/>
            <stop offset=".93" stop-color="#090909"/>
            <stop offset="1"/>
        </radialGradient>
        <radialGradient id="e" cx="0" cy="0" r="1" gradientUnits="userSpaceOnUse" gradientTransform="matrix(-3.74463 -1.2206 .84347 -2.58762 38.797 6.608)">
            <stop offset=".13" stop-color="#E6E6E6"/>
            <stop offset=".22" stop-color="#D7D7D7"/>
            <stop offset=".39" stop-color="#B1B1B1"/>
            <stop offset=".62" stop-color="#727272"/>
            <stop offset=".91" stop-color="#1D1D1D"/>
            <stop offset="1"/>
        </radialGradient>
        <radialGradient id="f" cx="0" cy="0" r="1" gradientUnits="userSpaceOnUse" gradientTransform="matrix(441.039 0 0 328.963 4036.22 2088.38)">
            <stop offset=".13" stop-color="#E6E6E6"/>
            <stop offset=".22" stop-color="#D7D7D7"/>
            <stop offset=".39" stop-color="#B1B1B1"/>
            <stop offset=".62" stop-color="#727272"/>
            <stop offset=".91" stop-color="#1D1D1D"/>
            <stop offset="1"/>
        </radialGradient>
        <radialGradient id="g" cx="0" cy="0" r="1" gradientUnits="userSpaceOnUse" gradientTransform="matrix(441.039 0 0 328.963 4036.22 2088.38)">
            <stop offset=".13" stop-color="#E6E6E6"/>
            <stop offset=".22" stop-color="#D7D7D7"/>
            <stop offset=".39" stop-color="#B1B1B1"/>
            <stop offset=".62" stop-color="#727272"/>
            <stop offset=".91" stop-color="#1D1D1D"/>
            <stop offset="1"/>
        </radialGradient>
        <radialGradient id="h" cx="0" cy="0" r="1" gradientUnits="userSpaceOnUse" gradientTransform="matrix(55.384 0 0 41.3095 1443.81 749.723)">
            <stop offset=".13" stop-color="#E6E6E6"/>
            <stop offset=".22" stop-color="#D7D7D7"/>
            <stop offset=".39" stop-color="#B1B1B1"/>
            <stop offset=".62" stop-color="#727272"/>
            <stop offset=".91" stop-color="#1D1D1D"/>
            <stop offset="1"/>
        </radialGradient>
    </defs>
</svg>
