<svg width="211" height="188" viewBox="0 0 211 188" fill="none" xmlns="http://www.w3.org/2000/svg">
    <g style="mix-blend-mode:multiply" opacity=".96">
        <path d="M179.534 159.937c-.095 13.93-40.144 24.956-89.458 24.627C40.76 184.234.853 172.685.947 158.755c.095-13.931 40.144-24.952 89.462-24.623 49.319.33 89.215 11.879 89.125 25.805z" fill="#9895A2" fill-opacity=".05" style="mix-blend-mode:multiply" opacity=".01"/>
        <path d="M179.427 159.937c-.09 13.897-40.011 24.894-89.165 24.568-49.154-.325-88.93-11.849-88.84-25.747.09-13.897 40.036-24.89 89.174-24.564 49.137.325 88.926 11.849 88.831 25.743z" fill="#9895A2" fill-opacity=".05" style="mix-blend-mode:multiply" opacity=".01"/>
        <path d="M179.324 159.936c-.091 13.865-39.884 24.833-88.877 24.507-48.994-.325-88.642-11.821-88.544-25.685.1-13.865 39.888-24.828 88.882-24.503 48.993.326 88.629 11.821 88.539 25.681z" fill="#9895A2" fill-opacity=".05" style="mix-blend-mode:multiply" opacity=".01"/>
        <path d="M179.221 159.937c-.091 13.827-39.756 24.771-88.585 24.449-48.828-.321-88.357-11.792-88.267-25.603.09-13.811 39.756-24.77 88.585-24.445 48.828.326 88.358 11.772 88.267 25.599z" fill="#9895A2" fill-opacity=".05" style="mix-blend-mode:multiply" opacity=".02"/>
        <path d="M179.118 159.936c-.095 13.795-39.624 24.722-88.3 24.392-48.677-.33-88.066-11.767-87.975-25.545.09-13.778 39.628-24.722 88.304-24.388 48.676.334 88.061 11.747 87.971 25.541z" fill="#9895A2" fill-opacity=".05" style="mix-blend-mode:multiply" opacity=".02"/>
        <path d="M179.011 159.932c-.091 13.766-39.493 24.656-88.008 24.334-48.515-.321-87.76-11.734-87.682-25.496.078-13.761 39.492-24.651 88.012-24.329 48.519.321 87.768 11.734 87.678 25.491z" fill="#9895A2" fill-opacity=".05" style="mix-blend-mode:multiply" opacity=".02"/>
        <path d="M178.907 159.932c-.09 13.733-39.364 24.594-87.719 24.277-48.355-.318-87.484-11.706-87.393-25.426.09-13.721 39.364-24.59 87.723-24.268 48.359.321 87.48 11.693 87.389 25.417z" fill="#9895A2" fill-opacity=".05" style="mix-blend-mode:multiply" opacity=".03"/>
        <path d="M178.805 159.932c-.091 13.696-39.237 24.536-87.431 24.215-48.194-.322-87.196-11.677-87.105-25.364.09-13.688 39.236-24.532 87.43-24.211 48.195.322 87.196 11.665 87.106 25.36z" fill="#9895A2" fill-opacity=".05" style="mix-blend-mode:multiply" opacity=".03"/>
        <path d="M178.697 159.932c-.09 13.663-39.1 24.474-87.138 24.157-48.037-.317-86.907-11.648-86.817-25.307.091-13.658 39.105-24.469 87.143-24.152 48.037.317 86.903 11.639 86.812 25.302z" fill="#9895A2" fill-opacity=".05" style="mix-blend-mode:multiply" opacity=".03"/>
        <path d="M178.595 159.933c-.091 13.63-38.974 24.412-86.85 24.095-47.877-.317-86.62-11.615-86.545-25.245.074-13.629 38.977-24.412 86.854-24.095 47.876.318 86.631 11.615 86.541 25.245z" fill="#9895A2" fill-opacity=".05" style="mix-blend-mode:multiply" opacity=".04"/>
        <path d="M178.491 159.932c-.09 13.597-38.845 24.354-86.56 24.037-47.717-.317-86.32-11.59-86.24-25.187.077-13.596 38.844-24.354 86.565-24.037 47.72.317 86.326 11.59 86.235 25.187z" fill="#9895A2" fill-opacity=".05" style="mix-blend-mode:multiply" opacity=".04"/>
        <path d="M178.388 159.929c-.09 13.563-38.73 24.309-86.273 23.983-47.543-.325-86.042-11.561-85.951-25.133.09-13.572 38.73-24.309 86.277-23.976 47.547.334 86.034 11.566 85.947 25.126z" fill="#9895A2" fill-opacity=".05" style="mix-blend-mode:multiply" opacity=".04"/>
        <path d="M178.281 159.929c-.086 13.53-38.581 24.235-85.98 23.922-47.399-.314-85.75-11.537-85.663-25.059.086-13.523 38.586-24.231 85.988-23.898 47.403.334 85.746 11.529 85.655 25.035z" fill="#9895A2" fill-opacity=".05" style="mix-blend-mode:multiply" opacity=".05"/>
        <path d="M178.179 159.928c-.091 13.494-38.454 24.178-85.7 23.865-47.247-.314-85.454-11.504-85.363-25.01.09-13.506 38.454-24.173 85.7-23.86 47.247.313 85.453 11.499 85.363 25.005z" fill="#9895A2" fill-opacity=".05" style="mix-blend-mode:multiply" opacity=".05"/>
        <path d="M178.075 159.928c-.09 13.461-38.318 24.116-85.403 23.803-47.086-.314-85.173-11.471-85.082-24.948.09-13.477 38.317-24.116 85.403-23.803 47.086.314 85.169 11.488 85.082 24.948z" fill="#9895A2" fill-opacity=".05" style="mix-blend-mode:multiply" opacity=".05"/>
        <path d="M177.973 159.928c-.091 13.428-38.199 24.054-85.116 23.745-46.916-.31-84.884-11.446-84.773-24.891.111-13.444 38.195-24.049 85.115-23.74 46.921.309 84.86 11.458 84.774 24.886z" fill="#9895A2" fill-opacity=".05" style="mix-blend-mode:multiply" opacity=".06"/>
        <path d="M177.865 159.924c-.086 13.395-38.062 23.997-84.822 23.688-46.76-.309-84.596-11.413-84.506-24.808.09-13.395 38.067-23.992 84.835-23.683 46.769.309 84.584 11.413 84.493 24.803z" fill="#9895A2" fill-opacity=".05" style="mix-blend-mode:multiply" opacity=".06"/>
        <path d="M177.762 159.925c-.086 13.362-37.935 23.938-84.534 23.629-46.6-.309-84.32-11.388-84.217-24.746.103-13.358 37.935-23.922 84.538-23.625 46.604.297 84.287 11.384 84.213 24.742z" fill="#9895A2" fill-opacity=".05" style="mix-blend-mode:multiply" opacity=".07"/>
        <path d="M177.659 159.924c-.09 13.329-37.807 23.897-84.245 23.567-46.44-.329-84.016-11.355-83.929-24.68.087-13.324 37.807-23.897 84.25-23.567 46.443.329 84.011 11.355 83.924 24.68z" fill="#9895A2" fill-opacity=".05" style="mix-blend-mode:multiply" opacity=".07"/>
        <path d="M177.556 159.925c-.09 13.291-37.679 23.814-83.957 23.509-46.278-.304-83.727-11.326-83.64-24.622.086-13.296 37.679-23.811 83.957-23.514 46.278.297 83.727 11.335 83.64 24.627z" fill="#9895A2" fill-opacity=".05" style="mix-blend-mode:multiply" opacity=".07"/>
        <path d="M177.449 159.924c-.086 13.28-37.543 23.757-83.665 23.452-46.121-.304-83.438-11.301-83.351-24.56.086-13.259 37.547-23.753 83.669-23.448 46.121.305 83.438 11.297 83.347 24.556z" fill="#9895A2" fill-opacity=".05" style="mix-blend-mode:multiply" opacity=".08"/>
        <path d="M177.346 159.924c-.086 13.226-37.415 23.695-83.376 23.39-45.961-.305-83.15-11.268-83.064-24.494.087-13.226 37.42-23.696 83.381-23.391 45.961.305 83.137 11.269 83.059 24.495z" fill="#9895A2" fill-opacity=".05" style="mix-blend-mode:multiply" opacity=".08"/>
        <path d="M177.243 159.919c-.091 13.185-37.288 23.638-83.088 23.337-45.8-.301-82.862-11.24-82.775-24.433.087-13.192 37.284-23.633 83.088-23.332 45.804.3 82.862 11.24 82.775 24.428z" fill="#9895A2" fill-opacity=".05" style="mix-blend-mode:multiply" opacity=".08"/>
        <path d="M177.136 159.92c-.086 13.16-37.156 23.58-82.795 23.275-45.64-.305-82.573-11.227-82.482-24.371.09-13.143 37.156-23.572 82.816-23.271 45.66.301 82.552 11.211 82.461 24.367z" fill="#9895A2" fill-opacity=".05" style="mix-blend-mode:multiply" opacity=".09"/>
        <path d="M177.033 159.92c-.086 13.127-37.024 23.518-82.507 23.217-45.483-.301-82.28-11.182-82.194-24.309.087-13.127 37.029-23.531 82.511-23.214 45.483.318 82.277 11.183 82.19 24.306z" fill="#9895A2" fill-opacity=".05" style="mix-blend-mode:multiply" opacity=".09"/>
        <path d="M176.93 159.92c-.086 13.094-36.896 23.457-82.219 23.156-45.322-.301-81.992-11.153-81.905-24.243.086-13.09 36.892-23.453 82.214-23.156 45.323.297 81.992 11.158 81.91 24.243z" fill="#9895A2" fill-opacity=".05" style="mix-blend-mode:multiply" opacity=".09"/>
        <path d="M176.827 159.92c-.087 13.057-36.769 23.399-81.93 23.098-45.162-.301-81.704-11.125-81.618-24.181.087-13.057 36.77-23.395 81.93-23.098 45.162.296 81.704 11.124 81.618 24.181z" fill="#9895A2" fill-opacity=".05" style="mix-blend-mode:multiply" opacity=".1"/>
        <path d="M176.72 159.92c-.087 13.024-36.633 23.337-81.638 23.04-45.005-.297-81.415-11.096-81.329-24.124.087-13.028 36.637-23.332 81.642-23.036 45.005.297 81.411 11.096 81.325 24.12z" fill="#9895A2" fill-opacity=".05" style="mix-blend-mode:multiply" opacity=".1"/>
        <path d="M176.6 159.915c-.087 12.996-36.505 23.28-81.35 22.983-44.844-.297-81.126-11.067-81.04-24.058.087-12.991 36.51-23.275 81.354-22.978 44.844.296 81.139 11.067 81.036 24.053z" fill="#9895A2" fill-opacity=".05" style="mix-blend-mode:multiply" opacity=".1"/>
        <path d="M176.514 159.916c-.087 12.958-36.377 23.217-81.061 22.925-44.684-.293-80.834-11.038-80.756-23.996.078-12.958 36.381-23.214 81.065-22.917 44.684.297 80.838 11.034 80.752 23.988z" fill="#9895A2" fill-opacity=".05" style="mix-blend-mode:multiply" opacity=".11"/>
        <path d="M176.411 159.916c-.087 12.925-36.258 23.159-80.756 22.863-44.498-.297-80.567-11.005-80.476-23.93.09-12.926 36.258-23.156 80.756-22.859 44.498.296 80.558 11.005 80.476 23.926z" fill="#9895A2" fill-opacity=".05" style="mix-blend-mode:multiply" opacity=".11"/>
        <path d="M176.304 159.916c-.087 12.875-36.114 23.097-80.46 22.805-44.345-.293-80.257-10.98-80.17-23.873.086-12.892 36.117-23.073 80.48-22.797 44.362.276 80.236 10.977 80.15 23.865z" fill="#9895A2" fill-opacity=".05" style="mix-blend-mode:multiply" opacity=".11"/>
        <path d="M176.188 159.916c-.086 12.855-35.985 23.036-80.191 22.744-44.206-.293-79.97-10.948-79.883-23.807.087-12.859 35.986-23.032 80.192-22.739 44.206.292 79.981 10.947 79.882 23.802z" fill="#9895A2" fill-opacity=".05" style="mix-blend-mode:multiply" opacity=".12"/>
        <path d="M176.098 159.916c-.087 12.822-35.846 22.978-79.904 22.685-44.057-.292-79.68-10.922-79.594-23.744.087-12.822 35.846-22.975 79.903-22.661 44.058.313 79.685 10.897 79.595 23.72z" fill="#9895A2" fill-opacity=".05" style="mix-blend-mode:multiply" opacity=".12"/>
        <path d="M175.991 159.912c-.083 12.773-35.727 22.921-79.61 22.628-43.885-.292-79.393-10.889-79.307-23.678.087-12.789 35.73-22.917 79.615-22.624 43.884.292 79.388 10.889 79.302 23.674z" fill="#9895A2" fill-opacity=".05" style="mix-blend-mode:multiply" opacity=".12"/>
        <path d="M175.888 159.912c-.083 12.773-35.595 22.859-79.322 22.571-43.728-.289-79.1-10.861-79.005-23.617.095-12.757 35.598-22.859 79.326-22.567 43.728.293 79.087 10.861 79.001 23.613z" fill="#9895A2" fill-opacity=".05" style="mix-blend-mode:multiply" opacity=".13"/>
        <path d="M175.776 159.912c-.087 12.723-35.467 22.801-79.034 22.512-43.567-.288-78.811-10.836-78.729-23.559.083-12.723 35.48-22.793 79.067-22.504 43.588.288 78.787 10.832 78.696 23.551z" fill="#9895A2" fill-opacity=".05" style="mix-blend-mode:multiply" opacity=".13"/>
        <path d="M175.682 159.912c-.087 12.69-35.339 22.739-78.746 22.451-43.406-.289-78.523-10.803-78.44-23.485.082-12.682 35.322-22.756 78.745-22.455 43.423.3 78.535 10.823 78.441 23.489z" fill="#9895A2" fill-opacity=".05" style="mix-blend-mode:multiply" opacity=".13"/>
        <path d="M175.575 159.911c-.083 12.658-35.208 22.662-78.45 22.394-43.24-.268-78.238-10.779-78.151-23.432.086-12.653 35.207-22.661 78.453-22.389 43.245.272 78.234 10.762 78.148 23.427z" fill="#9895A2" fill-opacity=".05" style="mix-blend-mode:multiply" opacity=".14"/>
        <path d="M175.471 159.912c-.082 12.62-35.075 22.615-78.16 22.331-43.085-.284-77.95-10.745-77.872-23.366.078-12.62 35.08-22.615 78.165-22.331 43.084.284 77.95 10.745 77.867 23.366z" fill="#9895A2" fill-opacity=".05" style="mix-blend-mode:multiply" opacity=".14"/>
        <path d="M175.364 159.907c-.082 12.592-34.947 22.563-77.872 22.278-42.924-.284-77.661-10.712-77.575-23.308.087-12.595 34.948-22.554 77.872-22.269 42.924.284 77.662 10.716 77.575 23.299z" fill="#9895A2" fill-opacity=".05" style="mix-blend-mode:multiply" opacity=".14"/>
        <path d="M175.265 159.908c-.086 12.558-34.819 22.5-77.583 22.216-42.764-.284-77.37-10.688-77.287-23.242.083-12.554 34.82-22.496 77.588-22.212 42.767.284 77.381 10.688 77.282 23.238z" fill="#9895A2" fill-opacity=".05" style="mix-blend-mode:multiply" opacity=".15"/>
        <path d="M175.159 159.908c-.083 12.521-34.688 22.438-77.291 22.158-42.603-.28-77.081-10.659-77.011-23.18.07-12.521 34.688-22.439 77.295-22.154 42.607.284 77.089 10.659 77.007 23.176z" fill="#9895A2" fill-opacity=".05" style="mix-blend-mode:multiply" opacity=".15"/>
        <path d="M175.055 159.907c-.082 12.489-34.556 22.381-77.002 22.101-42.447-.28-76.784-10.63-76.71-23.118.074-12.489 34.56-22.377 77.007-22.097 42.446.28 76.788 10.63 76.705 23.114z" fill="#9895A2" fill-opacity=".05" style="mix-blend-mode:multiply" opacity=".15"/>
        <path d="M174.952 159.908c-.082 12.455-34.428 22.319-76.714 22.039-42.285-.28-76.504-10.601-76.421-23.073.082-12.472 34.432-22.315 76.718-22.035 42.285.28 76.5 10.618 76.417 23.069z" fill="#9895A2" fill-opacity=".05" style="mix-blend-mode:multiply" opacity=".16"/>
        <path d="M174.845 159.907c-.082 12.419-34.296 22.25-76.421 21.982-42.125-.268-76.224-10.573-76.133-22.995.09-12.423 34.3-22.249 76.43-21.977 42.129.272 76.207 10.572 76.124 22.99z" fill="#9895A2" fill-opacity=".05" style="mix-blend-mode:multiply" opacity=".16"/>
        <path d="M174.743 159.903c-.083 12.39-34.169 22.204-76.133 21.924-41.965-.28-75.928-10.544-75.845-22.929.082-12.385 34.173-22.196 76.141-21.92 41.969.276 75.919 10.544 75.837 22.925z" fill="#9895A2" fill-opacity=".05" style="mix-blend-mode:multiply" opacity=".16"/>
        <path d="M174.639 159.904c-.082 12.36-34.037 22.142-75.844 21.866-41.808-.276-75.635-10.515-75.553-22.867.083-12.353 34.037-22.138 75.85-21.862 41.811.276 75.63 10.515 75.547 22.863z" fill="#9895A2" fill-opacity=".05" style="mix-blend-mode:multiply" opacity=".17"/>
        <path d="M174.54 159.904c-.082 12.319-33.909 22.08-75.556 21.804-41.647-.276-75.35-10.482-75.268-22.806.082-12.323 33.91-22.076 75.556-21.8 41.647.276 75.342 10.486 75.268 22.802z" fill="#9895A2" fill-opacity=".05" style="mix-blend-mode:multiply" opacity=".17"/>
        <path d="M174.429 159.903c-.078 12.287-33.785 22.023-75.263 21.747-41.478-.276-75.058-10.457-74.988-22.744.07-12.286 33.785-22.018 75.268-21.742 41.482.276 75.066 10.453 74.983 22.739z" fill="#9895A2" fill-opacity=".05" style="mix-blend-mode:multiply" opacity=".17"/>
        <path d="M174.326 159.904c-.082 12.253-33.65 21.961-74.987 21.685-41.338-.276-74.77-10.424-74.688-22.661.083-12.238 33.65-21.957 74.988-21.685 41.338.272 74.77 10.416 74.687 22.661z" fill="#9895A2" fill-opacity=".05" style="mix-blend-mode:multiply" opacity=".18"/>
        <path d="M174.222 159.904c-.082 12.22-33.518 21.899-74.687 21.627-41.169-.272-74.48-10.387-74.398-22.616.082-12.229 33.522-21.899 74.69-21.627 41.17.272 74.474 10.395 74.395 22.616z" fill="#9895A2" fill-opacity=".05" style="mix-blend-mode:multiply" opacity=".18"/>
        <path d="M174.128 159.899c-.082 12.188-33.373 21.837-74.398 21.574-41.025-.264-74.197-10.371-74.119-22.558.079-12.188 33.374-21.838 74.403-21.566 41.029.272 74.184 10.367 74.114 22.55z" fill="#9895A2" fill-opacity=".05" style="mix-blend-mode:multiply" opacity=".19"/>
        <path d="M174.013 159.9c-.078 12.154-33.258 21.783-74.106 21.511-40.848-.272-73.9-10.337-73.822-22.492.078-12.154 33.262-21.775 74.114-21.507 40.852.268 73.896 10.337 73.814 22.488z" fill="#9895A2" fill-opacity=".05" style="mix-blend-mode:multiply" opacity=".19"/>
        <path d="M173.91 159.9c-.079 12.121-33.131 21.721-73.818 21.453-40.687-.267-73.612-10.3-73.533-22.43.078-12.13 33.13-21.718 73.817-21.45 40.687.268 73.616 10.309 73.534 22.427z" fill="#9895A2" fill-opacity=".05" style="mix-blend-mode:multiply" opacity=".19"/>
        <path d="M173.807 159.899c-.083 12.085-32.999 21.66-73.529 21.392-40.53-.267-73.34-10.3-73.241-22.364.099-12.064 32.999-21.66 73.529-21.392 40.53.268 73.319 10.28 73.241 22.364z" fill="#9895A2" fill-opacity=".05" style="mix-blend-mode:multiply" opacity=".2"/>
        <path d="M173.716 159.9c-.082 12.051-32.871 21.602-73.24 21.334-40.37-.268-73.027-10.251-72.965-22.307.062-12.055 32.87-21.594 73.241-21.33 40.369.264 73.03 10.251 72.964 22.303z" fill="#9895A2" fill-opacity=".05" style="mix-blend-mode:multiply" opacity=".2"/>
        <path d="M173.597 159.896c-.079 12.023-32.74 21.544-72.928 21.277-40.188-.268-72.746-10.223-72.664-22.25.082-12.026 32.74-21.536 72.952-21.272 40.214.264 72.722 10.23 72.64 22.245z" fill="#9895A2" fill-opacity=".05" style="mix-blend-mode:multiply" opacity=".2"/>
        <path d="M173.494 159.895c-.078 11.986-32.611 21.483-72.66 21.219-40.048-.264-72.454-10.193-72.375-22.179.078-11.986 32.611-21.479 72.664-21.211 40.052.268 72.449 10.19 72.371 22.171z" fill="#9895A2" fill-opacity=".05" style="mix-blend-mode:multiply" opacity=".21"/>
        <path d="M173.391 159.895c-.083 11.949-32.48 21.425-72.372 21.161-39.892-.263-72.165-10.168-72.103-22.117.061-11.948 32.48-21.425 72.375-21.153 39.896.272 72.178 10.16 72.1 22.109z" fill="#9895A2" fill-opacity=".05" style="mix-blend-mode:multiply" opacity=".21"/>
        <path d="M173.304 159.895c-.078 11.92-32.347 21.364-72.078 21.1-39.731-.264-71.877-10.136-71.8-22.055.08-11.92 32.353-21.356 72.104-21.092 39.752.264 71.836 10.132 71.774 22.047z" fill="#9895A2" fill-opacity=".05" style="mix-blend-mode:multiply" opacity=".21"/>
        <path d="M173.181 159.895c-.079 11.883-32.22 21.302-71.791 21.042-39.57-.26-71.588-10.107-71.51-21.994.078-11.886 32.224-21.297 71.795-21.033 39.57.263 71.584 10.102 71.506 21.985z" fill="#9895A2" fill-opacity=".05" style="mix-blend-mode:multiply" opacity=".22"/>
        <path d="M173.078 159.896c-.079 11.85-32.093 21.244-71.503 20.98-39.41-.264-71.28-10.078-71.221-21.928.057-11.85 32.092-21.239 71.506-20.976 39.414.264 71.296 10.074 71.218 21.924z" fill="#9895A2" fill-opacity=".05" style="mix-blend-mode:multiply" opacity=".22"/>
        <path d="M172.975 159.891c-.078 11.821-31.96 21.186-71.213 20.927-39.254-.26-71.016-10.049-70.93-21.866.087-11.817 31.96-21.178 71.214-20.918 39.253.259 71.007 10.036 70.929 21.857z" fill="#9895A2" fill-opacity=".05" style="mix-blend-mode:multiply" opacity=".22"/>
        <path d="M172.868 159.891c-.078 11.784-31.829 21.124-70.921 20.865-39.093-.26-70.72-10.025-70.641-21.8.078-11.776 31.828-21.12 70.925-20.861 39.097.26 70.715 10.016 70.637 21.796z" fill="#9895A2" fill-opacity=".05" style="mix-blend-mode:multiply" opacity=".23"/>
        <path d="M172.765 159.892c-.079 11.751-31.701 21.062-70.633 20.807-38.932-.256-70.43-9.992-70.353-21.743.079-11.75 31.701-21.058 70.658-20.798 38.956.259 70.406 9.987 70.328 21.734z" fill="#9895A2" fill-opacity=".05" style="mix-blend-mode:multiply" opacity=".23"/>
        <path d="M172.661 159.891c-.078 11.718-31.573 21.013-70.344 20.745-38.771-.268-70.142-9.958-70.043-21.676.099-11.718 31.573-21.013 70.344-20.741 38.771.272 70.122 9.958 70.043 21.672z" fill="#9895A2" fill-opacity=".05" style="mix-blend-mode:multiply" opacity=".23"/>
        <path d="M172.559 159.891c-.079 11.685-31.442 20.943-70.044 20.688-38.602-.256-69.854-9.934-69.776-21.615.079-11.681 31.442-20.939 70.044-20.683 38.602.255 69.85 9.929 69.776 21.61z" fill="#9895A2" fill-opacity=".05" style="mix-blend-mode:multiply" opacity=".24"/>
        <path d="M172.452 159.891c-.078 11.648-31.314 20.881-69.763 20.63-38.45-.252-69.566-9.889-69.488-21.553.079-11.664 31.314-20.881 69.768-20.626 38.454.256 69.561 9.901 69.483 21.549z" fill="#9895A2" fill-opacity=".05" style="mix-blend-mode:multiply" opacity=".24"/>
        <path d="M172.349 159.887c-.079 11.619-31.182 20.828-69.475 20.573-38.293-.256-69.277-9.889-69.199-21.491.078-11.603 31.182-20.82 69.479-20.564 38.297.255 69.273 9.872 69.195 21.482z" fill="#9895A2" fill-opacity=".05" style="mix-blend-mode:multiply" opacity=".24"/>
        <path d="M172.245 159.887c-.078 11.586-31.054 20.766-69.186 20.514-38.132-.251-68.985-9.847-68.91-21.425.074-11.578 31.054-20.757 69.19-20.506 38.137.251 68.981 9.839 68.906 21.417z" fill="#9895A2" fill-opacity=".05" style="mix-blend-mode:multiply" opacity=".25"/>
        <path d="M172.138 159.888c-.074 11.536-30.901 20.704-68.894 20.452-37.992-.251-68.696-9.814-68.622-21.363.074-11.549 30.927-20.7 68.898-20.449 37.972.252 68.696 9.815 68.618 21.36z" fill="#9895A2" fill-opacity=".05" style="mix-blend-mode:multiply" opacity=".25"/>
        <path d="M172.035 159.887c-.074 11.537-30.791 20.647-68.606 20.395-37.815-.251-68.395-9.785-68.33-21.301.067-11.516 30.791-20.642 68.606-20.387 37.816.256 68.408 9.781 68.33 21.293z" fill="#9895A2" fill-opacity=".05" style="mix-blend-mode:multiply" opacity=".25"/>
        <path d="M171.933 159.887c-.079 11.483-30.663 20.601-68.318 20.333-37.654-.268-68.119-9.756-68.04-21.239.078-11.483 30.662-20.601 68.316-20.33 37.655.272 68.116 9.757 68.042 21.236z" fill="#9895A2" fill-opacity=".05" style="mix-blend-mode:multiply" opacity=".26"/>
        <path d="M171.829 159.888c-.078 11.446-30.534 20.522-68.028 20.275-37.494-.247-67.831-9.728-67.753-21.178.078-11.45 30.543-20.518 68.037-20.271 37.494.247 67.819 9.728 67.744 21.174z" fill="#9895A2" fill-opacity=".05" style="mix-blend-mode:multiply" opacity=".26"/>
        <path d="M171.722 159.883c-.074 11.417-30.399 20.469-67.736 20.222-37.338-.247-67.539-9.703-67.473-21.116.066-11.413 30.403-20.461 67.741-20.214 37.337.248 67.546 9.708 67.468 21.108z" fill="#9895A2" fill-opacity=".05" style="mix-blend-mode:multiply" opacity=".26"/>
        <path d="M171.619 159.883c-.074 11.384-30.271 20.407-67.448 20.16-37.176-.247-67.25-9.67-67.16-21.05.092-11.38 30.26-20.399 67.436-20.156 37.177.243 67.246 9.67 67.172 21.046z" fill="#9895A2" fill-opacity=".05" style="mix-blend-mode:multiply" opacity=".27"/>
        <path d="M171.516 159.883c-.075 11.347-30.144 20.345-67.16 20.102-37.016-.243-66.961-9.641-66.887-21.013.074-11.372 30.143-20.337 67.159-20.094 37.016.243 66.962 9.662 66.888 21.005z" fill="#9895A2" fill-opacity=".05" style="mix-blend-mode:multiply" opacity=".27"/>
        <path d="M171.413 159.883c-.078 11.314-30.015 20.284-66.871 20.041-36.855-.243-66.673-9.604-66.599-20.927.075-11.322 30.016-20.279 66.871-20.036 36.856.243 66.674 9.612 66.599 20.922z" fill="#9895A2" fill-opacity=".05" style="mix-blend-mode:multiply" opacity=".27"/>
        <path d="M171.306 159.883c-.074 11.281-29.88 20.226-66.578 19.983-36.699-.243-66.385-9.584-66.31-20.865C38.49 147.72 68.3 138.779 105 139.022c36.698.244 66.38 9.584 66.306 20.861z" fill="#9895A2" fill-opacity=".05" style="mix-blend-mode:multiply" opacity=".28"/>
        <path d="M171.203 159.884c-.074 11.26-29.752 20.164-66.294 19.913-36.542-.252-66.097-9.555-66.018-20.799.078-11.244 29.76-20.156 66.294-19.913 36.534.243 66.092 9.555 66.018 20.799z" fill="#9895A2" fill-opacity=".05" style="mix-blend-mode:multiply" opacity=".28"/>
        <path d="M171.1 159.878c-.074 11.215-29.624 20.107-66.002 19.868-36.377-.239-65.803-9.526-65.73-20.741.075-11.215 29.625-20.099 66.002-19.86 36.378.239 65.804 9.526 65.73 20.733z" fill="#9895A2" fill-opacity=".05" style="mix-blend-mode:multiply" opacity=".28"/>
        <path d="M170.997 159.879c-.079 11.182-29.493 20.049-65.709 19.806-36.217-.243-65.511-9.477-65.446-20.675.066-11.199 29.493-20.041 65.714-19.802 36.22.239 65.511 9.497 65.441 20.671z" fill="#9895A2" fill-opacity=".05" style="mix-blend-mode:multiply" opacity=".29"/>
        <path d="M170.89 159.879c-.074 11.149-29.361 19.987-65.417 19.748-36.055-.239-65.23-9.477-65.156-20.601.074-11.125 29.364-19.996 65.416-19.757 36.052.239 65.231 9.469 65.157 20.61z" fill="#9895A2" fill-opacity=".05" style="mix-blend-mode:multiply" opacity=".29"/>
        <path d="M170.787 159.878c-.074 11.125-29.233 19.926-65.128 19.691-35.895-.235-64.942-9.44-64.868-20.552.074-11.112 29.233-19.921 65.132-19.686 35.899.235 64.938 9.439 64.864 20.547z" fill="#9895A2" fill-opacity=".05" style="mix-blend-mode:multiply" opacity=".29"/>
        <path d="M170.684 159.879c-.074 11.079-29.105 19.868-64.84 19.629-35.734-.239-64.654-9.407-64.58-20.49.075-11.084 29.105-19.86 64.844-19.625 35.739.235 64.646 9.411 64.576 20.486z" fill="#9895A2" fill-opacity=".05" style="mix-blend-mode:multiply" opacity=".3"/>
        <path d="M170.576 159.879c-.07 11.046-28.969 19.805-64.547 19.571-35.578-.235-64.365-9.382-64.275-20.428.09-11.047 28.957-19.802 64.539-19.567 35.582.235 64.358 9.382 64.283 20.424z" fill="#9895A2" fill-opacity=".05" style="mix-blend-mode:multiply" opacity=".3"/>
        <path d="M170.474 159.875c-.074 11.013-28.842 19.748-64.275 19.513-35.434-.234-64.074-9.348-64.004-20.362.07-11.013 28.842-19.74 64.276-19.509 35.433.231 64.077 9.353 64.003 20.358z" fill="#9895A2" fill-opacity=".05" style="mix-blend-mode:multiply" opacity=".31"/>
        <path d="M170.37 159.875c-.074 10.98-28.713 19.686-63.97 19.455-35.257-.23-63.785-9.324-63.707-20.3.079-10.976 28.714-19.682 63.975-19.447 35.261.235 63.777 9.311 63.702 20.292z" fill="#9895A2" fill-opacity=".05" style="mix-blend-mode:multiply" opacity=".31"/>
        <path d="M170.267 159.875c-.074 10.948-28.586 19.629-63.681 19.394-35.096-.235-63.48-9.291-63.423-20.238.058-10.948 28.582-19.613 63.682-19.386 35.1.227 63.492 9.291 63.422 20.23z" fill="#9895A2" fill-opacity=".05" style="mix-blend-mode:multiply" opacity=".31"/>
        <path d="M170.16 159.875c-.07 10.91-28.45 19.567-63.389 19.336-34.94-.231-63.208-9.262-63.134-20.189.074-10.927 28.454-19.563 63.393-19.328 34.94.235 63.204 9.275 63.13 20.181z" fill="#9895A2" fill-opacity=".05" style="mix-blend-mode:multiply" opacity=".32"/>
        <path d="M170.058 159.875c-.05 10.877-28.322 19.509-63.089 19.278-34.766-.23-62.932-9.246-62.857-20.115.074-10.869 28.322-19.501 63.105-19.27 34.782.231 62.915 9.229 62.841 20.107z" fill="#9895A2" fill-opacity=".05" style="mix-blend-mode:multiply" opacity=".32"/>
        <path d="M169.955 159.87c-.074 10.849-28.195 19.452-62.813 19.221-34.618-.231-62.627-9.204-62.557-20.049.07-10.844 28.186-19.443 62.817-19.212 34.63.23 62.606 9.2 62.553 20.04z" fill="#9895A2" fill-opacity=".05" style="mix-blend-mode:multiply" opacity=".32"/>
        <path d="M169.852 159.87c-.075 10.812-28.067 19.39-62.525 19.163-34.457-.226-62.338-9.175-62.268-19.987.07-10.811 28.067-19.385 62.528-19.155 34.461.231 62.335 9.172 62.265 19.979z" fill="#9895A2" fill-opacity=".05" style="mix-blend-mode:multiply" opacity=".33"/>
        <path d="M169.744 159.871c-.07 10.778-27.931 19.328-62.215 19.101-34.284-.227-62.05-9.147-61.98-19.925.07-10.779 27.919-19.32 62.244-19.093 34.325.226 62.025 9.142 61.951 19.917z" fill="#9895A2" fill-opacity=".05" style="mix-blend-mode:multiply" opacity=".33"/>
        <path d="M169.642 159.87c-.07 10.746-27.803 19.271-61.943 19.044-34.14-.227-61.762-9.118-61.709-19.863.054-10.746 27.808-19.262 61.948-19.036 34.14.227 61.774 9.114 61.704 19.855z" fill="#9895A2" fill-opacity=".05" style="mix-blend-mode:multiply" opacity=".33"/>
        <path d="M169.538 159.87c-.074 10.713-27.675 19.209-61.655 18.982-33.979-.227-61.473-9.089-61.39-19.798.082-10.708 27.675-19.204 61.658-18.977 33.984.226 61.445 9.085 61.387 19.793z" fill="#9895A2" fill-opacity=".05" style="mix-blend-mode:multiply" opacity=".34"/>
        <path d="M169.431 159.871c-.07 10.675-27.543 19.146-61.362 18.924-33.819-.223-61.185-9.064-61.11-19.736.073-10.671 27.543-19.146 61.365-18.92 33.823.227 61.181 9.056 61.107 19.732z" fill="#9895A2" fill-opacity=".05" style="mix-blend-mode:multiply" opacity=".34"/>
        <path d="M169.329 159.866c-.071 10.647-27.412 19.093-61.074 18.867-33.662-.227-60.893-9.028-60.823-19.674.07-10.647 27.4-19.081 61.078-18.858 33.679.222 60.889 9.027 60.819 19.665z" fill="#9895A2" fill-opacity=".05" style="mix-blend-mode:multiply" opacity=".34"/>
        <path d="M169.225 159.866c-.07 10.614-27.284 19.031-60.785 18.809-33.501-.223-60.604-9.003-60.534-19.612.07-10.61 27.284-19.023 60.789-18.801 33.506.223 60.6 8.999 60.53 19.604z" fill="#9895A2" fill-opacity=".05" style="mix-blend-mode:multiply" opacity=".35"/>
        <path d="M169.122 159.866c-.07 10.577-27.157 18.953-60.497 18.751-33.341-.202-60.316-8.973-60.246-19.55.07-10.577 27.156-18.953 60.501-18.743 33.345.21 60.303 8.982 60.242 19.542z" fill="#9895A2" fill-opacity=".05" style="mix-blend-mode:multiply" opacity=".35"/>
        <path d="M169.015 159.866c-.07 10.544-27.024 18.908-60.204 18.694-33.18-.215-60.027-8.949-59.937-19.489.09-10.539 27.025-18.903 60.209-18.685 33.184.218 60.002 8.941 59.932 19.48z" fill="#9895A2" fill-opacity=".05" style="mix-blend-mode:multiply" opacity=".35"/>
        <path d="M168.912 159.867c-.07 10.51-26.892 18.85-59.916 18.631-33.023-.218-59.743-8.916-59.669-19.427.075-10.51 26.897-18.829 59.92-18.623 33.024.206 59.735 8.912 59.665 19.419z" fill="#9895A2" fill-opacity=".05" style="mix-blend-mode:multiply" opacity=".36"/>
        <path d="M168.809 159.867c-.07 10.474-26.781 18.788-59.628 18.57-32.846-.219-59.45-8.883-59.38-19.365.07-10.482 26.781-18.784 59.632-18.566 32.85.219 59.446 8.887 59.376 19.361z" fill="#9895A2" fill-opacity=".05" style="mix-blend-mode:multiply" opacity=".36"/>
        <path d="M168.706 159.862c-.07 10.445-26.637 18.731-59.331 18.517-32.694-.215-59.158-8.859-59.092-19.299.066-10.441 26.638-18.727 59.331-18.508 32.694.218 59.158 8.854 59.092 19.29z" fill="#9895A2" fill-opacity=".05" style="mix-blend-mode:multiply" opacity=".36"/>
        <path d="M168.599 159.862c-.07 10.412-26.505 18.673-59.046 18.454-32.542-.218-58.87-8.821-58.8-19.233.07-10.412 26.505-18.664 59.051-18.45 32.545.214 58.865 8.825 58.795 19.229z" fill="#9895A2" fill-opacity=".05" style="mix-blend-mode:multiply" opacity=".37"/>
        <path d="M168.496 159.863c-.07 10.374-26.37 18.611-58.758 18.396-32.39-.214-58.581-8.796-58.507-19.175.074-10.379 26.369-18.603 58.758-18.389 32.389.215 58.577 8.797 58.507 19.168z" fill="#9895A2" fill-opacity=".05" style="mix-blend-mode:multiply" opacity=".37"/>
        <path d="M168.393 159.862c-.07 10.342-26.245 18.541-58.47 18.335-32.224-.206-58.292-8.768-58.222-19.109.07-10.342 26.245-18.541 58.47-18.331 32.224.21 58.288 8.768 58.222 19.105z" fill="#9895A2" fill-opacity=".05" style="mix-blend-mode:multiply" opacity=".37"/>
        <path d="M168.286 159.862c-.066 10.301-26.114 18.491-58.178 18.277-32.063-.214-58.004-8.739-57.938-19.047.066-10.309 26.118-18.484 58.181-18.274 32.064.211 58.009 8.739 57.935 19.044z" fill="#9895A2" fill-opacity=".05" style="mix-blend-mode:multiply" opacity=".38"/>
        <path d="M168.183 159.862c-.066 10.272-25.986 18.43-57.889 18.22-31.903-.21-57.712-8.714-57.646-18.986.066-10.272 25.986-18.442 57.893-18.215 31.907.226 57.712 8.71 57.642 18.981z" fill="#9895A2" fill-opacity=".05" style="mix-blend-mode:multiply" opacity=".38"/>
        <path d="M168.08 159.858c-.07 10.243-25.854 18.372-57.6 18.162-31.747-.21-57.424-8.681-57.358-18.924.066-10.243 25.859-18.364 57.605-18.154 31.746.211 57.419 8.682 57.353 18.916z" fill="#9895A2" fill-opacity=".05" style="mix-blend-mode:multiply" opacity=".38"/>
        <path d="M167.977 159.858c-.07 10.21-25.727 18.314-57.312 18.104-31.586-.21-57.135-8.652-57.07-18.862.067-10.21 25.727-18.306 57.317-18.096 31.59.21 57.131 8.652 57.065 18.854z" fill="#9895A2" fill-opacity=".05" style="mix-blend-mode:multiply" opacity=".39"/>
        <path d="M167.87 159.859c-.066 10.172-25.595 18.252-57.02 18.042-31.425-.21-56.859-8.624-56.78-18.796.078-10.173 25.598-18.245 57.019-18.039 31.421.206 56.859 8.624 56.781 18.793z" fill="#9895A2" fill-opacity=".05" style="mix-blend-mode:multiply" opacity=".39"/>
        <path d="M167.767 159.858c-.066 10.14-25.467 18.191-56.731 17.985-31.264-.206-56.558-8.595-56.488-18.735.07-10.139 25.467-18.186 56.731-17.98 31.264.206 56.554 8.591 56.488 18.73z" fill="#9895A2" fill-opacity=".05" style="mix-blend-mode:multiply" opacity=".39"/>
        <path d="M167.664 159.858c-.066 10.107-25.336 18.129-56.447 17.923-31.112-.206-56.27-8.562-56.2-18.673.07-10.111 25.335-18.129 56.447-17.918 31.112.21 56.266 8.565 56.2 18.668z" fill="#9895A2" fill-opacity=".05" style="mix-blend-mode:multiply" opacity=".4"/>
        <path d="M167.561 159.858c-.07 10.074-25.208 18.071-56.155 17.865-30.946-.206-55.98-8.537-55.91-18.611.07-10.074 25.207-18.046 56.154-17.861 30.946.186 55.977 8.537 55.911 18.607z" fill="#9895A2" fill-opacity=".05" style="mix-blend-mode:multiply" opacity=".4"/>
        <path d="M167.453 159.854c-.066 10.041-25.075 18.013-55.861 17.811-30.787-.201-55.689-8.508-55.623-18.54.066-10.033 25.075-18.006 55.866-17.804 30.79.202 55.701 8.5 55.618 18.533z" fill="#9895A2" fill-opacity=".05" style="mix-blend-mode:multiply" opacity=".4"/>
        <path d="M167.351 159.854c-.066 10.008-24.948 17.952-55.573 17.75-30.626-.202-55.4-8.48-55.335-18.483.066-10.004 24.948-17.948 55.578-17.742 30.63.206 55.396 8.475 55.33 18.475z" fill="#9895A2" fill-opacity=".05" style="mix-blend-mode:multiply" opacity=".41"/>
        <path d="M167.248 159.854c-.066 9.975-24.816 17.895-55.285 17.693-30.469-.202-55.112-8.463-55.046-18.422.066-9.958 24.82-17.886 55.285-17.684 30.465.202 55.112 8.447 55.046 18.413z" fill="#9895A2" fill-opacity=".05" style="mix-blend-mode:multiply" opacity=".41"/>
        <path d="M167.145 159.854c-.07 9.938-24.688 17.832-54.997 17.631-30.308-.202-54.823-8.402-54.757-18.36.066-9.959 24.688-17.824 54.996-17.622 30.308.202 54.82 8.417 54.758 18.351z" fill="#9895A2" fill-opacity=".05" style="mix-blend-mode:multiply" opacity=".42"/>
        <path d="M167.037 159.854c-.065 9.888-24.556 17.77-54.704 17.573-30.147-.198-54.535-8.393-54.469-18.298.066-9.905 24.56-17.767 54.708-17.565 30.148.202 54.552 8.389 54.465 18.29z" fill="#9895A2" fill-opacity=".05" style="mix-blend-mode:multiply" opacity=".42"/>
        <path d="M166.935 159.854c-.066 9.888-24.429 17.717-54.416 17.511-29.987-.206-54.247-8.36-54.168-18.232.078-9.872 24.428-17.717 54.419-17.507 29.991.21 54.231 8.36 54.165 18.228z" fill="#9895A2" fill-opacity=".05" style="mix-blend-mode:multiply" opacity=".42"/>
        <path d="M166.831 159.85c-.065 9.839-24.309 17.655-54.127 17.457-29.818-.197-53.974-8.335-53.888-18.17.087-9.835 24.31-17.647 54.127-17.449 29.818.198 53.954 8.331 53.888 18.162z" fill="#9895A2" fill-opacity=".05" style="mix-blend-mode:multiply" opacity=".43"/>
        <path d="M166.712 159.85c-.062 9.806-24.165 17.593-53.835 17.395-29.67-.197-53.665-8.302-53.6-18.108.066-9.806 24.165-17.585 53.839-17.387 29.674.198 53.674 8.302 53.596 18.1z" fill="#9895A2" fill-opacity=".05" style="mix-blend-mode:multiply" opacity=".43"/>
        <path d="M166.622 159.851c-.066 9.773-24.038 17.535-53.563 17.337-29.525-.197-53.377-8.273-53.311-18.046.066-9.773 24.037-17.527 53.562-17.33 29.526.198 53.378 8.274 53.312 18.039z" fill="#9895A2" fill-opacity=".05" style="mix-blend-mode:multiply" opacity=".43"/>
        <path d="M166.518 159.85c-.066 9.736-23.897 17.474-53.254 17.28-29.356-.193-53.092-8.24-53.027-17.984.066-9.745 23.898-17.466 53.258-17.272 29.361.193 53.089 8.257 53.023 17.976z" fill="#9895A2" fill-opacity=".05" style="mix-blend-mode:multiply" opacity=".44"/>
        <path d="M166.415 159.85c-.066 9.703-23.778 17.412-52.965 17.218-29.188-.193-52.805-8.215-52.739-17.919.066-9.703 23.778-17.407 52.969-17.214 29.192.194 52.797 8.216 52.735 17.915z" fill="#9895A2" fill-opacity=".05" style="mix-blend-mode:multiply" opacity=".44"/>
        <path d="M166.3 159.845c-.062 9.675-23.646 17.355-52.673 17.165-29.027-.189-52.512-8.187-52.45-17.861.062-9.674 23.65-17.346 52.681-17.152 29.031.193 52.516 8.187 52.442 17.848z" fill="#9895A2" fill-opacity=".05" style="mix-blend-mode:multiply" opacity=".44"/>
        <path d="M166.205 159.846c-.062 9.637-23.518 17.305-52.384 17.103-28.866-.202-52.224-8.158-52.174-17.795.049-9.638 23.518-17.305 52.392-17.095 28.874.21 52.232 8.158 52.166 17.787z" fill="#9895A2" fill-opacity=".05" style="mix-blend-mode:multiply" opacity=".45"/>
        <path d="M166.102 159.846c-.066 9.604-23.39 17.235-52.096 17.045-28.705-.189-51.914-8.129-51.873-17.717.041-9.588 23.41-17.243 52.104-17.053 28.693.189 51.927 8.129 51.865 17.725z" fill="#9895A2" fill-opacity=".05" style="mix-blend-mode:multiply" opacity=".45"/>
        <path d="M166 159.846c-.066 9.571-23.259 17.173-51.808 16.983-28.549-.19-51.646-8.1-51.58-17.667.065-9.568 23.258-17.169 51.807-16.98 28.549.19 51.643 8.101 51.581 17.664z" fill="#9895A2" fill-opacity=".05" style="mix-blend-mode:multiply" opacity=".45"/>
        <path d="M165.888 159.846c-.062 9.538-23.127 17.116-51.503 16.926-28.376-.19-51.358-8.071-51.292-17.61.066-9.538 23.127-17.107 51.502-16.917 28.376.189 51.363 8.071 51.293 17.601z" fill="#9895A2" fill-opacity=".05" style="mix-blend-mode:multiply" opacity=".46"/>
        <path d="M165.788 159.846c-.061 9.501-22.999 17.053-51.226 16.868-28.228-.185-51.09-8.043-51.004-17.548.086-9.505 22.999-17.045 51.239-16.864 28.24.181 51.053 8.047 50.991 17.544z" fill="#9895A2" fill-opacity=".05" style="mix-blend-mode:multiply" opacity=".46"/>
        <path d="M165.686 159.842c-.066 9.477-22.867 16.996-50.938 16.811-28.071-.186-50.778-8.014-50.716-17.482.062-9.468 22.868-16.988 50.943-16.802 28.075.185 50.773 8.009 50.711 17.473z" fill="#9895A2" fill-opacity=".05" style="mix-blend-mode:multiply" opacity=".46"/>
        <path d="M165.579 159.842c-.062 9.439-22.736 16.938-50.646 16.753-27.91-.186-50.489-7.985-50.427-17.4.062-9.415 22.74-16.93 50.654-16.744 27.914.185 50.485 7.96 50.419 17.391z" fill="#9895A2" fill-opacity=".05" style="mix-blend-mode:multiply" opacity=".47"/>
        <path d="M165.476 159.842c-.062 9.402-22.608 16.893-50.357 16.691-27.75-.202-50.2-7.952-50.139-17.338.062-9.386 22.624-16.893 50.361-16.703 27.738.189 50.197 7.952 50.135 17.35z" fill="#9895A2" fill-opacity=".05" style="mix-blend-mode:multiply" opacity=".47"/>
        <path d="M165.373 159.842c-.062 9.369-22.48 16.814-50.069 16.633-27.59-.181-49.912-7.927-49.855-17.305.058-9.377 22.48-16.806 50.073-16.625 27.593.182 49.912 7.932 49.851 17.297z" fill="#9895A2" fill-opacity=".05" style="mix-blend-mode:multiply" opacity=".47"/>
        <path d="M165.27 159.841c-.062 9.337-22.348 16.757-49.781 16.572-27.432-.185-49.623-7.894-49.562-17.218.062-9.324 22.352-16.749 49.785-16.568 27.432.182 49.619 7.882 49.558 17.214z" fill="#9895A2" fill-opacity=".05" style="mix-blend-mode:multiply" opacity=".48"/>
        <path d="M165.163 159.841c-.062 9.3-22.217 16.696-49.488 16.514-27.272-.181-49.335-7.869-49.27-17.16.066-9.291 22.217-16.691 49.492-16.51 27.276.181 49.327 7.857 49.266 17.156z" fill="#9895A2" fill-opacity=".05" style="mix-blend-mode:multiply" opacity=".48"/>
        <path d="M165.064 159.837c-.062 9.271-22.089 16.638-49.2 16.456-27.11-.181-49.03-7.828-48.98-17.107.049-9.278 22.088-16.625 49.203-16.448 27.115.178 49.034 7.837 48.977 17.099z" fill="#9895A2" fill-opacity=".05" style="mix-blend-mode:multiply" opacity=".48"/>
        <path d="M164.956 159.838c-.062 9.237-21.96 16.575-48.911 16.398-26.95-.177-48.754-7.808-48.692-17.041.062-9.233 21.96-16.567 48.915-16.39 26.954.177 48.75 7.804 48.688 17.033z" fill="#9895A2" fill-opacity=".05" style="mix-blend-mode:multiply" opacity=".49"/>
        <path d="M164.854 159.838c-.062 9.2-21.837 16.518-48.618 16.341-26.782-.178-48.47-7.784-48.409-16.984.062-9.2 21.837-16.51 48.619-16.332 26.781.177 48.466 7.778 48.408 16.975z" fill="#9895A2" fill-opacity=".05" style="mix-blend-mode:multiply" opacity=".49"/>
        <path d="M164.747 159.838c-.058 9.167-21.697 16.456-48.33 16.279-26.633-.178-48.178-7.75-48.116-16.922.062-9.172 21.701-16.452 48.334-16.275 26.633.177 48.173 7.754 48.112 16.918z" fill="#9895A2" fill-opacity=".05" style="mix-blend-mode:multiply" opacity=".49"/>
        <path d="M164.652 159.837c-.062 9.135-21.57 16.395-48.042 16.222-26.472-.173-47.897-7.726-47.835-16.864.061-9.139 21.569-16.386 48.045-16.213 26.477.173 47.885 7.725 47.832 16.855z" fill="#9895A2" fill-opacity=".05" style="mix-blend-mode:multiply" opacity=".5"/>
        <path d="M164.54 159.837c-.062 9.098-21.425 16.337-47.753 16.16-26.328-.177-47.6-7.693-47.539-16.803.062-9.109 21.425-16.328 47.757-16.155 26.333.173 47.593 7.701 47.535 16.798z" fill="#9895A2" fill-opacity=".05" style="mix-blend-mode:multiply" opacity=".5"/>
        <path d="M164.437 159.834c-.062 9.065-21.31 16.279-47.465 16.106-26.155-.173-47.308-7.68-47.25-16.744.058-9.065 21.314-16.259 47.469-16.069 26.155.189 47.304 7.647 47.246 16.707z" fill="#9895A2" fill-opacity=".05" style="mix-blend-mode:multiply" opacity=".5"/>
        <path d="M164.331 159.834c-.058 9.035-21.178 16.217-47.172 16.044-25.995-.173-47.02-7.618-46.963-16.683.058-9.064 21.182-16.209 47.181-16.036 25.998.173 47.016 7.647 46.954 16.675z" fill="#9895A2" fill-opacity=".05" style="mix-blend-mode:multiply" opacity=".51"/>
        <path d="M164.24 159.834c-.062 9.002-21.05 16.159-46.884 15.986-25.834-.173-46.731-7.606-46.67-16.604.063-8.999 21.038-16.152 46.872-15.979 25.834.173 46.727 7.602 46.682 16.597z" fill="#9895A2" fill-opacity=".05" style="mix-blend-mode:multiply" opacity=".51"/>
        <path d="M164.125 159.834c-.062 8.965-20.923 16.097-46.596 15.928-25.673-.169-46.443-7.577-46.38-16.546.06-8.97 20.917-16.069 46.594-15.917 25.678.153 46.439 7.573 46.382 16.535z" fill="#9895A2" fill-opacity=".05" style="mix-blend-mode:multiply" opacity=".51"/>
        <path d="M164.017 159.834c-.057 8.933-20.786 16.036-46.303 15.867-25.516-.169-46.146-7.548-46.092-16.481.053-8.933 20.79-16.028 46.307-15.859 25.516.169 46.15 7.544 46.088 16.473z" fill="#9895A2" fill-opacity=".05" style="mix-blend-mode:multiply" opacity=".52"/>
        <path d="M163.914 159.834c-.058 8.899-20.659 15.974-46.014 15.809-25.356-.165-45.862-7.519-45.805-16.419.058-8.9 20.663-15.97 46.019-15.801 25.356.169 45.858 7.532 45.8 16.411z" fill="#9895A2" fill-opacity=".05" style="mix-blend-mode:multiply" opacity=".52"/>
        <path d="M163.827 159.829c-.057 8.867-20.531 15.921-45.734 15.752-25.203-.169-45.573-7.491-45.516-16.353.058-8.863 20.531-15.913 45.735-15.744 25.203.169 45.557 7.47 45.515 16.345z" fill="#9895A2" fill-opacity=".05" style="mix-blend-mode:multiply" opacity=".52"/>
        <path d="M163.708 159.829c-.062 8.842-20.403 15.846-45.437 15.694-25.035-.152-45.286-7.462-45.228-16.295.058-8.834 20.403-15.851 45.462-15.69 25.06.161 45.261 7.466 45.203 16.291z" fill="#9895A2" fill-opacity=".05" style="mix-blend-mode:multiply" opacity=".53"/>
        <path d="M163.601 159.83c-.058 8.8-20.267 15.796-45.145 15.632-24.878-.165-44.997-7.417-44.94-16.23.058-8.813 20.272-15.788 45.15-15.624 24.878.165 44.993 7.429 44.935 16.222z" fill="#9895A2" fill-opacity=".05" style="mix-blend-mode:multiply" opacity=".53"/>
        <path d="M163.498 159.829c-.058 8.764-20.14 15.739-44.857 15.575-24.717-.165-44.708-7.404-44.634-16.168.074-8.764 20.144-15.731 44.861-15.566 24.717.165 44.688 7.4 44.63 16.159z" fill="#9895A2" fill-opacity=".05" style="mix-blend-mode:multiply" opacity=".54"/>
        <path d="M163.416 159.829c-.058 8.731-20.012 15.678-44.568 15.513-24.557-.165-44.429-7.371-44.38-16.102.05-8.73 20.013-15.656 44.569-15.508 24.557.148 44.416 7.371 44.379 16.097z" fill="#9895A2" fill-opacity=".05" style="mix-blend-mode:multiply" opacity=".54"/>
        <path d="M163.292 159.83c-.062 8.697-19.884 15.615-44.28 15.454-24.396-.16-44.127-7.342-44.086-16.044.041-8.701 19.88-15.607 44.28-15.446 24.4.16 44.139 7.342 44.086 16.036z" fill="#9895A2" fill-opacity=".05" style="mix-blend-mode:multiply" opacity=".54"/>
        <path d="M163.185 159.825c-.058 8.653-19.748 15.562-43.988 15.402-24.239-.161-43.838-7.318-43.78-15.983.057-8.665 19.751-15.549 43.991-15.389 24.239.161 43.834 7.314 43.777 15.97z" fill="#9895A2" fill-opacity=".05" style="mix-blend-mode:multiply" opacity=".55"/>
        <path d="M163.082 159.825c-.058 8.652-19.62 15.5-43.699 15.339-24.078-.16-43.55-7.284-43.493-15.916.058-8.632 19.62-15.492 43.703-15.331 24.083.161 43.547 7.284 43.489 15.908z" fill="#9895A2" fill-opacity=".05" style="mix-blend-mode:multiply" opacity=".55"/>
        <path d="M162.979 159.826c-.058 8.599-19.493 15.438-43.411 15.281-23.917-.156-43.262-7.259-43.204-15.854.058-8.595 19.48-15.434 43.41-15.274 23.931.161 43.263 7.256 43.205 15.847z" fill="#9895A2" fill-opacity=".05" style="mix-blend-mode:multiply" opacity=".55"/>
        <path d="M162.872 159.825c-.054 8.562-19.365 15.381-43.118 15.22-23.753-.16-42.974-7.227-42.916-15.792.057-8.566 19.365-15.369 43.122-15.212 23.757.156 42.969 7.227 42.912 15.784z" fill="#9895A2" fill-opacity=".05" style="mix-blend-mode:multiply" opacity=".56"/>
        <path d="M162.769 159.825c-.058 8.529-19.229 15.319-42.83 15.162-23.6-.156-42.685-7.198-42.636-15.731.05-8.533 19.242-15.306 42.85-15.154 23.609.153 42.673 7.198 42.616 15.723z" fill="#9895A2" fill-opacity=".05" style="mix-blend-mode:multiply" opacity=".56"/>
        <path d="M162.666 159.821c-.058 8.5-19.101 15.245-42.541 15.105-23.44-.141-42.393-7.17-42.34-15.657.054-8.488 19.106-15.245 42.546-15.097 23.44.149 42.393 7.161 42.335 15.649z" fill="#9895A2" fill-opacity=".05" style="mix-blend-mode:multiply" opacity=".56"/>
        <path d="M162.563 159.821c-.058 8.467-18.974 15.2-42.253 15.047-23.28-.152-42.104-7.14-42.047-15.603.058-8.463 18.953-15.191 42.253-15.039 23.3.153 42.1 7.14 42.047 15.595z" fill="#9895A2" fill-opacity=".05" style="mix-blend-mode:multiply" opacity=".57"/>
        <path d="M162.456 159.821c-.054 8.43-18.842 15.142-41.96 14.989-23.119-.152-41.816-7.115-41.759-15.545.058-8.43 18.842-15.13 41.965-14.977 23.122.152 41.812 7.111 41.754 15.533z" fill="#9895A2" fill-opacity=".05" style="mix-blend-mode:multiply" opacity=".57"/>
        <path d="M162.353 159.821c-.054 8.397-18.71 15.08-41.672 14.928-22.962-.153-41.528-7.083-41.47-15.48.058-8.397 18.693-15.071 41.672-14.907 22.978.165 41.527 7.071 41.47 15.459z" fill="#9895A2" fill-opacity=".05" style="mix-blend-mode:multiply" opacity=".57"/>
        <path d="M162.25 159.821c-.058 8.364-18.582 15.018-41.383 14.87-22.802-.148-41.24-7.054-41.202-15.418.037-8.364 18.582-15.014 41.383-14.861 22.801.152 41.256 7.054 41.202 15.409z" fill="#9895A2" fill-opacity=".05" style="mix-blend-mode:multiply" opacity=".58"/>
        <path d="M162.146 159.821c-.057 8.327-18.454 14.96-41.095 14.808-22.64-.153-40.95-7.025-40.893-15.352.058-8.327 18.455-14.952 41.095-14.804 22.641.148 40.947 7.025 40.893 15.348z" fill="#9895A2" fill-opacity=".05" style="mix-blend-mode:multiply" opacity=".58"/>
        <path d="M162.04 159.817c-.054 8.299-18.323 14.903-40.791 14.755-22.467-.148-40.662-7.004-40.608-15.294.053-8.29 18.322-14.891 40.79-14.742 22.467.148 40.666 6.996 40.609 15.281z" fill="#9895A2" fill-opacity=".05" style="mix-blend-mode:multiply" opacity=".58"/>
        <path d="M161.937 159.817c-.054 8.265-18.191 14.833-40.51 14.693-22.32-.14-40.378-6.963-40.32-15.245.057-8.282 18.194-14.833 40.518-14.684 22.323.148 40.365 6.983 40.312 15.236z" fill="#9895A2" fill-opacity=".05" style="mix-blend-mode:multiply" opacity=".59"/>
        <path d="M161.834 159.817c-.058 8.24-18.063 14.783-40.222 14.635-22.158-.149-40.085-6.939-40.032-15.167.054-8.228 18.063-14.771 40.226-14.626 22.162.144 40.081 6.938 40.028 15.158z" fill="#9895A2" fill-opacity=".05" style="mix-blend-mode:multiply" opacity=".59"/>
        <path d="M161.727 159.818c-.054 8.195-17.932 14.721-39.929 14.573-21.998-.149-39.797-6.906-39.74-15.101.058-8.195 17.931-14.713 39.933-14.569 22.002.144 39.777 6.91 39.736 15.097z" fill="#9895A2" fill-opacity=".05" style="mix-blend-mode:multiply" opacity=".59"/>
        <path d="M161.623 159.817c-.053 8.163-17.803 14.66-39.64 14.516-21.837-.144-39.509-6.881-39.451-15.039.058-8.158 17.803-14.655 39.644-14.519 21.842.136 39.501 6.889 39.447 15.042z" fill="#9895A2" fill-opacity=".05" style="mix-blend-mode:multiply" opacity=".6"/>
        <path d="M161.52 159.817c-.053 8.125-17.671 14.602-39.352 14.458-21.68-.144-39.216-6.84-39.163-14.981.054-8.142 17.672-14.594 39.357-14.45 21.684.144 39.212 6.852 39.158 14.973z" fill="#9895A2" fill-opacity=".05" style="mix-blend-mode:multiply" opacity=".6"/>
        <path d="M161.417 159.812c-.053 8.097-17.544 14.545-39.063 14.421-21.52-.123-38.928-6.839-38.87-14.936.057-8.096 17.543-14.532 39.067-14.391 21.524.14 38.92 6.823 38.866 14.906z" fill="#9895A2" fill-opacity=".05" style="mix-blend-mode:multiply" opacity=".6"/>
        <path d="M161.311 159.813c-.054 8.063-17.412 14.483-38.772 14.342-21.359-.14-38.639-6.794-38.585-14.832.053-8.039 17.412-14.475 38.779-14.33 21.367.144 38.623 6.786 38.578 14.82z" fill="#9895A2" fill-opacity=".05" style="mix-blend-mode:multiply" opacity=".61"/>
        <path d="M161.207 159.813c-.053 8.026-17.284 14.421-38.482 14.281-21.199-.141-38.351-6.762-38.298-14.788.054-8.026 17.285-14.421 38.487-14.272 21.203.148 38.347 6.745 38.293 14.779z" fill="#9895A2" fill-opacity=".05" style="mix-blend-mode:multiply" opacity=".61"/>
        <path d="M161.104 159.813c-.053 7.994-17.152 14.363-38.194 14.223-21.042-.14-38.063-6.732-38.009-14.729.054-7.998 17.157-14.351 38.198-14.211 21.042.14 38.059 6.728 38.005 14.717z" fill="#9895A2" fill-opacity=".05" style="mix-blend-mode:multiply" opacity=".61"/>
        <path d="M161.002 159.813c-.054 7.96-17.025 14.301-37.906 14.161-20.882-.14-37.774-6.703-37.72-14.664.053-7.96 17.024-14.293 37.905-14.152 20.881.14 37.77 6.699 37.721 14.655z" fill="#9895A2" fill-opacity=".05" style="mix-blend-mode:multiply" opacity=".62"/>
        <path d="M160.894 159.813c-.049 7.927-16.893 14.239-37.613 14.103-20.721-.136-37.494-6.674-37.432-14.602.062-7.927 16.893-14.235 37.621-14.095 20.729.14 37.474 6.671 37.424 14.594z" fill="#9895A2" fill-opacity=".05" style="mix-blend-mode:multiply" opacity=".62"/>
        <path d="M160.791 159.808c-.053 7.895-16.765 14.186-37.325 14.05-20.56-.136-37.193-6.65-37.14-14.54.054-7.89 16.762-14.173 37.33-14.038 20.568.136 37.189 6.642 37.135 14.528z" fill="#9895A2" fill-opacity=".05" style="mix-blend-mode:multiply" opacity=".62"/>
        <path d="M160.689 159.809c-.054 7.861-16.634 14.124-37.037 14.009-20.403-.116-36.905-6.617-36.851-14.479.053-7.861 16.633-14.111 37.041-13.975 20.407.135 36.896 6.592 36.847 14.445z" fill="#9895A2" fill-opacity=".05" style="mix-blend-mode:multiply" opacity=".63"/>
        <path d="M160.585 159.809c-.053 7.828-16.505 14.062-36.748 13.93-20.242-.131-36.616-6.592-36.563-14.42.054-7.829 16.506-14.054 36.749-13.918 20.242.136 36.612 6.588 36.562 14.408z" fill="#9895A2" fill-opacity=".05" style="mix-blend-mode:multiply" opacity=".63"/>
        <path d="M160.478 159.809c-.049 7.791-16.373 14.009-36.455 13.869-20.082-.141-36.328-6.56-36.258-14.351.07-7.791 16.374-14.009 36.46-13.861 20.086.149 36.307 6.556 36.253 14.343z" fill="#9895A2" fill-opacity=".05" style="mix-blend-mode:multiply" opacity=".63"/>
        <path d="M160.375 159.809c-.054 7.758-16.246 13.943-36.167 13.811-19.922-.132-36.04-6.531-35.986-14.289.053-7.758 16.246-13.934 36.171-13.803 19.925.132 36.031 6.527 35.982 14.281z" fill="#9895A2" fill-opacity=".05" style="mix-blend-mode:multiply" opacity=".64"/>
        <path d="M160.273 159.809c-.054 7.725-16.115 13.881-35.879 13.749-19.765-.132-35.747-6.502-35.698-14.227.05-7.726 16.115-13.873 35.883-13.741 19.769.132 35.743 6.498 35.694 14.219z" fill="#9895A2" fill-opacity=".05" style="mix-blend-mode:multiply" opacity=".64"/>
        <path d="M160.165 159.804c-.049 7.693-15.982 13.828-35.586 13.696-19.604-.132-35.458-6.477-35.409-14.165.05-7.689 15.986-13.815 35.594-13.683 19.609.131 35.455 6.468 35.401 14.152z" fill="#9895A2" fill-opacity=".05" style="mix-blend-mode:multiply" opacity=".64"/>
        <path d="M160.062 159.804c-.049 7.659-15.854 13.766-35.298 13.634-19.443-.132-35.17-6.44-35.1-14.1.07-7.659 15.859-13.753 35.306-13.625 19.448.128 35.15 6.44 35.092 14.091z" fill="#9895A2" fill-opacity=".05" style="mix-blend-mode:multiply" opacity=".65"/>
        <path d="M159.959 159.805c-.05 7.626-15.723 13.704-35.022 13.576-19.299-.128-34.861-6.415-34.816-14.038.046-7.622 15.723-13.695 35.022-13.568 19.299.128 34.865 6.416 34.816 14.03z" fill="#9895A2" fill-opacity=".05" style="mix-blend-mode:multiply" opacity=".65"/>
        <path d="M159.856 159.804c-.054 7.59-15.595 13.642-34.721 13.519-19.126-.124-34.61-6.386-34.54-13.98.07-7.594 15.595-13.634 34.721-13.506 19.126.128 34.589 6.382 34.54 13.967z" fill="#9895A2" fill-opacity=".05" style="mix-blend-mode:multiply" opacity=".66"/>
        <path d="M159.748 159.805c-.049 7.556-15.463 13.597-34.428 13.456-18.966-.14-34.305-6.353-34.251-13.913.053-7.561 15.463-13.597 34.432-13.449 18.969.148 34.297 6.354 34.247 13.906z" fill="#9895A2" fill-opacity=".05" style="mix-blend-mode:multiply" opacity=".66"/>
        <path d="M159.646 159.805c-.05 7.523-15.336 13.522-34.136 13.399-18.801-.124-34.012-6.329-33.963-13.852.05-7.524 15.335-13.515 34.144-13.391 18.809.123 34.017 6.324 33.955 13.844z" fill="#9895A2" fill-opacity=".05" style="mix-blend-mode:multiply" opacity=".66"/>
        <path d="M159.543 159.8c-.05 7.491-15.204 13.465-33.852 13.342-18.648-.124-33.724-6.296-33.674-13.787.05-7.49 15.207-13.456 33.855-13.333 18.649.124 33.72 6.296 33.671 13.778z" fill="#9895A2" fill-opacity=".05" style="mix-blend-mode:multiply" opacity=".67"/>
        <path d="M159.44 159.8c-.054 7.458-15.076 13.407-33.563 13.284-18.488-.124-33.436-6.271-33.374-13.729.062-7.457 15.076-13.395 33.567-13.271 18.492.124 33.419 6.267 33.37 13.716z" fill="#9895A2" fill-opacity=".05" style="mix-blend-mode:multiply" opacity=".67"/>
        <path d="M159.332 159.801c-.049 7.416-14.944 13.345-33.27 13.221-18.327-.123-33.147-6.238-33.102-13.662.045-7.425 14.948-13.333 33.275-13.214 18.327.12 33.147 6.238 33.097 13.655z" fill="#9895A2" fill-opacity=".05" style="mix-blend-mode:multiply" opacity=".67"/>
        <path d="M159.229 159.801c-.049 7.392-14.832 13.284-32.961 13.164-18.129-.119-32.859-6.209-32.81-13.596.05-7.388 14.833-13.276 32.987-13.156 18.154.119 32.85 6.205 32.784 13.588z" fill="#9895A2" fill-opacity=".05" style="mix-blend-mode:multiply" opacity=".68"/>
        <path d="M159.127 159.8c-.05 7.355-14.685 13.226-32.694 13.107-18.01-.12-32.55-6.181-32.517-13.54.033-7.358 14.684-13.217 32.694-13.098 18.009.12 32.566 6.181 32.517 13.531z" fill="#9895A2" fill-opacity=".05" style="mix-blend-mode:multiply" opacity=".68"/>
        <path d="M159.019 159.801c-.045 7.321-14.552 13.164-32.401 13.044-17.849-.119-32.278-6.151-32.228-13.477.05-7.326 14.552-13.156 32.405-13.036 17.853.119 32.274 6.151 32.224 13.469z" fill="#9895A2" fill-opacity=".05" style="mix-blend-mode:multiply" opacity=".68"/>
        <path d="M158.917 159.796c-.05 7.293-14.421 13.107-32.113 12.991-17.692-.115-31.99-6.122-31.94-13.415.05-7.293 14.421-13.094 32.117-12.979 17.696.116 31.985 6.123 31.936 13.403z" fill="#9895A2" fill-opacity=".05" style="mix-blend-mode:multiply" opacity=".69"/>
        <path d="M158.813 159.796c-.049 7.256-14.297 13.045-31.824 12.929-17.527-.115-31.7-6.094-31.651-13.349.049-7.256 14.297-13.037 31.828-12.921 17.532.115 31.717 6.094 31.647 13.341z" fill="#9895A2" fill-opacity=".05" style="mix-blend-mode:multiply" opacity=".69"/>
        <path d="M158.71 159.797c-.049 7.227-14.165 12.995-31.552 12.871-17.388-.123-31.396-6.056-31.347-13.287.05-7.231 14.165-12.979 31.536-12.864 17.371.116 31.409 6.086 31.363 13.28z" fill="#9895A2" fill-opacity=".05" style="mix-blend-mode:multiply" opacity=".69"/>
        <path d="M158.603 159.796c-.045 7.19-14.033 12.925-31.243 12.81-17.21-.115-31.104-6.036-31.075-13.222.029-7.185 14.038-12.917 31.248-12.805 17.21.111 31.12 6.023 31.07 13.217z" fill="#9895A2" fill-opacity=".05" style="mix-blend-mode:multiply" opacity=".7"/>
        <path d="M158.5 159.796c-.045 7.153-13.906 12.863-30.955 12.752-17.049-.111-30.831-6.007-30.786-13.164.045-7.157 13.906-12.855 30.959-12.744 17.054.112 30.832 6.008 30.782 13.156z" fill="#9895A2" fill-opacity=".05" style="mix-blend-mode:multiply" opacity=".7"/>
        <path d="M158.397 159.793c-.049 7.124-13.778 12.809-30.667 12.694-16.888-.115-30.543-5.974-30.49-13.098.054-7.124 13.779-12.797 30.672-12.686 16.893.111 30.53 5.978 30.485 13.09z" fill="#9895A2" fill-opacity=".05" style="mix-blend-mode:multiply" opacity=".7"/>
        <path d="M158.294 159.792c-.049 7.091-13.646 12.748-30.378 12.637-16.732-.111-30.255-5.95-30.21-13.036.046-7.087 13.651-12.736 30.383-12.625 16.732.111 30.251 5.946 30.205 13.024z" fill="#9895A2" fill-opacity=".05" style="mix-blend-mode:multiply" opacity=".71"/>
        <path d="M158.188 159.792c-.046 7.054-13.514 12.686-30.078 12.579-16.563-.107-29.966-5.921-29.917-12.975.05-7.053 13.515-12.677 30.078-12.566 16.563.111 29.966 5.916 29.917 12.962z" fill="#9895A2" fill-opacity=".05" style="mix-blend-mode:multiply" opacity=".71"/>
    </g>
    <path d="M211 86.231c0 45.655-37.009 82.66-82.66 82.66-45.65 0-82.66-37.005-82.66-82.66 0-45.655 37.01-82.66 82.677-82.66 45.667 0 82.643 37.01 82.643 82.66z" fill="url(#a)"/>
    <path d="M210.998 85.939a82.09 82.09 0 0 1-6.123 31.7 82.353 82.353 0 0 1-17.878 26.92 82.67 82.67 0 0 1-26.889 18.006 82.912 82.912 0 0 1-63.535 0 82.671 82.671 0 0 1-26.889-18.006 82.355 82.355 0 0 1-17.878-26.92 82.116 82.116 0 0 1-6.123-31.7c0-45.493 37.022-82.368 82.655-82.368 45.634 0 82.66 36.875 82.66 82.368z" fill="url(#b)"/>
    <path style="mix-blend-mode:multiply" d="M118.328 175.209c44.881-7.004 75.586-49.064 68.582-93.945-7.004-44.88-49.065-75.586-93.946-68.582-44.88 7.004-75.585 49.065-68.581 93.946 7.004 44.88 49.065 75.585 93.945 68.581z" fill="url(#c)" fill-opacity=".7"/>
    <path style="mix-blend-mode:screen" d="M89.784 20.172c6.18-15.192 32.248-18.953 58.218-8.377 25.97 10.577 42.026 31.446 35.846 46.64-6.18 15.196-32.245 18.954-58.219 8.377-25.973-10.576-42.026-31.45-35.845-46.64z" fill="url(#d)"/>
    <path style="mix-blend-mode:screen" d="M132.353 19.442c2.295-7.042 12.406-10.058 22.583-6.74 10.177 3.316 16.567 11.709 14.272 18.75-2.294 7.042-12.385 10.058-22.582 6.74-10.198-3.316-16.584-11.713-14.273-18.75z" fill="url(#e)"/>
    <path style="mix-blend-mode:screen" d="M141.579 35.791c3.498-10.733 18.916-15.33 34.432-10.275 15.517 5.055 25.261 17.857 21.763 28.59-3.498 10.733-18.916 15.335-34.432 10.276-15.517-5.06-25.257-17.857-21.763-28.59z" fill="url(#f)"/>
    <path style="mix-blend-mode:screen" d="M141.579 35.791c3.498-10.733 18.916-15.33 34.432-10.275 15.517 5.055 25.261 17.857 21.763 28.59-3.498 10.733-18.916 15.335-34.432 10.276-15.517-5.06-25.257-17.857-21.763-28.59z" fill="url(#g)"/>
    <path style="mix-blend-mode:screen" d="M163.028 42.128c1.236-3.807 6.704-5.435 12.2-3.643 5.496 1.793 8.953 6.325 7.713 10.132-1.24 3.807-6.703 5.43-12.2 3.638-5.496-1.792-8.949-6.329-7.713-10.127z" fill="url(#h)"/>
    <defs>
        <linearGradient id="a" x1="128.34" y1="162.755" x2="128.34" y2="-2.569" gradientUnits="userSpaceOnUse">
            <stop stop-color="#8F8E92"/>
            <stop offset=".16" stop-color="#A9A7AD"/>
            <stop offset=".53" stop-color="#C9C8CD"/>
            <stop offset=".83" stop-color="#E1E0E3"/>
            <stop offset="1" stop-color="#E4E3E7"/>
        </linearGradient>
        <radialGradient id="b" cx="0" cy="0" r="1" gradientUnits="userSpaceOnUse" gradientTransform="matrix(176.708 0 0 176.083 132.348 2.434)">
            <stop offset=".01" stop-color="#E2E1E4"/>
            <stop offset="1" stop-color="#9895A2"/>
        </radialGradient>
        <radialGradient id="c" cx="0" cy="0" r="1" gradientUnits="userSpaceOnUse" gradientTransform="translate(104.769 93.598) scale(90.6279)">
            <stop offset=".04" stop-color="#303030"/>
            <stop offset=".33" stop-color="#7C7C7C"/>
            <stop offset=".73" stop-color="#EDEDED"/>
            <stop offset=".81" stop-color="#F4F4F4"/>
            <stop offset=".97" stop-color="#fff"/>
        </radialGradient>
        <radialGradient id="d" cx="0" cy="0" r="1" gradientUnits="userSpaceOnUse" gradientTransform="rotate(-157.751 74.388 6.664) scale(40.2714 23.557)">
            <stop offset=".23" stop-color="#E6E6E6"/>
            <stop offset=".33" stop-color="#BDBDBD"/>
            <stop offset=".51" stop-color="#7A7A7A"/>
            <stop offset=".68" stop-color="#464646"/>
            <stop offset=".82" stop-color="#202020"/>
            <stop offset=".93" stop-color="#090909"/>
            <stop offset="1"/>
        </radialGradient>
        <radialGradient id="e" cx="0" cy="0" r="1" gradientUnits="userSpaceOnUse" gradientTransform="matrix(-14.6318 -4.7694 3.29577 -10.1109 151.597 25.223)">
            <stop offset=".13" stop-color="#E6E6E6"/>
            <stop offset=".22" stop-color="#D7D7D7"/>
            <stop offset=".39" stop-color="#B1B1B1"/>
            <stop offset=".62" stop-color="#727272"/>
            <stop offset=".91" stop-color="#1D1D1D"/>
            <stop offset="1"/>
        </radialGradient>
        <radialGradient id="f" cx="0" cy="0" r="1" gradientUnits="userSpaceOnUse" gradientTransform="matrix(1723.32 0 0 1285.39 15771.1 8159.54)">
            <stop offset=".13" stop-color="#E6E6E6"/>
            <stop offset=".22" stop-color="#D7D7D7"/>
            <stop offset=".39" stop-color="#B1B1B1"/>
            <stop offset=".62" stop-color="#727272"/>
            <stop offset=".91" stop-color="#1D1D1D"/>
            <stop offset="1"/>
        </radialGradient>
        <radialGradient id="g" cx="0" cy="0" r="1" gradientUnits="userSpaceOnUse" gradientTransform="matrix(1723.32 0 0 1285.39 15771.1 8159.54)">
            <stop offset=".13" stop-color="#E6E6E6"/>
            <stop offset=".22" stop-color="#D7D7D7"/>
            <stop offset=".39" stop-color="#B1B1B1"/>
            <stop offset=".62" stop-color="#727272"/>
            <stop offset=".91" stop-color="#1D1D1D"/>
            <stop offset="1"/>
        </radialGradient>
        <radialGradient id="h" cx="0" cy="0" r="1" gradientUnits="userSpaceOnUse" gradientTransform="matrix(216.408 0 0 161.413 5641.57 2928.88)">
            <stop offset=".13" stop-color="#E6E6E6"/>
            <stop offset=".22" stop-color="#D7D7D7"/>
            <stop offset=".39" stop-color="#B1B1B1"/>
            <stop offset=".62" stop-color="#727272"/>
            <stop offset=".91" stop-color="#1D1D1D"/>
            <stop offset="1"/>
        </radialGradient>
    </defs>
</svg>
