<svg width="128" height="67" viewBox="0 0 128 67" fill="none" xmlns="http://www.w3.org/2000/svg">
    <path fill-rule="evenodd" clip-rule="evenodd" d="M10.555 0v5.141c0 1.634-1.703 2.485-2.724 2.485V3.234C7.83.784 9.533 0 10.555 0zM0 13.142V8.205c1.021 0 2.724.817 2.724 3.235v7.626C1.702 19.066 0 18.215 0 16.581v-3.439zm27.578 9.022h13.006c.749 0 1.395.102 1.702.442.34.34.579.817.579 1.566v3.439H39.12v-1.362c0-.206-.102-.335-.196-.455l-.043-.056c-.102-.136-.34-.17-.578-.17h-4.256v6.47h7.15v3.404h-7.15v9.192H29.96V25.568h-2.383v-3.404zm22.13 0h-3.404v3.405h3.404v-3.404zm.545 18.862c-.102-.136-.205-.34-.205-.545v-9.976c0-.748-.136-1.327-.476-1.668-.34-.34-.851-.544-1.6-.544H44.26v3.404h1.157c.178 0 .279.078.392.166l.05.038c.103.103.103.34.103.58v9.907c0 .749.238 1.362.579 1.702.34.34.953.545 1.702.545h3.847V41.23h-1.294c-.204 0-.408-.102-.544-.204zm27.373-12.461a6.833 6.833 0 0 1 2.247 1.634c.613.715 1.056 1.532 1.396 2.52.307.919.477 1.906.477 2.996v.442c0 .065-.008.136-.016.212-.009.085-.018.175-.018.265 0 .096-.01.181-.02.255a1.267 1.267 0 0 0-.014.154c-.034.102-.034.17-.034.17H70.476c.069.68.273 1.328.545 1.872.307.545.647.988 1.09 1.362.442.34.953.647 1.498.817.544.17 1.123.273 1.736.273.51-.034 1.022-.068 1.464-.204a6.072 6.072 0 0 0 1.26-.443c.322-.147.594-.318.837-.471l.116-.074c.211-.132.381-.264.51-.364h.001l.056-.043c.016-.013.031-.025.046-.035.17-.137.238-.205.238-.205l1.669 2.792s-.103.068-.307.238c-.204.17-.476.375-.85.613-.375.239-.852.477-1.363.715-.544.239-1.123.443-1.804.613-.647.136-1.396.238-2.213.238-1.328 0-2.52-.238-3.61-.68-1.055-.443-1.974-1.056-2.723-1.84a8.303 8.303 0 0 1-1.736-2.689 8.717 8.717 0 0 1-.613-3.268c0-1.26.204-2.417.613-3.439a8.062 8.062 0 0 1 1.702-2.69 7.22 7.22 0 0 1 2.587-1.736c1.022-.409 2.111-.613 3.337-.613 1.158.034 2.18.204 3.064.613zm-6.264 4.086c-.375.476-.647 1.09-.783 1.77h7.013c-.034-.68-.17-1.26-.442-1.736a3.24 3.24 0 0 0-1.09-1.158 2.83 2.83 0 0 0-1.498-.409c-.68 0-1.294.137-1.838.409-.545.238-.988.647-1.362 1.124zm31.53 8.149l-.022-.016c-.118-.085-.233-.167-.322-.404l-6.673-18.215h-4.358L84.81 40.414c-.102.272-.204.374-.375.476-.12.072-.255.06-.408.046a2.275 2.275 0 0 0-.204-.012h-.41v3.745h2.452c.511 0 .954-.102 1.26-.204.34-.102.579-.306.817-.579.204-.272.409-.613.545-1.09l1.396-3.949h7.626l1.396 3.916c.17.476.34.817.579 1.09.204.272.477.476.817.612.341.102.749.204 1.294.204h2.621V40.89h-.646c-.066 0-.127.002-.184.003-.207.005-.356.01-.463-.07l-.016-.012-.015-.011zm-12.056-5.357l1.94-5.686c.103-.306.205-.681.307-1.056.102-.374.204-.748.273-1.123.102-.34.17-.681.204-.92.034-.238.068-.408.068-.408h.068s.034.17.068.375c.068.238.136.544.204.885.051.253.12.525.195.817l.078.306.076.285c.077.288.154.575.23.805l1.94 5.72h-5.65zm25.705-7.287c.136.034.239.034.239.034v.68c0 .124.003.25.007.377.031 1.137.065 2.389-2.323 3.062-.442.137-.851.34-1.259.613a4.004 4.004 0 0 0-1.09 1.056c-.306.408-.579.919-.749 1.532-.102.408-.204.817-.272 1.26a8.532 8.532 0 0 0-.102 1.361v6.503h-4.086V32.48c0-.239-.034-.477-.136-.58-.102-.101-.204-.203-.443-.203h-1.123v-3.405h3.507c.715 0 1.293.204 1.668.51.34.307.579.852.579 1.533v.919c0 .175-.023.351-.042.5-.014.113-.026.21-.026.283 0 .17-.069.306-.069.306h.069c.238-1.021.612-1.532 1.089-2.145.511-.612 1.09-1.157 1.77-1.532a5.122 5.122 0 0 1 2.282-.544c.204 0 .374 0 .51.034zm11.338 12.971c-.136.034-.272.034-.511.034-.272 0-.579-.034-.953-.102a3.094 3.094 0 0 1-1.056-.408c-.34-.205-.578-.511-.817-.92-.238-.408-.306-.953-.306-1.6v-6.434h3.745v-3.405h-3.745v-4.426h-4.086v4.426h-2.042v3.404h2.042v6.912c0 .885.102 1.668.341 2.35.238.646.511 1.19.885 1.667.375.443.817.818 1.26 1.09.476.272.953.477 1.464.647.51.136.987.238 1.464.306l.178.013c.402.03.759.055 1.116.055.208 0 .374-.01.522-.02a5.22 5.22 0 0 1 .329-.014c.238-.034.272-.034.272-.034v-3.567c.014-.003.019-.005.019-.007h-.019v.007a4.029 4.029 0 0 1-.098.025h-.002l-.002.001zM65.369 28.19s-.17 0-.306-.034c-.136-.034-.34-.034-.545-.034-.817 0-1.6.204-2.28.544a5.88 5.88 0 0 0-1.771 1.532l-.08.108c-.442.598-.819 1.107-1.044 2.071h-.068s-.034-.136-.034-.306c0-.073-.006-.17-.013-.282-.01-.15-.02-.326-.02-.501v-.953c0-.681-.137-1.226-.477-1.533-.341-.34-.818-.51-1.533-.51h-3.745v3.404h1.328c.238 0 .409.103.545.205.102.102.204.34.204.579v12.154h4.086v-6.503c0-.12-.002-.24-.005-.36-.006-.352-.012-.696.039-1.002.068-.442.136-.85.238-1.26.17-.612.443-1.123.75-1.531a4 4 0 0 1 1.089-1.056 5.193 5.193 0 0 1 1.327-.613c2.432-.686 2.409-1.971 2.388-3.124-.002-.106-.004-.211-.004-.314v-.681h-.068zM6.844 23.084c.817-8.341 5.482-13.925 12.393-14.538l1.532-.136v25.467c0 6.911-1.872 11.167-11.371 11.167-2.69 0-4.903-.613-6.503-1.77l-.443-.307-.034-.034-.102-.102-.34-.34-.068-.069c-.051-.05-.094-.11-.137-.17a1.328 1.328 0 0 0-.136-.17c-.034-.034 0-.034 0-.034C.544 40.686 0 38.848 0 36.702V21.144h1.328c1.566 0 3.745.647 5.515 1.94zm-4.085 1.235c1.69.447 3.375 1.5 4.051 3.089v9.67c0 1.19-.238 2.28-.578 2.995-.017.034-.035.06-.052.085a.748.748 0 0 0-.05.085.258.258 0 0 0-.069.137.177.177 0 0 0-.034.05c-.008.018-.017.035-.034.052-.017.017-.025.034-.034.05-.008.018-.017.035-.034.052l-.068.068-.068.068c-.017 0-.026.009-.034.017-.009.009-.017.017-.034.017s-.026.009-.034.017c-.009.009-.017.017-.034.017s-.026.009-.034.017c-.009.009-.017.017-.034.017-.137.068-.273.068-.375.068h-.102a.888.888 0 0 1-.375-.102c-.272-.102-1.26-.92-1.634-2.043a7.717 7.717 0 0 1-.34-2.145V24.318zM9.465 42.15c7.354 0 8.58-2.451 8.58-8.273V11.678c-5.448 1.294-8.512 6.537-8.512 14.13v11.269c0 1.124-.102 2.792-.749 4.188a2.08 2.08 0 0 0-.085.204c-.026.068-.051.136-.085.204 0 .017-.009.026-.017.034-.009.009-.017.017-.017.035-.068.136-.136.272-.205.374.34.034.715.034 1.09.034z" fill="#9F9CA9"/>
</svg>
