<svg width="178" height="67" viewBox="0 0 178 67" fill="none" xmlns="http://www.w3.org/2000/svg">
    <g clip-path="url(#a)" fill="#9F9CA9">
        <path d="M52.465 19h4.503v8.388h.143a4.543 4.543 0 0 1 1.859-1.313c.715-.365 1.572-.51 2.502-.51 2.001 0 3.574.729 4.717 2.188 1.073 1.385 1.573 3.573 1.573 6.564 0 3.136-.715 5.543-2.216 7.148-1.573 1.677-3.645 2.48-6.29 2.48-1.501 0-2.788-.146-4.003-.365-1.215-.292-2.144-.51-2.788-.875V19zm7.649 10.43c-.787 0-1.43.219-2.002.657-.5.437-.858 1.02-1.144 1.896v7.585c.358.22.715.365 1.144.438.429 0 .93.073 1.358.073 1.215 0 2.145-.438 2.788-1.386.643-.875.93-2.26.93-4.23 0-3.355-1.002-5.033-3.074-5.033zm15.082-3.428v9.92c0 1.458.143 2.48.5 3.136.286.583.93.948 1.93.948.858 0 1.501-.292 2.073-.802.572-.51 1-1.167 1.286-1.897V26.002h4.432v12.18c0 .949.072 1.897.143 2.845.072.875.215 1.75.429 2.48h-3.36l-.786-2.626H81.7a6.64 6.64 0 0 1-2.216 2.261c-.929.584-2.072.876-3.288.876-.929 0-1.644-.146-2.358-.365-.715-.219-1.287-.657-1.716-1.167-.429-.51-.786-1.24-1.072-2.188-.215-.875-.358-2.042-.358-3.428V26.002h4.504zm13.223 13.64l6.79-8.316 1.716-1.458H88.42v-3.866h13.51v3.866l-6.72 8.388-1.715 1.385h8.435v3.866h-13.51v-3.866zm15.726 0l6.79-8.316 1.716-1.458h-8.506v-3.866h13.438v3.866l-6.648 8.388-1.715 1.385h8.363v3.866h-13.438v-3.866zm29.02-13.64l3.145 8.971.643 2.918h.143l.429-2.99 2.216-8.899h4.074l-5.289 17.65h-3.288l-3.431-9.773-.5-2.188h-.143l-.429 2.188-3.288 9.774h-3.36l-5.575-17.651h4.86l2.502 8.753.429 3.136h.143l.572-3.136 2.859-8.753h3.288zm26.09 15.973c-.715.584-1.644 1.094-2.788 1.46-1.215.364-2.43.583-3.788.583-2.788 0-4.789-.876-6.076-2.48-1.286-1.678-1.93-3.939-1.93-6.783 0-3.064.715-5.398 2.145-6.93 1.501-1.531 3.502-2.334 6.075-2.334.858 0 1.716.146 2.574.365.786.219 1.572.657 2.215 1.167.644.51 1.144 1.24 1.501 2.188.429.876.572 2.043.572 3.355 0 .511 0 1.021-.071 1.605l-.215 1.75h-10.293c0 1.46.429 2.553 1.073 3.283.714.802 1.787 1.167 3.288 1.167.929 0 1.787-.146 2.501-.438.787-.292 1.358-.583 1.716-.875l1.501 2.917zm-6.433-12.837c-1.144 0-2.002.365-2.573 1.094-.572.73-.858 1.678-1.001 2.845h6.361c.143-1.24-.071-2.261-.571-2.917-.429-.657-1.215-1.022-2.216-1.022zM162.9 19h4.504v8.388h.142c.501-.51 1.073-1.021 1.859-1.313.715-.365 1.572-.51 2.502-.51 2.073 0 3.645.729 4.717 2.188 1.072 1.385 1.644 3.573 1.644 6.564 0 3.136-.786 5.543-2.287 7.148-1.573 1.677-3.645 2.48-6.29 2.48a22.7 22.7 0 0 1-4.003-.365c-1.215-.292-2.144-.51-2.788-.875V19zm7.72 10.43c-.858 0-1.501.219-2.073.657-.5.437-.858 1.02-1.143 1.896v7.585a3.69 3.69 0 0 0 1.143.438c.429 0 .929.073 1.358.073 1.215 0 2.145-.438 2.788-1.386.643-.875.929-2.26.929-4.23 0-3.355-1.001-5.033-3.002-5.033z"/>
        <path d="M0 29.721h5.504v-5.907h4.074v5.907h5.575v3.94H9.578v5.98H5.504v-5.98H0v-3.94zm18.084 0h5.504v-5.907h4.074v5.907h5.576v3.94h-5.576v5.98h-4.074v-5.98h-5.504v-3.94z"/>
    </g>
    <defs>
        <clipPath id="a">
            <path fill="#fff" d="M0 0h178v67H0z"/>
        </clipPath>
    </defs>
</svg>
