<svg width="80" height="72" viewBox="0 0 80 72" fill="none" xmlns="http://www.w3.org/2000/svg">
    <g style="mix-blend-mode:multiply" opacity=".96">
        <path d="M68.07 60.64c-.036 5.282-15.22 9.462-33.918 9.337C15.455 69.852.324 65.473.36 60.192c.036-5.282 15.22-9.46 33.92-9.336 18.699.125 33.825 4.504 33.79 9.784z" fill="#9895A2" fill-opacity=".05" style="mix-blend-mode:multiply" opacity=".01"/>
        <path d="M68.03 60.64c-.035 5.27-15.17 9.439-33.808 9.315C15.586 69.832.505 65.462.54 60.193c.034-5.269 15.18-9.437 33.81-9.313 18.63.123 33.716 4.492 33.68 9.76z" fill="#9895A2" fill-opacity=".05" style="mix-blend-mode:multiply" opacity=".01"/>
        <path d="M67.99 60.64c-.034 5.257-15.122 9.415-33.697 9.292C15.717 69.808.684 65.45.722 60.193c.037-5.256 15.123-9.413 33.699-9.29 18.575.123 33.603 4.482 33.57 9.737z" fill="#9895A2" fill-opacity=".05" style="mix-blend-mode:multiply" opacity=".01"/>
        <path d="M67.951 60.64c-.034 5.243-15.073 9.392-33.586 9.27C15.85 69.788.865 65.439.898 60.203c.035-5.237 15.074-9.392 33.587-9.269 18.513.124 33.5 4.463 33.466 9.706z" fill="#9895A2" fill-opacity=".05" style="mix-blend-mode:multiply" opacity=".02"/>
        <path d="M67.912 60.64c-.036 5.23-15.023 9.373-33.479 9.248-18.455-.125-33.39-4.462-33.355-9.686.035-5.224 15.025-9.373 33.48-9.246 18.456.127 33.389 4.454 33.354 9.684z" fill="#9895A2" fill-opacity=".05" style="mix-blend-mode:multiply" opacity=".02"/>
        <path d="M67.871 60.638c-.034 5.22-14.973 9.348-33.367 9.227-18.395-.122-33.274-4.45-33.245-9.667.03-5.218 14.974-9.346 33.37-9.225 18.396.122 33.277 4.45 33.242 9.665z" fill="#9895A2" fill-opacity=".05" style="mix-blend-mode:multiply" opacity=".02"/>
        <path d="M67.832 60.639c-.034 5.206-14.925 9.324-33.258 9.204-18.334-.12-33.17-4.438-33.135-9.64.034-5.202 14.924-9.323 33.26-9.201 18.335.121 33.167 4.433 33.133 9.637z" fill="#9895A2" fill-opacity=".05" style="mix-blend-mode:multiply" opacity=".03"/>
        <path d="M67.793 60.638c-.034 5.193-14.876 9.303-33.149 9.181-18.272-.122-33.06-4.427-33.025-9.617.034-5.19 14.876-9.3 33.149-9.179 18.272.122 33.06 4.423 33.025 9.615z" fill="#9895A2" fill-opacity=".05" style="mix-blend-mode:multiply" opacity=".03"/>
        <path d="M67.752 60.639c-.034 5.18-14.824 9.279-33.038 9.159-18.213-.12-32.95-4.416-32.916-9.595.034-5.179 14.826-9.278 33.04-9.158 18.213.12 32.949 4.414 32.914 9.594z" fill="#9895A2" fill-opacity=".05" style="mix-blend-mode:multiply" opacity=".03"/>
        <path d="M67.714 60.638c-.035 5.168-14.777 9.256-32.929 9.136-18.152-.12-32.841-4.404-32.813-9.571.028-5.168 14.778-9.256 32.93-9.136 18.152.12 32.846 4.404 32.812 9.571z" fill="#9895A2" fill-opacity=".05" style="mix-blend-mode:multiply" opacity=".04"/>
        <path d="M67.674 60.638c-.034 5.155-14.728 9.234-32.82 9.114-18.09-.12-32.726-4.395-32.697-9.55.03-5.155 14.728-9.234 32.821-9.113 18.093.12 32.73 4.394 32.696 9.549z" fill="#9895A2" fill-opacity=".05" style="mix-blend-mode:multiply" opacity=".04"/>
        <path d="M67.635 60.636c-.034 5.143-14.684 9.217-32.71 9.094C16.9 69.606 2.303 65.346 2.337 60.2c.034-5.145 14.684-9.216 32.712-9.09 18.027.127 32.62 4.385 32.586 9.526z" fill="#9895A2" fill-opacity=".05" style="mix-blend-mode:multiply" opacity=".04"/>
        <path d="M67.595 60.637c-.033 5.13-14.628 9.189-32.6 9.07-17.97-.119-32.511-4.374-32.478-9.501.032-5.127 14.63-9.187 32.602-9.06 17.973.126 32.51 4.37 32.476 9.491z" fill="#9895A2" fill-opacity=".05" style="mix-blend-mode:multiply" opacity=".05"/>
        <path d="M67.556 60.637c-.035 5.116-14.58 9.166-32.493 9.048-17.914-.119-32.4-4.362-32.365-9.483.034-5.12 14.58-9.165 32.493-9.046 17.913.119 32.4 4.36 32.365 9.48z" fill="#9895A2" fill-opacity=".05" style="mix-blend-mode:multiply" opacity=".05"/>
        <path d="M67.517 60.637c-.035 5.104-14.528 9.144-32.38 9.025-17.853-.119-32.294-4.35-32.26-9.459.035-5.11 14.529-9.143 32.381-9.025 17.852.12 32.291 4.356 32.259 9.46z" fill="#9895A2" fill-opacity=".05" style="mix-blend-mode:multiply" opacity=".05"/>
        <path d="M67.478 60.637c-.035 5.091-14.483 9.12-32.271 9.003-17.789-.117-32.184-4.34-32.142-9.437.042-5.097 14.481-9.118 32.271-9.001 17.79.117 32.174 4.344 32.142 9.435z" fill="#9895A2" fill-opacity=".05" style="mix-blend-mode:multiply" opacity=".06"/>
        <path d="M67.437 60.635c-.033 5.079-14.431 9.098-32.16 8.981-17.73-.117-32.074-4.327-32.04-9.406.034-5.078 14.433-9.096 32.165-8.979 17.732.117 32.07 4.327 32.035 9.404z" fill="#9895A2" fill-opacity=".05" style="mix-blend-mode:multiply" opacity=".06"/>
        <path d="M67.398 60.635c-.033 5.066-14.383 9.076-32.051 8.96-17.668-.118-31.97-4.319-31.93-9.383.038-5.065 14.382-9.07 32.052-8.958 17.67.113 31.957 4.317 31.929 9.381z" fill="#9895A2" fill-opacity=".05" style="mix-blend-mode:multiply" opacity=".07"/>
        <path d="M67.36 60.636c-.035 5.053-14.335 9.06-31.943 8.935-17.607-.125-31.854-4.305-31.82-9.357.032-5.052 14.334-9.06 31.942-8.936 17.61.125 31.853 4.306 31.82 9.358z" fill="#9895A2" fill-opacity=".05" style="mix-blend-mode:multiply" opacity=".07"/>
        <path d="M67.32 60.635c-.034 5.04-14.286 9.03-31.832 8.914-17.546-.116-31.745-4.294-31.712-9.336.033-5.04 14.286-9.027 31.832-8.915 17.546.113 31.745 4.298 31.712 9.337z" fill="#9895A2" fill-opacity=".05" style="mix-blend-mode:multiply" opacity=".07"/>
        <path d="M67.279 60.635c-.033 5.035-14.234 9.008-31.721 8.892-17.487-.116-31.636-4.285-31.603-9.312.033-5.027 14.236-9.006 31.723-8.89 17.487.115 31.635 4.283 31.601 9.31z" fill="#9895A2" fill-opacity=".05" style="mix-blend-mode:multiply" opacity=".08"/>
        <path d="M67.24 60.635c-.033 5.015-14.186 8.984-31.612 8.869-17.426-.116-31.526-4.273-31.493-9.287.033-5.015 14.187-8.984 31.613-8.869 17.426.116 31.522 4.273 31.492 9.287z" fill="#9895A2" fill-opacity=".05" style="mix-blend-mode:multiply" opacity=".08"/>
        <path d="M67.2 60.634c-.033 4.998-14.137 8.962-31.502 8.848-17.365-.114-31.416-4.262-31.383-9.264.032-5.002 14.136-8.96 31.502-8.847 17.367.115 31.417 4.262 31.384 9.263z" fill="#9895A2" fill-opacity=".05" style="mix-blend-mode:multiply" opacity=".08"/>
        <path d="M67.16 60.634c-.032 4.99-14.087 8.94-31.39 8.824-17.305-.115-31.308-4.257-31.274-9.24.035-4.983 14.088-8.937 31.4-8.823 17.312.114 31.3 4.25 31.265 9.239z" fill="#9895A2" fill-opacity=".05" style="mix-blend-mode:multiply" opacity=".09"/>
        <path d="M67.122 60.634c-.033 4.977-14.038 8.917-31.283 8.803-17.244-.114-31.196-4.24-31.163-9.217.033-4.977 14.039-8.922 31.284-8.801 17.244.12 31.195 4.24 31.162 9.215z" fill="#9895A2" fill-opacity=".05" style="mix-blend-mode:multiply" opacity=".09"/>
        <path d="M67.083 60.634c-.033 4.964-13.99 8.893-31.173 8.779-17.184-.114-31.087-4.229-31.054-9.192.032-4.963 13.987-8.892 31.17-8.78 17.185.113 31.088 4.231 31.057 9.193z" fill="#9895A2" fill-opacity=".05" style="mix-blend-mode:multiply" opacity=".09"/>
        <path d="M67.044 60.634c-.033 4.95-13.941 8.871-31.064 8.757-17.123-.114-30.978-4.218-30.945-9.168.033-4.95 13.941-8.87 31.064-8.758 17.123.113 30.977 4.218 30.945 9.169z" fill="#9895A2" fill-opacity=".05" style="mix-blend-mode:multiply" opacity=".1"/>
        <path d="M67.003 60.634c-.033 4.938-13.89 8.848-30.953 8.735-17.064-.112-30.868-4.207-30.836-9.146.033-4.94 13.891-8.847 30.955-8.734 17.063.112 30.867 4.207 30.834 9.145z" fill="#9895A2" fill-opacity=".05" style="mix-blend-mode:multiply" opacity=".1"/>
        <path d="M66.957 60.632c-.032 4.927-13.84 8.826-30.843 8.714-17.003-.113-30.759-4.196-30.726-9.122C5.42 55.3 19.23 51.4 36.233 51.512c17.002.113 30.763 4.196 30.724 9.12z" fill="#9895A2" fill-opacity=".05" style="mix-blend-mode:multiply" opacity=".1"/>
        <path d="M66.925 60.632c-.033 4.914-13.793 8.803-30.734 8.692-16.942-.11-30.648-4.185-30.619-9.098.03-4.913 13.794-8.8 30.736-8.688 16.941.112 30.65 4.183 30.617 9.094z" fill="#9895A2" fill-opacity=".05" style="mix-blend-mode:multiply" opacity=".11"/>
        <path d="M66.885 60.633c-.032 4.9-13.747 8.78-30.618 8.668-16.871-.113-30.546-4.173-30.512-9.073.034-4.9 13.747-8.78 30.618-8.667 16.872.112 30.544 4.172 30.512 9.072z" fill="#9895A2" fill-opacity=".05" style="mix-blend-mode:multiply" opacity=".11"/>
        <path d="M66.845 60.632c-.033 4.882-13.692 8.758-30.506 8.647-16.813-.111-30.43-4.163-30.397-9.051.033-4.889 13.694-8.749 30.514-8.644 16.82.105 30.422 4.162 30.389 9.048z" fill="#9895A2" fill-opacity=".05" style="mix-blend-mode:multiply" opacity=".11"/>
        <path d="M66.801 60.632c-.033 4.874-13.644 8.735-30.404 8.624-16.76-.111-30.32-4.151-30.288-9.027.033-4.875 13.644-8.732 30.405-8.621 16.76.11 30.324 4.15 30.287 9.024z" fill="#9895A2" fill-opacity=".05" style="mix-blend-mode:multiply" opacity=".12"/>
        <path d="M66.767 60.632c-.033 4.861-13.59 8.712-30.295 8.601-16.704-.11-30.21-4.141-30.178-9.003.033-4.861 13.59-8.71 30.295-8.592 16.704.12 30.212 4.132 30.178 8.994z" fill="#9895A2" fill-opacity=".05" style="mix-blend-mode:multiply" opacity=".12"/>
        <path d="M66.726 60.63c-.03 4.844-13.545 8.691-30.184 8.58-16.638-.11-30.101-4.128-30.068-8.977.032-4.85 13.547-8.69 30.185-8.578 16.639.11 30.1 4.128 30.067 8.976z" fill="#9895A2" fill-opacity=".05" style="mix-blend-mode:multiply" opacity=".12"/>
        <path d="M66.688 60.63c-.032 4.844-13.496 8.668-30.075 8.558-16.58-.109-29.99-4.117-29.955-8.954.036-4.836 13.497-8.667 30.077-8.556 16.579.111 29.985 4.118 29.953 8.953z" fill="#9895A2" fill-opacity=".05" style="mix-blend-mode:multiply" opacity=".13"/>
        <path d="M66.645 60.63c-.033 4.825-13.447 8.646-29.965 8.536-16.519-.109-29.882-4.108-29.85-8.932.03-4.824 13.451-8.642 29.978-8.532 16.526.109 29.871 4.106 29.837 8.929z" fill="#9895A2" fill-opacity=".05" style="mix-blend-mode:multiply" opacity=".13"/>
        <path d="M66.61 60.631c-.034 4.811-13.4 8.622-29.857 8.512-16.457-.11-29.771-4.096-29.74-8.904.031-4.808 13.392-8.628 29.856-8.514 16.464.114 29.776 4.104 29.74 8.906z" fill="#9895A2" fill-opacity=".05" style="mix-blend-mode:multiply" opacity=".13"/>
        <path d="M66.569 60.63c-.032 4.8-13.35 8.592-29.744 8.491-16.395-.102-29.664-4.087-29.631-8.884.033-4.797 13.349-8.592 29.745-8.489 16.397.103 29.662 4.08 29.63 8.883z" fill="#9895A2" fill-opacity=".05" style="mix-blend-mode:multiply" opacity=".14"/>
        <path d="M66.53 60.63c-.032 4.786-13.3 8.575-29.635 8.468C20.56 68.99 7.34 65.024 7.37 60.238c.03-4.784 13.3-8.574 29.636-8.466 16.336.108 29.555 4.074 29.523 8.859z" fill="#9895A2" fill-opacity=".05" style="mix-blend-mode:multiply" opacity=".14"/>
        <path d="M66.49 60.63c-.032 4.773-13.251 8.554-29.526 8.446-16.274-.108-29.445-4.062-29.412-8.837.033-4.776 13.25-8.552 29.525-8.444 16.274.108 29.445 4.063 29.412 8.834z" fill="#9895A2" fill-opacity=".05" style="mix-blend-mode:multiply" opacity=".14"/>
        <path d="M66.451 60.63c-.033 4.76-13.202 8.53-29.415 8.422C20.822 68.945 7.7 65 7.732 60.24c.032-4.76 13.202-8.53 29.418-8.421 16.215.107 29.339 4.052 29.301 8.81z" fill="#9895A2" fill-opacity=".05" style="mix-blend-mode:multiply" opacity=".15"/>
        <path d="M66.41 60.63c-.03 4.747-13.151 8.507-29.304 8.4-16.153-.106-29.225-4.04-29.198-8.788.026-4.748 13.152-8.508 29.306-8.4 16.154.108 29.228 4.041 29.197 8.787z" fill="#9895A2" fill-opacity=".05" style="mix-blend-mode:multiply" opacity=".15"/>
        <path d="M66.371 60.63c-.03 4.734-13.101 8.485-29.195 8.379-16.093-.107-29.112-4.03-29.084-8.766.028-4.735 13.103-8.484 29.197-8.378 16.093.107 29.114 4.03 29.082 8.764z" fill="#9895A2" fill-opacity=".05" style="mix-blend-mode:multiply" opacity=".15"/>
        <path d="M66.332 60.629c-.03 4.722-13.053 8.462-29.085 8.356-16.033-.107-29.007-4.02-28.975-8.748.03-4.73 13.054-8.461 29.087-8.355 16.032.106 29.005 4.026 28.973 8.747z" fill="#9895A2" fill-opacity=".05" style="mix-blend-mode:multiply" opacity=".16"/>
        <path d="M66.292 60.63c-.031 4.708-13.004 8.435-28.975 8.333-15.972-.101-28.9-4.008-28.866-8.718.035-4.71 13.005-8.436 28.978-8.333 15.974.103 28.894 4.009 28.863 8.717z" fill="#9895A2" fill-opacity=".05" style="mix-blend-mode:multiply" opacity=".16"/>
        <path d="M66.253 60.628c-.031 4.697-12.955 8.418-28.866 8.312-15.91-.106-28.787-3.998-28.756-8.694.031-4.695 12.956-8.415 28.869-8.31 15.912.104 28.784 3.997 28.753 8.692z" fill="#9895A2" fill-opacity=".05" style="mix-blend-mode:multiply" opacity=".16"/>
        <path d="M66.214 60.628c-.031 4.686-12.905 8.395-28.756 8.29-15.851-.105-28.677-3.987-28.645-8.67.03-4.683 12.905-8.393 28.757-8.289 15.853.105 28.676 3.987 28.644 8.669z" fill="#9895A2" fill-opacity=".05" style="mix-blend-mode:multiply" opacity=".17"/>
        <path d="M66.176 60.628c-.03 4.67-12.856 8.371-28.647 8.267-15.79-.105-28.568-3.974-28.537-8.647.031-4.672 12.856-8.37 28.647-8.265 15.79.104 28.565 3.975 28.537 8.645z" fill="#9895A2" fill-opacity=".05" style="mix-blend-mode:multiply" opacity=".17"/>
        <path d="M66.134 60.628c-.03 4.658-12.81 8.35-28.536 8.245-15.726-.105-28.458-3.965-28.431-8.623.027-4.659 12.81-8.349 28.538-8.244 15.727.105 28.46 3.963 28.43 8.622z" fill="#9895A2" fill-opacity=".05" style="mix-blend-mode:multiply" opacity=".17"/>
        <path d="M66.095 60.627c-.03 4.646-12.758 8.327-28.43 8.222-15.674-.105-28.35-3.952-28.318-8.592.031-4.64 12.758-8.325 28.431-8.222 15.673.103 28.349 3.95 28.317 8.592z" fill="#9895A2" fill-opacity=".05" style="mix-blend-mode:multiply" opacity=".18"/>
        <path d="M66.056 60.628c-.032 4.633-12.709 8.302-28.318 8.2C22.13 68.723 9.5 64.888 9.53 60.252c.032-4.637 12.71-8.303 28.32-8.2 15.608.103 28.235 3.941 28.206 8.575z" fill="#9895A2" fill-opacity=".05" style="mix-blend-mode:multiply" opacity=".18"/>
        <path d="M66.02 60.626c-.031 4.62-12.653 8.28-28.208 8.18-15.554-.1-28.131-3.932-28.101-8.553.03-4.621 12.653-8.28 28.209-8.177 15.556.103 28.127 3.93 28.1 8.55z" fill="#9895A2" fill-opacity=".05" style="mix-blend-mode:multiply" opacity=".19"/>
        <path d="M65.977 60.626c-.03 4.608-12.61 8.26-28.098 8.156-15.487-.103-28.018-3.92-27.989-8.528.03-4.608 12.611-8.256 28.1-8.154 15.49.101 28.018 3.92 27.986 8.526z" fill="#9895A2" fill-opacity=".05" style="mix-blend-mode:multiply" opacity=".19"/>
        <path d="M65.937 60.626c-.03 4.596-12.561 8.236-27.988 8.134-15.426-.101-27.91-3.905-27.88-8.504.03-4.6 12.562-8.234 27.988-8.133 15.426.102 27.911 3.909 27.88 8.503z" fill="#9895A2" fill-opacity=".05" style="mix-blend-mode:multiply" opacity=".19"/>
        <path d="M65.898 60.626c-.03 4.582-12.51 8.212-27.878 8.11-15.367-.1-27.806-3.905-27.769-8.479.038-4.574 12.511-8.212 27.878-8.11 15.367.101 27.8 3.897 27.77 8.479z" fill="#9895A2" fill-opacity=".05" style="mix-blend-mode:multiply" opacity=".2"/>
        <path d="M65.864 60.626c-.031 4.57-12.463 8.19-27.769 8.089-15.306-.102-27.688-3.887-27.664-8.458.023-4.57 12.463-8.187 27.769-8.087 15.306.1 27.69 3.887 27.664 8.456z" fill="#9895A2" fill-opacity=".05" style="mix-blend-mode:multiply" opacity=".2"/>
        <path d="M65.819 60.625c-.03 4.558-12.413 8.168-27.65 8.067-15.238-.102-27.582-3.876-27.55-8.436.03-4.56 12.412-8.166 27.659-8.066 15.247.1 27.572 3.88 27.54 8.435z" fill="#9895A2" fill-opacity=".05" style="mix-blend-mode:multiply" opacity=".2"/>
        <path d="M65.78 60.625c-.03 4.544-12.365 8.145-27.549 8.045-15.184-.1-27.47-3.865-27.44-8.41.029-4.543 12.364-8.143 27.55-8.041 15.185.101 27.468 3.863 27.439 8.406z" fill="#9895A2" fill-opacity=".05" style="mix-blend-mode:multiply" opacity=".21"/>
        <path d="M65.74 60.624c-.03 4.53-12.314 8.123-27.439 8.023-15.125-.1-27.361-3.855-27.338-8.385.024-4.53 12.315-8.124 27.441-8.02 15.127.102 27.366 3.852 27.337 8.382z" fill="#9895A2" fill-opacity=".05" style="mix-blend-mode:multiply" opacity=".21"/>
        <path d="M65.708 60.625c-.03 4.52-12.264 8.1-27.328 8-15.064-.1-27.252-3.843-27.223-8.363.03-4.519 12.266-8.096 27.338-7.996 15.072.1 27.236 3.841 27.213 8.359z" fill="#9895A2" fill-opacity=".05" style="mix-blend-mode:multiply" opacity=".21"/>
        <path d="M65.661 60.625c-.03 4.505-12.216 8.076-27.219 7.978C23.44 68.504 11.3 64.77 11.33 60.264c.03-4.507 12.218-8.075 27.22-7.975 15.004.1 27.142 3.83 27.112 8.336z" fill="#9895A2" fill-opacity=".05" style="mix-blend-mode:multiply" opacity=".22"/>
        <path d="M65.622 60.625c-.03 4.493-12.167 8.054-27.11 7.954-14.942-.1-27.025-3.82-27.003-8.313.022-4.493 12.168-8.053 27.111-7.953 14.944.1 27.032 3.82 27.002 8.312z" fill="#9895A2" fill-opacity=".05" style="mix-blend-mode:multiply" opacity=".22"/>
        <path d="M65.583 60.623c-.03 4.482-12.118 8.033-27 7.935-14.884-.099-26.926-3.81-26.893-8.29.032-4.481 12.117-8.03 27-7.932 14.883.098 26.922 3.805 26.893 8.287z" fill="#9895A2" fill-opacity=".05" style="mix-blend-mode:multiply" opacity=".22"/>
        <path d="M65.542 60.623c-.03 4.468-12.068 8.01-26.89 7.911-14.821-.098-26.813-3.8-26.783-8.265.03-4.465 12.068-8.008 26.891-7.91 14.824.099 26.812 3.798 26.782 8.264z" fill="#9895A2" fill-opacity=".05" style="mix-blend-mode:multiply" opacity=".23"/>
        <path d="M65.503 60.623c-.03 4.456-12.02 7.986-26.78 7.89-14.761-.098-26.704-3.789-26.674-8.244.03-4.456 12.02-7.984 26.79-7.886 14.77.098 26.694 3.787 26.664 8.24z" fill="#9895A2" fill-opacity=".05" style="mix-blend-mode:multiply" opacity=".23"/>
        <path d="M65.464 60.623c-.03 4.442-11.97 7.967-26.67 7.865-14.7-.102-26.595-3.776-26.558-8.218.038-4.443 11.971-7.968 26.671-7.864 14.7.103 26.587 3.775 26.557 8.217z" fill="#9895A2" fill-opacity=".05" style="mix-blend-mode:multiply" opacity=".23"/>
        <path d="M65.425 60.623c-.03 4.43-11.92 7.94-26.557 7.844-14.636-.097-26.485-3.766-26.455-8.195.03-4.429 11.921-7.94 26.557-7.842 14.636.096 26.483 3.764 26.455 8.193z" fill="#9895A2" fill-opacity=".05" style="mix-blend-mode:multiply" opacity=".24"/>
        <path d="M65.384 60.623c-.03 4.417-11.872 7.917-26.45 7.822-14.578-.095-26.376-3.75-26.346-8.172.03-4.422 11.872-7.917 26.452-7.82 14.58.097 26.374 3.754 26.344 8.17z" fill="#9895A2" fill-opacity=".05" style="mix-blend-mode:multiply" opacity=".24"/>
        <path d="M65.345 60.622c-.03 4.405-11.822 7.896-26.34 7.8-14.52-.097-26.267-3.75-26.237-8.149.03-4.399 11.822-7.893 26.342-7.796 14.52.096 26.265 3.742 26.235 8.145z" fill="#9895A2" fill-opacity=".05" style="mix-blend-mode:multiply" opacity=".24"/>
        <path d="M65.306 60.621c-.03 4.393-11.774 7.873-26.231 7.778-14.458-.095-26.156-3.734-26.128-8.123.028-4.39 11.774-7.87 26.234-7.775 14.46.095 26.153 3.73 26.125 8.12z" fill="#9895A2" fill-opacity=".05" style="mix-blend-mode:multiply" opacity=".25"/>
        <path d="M65.266 60.622c-.028 4.374-11.717 7.85-26.121 7.754-14.405-.095-26.046-3.72-26.018-8.1.028-4.378 11.726-7.848 26.122-7.753 14.397.096 26.046 3.721 26.017 8.099z" fill="#9895A2" fill-opacity=".05" style="mix-blend-mode:multiply" opacity=".25"/>
        <path d="M65.227 60.621c-.029 4.374-11.674 7.828-26.012 7.733-14.338-.095-25.932-3.71-25.907-8.076.025-4.367 11.674-7.827 26.012-7.73 14.337.097 25.936 3.709 25.907 8.073z" fill="#9895A2" fill-opacity=".05" style="mix-blend-mode:multiply" opacity=".25"/>
        <path d="M65.188 60.621c-.03 4.354-11.626 7.81-25.903 7.71-14.276-.102-25.827-3.7-25.797-8.054.03-4.353 11.625-7.81 25.902-7.707 14.277.103 25.826 3.699 25.798 8.051z" fill="#9895A2" fill-opacity=".05" style="mix-blend-mode:multiply" opacity=".26"/>
        <path d="M65.149 60.622c-.03 4.34-11.578 7.78-25.793 7.687-14.216-.094-25.718-3.688-25.689-8.03.03-4.34 11.58-7.78 25.797-7.685 14.215.093 25.713 3.688 25.685 8.028z" fill="#9895A2" fill-opacity=".05" style="mix-blend-mode:multiply" opacity=".26"/>
        <path d="M65.108 60.62c-.028 4.329-11.526 7.76-25.682 7.667-14.157-.094-25.607-3.679-25.582-8.006.025-4.327 11.527-7.758 25.683-7.664 14.157.094 25.61 3.68 25.58 8.003z" fill="#9895A2" fill-opacity=".05" style="mix-blend-mode:multiply" opacity=".26"/>
        <path d="M65.07 60.62c-.029 4.316-11.478 7.737-25.573 7.644-14.096-.094-25.498-3.667-25.464-7.981.035-4.315 11.473-7.735 25.568-7.642 14.096.092 25.496 3.666 25.468 7.979z" fill="#9895A2" fill-opacity=".05" style="mix-blend-mode:multiply" opacity=".27"/>
        <path d="M65.03 60.62C65 64.922 53.6 68.334 39.566 68.242c-14.034-.092-25.388-3.656-25.36-7.967.028-4.312 11.429-7.711 25.463-7.619 14.035.092 25.389 3.663 25.36 7.964z" fill="#9895A2" fill-opacity=".05" style="mix-blend-mode:multiply" opacity=".27"/>
        <path d="M64.99 60.62c-.03 4.29-11.38 7.69-25.353 7.598-13.974-.092-25.28-3.641-25.251-7.934.028-4.293 11.38-7.689 25.354-7.597 13.973.093 25.279 3.645 25.25 7.933z" fill="#9895A2" fill-opacity=".05" style="mix-blend-mode:multiply" opacity=".27"/>
        <path d="M64.95 60.62c-.028 4.277-11.329 7.669-25.243 7.577-13.914-.093-25.17-3.634-25.142-7.911.029-4.277 11.33-7.667 25.245-7.575 13.914.092 25.168 3.633 25.14 7.909z" fill="#9895A2" fill-opacity=".05" style="mix-blend-mode:multiply" opacity=".28"/>
        <path d="M64.91 60.62c-.027 4.27-11.28 7.645-25.134 7.55-13.855-.095-25.06-3.623-25.03-7.886.029-4.263 11.283-7.642 25.134-7.55 13.852.092 25.059 3.623 25.03 7.886z" fill="#9895A2" fill-opacity=".05" style="mix-blend-mode:multiply" opacity=".28"/>
        <path d="M64.872 60.618c-.028 4.253-11.232 7.624-25.024 7.533-13.792-.09-24.95-3.611-24.921-7.864.028-4.252 11.232-7.62 25.024-7.53 13.792.091 24.95 3.612 24.921 7.861z" fill="#9895A2" fill-opacity=".05" style="mix-blend-mode:multiply" opacity=".28"/>
        <path d="M64.833 60.618c-.03 4.24-11.182 7.602-24.914 7.51-13.731-.092-24.838-3.593-24.813-7.84.025-4.245 11.182-7.597 24.915-7.507 13.733.09 24.838 3.6 24.812 7.837z" fill="#9895A2" fill-opacity=".05" style="mix-blend-mode:multiply" opacity=".29"/>
        <path d="M64.792 60.618c-.028 4.228-11.132 7.578-24.802 7.488-13.67-.09-24.732-3.593-24.704-7.81.028-4.219 11.133-7.582 24.802-7.492 13.67.091 24.732 3.59 24.704 7.814z" fill="#9895A2" fill-opacity=".05" style="mix-blend-mode:multiply" opacity=".29"/>
        <path d="M64.754 60.618c-.028 4.218-11.084 7.555-24.693 7.466-13.61-.089-24.623-3.579-24.595-7.792.028-4.213 11.083-7.553 24.694-7.464 13.612.089 24.622 3.579 24.594 7.79z" fill="#9895A2" fill-opacity=".05" style="mix-blend-mode:multiply" opacity=".29"/>
        <path d="M64.715 60.618c-.028 4.201-11.036 7.533-24.584 7.443-13.549-.091-24.514-3.567-24.485-7.77.028-4.201 11.035-7.529 24.585-7.44 13.55.09 24.51 3.568 24.484 7.767z" fill="#9895A2" fill-opacity=".05" style="mix-blend-mode:multiply" opacity=".3"/>
        <path d="M64.674 60.618c-.027 4.189-10.984 7.51-24.473 7.42-13.49-.088-24.404-3.556-24.37-7.744.035-4.189 10.979-7.508 24.47-7.42 13.49.09 24.4 3.558 24.373 7.744z" fill="#9895A2" fill-opacity=".05" style="mix-blend-mode:multiply" opacity=".3"/>
        <path d="M64.635 60.617c-.029 4.176-10.936 7.487-24.37 7.398-13.435-.089-24.294-3.544-24.267-7.72.027-4.176 10.935-7.484 24.37-7.397 13.434.088 24.295 3.546 24.267 7.719z" fill="#9895A2" fill-opacity=".05" style="mix-blend-mode:multiply" opacity=".31"/>
        <path d="M64.596 60.616c-.028 4.163-10.887 7.464-24.254 7.377-13.368-.088-24.184-3.535-24.154-7.697.03-4.161 10.886-7.462 24.255-7.373 13.37.089 24.181 3.53 24.153 7.693z" fill="#9895A2" fill-opacity=".05" style="mix-blend-mode:multiply" opacity=".31"/>
        <path d="M64.556 60.617c-.028 4.15-10.838 7.442-24.144 7.353-13.307-.089-24.069-3.522-24.047-7.673.022-4.15 10.837-7.436 24.145-7.35 13.308.086 24.073 3.523 24.046 7.67z" fill="#9895A2" fill-opacity=".05" style="mix-blend-mode:multiply" opacity=".31"/>
        <path d="M64.516 60.616c-.027 4.137-10.787 7.419-24.034 7.331-13.247-.087-23.965-3.511-23.937-7.654.028-4.143 10.788-7.417 24.035-7.328 13.248.089 23.964 3.516 23.936 7.651z" fill="#9895A2" fill-opacity=".05" style="mix-blend-mode:multiply" opacity=".32"/>
        <path d="M64.477 60.616c-.019 4.124-10.738 7.397-23.92 7.31-13.182-.088-23.86-3.506-23.832-7.627.028-4.12 10.738-7.394 23.926-7.306 13.188.087 23.854 3.5 23.826 7.623z" fill="#9895A2" fill-opacity=".05" style="mix-blend-mode:multiply" opacity=".32"/>
        <path d="M64.438 60.615c-.028 4.113-10.69 7.375-23.815 7.287-13.126-.087-23.745-3.49-23.719-7.601.027-4.112 10.687-7.372 23.817-7.285 13.13.088 23.737 3.489 23.717 7.599z" fill="#9895A2" fill-opacity=".05" style="mix-blend-mode:multiply" opacity=".32"/>
        <path d="M64.399 60.615c-.028 4.099-10.642 7.351-23.706 7.265-13.064-.086-23.635-3.479-23.609-7.578.027-4.099 10.642-7.35 23.707-7.262 13.066.087 23.634 3.477 23.608 7.575z" fill="#9895A2" fill-opacity=".05" style="mix-blend-mode:multiply" opacity=".33"/>
        <path d="M64.358 60.615c-.027 4.086-10.59 7.328-23.589 7.242-12.999-.086-23.526-3.468-23.5-7.555.027-4.086 10.586-7.325 23.6-7.239 13.015.086 23.517 3.467 23.489 7.552z" fill="#9895A2" fill-opacity=".05" style="mix-blend-mode:multiply" opacity=".33"/>
        <path d="M64.32 60.615c-.027 4.074-10.542 7.306-23.486 7.22-12.945-.086-23.417-3.457-23.397-7.531.02-4.074 10.543-7.303 23.487-7.217 12.944.086 23.422 3.455 23.395 7.528z" fill="#9895A2" fill-opacity=".05" style="mix-blend-mode:multiply" opacity=".33"/>
        <path d="M64.28 60.615c-.028 4.061-10.493 7.282-23.376 7.197-12.883-.086-23.308-3.447-23.277-7.507.032-4.06 10.494-7.28 23.378-7.195 12.885.086 23.297 3.445 23.275 7.505z" fill="#9895A2" fill-opacity=".05" style="mix-blend-mode:multiply" opacity=".34"/>
        <path d="M64.24 60.615c-.027 4.047-10.444 7.26-23.266 7.175-12.822-.085-23.198-3.437-23.17-7.483.028-4.046 10.443-7.26 23.267-7.174 12.823.086 23.196 3.434 23.168 7.482z" fill="#9895A2" fill-opacity=".05" style="mix-blend-mode:multiply" opacity=".34"/>
        <path d="M64.2 60.613c-.026 4.037-10.393 7.24-23.156 7.153-12.763-.086-23.087-3.422-23.06-7.46.026-4.036 10.388-7.233 23.157-7.15 12.77.085 23.086 3.424 23.06 7.457z" fill="#9895A2" fill-opacity=".05" style="mix-blend-mode:multiply" opacity=".34"/>
        <path d="M64.161 60.613c-.026 4.024-10.345 7.216-23.047 7.131-12.701-.084-22.977-3.413-22.95-7.435.026-4.023 10.344-7.213 23.047-7.129 12.704.085 22.977 3.412 22.95 7.433z" fill="#9895A2" fill-opacity=".05" style="mix-blend-mode:multiply" opacity=".35"/>
        <path d="M64.122 60.614c-.026 4.01-10.296 7.186-22.937 7.11-12.641-.077-22.869-3.403-22.842-7.413.026-4.01 10.296-7.186 22.939-7.106 12.642.08 22.863 3.405 22.84 7.409z" fill="#9895A2" fill-opacity=".05" style="mix-blend-mode:multiply" opacity=".35"/>
        <path d="M64.082 60.613c-.027 3.998-10.247 7.169-22.827 7.088-12.58-.082-22.759-3.393-22.725-7.39.035-3.995 10.247-7.167 22.828-7.084 12.582.083 22.75 3.39 22.724 7.386z" fill="#9895A2" fill-opacity=".05" style="mix-blend-mode:multiply" opacity=".35"/>
        <path d="M64.042 60.614c-.026 3.985-10.196 7.147-22.717 7.064-12.52-.083-22.65-3.38-22.623-7.366.028-3.985 10.198-7.139 22.719-7.06 12.52.078 22.648 3.378 22.621 7.362z" fill="#9895A2" fill-opacity=".05" style="mix-blend-mode:multiply" opacity=".36"/>
        <path d="M64.003 60.614c-.026 3.97-10.154 7.123-22.607 7.04-12.454-.082-22.54-3.368-22.514-7.342.026-3.974 10.154-7.122 22.61-7.039 12.454.083 22.538 3.37 22.511 7.34z" fill="#9895A2" fill-opacity=".05" style="mix-blend-mode:multiply" opacity=".36"/>
        <path d="M63.964 60.611c-.026 3.96-10.1 7.102-22.495 7.02-12.396-.08-22.43-3.358-22.405-7.316.026-3.959 10.1-7.1 22.496-7.017 12.395.082 22.43 3.357 22.404 7.313z" fill="#9895A2" fill-opacity=".05" style="mix-blend-mode:multiply" opacity=".36"/>
        <path d="M63.924 60.611c-.027 3.948-10.05 7.08-22.388 6.997-12.338-.082-22.32-3.344-22.293-7.292.026-3.947 10.05-7.076 22.389-6.995 12.34.081 22.318 3.346 22.292 7.29z" fill="#9895A2" fill-opacity=".05" style="mix-blend-mode:multiply" opacity=".37"/>
        <path d="M63.885 60.611c-.027 3.934-9.998 7.057-22.278 6.976-12.28-.082-22.211-3.336-22.183-7.27.028-3.936 9.998-7.054 22.278-6.973 12.28.082 22.21 3.335 22.183 7.267z" fill="#9895A2" fill-opacity=".05" style="mix-blend-mode:multiply" opacity=".37"/>
        <path d="M63.846 60.611c-.027 3.922-9.951 7.03-22.169 6.952-12.218-.078-22.101-3.324-22.075-7.245.027-3.921 9.951-7.03 22.169-6.95 12.217.08 22.1 3.324 22.075 7.243z" fill="#9895A2" fill-opacity=".05" style="mix-blend-mode:multiply" opacity=".37"/>
        <path d="M63.805 60.611c-.025 3.906-9.9 7.012-22.057 6.93-12.157-.081-21.993-3.313-21.968-7.222.025-3.908 9.903-7.008 22.06-6.928 12.156.08 21.993 3.314 21.965 7.22z" fill="#9895A2" fill-opacity=".05" style="mix-blend-mode:multiply" opacity=".38"/>
        <path d="M63.766 60.612c-.025 3.894-9.852 6.987-21.948 6.908-12.096-.08-21.881-3.304-21.856-7.199.024-3.894 9.852-6.992 21.95-6.906 12.097.086 21.88 3.302 21.854 7.197z" fill="#9895A2" fill-opacity=".05" style="mix-blend-mode:multiply" opacity=".38"/>
        <path d="M63.727 60.61c-.027 3.883-9.803 6.966-21.84 6.886-12.036-.08-21.771-3.291-21.746-7.175.025-3.884 9.804-6.963 21.84-6.883 12.037.08 21.77 3.291 21.746 7.172z" fill="#9895A2" fill-opacity=".05" style="mix-blend-mode:multiply" opacity=".38"/>
        <path d="M63.688 60.61c-.027 3.871-9.755 6.944-21.73 6.864-11.976-.08-21.663-3.28-21.638-7.152.025-3.87 9.755-6.94 21.732-6.86 11.977.08 21.66 3.28 21.636 7.148z" fill="#9895A2" fill-opacity=".05" style="mix-blend-mode:multiply" opacity=".39"/>
        <path d="M63.648 60.61c-.026 3.858-9.705 6.921-21.62 6.842-11.914-.08-21.557-3.27-21.527-7.127.03-3.857 9.705-6.917 21.618-6.84 11.913.079 21.558 3.27 21.529 7.126z" fill="#9895A2" fill-opacity=".05" style="mix-blend-mode:multiply" opacity=".39"/>
        <path d="M63.608 60.61c-.025 3.844-9.655 6.897-21.509 6.819-11.854-.078-21.444-3.259-21.417-7.103.026-3.845 9.655-6.896 21.51-6.818 11.853.078 21.441 3.257 21.416 7.102z" fill="#9895A2" fill-opacity=".05" style="mix-blend-mode:multiply" opacity=".39"/>
        <path d="M63.569 60.61c-.025 3.832-9.606 6.874-21.402 6.795-11.796-.078-21.334-3.246-21.308-7.08.027-3.833 9.606-6.873 21.402-6.793 11.796.08 21.333 3.248 21.308 7.078z" fill="#9895A2" fill-opacity=".05" style="mix-blend-mode:multiply" opacity=".4"/>
        <path d="M63.53 60.61c-.026 3.82-9.557 6.852-21.29 6.774-11.734-.078-21.226-3.237-21.199-7.056.027-3.82 9.557-6.842 21.29-6.772 11.734.07 21.224 3.237 21.2 7.055z" fill="#9895A2" fill-opacity=".05" style="mix-blend-mode:multiply" opacity=".4"/>
        <path d="M63.49 60.61c-.025 3.806-9.508 6.829-21.18 6.752-11.673-.076-21.114-3.225-21.09-7.03.026-3.803 9.508-6.826 21.182-6.75 11.674.077 21.119 3.223 21.088 7.027z" fill="#9895A2" fill-opacity=".05" style="mix-blend-mode:multiply" opacity=".4"/>
        <path d="M63.45 60.609c-.024 3.794-9.458 6.806-21.07 6.73-11.611-.077-21.005-3.215-20.98-7.008.025-3.793 9.46-6.805 21.072-6.727 11.614.078 21.004 3.213 20.979 7.005z" fill="#9895A2" fill-opacity=".05" style="mix-blend-mode:multiply" opacity=".41"/>
        <path d="M63.412 60.609c-.025 3.782-9.41 6.784-20.961 6.708-11.553-.077-20.896-3.209-20.87-6.985.024-3.776 9.41-6.781 20.96-6.705 11.55.077 20.896 3.203 20.87 6.982z" fill="#9895A2" fill-opacity=".05" style="mix-blend-mode:multiply" opacity=".41"/>
        <path d="M63.372 60.609c-.026 3.768-9.36 6.76-20.852 6.684-11.49-.076-20.786-3.185-20.76-6.96.024-3.776 9.36-6.759 20.851-6.682 11.491.076 20.785 3.191 20.761 6.958z" fill="#9895A2" fill-opacity=".05" style="mix-blend-mode:multiply" opacity=".42"/>
        <path d="M63.332 60.609c-.025 3.749-9.31 6.737-20.741 6.662-11.43-.075-20.677-3.182-20.652-6.937.025-3.756 9.312-6.736 20.742-6.66 11.43.077 20.684 3.18 20.65 6.935z" fill="#9895A2" fill-opacity=".05" style="mix-blend-mode:multiply" opacity=".42"/>
        <path d="M63.293 60.609c-.025 3.75-9.262 6.717-20.632 6.64-11.37-.08-20.567-3.17-20.537-6.913.03-3.743 9.262-6.718 20.633-6.638 11.37.08 20.56 3.17 20.536 6.91z" fill="#9895A2" fill-opacity=".05" style="mix-blend-mode:multiply" opacity=".42"/>
        <path d="M63.254 60.607c-.025 3.73-9.217 6.694-20.523 6.619-11.305-.075-20.464-3.16-20.431-6.89.033-3.728 9.217-6.69 20.522-6.615 11.305.075 20.457 3.159 20.432 6.886z" fill="#9895A2" fill-opacity=".05" style="mix-blend-mode:multiply" opacity=".43"/>
        <path d="M63.208 60.607c-.023 3.718-9.162 6.67-20.411 6.596-11.25-.075-20.347-3.148-20.322-6.866.025-3.718 9.162-6.667 20.412-6.592 11.251.075 20.35 3.147 20.321 6.862z" fill="#9895A2" fill-opacity=".05" style="mix-blend-mode:multiply" opacity=".43"/>
        <path d="M63.174 60.607c-.025 3.706-9.113 6.649-20.308 6.574-11.194-.075-20.238-3.137-20.213-6.842.025-3.706 9.114-6.646 20.309-6.571 11.194.075 20.237 3.137 20.212 6.84z" fill="#9895A2" fill-opacity=".05" style="mix-blend-mode:multiply" opacity=".43"/>
        <path d="M63.135 60.607c-.025 3.692-9.06 6.625-20.191 6.552-11.13-.074-20.13-3.125-20.105-6.819.025-3.695 9.06-6.622 20.192-6.549 11.132.074 20.129 3.131 20.104 6.816z" fill="#9895A2" fill-opacity=".05" style="mix-blend-mode:multiply" opacity=".44"/>
        <path d="M63.096 60.607c-.025 3.679-9.015 6.602-20.082 6.528-11.066-.073-20.02-3.115-19.995-6.793.025-3.68 9.015-6.6 20.083-6.527 11.068.073 20.017 3.115 19.994 6.792z" fill="#9895A2" fill-opacity=".05" style="mix-blend-mode:multiply" opacity=".44"/>
        <path d="M63.052 60.606c-.023 3.667-8.965 6.58-19.97 6.508-11.006-.072-19.91-3.105-19.887-6.772.023-3.668 8.967-6.577 19.974-6.504 11.007.074 19.911 3.104 19.883 6.768z" fill="#9895A2" fill-opacity=".05" style="mix-blend-mode:multiply" opacity=".44"/>
        <path d="M63.016 60.606c-.023 3.654-8.917 6.56-19.861 6.484-10.945-.076-19.8-3.093-19.782-6.747.019-3.654 8.917-6.56 19.864-6.481 10.948.08 19.804 3.093 19.78 6.744z" fill="#9895A2" fill-opacity=".05" style="mix-blend-mode:multiply" opacity=".45"/>
        <path d="M62.977 60.605c-.025 3.642-8.868 6.535-19.752 6.463-10.883-.072-19.683-3.082-19.667-6.717.015-3.635 8.876-6.538 19.755-6.466 10.879.072 19.688 3.082 19.664 6.72z" fill="#9895A2" fill-opacity=".05" style="mix-blend-mode:multiply" opacity=".45"/>
        <path d="M62.938 60.605c-.025 3.63-8.818 6.512-19.643 6.44-10.824-.072-19.581-3.071-19.556-6.699.025-3.627 8.818-6.51 19.643-6.438 10.824.072 19.58 3.072 19.556 6.697z" fill="#9895A2" fill-opacity=".05" style="mix-blend-mode:multiply" opacity=".45"/>
        <path d="M62.896 60.605c-.024 3.617-8.769 6.49-19.527 6.418-10.759-.072-19.473-3.06-19.448-6.677.025-3.616 8.769-6.486 19.528-6.414 10.758.072 19.473 3.06 19.447 6.673z" fill="#9895A2" fill-opacity=".05" style="mix-blend-mode:multiply" opacity=".46"/>
        <path d="M62.858 60.606c-.023 3.602-8.72 6.466-19.422 6.395-10.703-.07-19.371-3.049-19.338-6.653.033-3.604 8.72-6.462 19.427-6.394 10.707.07 19.357 3.051 19.333 6.652z" fill="#9895A2" fill-opacity=".05" style="mix-blend-mode:multiply" opacity=".46"/>
        <path d="M62.82 60.604c-.026 3.593-8.67 6.444-19.314 6.374-10.643-.07-19.252-3.039-19.229-6.629.024-3.59 8.67-6.44 19.315-6.37 10.645.07 19.25 3.037 19.227 6.625z" fill="#9895A2" fill-opacity=".05" style="mix-blend-mode:multiply" opacity=".46"/>
        <path d="M62.779 60.604c-.024 3.579-8.62 6.422-19.203 6.352-10.582-.07-19.142-3.028-19.119-6.597.023-3.57 8.622-6.42 19.205-6.349 10.584.07 19.142 3.018 19.117 6.594z" fill="#9895A2" fill-opacity=".05" style="mix-blend-mode:multiply" opacity=".47"/>
        <path d="M62.74 60.604c-.024 3.565-8.572 6.405-19.093 6.328-10.521-.076-19.034-3.015-19.01-6.573.023-3.559 8.578-6.405 19.094-6.333 10.517.072 19.032 3.015 19.008 6.578z" fill="#9895A2" fill-opacity=".05" style="mix-blend-mode:multiply" opacity=".47"/>
        <path d="M62.7 60.604c-.023 3.552-8.523 6.375-18.983 6.307-10.46-.07-18.924-3.006-18.902-6.562.022-3.555 8.523-6.372 18.985-6.303 10.462.069 18.924 3.007 18.9 6.558z" fill="#9895A2" fill-opacity=".05" style="mix-blend-mode:multiply" opacity=".47"/>
        <path d="M62.661 60.604c-.023 3.54-8.473 6.353-18.874 6.283-10.4-.07-18.814-2.993-18.79-6.528.023-3.535 8.474-6.35 18.875-6.282 10.4.07 18.813 2.989 18.79 6.527z" fill="#9895A2" fill-opacity=".05" style="mix-blend-mode:multiply" opacity=".48"/>
        <path d="M62.62 60.604c-.023 3.525-8.422 6.33-18.762 6.26-10.34-.068-18.706-2.983-18.68-6.506.024-3.522 8.422-6.328 18.764-6.26 10.341.07 18.702 2.98 18.679 6.506z" fill="#9895A2" fill-opacity=".05" style="mix-blend-mode:multiply" opacity=".48"/>
        <path d="M62.583 60.602c-.023 3.515-8.374 6.308-18.654 6.24-10.279-.07-18.59-2.968-18.57-6.486.018-3.519 8.374-6.304 18.655-6.237 10.28.068 18.591 2.972 18.57 6.483z" fill="#9895A2" fill-opacity=".05" style="mix-blend-mode:multiply" opacity=".48"/>
        <path d="M62.543 60.603c-.024 3.502-8.327 6.284-18.545 6.217-10.218-.067-18.485-2.96-18.461-6.461.023-3.5 8.326-6.281 18.546-6.214 10.22.067 18.483 2.958 18.46 6.458z" fill="#9895A2" fill-opacity=".05" style="mix-blend-mode:multiply" opacity=".49"/>
        <path d="M62.504 60.602c-.024 3.489-8.28 6.263-18.434 6.196-10.154-.067-18.377-2.951-18.354-6.44.024-3.488 8.28-6.259 18.434-6.192 10.154.067 18.376 2.95 18.354 6.436z" fill="#9895A2" fill-opacity=".05" style="mix-blend-mode:multiply" opacity=".49"/>
        <path d="M62.463 60.603c-.022 3.476-8.226 6.24-18.324 6.172-10.098-.067-18.266-2.938-18.243-6.416.023-3.477 8.228-6.238 18.326-6.17 10.098.067 18.265 2.94 18.241 6.414z" fill="#9895A2" fill-opacity=".05" style="mix-blend-mode:multiply" opacity=".49"/>
        <path d="M62.427 60.603c-.023 3.463-8.178 6.216-18.215 6.15-10.036-.066-18.16-2.929-18.136-6.394.023-3.465 8.178-6.212 18.216-6.147 10.039.066 18.156 2.93 18.135 6.39z" fill="#9895A2" fill-opacity=".05" style="mix-blend-mode:multiply" opacity=".5"/>
        <path d="M62.385 60.602c-.023 3.45-8.123 6.194-18.105 6.127-9.983-.067-18.048-2.916-18.025-6.37.024-3.454 8.124-6.191 18.107-6.125 9.984.065 18.045 2.92 18.023 6.368z" fill="#9895A2" fill-opacity=".05" style="mix-blend-mode:multiply" opacity=".5"/>
        <path d="M62.346 60.6c-.024 3.437-8.08 6.173-17.996 6.107-9.917-.066-17.937-2.912-17.915-6.348.021-3.437 8.08-6.165 17.997-6.093 9.917.072 17.935 2.9 17.914 6.335z" fill="#9895A2" fill-opacity=".05" style="mix-blend-mode:multiply" opacity=".5"/>
        <path d="M62.306 60.6c-.022 3.426-8.03 6.15-17.886 6.084-9.855-.066-17.827-2.889-17.805-6.325.022-3.437 8.03-6.146 17.888-6.08 9.857.065 17.826 2.899 17.803 6.322z" fill="#9895A2" fill-opacity=".05" style="mix-blend-mode:multiply" opacity=".51"/>
        <path d="M62.271 60.601c-.023 3.413-7.98 6.127-17.776 6.061-9.794-.065-17.718-2.883-17.694-6.295.023-3.412 7.976-6.124 17.771-6.058 9.795.065 17.716 2.882 17.7 6.292z" fill="#9895A2" fill-opacity=".05" style="mix-blend-mode:multiply" opacity=".51"/>
        <path d="M62.227 60.6c-.023 3.4-7.932 6.104-17.666 6.04-9.734-.064-17.609-2.873-17.585-6.273.023-3.401 7.93-6.093 17.666-6.035 9.735.058 17.607 2.871 17.585 6.269z" fill="#9895A2" fill-opacity=".05" style="mix-blend-mode:multiply" opacity=".51"/>
        <path d="M62.187 60.601c-.022 3.387-7.881 6.08-17.556 6.016-9.674-.064-17.496-2.862-17.476-6.249.02-3.386 7.883-6.076 17.557-6.012 9.675.064 17.498 2.86 17.475 6.245z" fill="#9895A2" fill-opacity=".05" style="mix-blend-mode:multiply" opacity=".52"/>
        <path d="M62.148 60.601c-.022 3.374-7.833 6.057-17.446 5.994-9.614-.062-17.389-2.85-17.367-6.225.022-3.374 7.834-6.055 17.448-5.99 9.613.063 17.387 2.855 17.365 6.221z" fill="#9895A2" fill-opacity=".05" style="mix-blend-mode:multiply" opacity=".52"/>
        <path d="M62.115 60.6c-.022 3.361-7.784 6.036-17.34 5.972-9.556-.064-17.28-2.84-17.257-6.2.021-3.36 7.784-6.034 17.34-5.97 9.555.065 17.273 2.833 17.257 6.198z" fill="#9895A2" fill-opacity=".05" style="mix-blend-mode:multiply" opacity=".52"/>
        <path d="M62.07 60.6c-.024 3.352-7.736 6.008-17.228 5.95-9.492-.058-17.17-2.83-17.148-6.178.022-3.35 7.736-6.01 17.237-5.95 9.501.062 17.16 2.832 17.139 6.178z" fill="#9895A2" fill-opacity=".05" style="mix-blend-mode:multiply" opacity=".53"/>
        <path d="M62.029 60.6c-.022 3.336-7.685 5.989-17.117 5.926-9.432-.062-17.06-2.811-17.038-6.153.021-3.341 7.685-5.986 17.118-5.924 9.432.063 17.059 2.817 17.037 6.15z" fill="#9895A2" fill-opacity=".05" style="mix-blend-mode:multiply" opacity=".53"/>
        <path d="M61.99 60.6c-.022 3.322-7.636 5.967-17.007 5.904-9.372-.062-16.951-2.807-16.923-6.13.028-3.322 7.637-5.964 17.009-5.901 9.37.062 16.943 2.805 16.92 6.127z" fill="#9895A2" fill-opacity=".05" style="mix-blend-mode:multiply" opacity=".54"/>
        <path d="M61.958 60.6c-.021 3.31-7.587 5.943-16.898 5.88-9.31-.062-16.844-2.794-16.826-6.104.02-3.31 7.588-5.936 16.898-5.88 9.31.056 16.84 2.795 16.826 6.103z" fill="#9895A2" fill-opacity=".05" style="mix-blend-mode:multiply" opacity=".54"/>
        <path d="M61.912 60.6c-.023 3.297-7.54 5.92-16.789 5.86-9.25-.062-16.73-2.785-16.715-6.084.016-3.3 7.538-5.917 16.789-5.856 9.25.06 16.735 2.783 16.715 6.08z" fill="#9895A2" fill-opacity=".05" style="mix-blend-mode:multiply" opacity=".54"/>
        <path d="M61.871 60.598c-.022 3.28-7.488 5.9-16.678 5.84-9.19-.062-16.621-2.775-16.6-6.06.023-3.285 7.49-5.896 16.68-5.835 9.19.061 16.62 2.773 16.598 6.055z" fill="#9895A2" fill-opacity=".05" style="mix-blend-mode:multiply" opacity=".55"/>
        <path d="M61.832 60.598c-.022 3.28-7.439 5.877-16.568 5.816-9.13-.061-16.512-2.762-16.49-6.035.021-3.272 7.438-5.873 16.57-5.813 9.13.061 16.51 2.762 16.488 6.032z" fill="#9895A2" fill-opacity=".05" style="mix-blend-mode:multiply" opacity=".55"/>
        <path d="M61.793 60.598c-.022 3.26-7.39 5.853-16.459 5.794-9.068-.06-16.403-2.752-16.38-6.011.021-3.259 7.385-5.852 16.458-5.791 9.073.06 16.403 2.75 16.381 6.008z" fill="#9895A2" fill-opacity=".05" style="mix-blend-mode:multiply" opacity=".55"/>
        <path d="M61.752 60.598c-.02 3.246-7.342 5.832-16.348 5.77-9.006-.06-16.293-2.74-16.271-5.987.022-3.248 7.342-5.827 16.35-5.768 9.007.06 16.291 2.74 16.27 5.985z" fill="#9895A2" fill-opacity=".05" style="mix-blend-mode:multiply" opacity=".56"/>
        <path d="M61.714 60.598c-.022 3.234-7.291 5.808-16.24 5.749-8.947-.06-16.183-2.73-16.164-5.965.018-3.235 7.295-5.803 16.246-5.745 8.951.057 16.18 2.729 16.158 5.96z" fill="#9895A2" fill-opacity=".05" style="mix-blend-mode:multiply" opacity=".56"/>
        <path d="M61.674 60.596c-.021 3.223-7.242 5.78-16.129 5.727-8.887-.053-16.073-2.718-16.053-5.936.02-3.218 7.244-5.78 16.131-5.724 8.887.056 16.073 2.715 16.051 5.933z" fill="#9895A2" fill-opacity=".05" style="mix-blend-mode:multiply" opacity=".56"/>
        <path d="M61.635 60.596c-.022 3.21-7.194 5.763-16.02 5.705-8.826-.057-15.964-2.707-15.942-5.916.022-3.208 7.186-5.76 16.02-5.701 8.834.057 15.963 2.707 15.942 5.912z" fill="#9895A2" fill-opacity=".05" style="mix-blend-mode:multiply" opacity=".57"/>
        <path d="M61.595 60.596c-.02 3.197-7.144 5.741-15.91 5.684-8.765-.058-15.854-2.698-15.832-5.895.022-3.196 7.144-5.736 15.91-5.678 8.768.058 15.854 2.696 15.832 5.89z" fill="#9895A2" fill-opacity=".05" style="mix-blend-mode:multiply" opacity=".57"/>
        <path d="M61.556 60.597c-.02 3.183-7.094 5.717-15.8 5.66-8.706-.058-15.745-2.686-15.723-5.87.022-3.183 7.087-5.714 15.8-5.651 8.712.062 15.745 2.68 15.723 5.86z" fill="#9895A2" fill-opacity=".05" style="mix-blend-mode:multiply" opacity=".57"/>
        <path d="M61.517 60.596c-.022 3.172-7.046 5.694-15.69 5.638-8.646-.056-15.636-2.674-15.622-5.845.014-3.172 7.045-5.693 15.69-5.635 8.645.058 15.642 2.674 15.622 5.842z" fill="#9895A2" fill-opacity=".05" style="mix-blend-mode:multiply" opacity=".58"/>
        <path d="M61.477 60.596c-.022 3.158-6.997 5.673-15.58 5.615-8.585-.058-15.527-2.664-15.505-5.82.021-3.158 6.997-5.67 15.58-5.614 8.585.056 15.526 2.664 15.505 5.82z" fill="#9895A2" fill-opacity=".05" style="mix-blend-mode:multiply" opacity=".58"/>
        <path d="M61.437 60.595c-.02 3.146-6.947 5.65-15.466 5.594-8.518-.056-15.417-2.656-15.396-5.799.02-3.143 6.947-5.645 15.465-5.59 8.519.057 15.419 2.653 15.397 5.795z" fill="#9895A2" fill-opacity=".05" style="mix-blend-mode:multiply" opacity=".58"/>
        <path d="M61.398 60.594c-.02 3.134-6.897 5.624-15.36 5.57-8.462-.052-15.309-2.64-15.287-5.78.022-3.14 6.899-5.623 15.362-5.567 8.464.057 15.305 2.648 15.285 5.777z" fill="#9895A2" fill-opacity=".05" style="mix-blend-mode:multiply" opacity=".59"/>
        <path d="M61.358 60.595c-.021 3.124-6.848 5.605-15.25 5.549-8.4-.057-15.198-2.631-15.177-5.75.02-3.12 6.848-5.601 15.251-5.546 8.403.054 15.197 2.63 15.176 5.747z" fill="#9895A2" fill-opacity=".05" style="mix-blend-mode:multiply" opacity=".59"/>
        <path d="M61.318 60.595c-.02 3.107-6.798 5.581-15.139 5.525-8.34-.056-15.089-2.618-15.067-5.725.022-3.107 6.799-5.579 15.14-5.524 8.343.055 15.082 2.62 15.066 5.724z" fill="#9895A2" fill-opacity=".05" style="mix-blend-mode:multiply" opacity=".59"/>
        <path d="M61.279 60.595c-.02 3.095-6.75 5.558-15.03 5.503-8.28-.054-14.98-2.608-14.957-5.701.021-3.094 6.75-5.557 15.03-5.506 8.282.052 14.977 2.612 14.957 5.704z" fill="#9895A2" fill-opacity=".05" style="mix-blend-mode:multiply" opacity=".6"/>
        <path d="M61.24 60.595c-.02 3.08-6.7 5.536-14.92 5.481-8.22-.054-14.87-2.593-14.849-5.68.02-3.086 6.7-5.533 14.922-5.478 8.222.055 14.867 2.598 14.847 5.677z" fill="#9895A2" fill-opacity=".05" style="mix-blend-mode:multiply" opacity=".6"/>
        <path d="M61.2 60.593c-.02 3.07-6.651 5.515-14.81 5.468-8.16-.047-14.76-2.593-14.738-5.663.022-3.07 6.652-5.51 14.813-5.457 8.16.053 14.756 2.587 14.736 5.652z" fill="#9895A2" fill-opacity=".05" style="mix-blend-mode:multiply" opacity=".6"/>
        <path d="M61.16 60.593c-.02 3.057-6.601 5.49-14.7 5.438-8.098-.054-14.65-2.577-14.629-5.624.02-3.048 6.602-5.488 14.703-5.433 8.102.054 14.644 2.572 14.627 5.619z" fill="#9895A2" fill-opacity=".05" style="mix-blend-mode:multiply" opacity=".61"/>
        <path d="M61.121 60.593c-.02 3.043-6.553 5.467-14.59 5.414-8.038-.053-14.541-2.563-14.52-5.606.02-3.044 6.553-5.468 14.591-5.412 8.04.056 14.54 2.558 14.52 5.604z" fill="#9895A2" fill-opacity=".05" style="mix-blend-mode:multiply" opacity=".61"/>
        <path d="M61.082 60.593c-.02 3.03-6.503 5.445-14.481 5.392-7.978-.053-14.431-2.552-14.411-5.584.02-3.033 6.505-5.442 14.483-5.388 7.978.053 14.43 2.55 14.41 5.58z" fill="#9895A2" fill-opacity=".05" style="mix-blend-mode:multiply" opacity=".61"/>
        <path d="M61.043 60.594c-.02 3.018-6.455 5.422-14.372 5.369-7.917-.053-14.322-2.542-14.301-5.56.02-3.018 6.455-5.42 14.372-5.366 7.917.053 14.32 2.54 14.301 5.557z" fill="#9895A2" fill-opacity=".05" style="mix-blend-mode:multiply" opacity=".62"/>
        <path d="M61.003 60.593c-.02 3.005-6.405 5.398-14.261 5.347-7.856-.052-14.216-2.53-14.193-5.536.024-3.006 6.405-5.398 14.264-5.345 7.86.054 14.208 2.53 14.19 5.534z" fill="#9895A2" fill-opacity=".05" style="mix-blend-mode:multiply" opacity=".62"/>
        <path d="M60.964 60.591c-.02 2.993-6.357 5.379-14.152 5.327-7.795-.052-14.102-2.521-14.081-5.513.02-2.991 6.354-5.374 14.153-5.322 7.798.051 14.1 2.518 14.08 5.508z" fill="#9895A2" fill-opacity=".05" style="mix-blend-mode:multiply" opacity=".62"/>
        <path d="M60.925 60.592c-.02 2.98-6.307 5.355-14.043 5.311-7.736-.043-13.992-2.509-13.972-5.49.02-2.98 6.307-5.35 14.044-5.298 7.737.052 13.99 2.5 13.97 5.477z" fill="#9895A2" fill-opacity=".05" style="mix-blend-mode:multiply" opacity=".63"/>
        <path d="M60.886 60.592c-.02 2.968-6.259 5.331-13.934 5.281-7.674-.05-13.882-2.5-13.862-5.467.02-2.968 6.258-5.329 13.933-5.277 7.675.051 13.881 2.498 13.862 5.463z" fill="#9895A2" fill-opacity=".05" style="mix-blend-mode:multiply" opacity=".63"/>
        <path d="M60.844 60.591c-.018 2.954-6.208 5.312-13.822 5.259-7.614-.054-13.773-2.487-13.746-5.442.026-2.954 6.207-5.31 13.823-5.255 7.616.057 13.766 2.486 13.745 5.438z" fill="#9895A2" fill-opacity=".05" style="mix-blend-mode:multiply" opacity=".63"/>
        <path d="M60.806 60.591c-.02 2.942-6.16 5.286-13.713 5.236-7.553-.05-13.664-2.476-13.644-5.417.02-2.942 6.16-5.283 13.715-5.233 7.554.05 13.66 2.474 13.642 5.414z" fill="#9895A2" fill-opacity=".05" style="mix-blend-mode:multiply" opacity=".64"/>
        <path d="M60.767 60.591c-.02 2.93-6.11 5.263-13.604 5.213-7.493-.05-13.553-2.465-13.534-5.394.019-2.93 6.11-5.26 13.605-5.21 7.495.05 13.552 2.463 13.533 5.391z" fill="#9895A2" fill-opacity=".05" style="mix-blend-mode:multiply" opacity=".64"/>
        <path d="M60.726 60.59c-.018 2.917-6.06 5.243-13.492 5.193-7.433-.05-13.444-2.456-13.425-5.37.018-2.916 6.06-5.239 13.495-5.189 7.434.05 13.443 2.453 13.422 5.367z" fill="#9895A2" fill-opacity=".05" style="mix-blend-mode:multiply" opacity=".64"/>
        <path d="M60.687 60.59c-.018 2.903-6.01 5.219-13.383 5.169-7.372-.05-13.334-2.442-13.308-5.346.027-2.904 6.013-5.215 13.386-5.166 7.374.048 13.327 2.441 13.305 5.342z" fill="#9895A2" fill-opacity=".05" style="mix-blend-mode:multiply" opacity=".65"/>
        <path d="M60.648 60.59c-.02 2.892-5.962 5.196-13.279 5.148-7.317-.049-13.217-2.432-13.2-5.322.017-2.89 5.961-5.193 13.278-5.145 7.317.049 13.22 2.432 13.2 5.32z" fill="#9895A2" fill-opacity=".05" style="mix-blend-mode:multiply" opacity=".65"/>
        <path d="M60.609 60.59c-.02 2.878-5.913 5.173-13.165 5.126-7.251-.047-13.122-2.421-13.095-5.3.026-2.88 5.913-5.17 13.164-5.121 7.252.048 13.114 2.42 13.096 5.295z" fill="#9895A2" fill-opacity=".05" style="mix-blend-mode:multiply" opacity=".66"/>
        <path d="M60.568 60.59c-.019 2.865-5.863 5.155-13.053 5.102-7.191-.053-13.007-2.41-12.987-5.276.02-2.866 5.863-5.155 13.055-5.099 7.193.057 13.004 2.41 12.985 5.273z" fill="#9895A2" fill-opacity=".05" style="mix-blend-mode:multiply" opacity=".66"/>
        <path d="M60.53 60.59c-.02 2.853-5.815 5.127-12.943 5.08-7.128-.046-12.896-2.399-12.877-5.251.019-2.853 5.814-5.124 12.946-5.077 7.13.046 12.897 2.397 12.873 5.248z" fill="#9895A2" fill-opacity=".05" style="mix-blend-mode:multiply" opacity=".66"/>
        <path d="M60.49 60.589c-.019 2.84-5.764 5.105-12.835 5.058-7.07-.047-12.786-2.387-12.767-5.227.019-2.84 5.766-5.102 12.836-5.055 7.07.047 12.785 2.387 12.766 5.224z" fill="#9895A2" fill-opacity=".05" style="mix-blend-mode:multiply" opacity=".67"/>
        <path d="M60.451 60.589c-.02 2.827-5.716 5.083-12.725 5.036-7.01-.047-12.677-2.377-12.654-5.205.024-2.827 5.716-5.078 12.727-5.032 7.011.047 12.671 2.377 12.652 5.2z" fill="#9895A2" fill-opacity=".05" style="mix-blend-mode:multiply" opacity=".67"/>
        <path d="M60.41 60.589c-.019 2.812-5.666 5.06-12.614 5.013-6.949-.047-12.568-2.365-12.55-5.18.016-2.815 5.667-5.055 12.615-5.01 6.949.045 12.568 2.365 12.549 5.177z" fill="#9895A2" fill-opacity=".05" style="mix-blend-mode:multiply" opacity=".67"/>
        <path d="M60.371 60.588c-.018 2.803-5.623 5.037-12.497 4.991-6.873-.045-12.458-2.354-12.44-5.155.02-2.8 5.624-5.033 12.507-4.988 6.883.045 12.455 2.353 12.43 5.152z" fill="#9895A2" fill-opacity=".05" style="mix-blend-mode:multiply" opacity=".68"/>
        <path d="M60.332 60.589c-.019 2.788-5.567 5.014-12.395 4.97-6.829-.046-12.342-2.344-12.33-5.134.013-2.79 5.569-5.012 12.397-4.966 6.828.045 12.347 2.343 12.328 5.13z" fill="#9895A2" fill-opacity=".05" style="mix-blend-mode:multiply" opacity=".68"/>
        <path d="M60.292 60.589c-.017 2.776-5.518 4.99-12.285 4.946-6.767-.046-12.238-2.333-12.22-5.11.02-2.778 5.518-4.988 12.287-4.943 6.769.045 12.236 2.332 12.218 5.107z" fill="#9895A2" fill-opacity=".05" style="mix-blend-mode:multiply" opacity=".68"/>
        <path d="M60.253 60.587c-.019 2.765-5.468 4.97-12.176 4.926-6.708-.044-12.128-2.322-12.11-5.087.02-2.765 5.468-4.964 12.177-4.92 6.71.043 12.128 2.32 12.109 5.081z" fill="#9895A2" fill-opacity=".05" style="mix-blend-mode:multiply" opacity=".69"/>
        <path d="M60.214 60.587c-.019 2.751-5.421 4.946-12.066 4.902-6.646-.043-12.02-2.31-12.001-5.061.019-2.751 5.42-4.943 12.068-4.899 6.647.044 12.025 2.31 11.999 5.058z" fill="#9895A2" fill-opacity=".05" style="mix-blend-mode:multiply" opacity=".69"/>
        <path d="M60.174 60.587c-.018 2.74-5.37 4.927-11.963 4.88-6.592-.046-11.904-2.296-11.885-5.038.019-2.741 5.37-4.92 11.957-4.877 6.586.044 11.908 2.308 11.891 5.035z" fill="#9895A2" fill-opacity=".05" style="mix-blend-mode:multiply" opacity=".69"/>
        <path d="M60.134 60.587c-.017 2.726-5.32 4.9-11.846 4.857-6.525-.044-11.793-2.289-11.782-5.013.011-2.724 5.323-4.897 11.848-4.855 6.525.042 11.799 2.284 11.78 5.011z" fill="#9895A2" fill-opacity=".05" style="mix-blend-mode:multiply" opacity=".7"/>
        <path d="M60.095 60.587c-.018 2.712-5.273 4.877-11.737 4.835-6.464-.042-11.69-2.277-11.672-4.991.017-2.713 5.272-4.874 11.738-4.832 6.465.042 11.69 2.278 11.67 4.988z" fill="#9895A2" fill-opacity=".05" style="mix-blend-mode:multiply" opacity=".7"/>
        <path d="M60.055 60.586c-.018 2.7-5.224 4.856-11.627 4.813-6.403-.044-11.58-2.265-11.56-4.966.02-2.701 5.224-4.852 11.629-4.81 6.405.042 11.576 2.266 11.558 4.963z" fill="#9895A2" fill-opacity=".05" style="mix-blend-mode:multiply" opacity=".7"/>
        <path d="M60.017 60.585c-.02 2.689-5.174 4.833-11.518 4.791-6.344-.042-11.471-2.256-11.454-4.942.017-2.687 5.175-4.83 11.52-4.787 6.343.042 11.469 2.254 11.452 4.938z" fill="#9895A2" fill-opacity=".05" style="mix-blend-mode:multiply" opacity=".71"/>
        <path d="M59.976 60.585c-.017 2.675-5.124 4.81-11.404 4.77-6.28-.041-11.361-2.245-11.343-4.92.02-2.674 5.124-4.807 11.404-4.765 6.28.043 11.362 2.244 11.343 4.915z" fill="#9895A2" fill-opacity=".05" style="mix-blend-mode:multiply" opacity=".71"/>
    </g>
    <path d="M80 32.695c0 17.31-14.032 31.34-31.34 31.34-17.309 0-31.34-14.03-31.34-31.34 0-17.31 14.031-31.34 31.346-31.34C65.98 1.354 80 15.385 80 32.694z" fill="url(#a)"/>
    <path d="M79.999 32.584c.03 4.12-.76 8.204-2.322 12.019A31.222 31.222 0 0 1 70.9 54.81a31.348 31.348 0 0 1-10.195 6.826 31.437 31.437 0 0 1-24.09 0A31.348 31.348 0 0 1 26.42 54.81a31.222 31.222 0 0 1-6.778-10.207 31.134 31.134 0 0 1-2.322-12.02c0-17.247 14.037-31.229 31.339-31.229 17.301 0 31.34 13.982 31.34 31.23z" fill="url(#b)"/>
    <path style="mix-blend-mode:multiply" d="M44.864 66.43c17.016-2.656 28.658-18.603 26.003-35.62C68.21 13.794 52.264 2.152 35.247 4.808 18.231 7.463 6.59 23.41 9.245 40.427 11.9 57.443 27.848 69.085 44.864 66.43z" fill="url(#c)" fill-opacity=".7"/>
    <path style="mix-blend-mode:screen" d="M34.04 7.648c2.344-5.76 12.228-7.186 22.074-3.175 9.847 4.01 15.934 11.922 13.591 17.683-2.343 5.762-12.225 7.186-22.073 3.176S31.698 13.408 34.04 7.648z" fill="url(#d)"/>
    <path style="mix-blend-mode:screen" d="M50.181 7.371c.87-2.67 4.704-3.813 8.563-2.555 3.858 1.257 6.28 4.44 5.41 7.109-.87 2.67-4.695 3.813-8.561 2.556-3.867-1.258-6.288-4.441-5.412-7.11z" fill="url(#e)"/>
    <path style="mix-blend-mode:screen" d="M53.68 13.57c1.326-4.07 7.171-5.813 13.054-3.896 5.884 1.917 9.578 6.77 8.252 10.84-1.327 4.07-7.172 5.814-13.055 3.896-5.883-1.918-9.576-6.77-8.252-10.84z" fill="url(#f)"/>
    <path style="mix-blend-mode:screen" d="M53.68 13.57c1.326-4.07 7.171-5.813 13.054-3.896 5.884 1.917 9.578 6.77 8.252 10.84-1.327 4.07-7.172 5.814-13.055 3.896-5.883-1.918-9.576-6.77-8.252-10.84z" fill="url(#g)"/>
    <path style="mix-blend-mode:screen" d="M61.812 15.973c.469-1.444 2.541-2.06 4.626-1.381 2.083.68 3.394 2.398 2.924 3.841-.47 1.444-2.542 2.059-4.626 1.38-2.084-.68-3.393-2.4-2.924-3.84z" fill="url(#h)"/>
    <defs>
        <linearGradient id="a" x1="48.66" y1="61.709" x2="48.66" y2="-.974" gradientUnits="userSpaceOnUse">
            <stop stop-color="#8F8E92"/>
            <stop offset=".16" stop-color="#A9A7AD"/>
            <stop offset=".53" stop-color="#C9C8CD"/>
            <stop offset=".83" stop-color="#E1E0E3"/>
            <stop offset="1" stop-color="#E4E3E7"/>
        </linearGradient>
        <radialGradient id="b" cx="0" cy="0" r="1" gradientUnits="userSpaceOnUse" gradientTransform="matrix(66.9981 0 0 66.7613 50.179 .923)">
            <stop offset=".01" stop-color="#E2E1E4"/>
            <stop offset="1" stop-color="#9895A2"/>
        </radialGradient>
        <radialGradient id="c" cx="0" cy="0" r="1" gradientUnits="userSpaceOnUse" gradientTransform="translate(39.723 35.487) scale(34.3613)">
            <stop offset=".04" stop-color="#303030"/>
            <stop offset=".33" stop-color="#7C7C7C"/>
            <stop offset=".73" stop-color="#EDEDED"/>
            <stop offset=".81" stop-color="#F4F4F4"/>
            <stop offset=".97" stop-color="#fff"/>
        </radialGradient>
        <radialGradient id="d" cx="0" cy="0" r="1" gradientUnits="userSpaceOnUse" gradientTransform="matrix(-14.132 -5.78126 3.38177 -8.26657 53.351 15.545)">
            <stop offset=".23" stop-color="#E6E6E6"/>
            <stop offset=".33" stop-color="#BDBDBD"/>
            <stop offset=".51" stop-color="#7A7A7A"/>
            <stop offset=".68" stop-color="#464646"/>
            <stop offset=".82" stop-color="#202020"/>
            <stop offset=".93" stop-color="#090909"/>
            <stop offset="1"/>
        </radialGradient>
        <radialGradient id="e" cx="0" cy="0" r="1" gradientUnits="userSpaceOnUse" gradientTransform="matrix(-5.54759 -1.8083 1.24958 -3.8335 57.477 9.563)">
            <stop offset=".13" stop-color="#E6E6E6"/>
            <stop offset=".22" stop-color="#D7D7D7"/>
            <stop offset=".39" stop-color="#B1B1B1"/>
            <stop offset=".62" stop-color="#727272"/>
            <stop offset=".91" stop-color="#1D1D1D"/>
            <stop offset="1"/>
        </radialGradient>
        <radialGradient id="f" cx="0" cy="0" r="1" gradientUnits="userSpaceOnUse" gradientTransform="matrix(653.391 0 0 487.352 5979.58 3093.67)">
            <stop offset=".13" stop-color="#E6E6E6"/>
            <stop offset=".22" stop-color="#D7D7D7"/>
            <stop offset=".39" stop-color="#B1B1B1"/>
            <stop offset=".62" stop-color="#727272"/>
            <stop offset=".91" stop-color="#1D1D1D"/>
            <stop offset="1"/>
        </radialGradient>
        <radialGradient id="g" cx="0" cy="0" r="1" gradientUnits="userSpaceOnUse" gradientTransform="matrix(653.391 0 0 487.352 5979.58 3093.67)">
            <stop offset=".13" stop-color="#E6E6E6"/>
            <stop offset=".22" stop-color="#D7D7D7"/>
            <stop offset=".39" stop-color="#B1B1B1"/>
            <stop offset=".62" stop-color="#727272"/>
            <stop offset=".91" stop-color="#1D1D1D"/>
            <stop offset="1"/>
        </radialGradient>
        <radialGradient id="h" cx="0" cy="0" r="1" gradientUnits="userSpaceOnUse" gradientTransform="matrix(82.0504 0 0 61.1993 2138.99 1110.48)">
            <stop offset=".13" stop-color="#E6E6E6"/>
            <stop offset=".22" stop-color="#D7D7D7"/>
            <stop offset=".39" stop-color="#B1B1B1"/>
            <stop offset=".62" stop-color="#727272"/>
            <stop offset=".91" stop-color="#1D1D1D"/>
            <stop offset="1"/>
        </radialGradient>
    </defs>
</svg>
