<svg width="120" height="107" viewBox="0 0 120 107" fill="none" xmlns="http://www.w3.org/2000/svg">
    <g style="mix-blend-mode:multiply" opacity=".96">
        <path d="M102.105 90.96c-.054 7.922-22.83 14.192-50.877 14.005C23.182 104.777.485 98.209.54 90.287c.054-7.923 22.83-14.191 50.879-14.004 28.049.188 50.738 6.756 50.687 14.676z" fill="#9895A2" fill-opacity=".05" style="mix-blend-mode:multiply" opacity=".01"/>
        <path d="M102.044 90.959c-.052 7.904-22.755 14.158-50.71 13.973C23.379 104.747.757 98.192.809 90.289c.051-7.904 22.769-14.156 50.715-13.97 27.945.185 50.574 6.739 50.52 14.64z" fill="#9895A2" fill-opacity=".05" style="mix-blend-mode:multiply" opacity=".01"/>
        <path d="M101.985 90.96c-.051 7.884-22.683 14.122-50.546 13.937-27.864-.185-50.413-6.723-50.356-14.608.056-7.885 22.685-14.12 50.548-13.935 27.864.185 50.406 6.722 50.354 14.605z" fill="#9895A2" fill-opacity=".05" style="mix-blend-mode:multiply" opacity=".01"/>
        <path d="M101.926 90.96c-.051 7.863-22.61 14.087-50.38 13.904-27.77-.183-50.25-6.707-50.199-14.561.052-7.855 22.61-14.088 50.38-13.903 27.77.186 50.251 6.695 50.199 14.56z" fill="#9895A2" fill-opacity=".05" style="mix-blend-mode:multiply" opacity=".02"/>
        <path d="M101.868 90.959c-.054 7.845-22.535 14.059-50.218 13.872-27.683-.188-50.085-6.693-50.033-14.528.051-7.836 22.537-14.06 50.22-13.87 27.683.19 50.082 6.68 50.031 14.526z" fill="#9895A2" fill-opacity=".05" style="mix-blend-mode:multiply" opacity=".02"/>
        <path d="M101.807 90.957c-.052 7.828-22.46 14.022-50.052 13.839-27.591-.183-49.91-6.674-49.866-14.5.044-7.827 22.46-14.02 50.054-13.837 27.594.183 49.916 6.674 49.864 14.498z" fill="#9895A2" fill-opacity=".05" style="mix-blend-mode:multiply" opacity=".02"/>
        <path d="M101.749 90.957c-.052 7.81-22.388 13.986-49.888 13.806-27.5-.181-49.754-6.657-49.703-14.46C2.21 82.5 24.546 76.318 52.048 76.5c27.503.183 49.752 6.65 49.701 14.456z" fill="#9895A2" fill-opacity=".05" style="mix-blend-mode:multiply" opacity=".03"/>
        <path d="M101.69 90.957c-.052 7.789-22.315 13.954-49.724 13.771-27.409-.183-49.59-6.64-49.538-14.425.051-7.784 22.314-13.951 49.724-13.769 27.408.183 49.59 6.634 49.538 14.423z" fill="#9895A2" fill-opacity=".05" style="mix-blend-mode:multiply" opacity=".03"/>
        <path d="M101.629 90.956c-.051 7.77-22.237 13.919-49.557 13.739-27.32-.181-49.426-6.625-49.375-14.392.052-7.768 22.24-13.917 49.56-13.737 27.32.18 49.424 6.62 49.372 14.39z" fill="#9895A2" fill-opacity=".05" style="mix-blend-mode:multiply" opacity=".03"/>
        <path d="M101.57 90.957c-.051 7.751-22.165 13.883-49.393 13.703-27.229-.18-49.262-6.606-49.22-14.357C3 82.55 25.124 76.419 52.353 76.6c27.228.18 49.269 6.605 49.217 14.357z" fill="#9895A2" fill-opacity=".05" style="mix-blend-mode:multiply" opacity=".04"/>
        <path d="M101.512 90.957c-.052 7.733-22.093 13.851-49.23 13.671-27.137-.181-49.09-6.592-49.046-14.325.044-7.732 22.092-13.85 49.232-13.67 27.139.18 49.095 6.591 49.044 14.324z" fill="#9895A2" fill-opacity=".05" style="mix-blend-mode:multiply" opacity=".04"/>
        <path d="M101.453 90.954c-.051 7.714-22.026 13.825-49.065 13.64-27.039-.186-48.934-6.575-48.883-14.294.052-7.719 22.027-13.825 49.068-13.635 27.041.19 48.929 6.577 48.88 14.289z" fill="#9895A2" fill-opacity=".05" style="mix-blend-mode:multiply" opacity=".04"/>
        <path d="M101.393 90.955c-.05 7.695-21.942 13.783-48.9 13.605-26.956-.178-48.767-6.561-48.718-14.252.05-7.69 21.945-13.78 48.904-13.59 26.959.189 48.765 6.556 48.714 14.237z" fill="#9895A2" fill-opacity=".05" style="mix-blend-mode:multiply" opacity=".05"/>
        <path d="M101.334 90.954c-.052 7.675-21.87 13.751-48.74 13.573-26.87-.179-48.599-6.543-48.547-14.224.052-7.681 21.87-13.748 48.74-13.57 26.87.178 48.598 6.54 48.547 14.221z" fill="#9895A2" fill-opacity=".05" style="mix-blend-mode:multiply" opacity=".05"/>
        <path d="M101.275 90.954c-.051 7.655-21.792 13.715-48.57 13.537-26.78-.178-48.44-6.524-48.389-14.189.052-7.664 21.793-13.715 48.571-13.536 26.779.178 48.437 6.532 48.388 14.188z" fill="#9895A2" fill-opacity=".05" style="mix-blend-mode:multiply" opacity=".05"/>
        <path d="M101.217 90.954c-.052 7.637-21.724 13.68-48.407 13.504-26.683-.176-48.275-6.51-48.212-14.156.063-7.646 21.722-13.677 48.407-13.501 26.684.175 48.261 6.516 48.212 14.153z" fill="#9895A2" fill-opacity=".05" style="mix-blend-mode:multiply" opacity=".06"/>
        <path d="M101.156 90.952c-.049 7.618-21.647 13.647-48.24 13.471-26.594-.176-48.112-6.49-48.06-14.109.051-7.617 21.649-13.644 48.247-13.468 26.598.175 48.104 6.49 48.053 14.106z" fill="#9895A2" fill-opacity=".05" style="mix-blend-mode:multiply" opacity=".06"/>
        <path d="M101.097 90.952c-.049 7.599-21.574 13.614-48.076 13.438-26.503-.176-47.955-6.477-47.896-14.073.058-7.597 21.574-13.605 48.078-13.437 26.505.17 47.936 6.475 47.894 14.072z" fill="#9895A2" fill-opacity=".05" style="mix-blend-mode:multiply" opacity=".07"/>
        <path d="M101.038 90.952c-.051 7.58-21.501 13.591-47.912 13.404-26.41-.188-47.781-6.458-47.732-14.036.05-7.578 21.502-13.591 47.915-13.404 26.413.188 47.779 6.458 47.729 14.036z" fill="#9895A2" fill-opacity=".05" style="mix-blend-mode:multiply" opacity=".07"/>
        <path d="M100.98 90.952c-.051 7.56-21.429 13.544-47.748 13.371-26.32-.173-47.617-6.442-47.568-14.003.05-7.562 21.43-13.542 47.748-13.373 26.32.169 47.618 6.446 47.568 14.005z" fill="#9895A2" fill-opacity=".05" style="mix-blend-mode:multiply" opacity=".07"/>
        <path d="M100.919 90.952c-.049 7.552-21.352 13.511-47.582 13.338-26.23-.174-47.453-6.428-47.404-13.969.05-7.54 21.354-13.508 47.584-13.335 26.23.173 47.454 6.425 47.402 13.966z" fill="#9895A2" fill-opacity=".05" style="mix-blend-mode:multiply" opacity=".08"/>
        <path d="M100.86 90.952c-.049 7.522-21.28 13.476-47.418 13.302-26.139-.173-47.289-6.408-47.24-13.93.05-7.522 21.282-13.476 47.42-13.303 26.14.174 47.282 6.409 47.238 13.93z" fill="#9895A2" fill-opacity=".05" style="mix-blend-mode:multiply" opacity=".08"/>
        <path d="M100.801 90.95c-.051 7.498-21.206 13.443-47.254 13.272-26.047-.171-47.124-6.393-47.075-13.896.049-7.503 21.204-13.44 47.254-13.27 26.05.171 47.125 6.393 47.075 13.893z" fill="#9895A2" fill-opacity=".05" style="mix-blend-mode:multiply" opacity=".08"/>
        <path d="M100.741 90.95c-.049 7.484-21.131 13.41-47.087 13.236-25.957-.173-46.961-6.385-46.91-13.86.052-7.475 21.132-13.406 47.1-13.234 25.967.17 46.949 6.376 46.897 13.858z" fill="#9895A2" fill-opacity=".05" style="mix-blend-mode:multiply" opacity=".09"/>
        <path d="M100.683 90.95c-.05 7.465-21.057 13.375-46.924 13.204-25.867-.171-46.794-6.36-46.745-13.825.049-7.466 21.059-13.382 46.926-13.202 25.867.18 46.792 6.36 46.743 13.823z" fill="#9895A2" fill-opacity=".05" style="mix-blend-mode:multiply" opacity=".09"/>
        <path d="M100.624 90.95c-.05 7.446-20.984 13.339-46.76 13.168-25.775-.171-46.63-6.343-46.581-13.787.049-7.445 20.981-13.338 46.757-13.17 25.776.17 46.63 6.346 46.584 13.788z" fill="#9895A2" fill-opacity=".05" style="mix-blend-mode:multiply" opacity=".09"/>
        <path d="M100.565 90.95c-.049 7.425-20.911 13.307-46.595 13.136-25.685-.171-46.467-6.327-46.418-13.753.05-7.426 20.911-13.305 46.596-13.136 25.684.169 46.466 6.327 46.417 13.752z" fill="#9895A2" fill-opacity=".05" style="mix-blend-mode:multiply" opacity=".1"/>
        <path d="M100.504 90.95c-.049 7.406-20.834 13.272-46.429 13.103-25.595-.169-46.302-6.31-46.253-13.72.05-7.41 20.836-13.27 46.431-13.1 25.596.168 46.3 6.31 46.251 13.716z" fill="#9895A2" fill-opacity=".05" style="mix-blend-mode:multiply" opacity=".1"/>
        <path d="M100.436 90.947c-.049 7.39-20.76 13.239-46.265 13.071-25.503-.169-46.138-6.294-46.089-13.683.05-7.388 20.764-13.236 46.267-13.068 25.504.169 46.146 6.294 46.087 13.68z" fill="#9895A2" fill-opacity=".05" style="mix-blend-mode:multiply" opacity=".1"/>
        <path d="M100.387 90.947c-.049 7.37-20.689 13.204-46.1 13.038-25.413-.167-45.973-6.278-45.929-13.647.045-7.37 20.691-13.202 46.104-13.034 25.412.17 45.974 6.276 45.925 13.643z" fill="#9895A2" fill-opacity=".05" style="mix-blend-mode:multiply" opacity=".11"/>
        <path d="M100.329 90.947c-.049 7.35-20.62 13.171-45.928 13.002-25.307-.168-45.82-6.258-45.768-13.61.051-7.35 20.62-13.168 45.927-13 25.308.17 45.816 6.26 45.769 13.608z" fill="#9895A2" fill-opacity=".05" style="mix-blend-mode:multiply" opacity=".11"/>
        <path d="M100.268 90.947c-.049 7.323-20.539 13.136-45.759 12.97-25.22-.166-45.644-6.245-45.595-13.577.05-7.332 20.541-13.122 45.77-12.965 25.23.157 45.633 6.243 45.584 13.572z" fill="#9895A2" fill-opacity=".05" style="mix-blend-mode:multiply" opacity=".11"/>
        <path d="M100.202 90.947c-.049 7.31-20.466 13.101-45.606 12.934-25.141-.166-45.48-6.226-45.431-13.539C9.214 83.03 29.63 77.243 54.77 77.41c25.14.166 45.487 6.226 45.431 13.537z" fill="#9895A2" fill-opacity=".05" style="mix-blend-mode:multiply" opacity=".12"/>
        <path d="M100.15 90.947c-.049 7.292-20.386 13.068-45.442 12.902-25.056-.166-45.316-6.212-45.267-13.504.05-7.292 20.386-13.066 45.442-12.888 25.057.178 45.319 6.198 45.267 13.49z" fill="#9895A2" fill-opacity=".05" style="mix-blend-mode:multiply" opacity=".12"/>
        <path d="M100.089 90.945c-.046 7.264-20.318 13.036-45.276 12.869-24.958-.166-45.152-6.193-45.102-13.466.049-7.274 20.32-13.033 45.278-12.867 24.958.166 45.15 6.193 45.1 13.464z" fill="#9895A2" fill-opacity=".05" style="mix-blend-mode:multiply" opacity=".12"/>
        <path d="M100.031 90.944c-.047 7.264-20.243 13.001-45.112 12.837-24.869-.164-44.985-6.177-44.932-13.432.054-7.255 20.246-13 45.115-12.834 24.869.167 44.978 6.177 44.929 13.43z" fill="#9895A2" fill-opacity=".05" style="mix-blend-mode:multiply" opacity=".13"/>
        <path d="M99.967 90.945c-.05 7.236-20.17 12.968-44.948 12.804-24.777-.164-44.822-6.163-44.775-13.399.047-7.236 20.178-12.963 44.967-12.799 24.79.164 44.808 6.16 44.756 13.394z" fill="#9895A2" fill-opacity=".05" style="mix-blend-mode:multiply" opacity=".13"/>
        <path d="M99.913 90.945c-.049 7.217-20.098 12.932-44.784 12.768-24.686-.164-44.657-6.144-44.61-13.357.046-7.212 20.088-12.941 44.784-12.77 24.695.17 44.664 6.156 44.61 13.359z" fill="#9895A2" fill-opacity=".05" style="mix-blend-mode:multiply" opacity=".13"/>
        <path d="M99.853 90.945c-.047 7.198-20.023 12.888-44.615 12.735-24.593-.152-44.496-6.13-44.447-13.326.05-7.196 20.023-12.887 44.618-12.733 24.595.155 44.493 6.12 44.444 13.324z" fill="#9895A2" fill-opacity=".05" style="mix-blend-mode:multiply" opacity=".14"/>
        <path d="M99.794 90.945c-.046 7.178-19.948 12.862-44.45 12.701-24.504-.162-44.333-6.112-44.288-13.289.044-7.177 19.95-12.862 44.453-12.7 24.504.161 44.332 6.11 44.285 13.288z" fill="#9895A2" fill-opacity=".05" style="mix-blend-mode:multiply" opacity=".14"/>
        <path d="M99.733 90.942c-.047 7.16-19.875 12.832-44.287 12.67-24.412-.162-44.168-6.093-44.119-13.256.05-7.163 19.876-12.827 44.288-12.665 24.411.162 44.167 6.095 44.118 13.25z" fill="#9895A2" fill-opacity=".05" style="mix-blend-mode:multiply" opacity=".14"/>
        <path d="M99.677 90.943c-.05 7.142-19.803 12.796-44.123 12.635-24.32-.162-44.002-6.079-43.955-13.219.047-7.14 19.803-12.794 44.126-12.632 24.323.162 44.008 6.078 43.952 13.216z" fill="#9895A2" fill-opacity=".05" style="mix-blend-mode:multiply" opacity=".15"/>
        <path d="M99.616 90.942c-.046 7.121-19.727 12.761-43.956 12.602-24.23-.159-43.838-6.062-43.798-13.183.04-7.121 19.728-12.761 43.96-12.6 24.23.162 43.841 6.062 43.794 13.18z" fill="#9895A2" fill-opacity=".05" style="mix-blend-mode:multiply" opacity=".15"/>
        <path d="M99.557 90.943c-.047 7.102-19.653 12.728-43.793 12.569-24.14-.159-43.668-6.046-43.626-13.148.042-7.102 19.655-12.726 43.795-12.567 24.14.16 43.671 6.046 43.624 13.146z" fill="#9895A2" fill-opacity=".05" style="mix-blend-mode:multiply" opacity=".15"/>
        <path d="M99.499 90.942c-.047 7.084-19.58 12.694-43.63 12.534-24.048-.159-43.509-6.029-43.462-13.122.047-7.093 19.583-12.69 43.632-12.531 24.048.159 43.507 6.038 43.46 13.12z" fill="#9895A2" fill-opacity=".05" style="mix-blend-mode:multiply" opacity=".16"/>
        <path d="M99.438 90.943c-.047 7.062-19.505 12.653-43.463 12.501-23.957-.152-43.35-6.013-43.298-13.078.051-7.065 19.507-12.653 43.467-12.499 23.96.155 43.34 6.013 43.294 13.076z" fill="#9895A2" fill-opacity=".05" style="mix-blend-mode:multiply" opacity=".16"/>
        <path d="M99.38 90.94c-.048 7.047-19.433 12.628-43.3 12.469-23.865-.159-43.18-5.997-43.134-13.04.047-7.044 19.435-12.623 43.303-12.466 23.869.157 43.177 5.996 43.13 13.037z" fill="#9895A2" fill-opacity=".05" style="mix-blend-mode:multiply" opacity=".16"/>
        <path d="M99.32 90.94c-.046 7.03-19.357 12.593-43.134 12.436-23.776-.157-43.014-5.98-42.968-13.005.047-7.025 19.358-12.59 43.137-12.433 23.78.157 43.013 5.98 42.966 13.002z" fill="#9895A2" fill-opacity=".05" style="mix-blend-mode:multiply" opacity=".17"/>
        <path d="M99.265 90.94c-.047 7.007-19.285 12.558-42.97 12.401-23.686-.157-42.854-5.961-42.807-12.97.047-7.009 19.285-12.555 42.97-12.398 23.686.157 42.849 5.963 42.807 12.968z" fill="#9895A2" fill-opacity=".05" style="mix-blend-mode:multiply" opacity=".17"/>
        <path d="M99.201 90.94c-.044 6.988-19.214 12.525-42.804 12.368-23.59-.157-42.687-5.947-42.647-12.935.04-6.987 19.215-12.522 42.806-12.365 23.592.157 42.692 5.945 42.645 12.933z" fill="#9895A2" fill-opacity=".05" style="mix-blend-mode:multiply" opacity=".17"/>
        <path d="M99.143 90.94c-.047 6.969-19.138 12.489-42.647 12.332-23.51-.157-42.523-5.928-42.476-12.888.046-6.959 19.137-12.487 42.647-12.332 23.51.155 42.522 5.924 42.476 12.888z" fill="#9895A2" fill-opacity=".05" style="mix-blend-mode:multiply" opacity=".18"/>
        <path d="M99.084 90.94c-.047 6.95-19.062 12.455-42.476 12.3-23.414-.155-42.359-5.907-42.312-12.862.047-6.955 19.065-12.454 42.478-12.3 23.414.155 42.355 5.912 42.31 12.862z" fill="#9895A2" fill-opacity=".05" style="mix-blend-mode:multiply" opacity=".18"/>
        <path d="M99.03 90.938c-.047 6.931-18.98 12.419-42.312 12.269-23.332-.15-42.197-5.898-42.153-12.829.045-6.931 18.98-12.42 42.315-12.264 23.334.154 42.19 5.895 42.15 12.824z" fill="#9895A2" fill-opacity=".05" style="mix-blend-mode:multiply" opacity=".19"/>
        <path d="M98.965 90.938c-.045 6.913-18.915 12.389-42.146 12.234-23.231-.155-42.029-5.88-41.984-12.792.045-6.912 18.917-12.384 42.15-12.231 23.234.152 42.026 5.879 41.98 12.789z" fill="#9895A2" fill-opacity=".05" style="mix-blend-mode:multiply" opacity=".19"/>
        <path d="M98.906 90.938c-.044 6.894-18.842 12.354-41.982 12.201-23.14-.152-41.864-5.858-41.82-12.756.045-6.899 18.843-12.352 41.982-12.2 23.14.153 41.867 5.864 41.82 12.755z" fill="#9895A2" fill-opacity=".05" style="mix-blend-mode:multiply" opacity=".19"/>
        <path d="M98.847 90.938c-.047 6.873-18.767 12.319-41.817 12.166-23.05-.152-41.71-5.858-41.654-12.719.056-6.861 18.767-12.318 41.818-12.166 23.05.152 41.698 5.846 41.653 12.72z" fill="#9895A2" fill-opacity=".05" style="mix-blend-mode:multiply" opacity=".2"/>
        <path d="M98.796 90.938c-.047 6.854-18.694 12.286-41.653 12.133-22.96-.152-41.532-5.83-41.497-12.686.035-6.856 18.694-12.281 41.654-12.131 22.959.15 41.534 5.83 41.496 12.684z" fill="#9895A2" fill-opacity=".05" style="mix-blend-mode:multiply" opacity=".2"/>
        <path d="M98.728 90.936c-.045 6.837-18.62 12.252-41.476 12.1-22.856-.152-41.372-5.814-41.325-12.654.047-6.84 18.62-12.248 41.49-12.098 22.87.15 41.358 5.819 41.31 12.651z" fill="#9895A2" fill-opacity=".05" style="mix-blend-mode:multiply" opacity=".2"/>
        <path d="M98.67 90.935c-.045 6.817-18.548 12.218-41.324 12.068-22.776-.15-41.206-5.797-41.161-12.614.044-6.816 18.546-12.215 41.325-12.063 22.779.153 41.204 5.795 41.16 12.61z" fill="#9895A2" fill-opacity=".05" style="mix-blend-mode:multiply" opacity=".21"/>
        <path d="M98.611 90.936c-.047 6.795-18.472 12.184-41.159 12.034-22.687-.15-41.042-5.783-41.007-12.578.035-6.795 18.472-12.185 41.162-12.03 22.69.154 41.049 5.778 41.004 12.574z" fill="#9895A2" fill-opacity=".05" style="mix-blend-mode:multiply" opacity=".21"/>
        <path d="M98.561 90.935c-.044 6.78-18.396 12.15-40.992 12-22.596-.15-40.878-5.764-40.834-12.543.045-6.78 18.4-12.145 41.007-11.995 22.608.15 40.855 5.762 40.82 12.538z" fill="#9895A2" fill-opacity=".05" style="mix-blend-mode:multiply" opacity=".21"/>
        <path d="M98.491 90.935c-.044 6.758-18.324 12.115-40.828 11.967-22.505-.147-40.714-5.748-40.67-12.508.045-6.76 18.327-12.112 40.831-11.962 22.505.15 40.712 5.745 40.667 12.503z" fill="#9895A2" fill-opacity=".05" style="mix-blend-mode:multiply" opacity=".22"/>
        <path d="M98.433 90.935c-.045 6.74-18.252 12.082-40.665 11.932-22.413-.15-40.538-5.731-40.505-12.47.032-6.74 18.251-12.08 40.667-11.93 22.415.15 40.547 5.73 40.503 12.468z" fill="#9895A2" fill-opacity=".05" style="mix-blend-mode:multiply" opacity=".22"/>
        <path d="M98.374 90.933c-.044 6.723-18.176 12.049-40.5 11.901-22.324-.147-40.388-5.715-40.34-12.435.05-6.72 18.177-12.045 40.501-11.897 22.325.148 40.384 5.708 40.34 12.43z" fill="#9895A2" fill-opacity=".05" style="mix-blend-mode:multiply" opacity=".22"/>
        <path d="M98.313 90.934c-.044 6.702-18.102 12.014-40.334 11.866-22.233-.148-40.22-5.701-40.175-12.398.044-6.697 18.101-12.011 40.336-11.864 22.236.148 40.218 5.697 40.173 12.396z" fill="#9895A2" fill-opacity=".05" style="mix-blend-mode:multiply" opacity=".23"/>
        <path d="M98.254 90.933c-.044 6.683-18.029 11.979-40.17 11.833-22.141-.145-40.055-5.682-40.01-12.365.044-6.683 18.028-11.976 40.184-11.829 22.155.148 40.041 5.68 39.996 12.361z" fill="#9895A2" fill-opacity=".05" style="mix-blend-mode:multiply" opacity=".23"/>
        <path d="M98.196 90.933c-.044 6.664-17.956 11.951-40.006 11.799-22.05-.153-39.892-5.664-39.835-12.328.056-6.664 17.956-11.95 40.006-11.796 22.05.154 39.88 5.663 39.835 12.325z" fill="#9895A2" fill-opacity=".05" style="mix-blend-mode:multiply" opacity=".23"/>
        <path d="M98.138 90.933c-.045 6.645-17.882 11.911-39.835 11.765-21.954-.145-39.728-5.65-39.683-12.292.044-6.643 17.881-11.909 39.835-11.763 21.954.145 39.725 5.647 39.683 12.29z" fill="#9895A2" fill-opacity=".05" style="mix-blend-mode:multiply" opacity=".24"/>
        <path d="M98.077 90.933c-.045 6.624-17.81 11.875-39.676 11.733-21.867-.143-39.564-5.624-39.52-12.258.045-6.634 17.81-11.876 39.68-11.73 21.869.145 39.56 5.63 39.516 12.255z" fill="#9895A2" fill-opacity=".05" style="mix-blend-mode:multiply" opacity=".24"/>
        <path d="M98.018 90.93c-.044 6.608-17.734 11.846-39.512 11.7-21.778-.145-39.4-5.623-39.355-12.222.045-6.599 17.734-11.84 39.515-11.695 21.78.145 39.397 5.614 39.352 12.218z" fill="#9895A2" fill-opacity=".05" style="mix-blend-mode:multiply" opacity=".24"/>
        <path d="M97.96 90.931c-.045 6.59-17.661 11.81-39.348 11.667-21.687-.143-39.233-5.6-39.191-12.185.042-6.584 17.661-11.805 39.35-11.662 21.69.143 39.23 5.596 39.189 12.18z" fill="#9895A2" fill-opacity=".05" style="mix-blend-mode:multiply" opacity=".25"/>
        <path d="M97.899 90.93c-.043 6.562-17.575 11.775-39.182 11.632-21.607-.143-39.069-5.581-39.026-12.15.042-6.567 17.588-11.772 39.183-11.629 21.596.143 39.07 5.582 39.025 12.147z" fill="#9895A2" fill-opacity=".05" style="mix-blend-mode:multiply" opacity=".25"/>
        <path d="M97.84 90.931c-.043 6.561-17.511 11.742-39.018 11.599-21.506-.143-38.898-5.565-38.86-12.114.038-6.55 17.511-11.74 39.017-11.595 21.507.146 38.905 5.563 38.86 12.11z" fill="#9895A2" fill-opacity=".05" style="mix-blend-mode:multiply" opacity=".25"/>
        <path d="M97.781 90.931c-.044 6.53-17.438 11.716-38.853 11.564-21.415-.152-38.741-5.549-38.696-12.08.044-6.53 17.438-11.716 38.853-11.561 21.415.155 38.738 5.549 38.696 12.077z" fill="#9895A2" fill-opacity=".05" style="mix-blend-mode:multiply" opacity=".26"/>
        <path d="M97.723 90.931c-.045 6.51-17.366 11.672-38.69 11.532-21.323-.141-38.577-5.533-38.532-12.045.045-6.512 17.37-11.67 38.694-11.529 21.324.141 38.57 5.533 38.528 12.043z" fill="#9895A2" fill-opacity=".05" style="mix-blend-mode:multiply" opacity=".26"/>
        <path d="M97.662 90.928c-.043 6.493-17.289 11.641-38.523 11.501-21.235-.141-38.41-5.519-38.373-12.01.037-6.49 17.29-11.636 38.525-11.495 21.234.14 38.415 5.52 38.37 12.004z" fill="#9895A2" fill-opacity=".05" style="mix-blend-mode:multiply" opacity=".26"/>
        <path d="M97.603 90.93c-.042 6.473-17.216 11.605-38.359 11.465-21.143-.141-38.246-5.5-38.195-11.972.052-6.472 17.21-11.602 38.352-11.463 21.143.138 38.244 5.5 38.202 11.97z" fill="#9895A2" fill-opacity=".05" style="mix-blend-mode:multiply" opacity=".27"/>
        <path d="M97.545 90.928c-.042 6.453-17.143 11.571-38.195 11.433-21.052-.138-38.083-5.483-38.04-11.95.042-6.468 17.143-11.567 38.195-11.429 21.051.139 38.082 5.495 38.04 11.946z" fill="#9895A2" fill-opacity=".05" style="mix-blend-mode:multiply" opacity=".27"/>
        <path d="M97.486 90.93c-.044 6.434-17.07 11.535-38.03 11.397-20.96-.139-37.919-5.462-37.877-11.902.042-6.439 17.07-11.533 38.031-11.395 20.96.138 37.918 5.467 37.876 11.9z" fill="#9895A2" fill-opacity=".05" style="mix-blend-mode:multiply" opacity=".27"/>
        <path d="M97.425 90.93c-.042 6.415-16.993 11.502-37.864 11.364-20.871-.138-37.755-5.45-37.712-11.866.042-6.416 16.995-11.501 37.867-11.363 20.87.139 37.752 5.45 37.71 11.864z" fill="#9895A2" fill-opacity=".05" style="mix-blend-mode:multiply" opacity=".28"/>
        <path d="M97.367 90.928c-.042 6.404-16.92 11.468-37.703 11.325-20.782-.143-37.59-5.434-37.546-11.829.045-6.394 16.926-11.463 37.703-11.325 20.778.139 37.588 5.434 37.546 11.83z" fill="#9895A2" fill-opacity=".05" style="mix-blend-mode:multiply" opacity=".28"/>
        <path d="M97.308 90.926c-.042 6.378-16.848 11.435-37.537 11.299-20.688-.136-37.424-5.418-37.381-11.796.042-6.378 16.848-11.43 37.536-11.294 20.689.135 37.424 5.417 37.382 11.79z" fill="#9895A2" fill-opacity=".05" style="mix-blend-mode:multiply" opacity=".28"/>
        <path d="M97.25 90.926c-.045 6.36-16.773 11.402-37.37 11.264-20.598-.139-37.258-5.39-37.22-11.759.037-6.369 16.772-11.397 37.372-11.261 20.6.136 37.257 5.4 37.217 11.756z" fill="#9895A2" fill-opacity=".05" style="mix-blend-mode:multiply" opacity=".29"/>
        <path d="M97.189 90.926c-.043 6.34-16.698 11.367-37.204 11.231-20.506-.136-37.098-5.39-37.056-11.716.042-6.327 16.7-11.372 37.204-11.236 20.503.136 37.098 5.385 37.056 11.72z" fill="#9895A2" fill-opacity=".05" style="mix-blend-mode:multiply" opacity=".29"/>
        <path d="M97.13 90.927c-.042 6.326-16.625 11.332-37.04 11.198-20.414-.134-36.934-5.368-36.892-11.688.043-6.32 16.626-11.33 37.042-11.196 20.417.133 36.932 5.368 36.89 11.686z" fill="#9895A2" fill-opacity=".05" style="mix-blend-mode:multiply" opacity=".29"/>
        <path d="M97.072 90.927c-.043 6.3-16.553 11.299-36.876 11.163-20.323-.136-36.77-5.35-36.728-11.653.042-6.303 16.552-11.294 36.878-11.16 20.325.133 36.765 5.351 36.726 11.65z" fill="#9895A2" fill-opacity=".05" style="mix-blend-mode:multiply" opacity=".3"/>
        <path d="M97.01 90.927c-.04 6.282-16.475 11.264-36.709 11.13-20.234-.133-36.606-5.335-36.554-11.618.051-6.282 16.468-11.261 36.704-11.128 20.236.134 36.602 5.336 36.56 11.616z" fill="#9895A2" fill-opacity=".05" style="mix-blend-mode:multiply" opacity=".3"/>
        <path d="M96.952 90.924c-.042 6.264-16.403 11.231-36.555 11.098-20.152-.134-36.44-5.317-36.4-11.58.04-6.264 16.403-11.227 36.555-11.096 20.152.132 36.442 5.32 36.4 11.578z" fill="#9895A2" fill-opacity=".05" style="mix-blend-mode:multiply" opacity=".31"/>
        <path d="M96.893 90.924c-.042 6.245-16.33 11.196-36.38 11.065-20.052-.131-36.277-5.303-36.232-11.545.044-6.243 16.33-11.194 36.383-11.06 20.054.133 36.272 5.295 36.23 11.54z" fill="#9895A2" fill-opacity=".05" style="mix-blend-mode:multiply" opacity=".31"/>
        <path d="M96.835 90.924c-.042 6.226-16.258 11.163-36.217 11.029-19.96-.133-36.103-5.284-36.07-11.51.033-6.226 16.255-11.153 36.217-11.025 19.962.13 36.11 5.284 36.07 11.506z" fill="#9895A2" fill-opacity=".05" style="mix-blend-mode:multiply" opacity=".31"/>
        <path d="M96.774 90.923c-.04 6.205-16.18 11.128-36.051 10.997-19.87-.131-35.948-5.267-35.906-11.482C24.86 84.224 41 79.312 60.871 79.446c19.87.134 35.945 5.275 35.903 11.477z" fill="#9895A2" fill-opacity=".05" style="mix-blend-mode:multiply" opacity=".32"/>
        <path d="M96.715 90.924c-.028 6.186-16.107 11.095-35.88 10.964-19.772-.131-35.79-5.258-35.748-11.44.042-6.181 16.107-11.09 35.89-10.96 19.78.132 35.78 5.25 35.738 11.436z" fill="#9895A2" fill-opacity=".05" style="mix-blend-mode:multiply" opacity=".32"/>
        <path d="M96.657 90.922c-.042 6.17-16.035 11.062-35.723 10.931-19.688-.131-35.617-5.235-35.578-11.402.04-6.168 16.03-11.058 35.726-10.927 19.695.131 35.605 5.233 35.575 11.398z" fill="#9895A2" fill-opacity=".05" style="mix-blend-mode:multiply" opacity=".32"/>
        <path d="M96.598 90.922c-.042 6.148-15.962 11.027-35.559 10.898-19.596-.129-35.453-5.218-35.413-11.367.04-6.149 15.962-11.025 35.561-10.894 19.599.131 35.451 5.216 35.411 11.363z" fill="#9895A2" fill-opacity=".05" style="mix-blend-mode:multiply" opacity=".33"/>
        <path d="M96.537 90.922c-.04 6.13-15.885 10.992-35.383 10.863-19.498-.129-35.29-5.202-35.25-11.332.04-6.13 15.878-10.988 35.4-10.859 19.521.13 35.275 5.2 35.233 11.328z" fill="#9895A2" fill-opacity=".05" style="mix-blend-mode:multiply" opacity=".33"/>
        <path d="M96.478 90.922c-.04 6.11-15.812 10.959-35.228 10.83-19.416-.129-35.125-5.186-35.095-11.297.03-6.11 15.815-10.954 35.231-10.826 19.416.13 35.132 5.184 35.092 11.293z" fill="#9895A2" fill-opacity=".05" style="mix-blend-mode:multiply" opacity=".33"/>
        <path d="M96.42 90.922c-.042 6.092-15.74 10.924-35.064 10.795-19.325-.129-34.961-5.17-34.915-11.26.047-6.09 15.74-10.921 35.067-10.792 19.327.128 34.945 5.166 34.912 11.257z" fill="#9895A2" fill-opacity=".05" style="mix-blend-mode:multiply" opacity=".34"/>
        <path d="M96.36 90.922c-.04 6.07-15.665 10.889-34.899 10.762-19.233-.126-34.797-5.155-34.755-11.224.042-6.069 15.665-10.89 34.9-10.76 19.236.129 34.795 5.15 34.753 11.222z" fill="#9895A2" fill-opacity=".05" style="mix-blend-mode:multiply" opacity=".34"/>
        <path d="M96.3 90.92c-.04 6.054-15.59 10.858-34.733 10.729-19.145-.129-34.631-5.134-34.591-11.19.04-6.054 15.582-10.85 34.736-10.724 19.154.126 34.628 5.134 34.589 11.184z" fill="#9895A2" fill-opacity=".05" style="mix-blend-mode:multiply" opacity=".34"/>
        <path d="M96.242 90.92c-.04 6.035-15.517 10.823-34.57 10.696-19.053-.126-34.467-5.12-34.427-11.154.04-6.034 15.517-10.819 34.572-10.692 19.056.127 34.465 5.118 34.425 11.15z" fill="#9895A2" fill-opacity=".05" style="mix-blend-mode:multiply" opacity=".35"/>
        <path d="M96.183 90.919c-.04 6.015-15.444 10.779-34.406 10.664-18.961-.115-34.303-5.103-34.263-11.119.04-6.015 15.445-10.779 34.408-10.66 18.964.12 34.296 5.11 34.261 11.115z" fill="#9895A2" fill-opacity=".05" style="mix-blend-mode:multiply" opacity=".35"/>
        <path d="M96.122 90.92c-.04 5.995-15.37 10.752-34.24 10.63-18.87-.121-34.138-5.09-34.086-11.083.051-5.994 15.369-10.75 34.241-10.627 18.873.124 34.125 5.085 34.085 11.08z" fill="#9895A2" fill-opacity=".05" style="mix-blend-mode:multiply" opacity=".35"/>
        <path d="M96.064 90.919c-.04 5.978-15.294 10.72-34.075 10.596-18.781-.124-33.977-5.07-33.935-11.048.042-5.978 15.296-10.709 34.078-10.592 18.78.117 33.972 5.069 33.932 11.044z" fill="#9895A2" fill-opacity=".05" style="mix-blend-mode:multiply" opacity=".36"/>
        <path d="M96.005 90.92c-.04 5.956-15.231 10.685-33.911 10.561-18.68-.125-33.811-5.052-33.771-11.014.04-5.96 15.23-10.683 33.914-10.558 18.682.124 33.808 5.054 33.768 11.01z" fill="#9895A2" fill-opacity=".05" style="mix-blend-mode:multiply" opacity=".36"/>
        <path d="M95.946 90.917c-.04 5.94-15.149 10.652-33.742 10.53-18.594-.121-33.645-5.038-33.607-10.975.037-5.938 15.149-10.65 33.742-10.526 18.594.124 33.645 5.035 33.607 10.97z" fill="#9895A2" fill-opacity=".05" style="mix-blend-mode:multiply" opacity=".36"/>
        <path d="M95.886 90.917c-.04 5.921-15.074 10.619-33.581 10.495-18.507-.124-33.48-5.017-33.44-10.938.04-5.922 15.073-10.615 33.583-10.493 18.509.122 33.478 5.02 33.438 10.936z" fill="#9895A2" fill-opacity=".05" style="mix-blend-mode:multiply" opacity=".37"/>
        <path d="M95.827 90.917c-.04 5.9-14.997 10.584-33.417 10.462-18.42-.121-33.316-5.003-33.274-10.905.042-5.903 14.997-10.58 33.417-10.458 18.42.122 33.314 5.003 33.274 10.9z" fill="#9895A2" fill-opacity=".05" style="mix-blend-mode:multiply" opacity=".37"/>
        <path d="M95.769 90.917c-.04 5.881-14.927 10.544-33.253 10.427-18.327-.117-33.152-4.986-33.113-10.868.04-5.881 14.927-10.544 33.253-10.425 18.327.12 33.15 4.986 33.113 10.866z" fill="#9895A2" fill-opacity=".05" style="mix-blend-mode:multiply" opacity=".37"/>
        <path d="M95.707 90.917c-.037 5.858-14.851 10.516-33.086 10.394-18.235-.122-32.989-4.97-32.951-10.833.037-5.862 14.854-10.511 33.089-10.392 18.235.12 32.99 4.97 32.948 10.83z" fill="#9895A2" fill-opacity=".05" style="mix-blend-mode:multiply" opacity=".38"/>
        <path d="M95.649 90.917c-.038 5.842-14.779 10.481-32.923 10.362-18.143-.12-32.822-4.956-32.784-10.798.038-5.841 14.779-10.488 32.925-10.36 18.146.13 32.822 4.954 32.782 10.796z" fill="#9895A2" fill-opacity=".05" style="mix-blend-mode:multiply" opacity=".38"/>
        <path d="M95.59 90.914c-.04 5.826-14.704 10.449-32.758 10.329-18.055-.119-32.658-4.937-32.62-10.762.037-5.825 14.706-10.444 32.76-10.324 18.055.12 32.656 4.937 32.618 10.757z" fill="#9895A2" fill-opacity=".05" style="mix-blend-mode:multiply" opacity=".38"/>
        <path d="M95.532 90.914c-.04 5.807-14.631 10.416-32.595 10.297-17.963-.12-32.493-4.921-32.456-10.728.037-5.806 14.631-10.41 32.597-10.291 17.966.12 32.491 4.92 32.454 10.722z" fill="#9895A2" fill-opacity=".05" style="mix-blend-mode:multiply" opacity=".39"/>
        <path d="M95.471 90.914c-.038 5.786-14.556 10.381-32.428 10.261-17.872-.119-32.337-4.904-32.292-10.69.044-5.785 14.558-10.375 32.428-10.258 17.87.117 32.337 4.904 32.292 10.687z" fill="#9895A2" fill-opacity=".05" style="mix-blend-mode:multiply" opacity=".39"/>
        <path d="M95.413 90.914c-.038 5.767-14.484 10.346-32.265 10.229-17.78-.118-32.165-4.888-32.126-10.655.04-5.767 14.484-10.343 32.265-10.226 17.78.117 32.163 4.886 32.126 10.652z" fill="#9895A2" fill-opacity=".05" style="mix-blend-mode:multiply" opacity=".39"/>
        <path d="M95.354 90.915c-.037 5.747-14.409 10.31-32.102 10.193-17.694-.118-32.002-4.87-31.962-10.62.04-5.75 14.408-10.31 32.102-10.19 17.694.119 32 4.87 31.962 10.617z" fill="#9895A2" fill-opacity=".05" style="mix-blend-mode:multiply" opacity=".4"/>
        <path d="M95.296 90.914c-.04 5.73-14.337 10.277-31.937 10.16-17.6-.117-31.837-4.855-31.797-10.584.04-5.73 14.336-10.264 31.936-10.158 17.6.105 31.835 4.855 31.798 10.582z" fill="#9895A2" fill-opacity=".05" style="mix-blend-mode:multiply" opacity=".4"/>
        <path d="M95.234 90.912c-.037 5.71-14.26 10.245-31.77 10.13-17.508-.115-31.67-4.839-31.633-10.545.037-5.705 14.26-10.24 31.772-10.125 17.51.115 31.678 4.834 31.631 10.54z" fill="#9895A2" fill-opacity=".05" style="mix-blend-mode:multiply" opacity=".4"/>
        <path d="M95.176 90.912c-.037 5.691-14.188 10.209-31.606 10.094-17.417-.114-31.507-4.822-31.47-10.511.038-5.69 14.189-10.208 31.609-10.09 17.42.117 31.505 4.82 31.467 10.507z" fill="#9895A2" fill-opacity=".05" style="mix-blend-mode:multiply" opacity=".41"/>
        <path d="M95.118 90.912c-.038 5.673-14.114 10.176-31.442 10.061-17.328-.114-31.343-4.813-31.306-10.476.038-5.664 14.116-10.172 31.442-10.057 17.326.115 31.343 4.803 31.306 10.472z" fill="#9895A2" fill-opacity=".05" style="mix-blend-mode:multiply" opacity=".41"/>
        <path d="M95.058 90.912c-.04 5.651-14.04 10.141-31.278 10.026-17.236-.114-31.179-4.778-31.141-10.441.037-5.664 14.04-10.137 31.277-10.022 17.237.115 31.177 4.787 31.142 10.437z" fill="#9895A2" fill-opacity=".05" style="mix-blend-mode:multiply" opacity=".42"/>
        <path d="M94.997 90.912c-.037 5.623-13.966 10.106-31.111 9.994-17.146-.113-31.015-4.774-30.978-10.407.038-5.633 13.968-10.104 31.114-9.989 17.145.115 31.024 4.77 30.975 10.402z" fill="#9895A2" fill-opacity=".05" style="mix-blend-mode:multiply" opacity=".42"/>
        <path d="M94.94 90.912c-.038 5.624-13.894 10.076-30.948 9.959-17.054-.118-30.85-4.755-30.806-10.37.044-5.614 13.893-10.075 30.95-9.956 17.056.12 30.841 4.755 30.803 10.367z" fill="#9895A2" fill-opacity=".05" style="mix-blend-mode:multiply" opacity=".42"/>
        <path d="M94.88 90.91c-.037 5.596-13.825 10.041-30.783 9.929-16.958-.113-30.696-4.74-30.647-10.334.049-5.593 13.825-10.036 30.783-9.924 16.958.113 30.685 4.738 30.647 10.33z" fill="#9895A2" fill-opacity=".05" style="mix-blend-mode:multiply" opacity=".43"/>
        <path d="M94.812 90.91c-.035 5.576-13.743 10.005-30.617 9.892-16.873-.112-30.52-4.721-30.483-10.298.037-5.577 13.743-10.001 30.62-9.889 16.875.113 30.525 4.722 30.48 10.294z" fill="#9895A2" fill-opacity=".05" style="mix-blend-mode:multiply" opacity=".43"/>
        <path d="M94.761 90.91c-.037 5.557-13.67 9.972-30.462 9.86-16.792-.113-30.357-4.706-30.32-10.264.038-5.558 13.671-9.968 30.463-9.856 16.791.113 30.357 4.706 30.319 10.26z" fill="#9895A2" fill-opacity=".05" style="mix-blend-mode:multiply" opacity=".43"/>
        <path d="M94.702 90.91c-.037 5.537-13.59 9.938-30.286 9.828-16.696-.11-30.195-4.687-30.158-10.228.038-5.542 13.591-9.934 30.29-9.823 16.697.11 30.192 4.695 30.154 10.223z" fill="#9895A2" fill-opacity=".05" style="mix-blend-mode:multiply" opacity=".44"/>
        <path d="M94.644 90.91c-.038 5.518-13.523 9.902-30.123 9.792-16.6-.11-30.03-4.673-29.993-10.191.037-5.518 13.523-9.9 30.125-9.79 16.602.11 30.026 4.672 29.99 10.188z" fill="#9895A2" fill-opacity=".05" style="mix-blend-mode:multiply" opacity=".44"/>
        <path d="M94.578 90.907c-.035 5.502-13.448 9.87-29.956 9.762-16.508-.108-29.865-4.656-29.83-10.158.036-5.502 13.45-9.865 29.961-9.755 16.51.11 29.867 4.656 29.825 10.15z" fill="#9895A2" fill-opacity=".05" style="mix-blend-mode:multiply" opacity=".44"/>
        <path d="M94.524 90.907c-.035 5.481-13.375 9.842-29.792 9.727-16.417-.115-29.7-4.64-29.672-10.12.028-5.481 13.375-9.842 29.796-9.722 16.422.119 29.706 4.64 29.668 10.115z" fill="#9895A2" fill-opacity=".05" style="mix-blend-mode:multiply" opacity=".45"/>
        <path d="M94.465 90.907c-.037 5.462-13.302 9.802-29.628 9.694-16.325-.108-29.525-4.623-29.501-10.076.023-5.453 13.314-9.807 29.633-9.699 16.318.108 29.532 4.623 29.496 10.08z" fill="#9895A2" fill-opacity=".05" style="mix-blend-mode:multiply" opacity=".45"/>
        <path d="M94.407 90.907c-.037 5.443-13.227 9.766-29.463 9.659-16.237-.108-29.373-4.607-29.336-10.048.038-5.441 13.228-9.764 29.464-9.657 16.237.108 29.37 4.607 29.335 10.046z" fill="#9895A2" fill-opacity=".05" style="mix-blend-mode:multiply" opacity=".45"/>
        <path d="M94.344 90.907c-.036 5.425-13.153 9.734-29.291 9.626-16.138-.108-29.209-4.59-29.171-10.015.037-5.425 13.153-9.73 29.29-9.621 16.138.107 29.211 4.59 29.172 10.01z" fill="#9895A2" fill-opacity=".05" style="mix-blend-mode:multiply" opacity=".46"/>
        <path d="M94.287 90.907c-.035 5.404-13.08 9.699-29.133 9.593-16.054-.105-29.057-4.574-29.007-9.98.049-5.405 13.08-9.694 29.14-9.59 16.06.103 29.035 4.576 29 9.977z" fill="#9895A2" fill-opacity=".05" style="mix-blend-mode:multiply" opacity=".46"/>
        <path d="M94.23 90.904c-.038 5.39-13.006 9.666-28.97 9.561-15.965-.106-28.879-4.558-28.843-9.943.035-5.384 13.005-9.66 28.971-9.555 15.967.105 28.876 4.555 28.841 9.938z" fill="#9895A2" fill-opacity=".05" style="mix-blend-mode:multiply" opacity=".46"/>
        <path d="M94.168 90.904c-.035 5.369-12.93 9.634-28.803 9.528-15.874-.105-28.714-4.541-28.68-9.895.036-5.355 12.933-9.629 28.808-9.523 15.876.105 28.712 4.527 28.675 9.89z" fill="#9895A2" fill-opacity=".05" style="mix-blend-mode:multiply" opacity=".47"/>
        <path d="M94.11 90.906c-.035 5.347-12.858 9.607-28.64 9.492-15.781-.115-28.55-4.522-28.514-9.86.035-5.338 12.866-9.608 28.641-9.5 15.775.108 28.548 4.523 28.513 9.868z" fill="#9895A2" fill-opacity=".05" style="mix-blend-mode:multiply" opacity=".47"/>
        <path d="M94.051 90.905c-.035 5.329-12.785 9.563-28.475 9.46-15.69-.103-28.386-4.508-28.353-9.842.032-5.333 12.785-9.558 28.477-9.455 15.693.103 28.386 4.511 28.351 9.837z" fill="#9895A2" fill-opacity=".05" style="mix-blend-mode:multiply" opacity=".47"/>
        <path d="M93.992 90.905c-.035 5.31-12.71 9.53-28.31 9.425-15.602-.106-28.223-4.49-28.188-9.793.035-5.302 12.712-9.525 28.314-9.422 15.601.103 28.22 4.483 28.184 9.79z" fill="#9895A2" fill-opacity=".05" style="mix-blend-mode:multiply" opacity=".48"/>
        <path d="M93.93 90.906c-.034 5.288-12.634 9.494-28.144 9.391-15.51-.103-28.058-4.475-28.02-9.76.037-5.283 12.635-9.492 28.147-9.389 15.512.103 28.053 4.469 28.018 9.758z" fill="#9895A2" fill-opacity=".05" style="mix-blend-mode:multiply" opacity=".48"/>
        <path d="M93.875 90.903c-.035 5.272-12.562 9.462-27.98 9.359-15.419-.103-27.885-4.452-27.857-9.73.028-5.276 12.562-9.454 27.983-9.353 15.421.1 27.887 4.456 27.854 9.724z" fill="#9895A2" fill-opacity=".05" style="mix-blend-mode:multiply" opacity=".48"/>
        <path d="M93.814 90.903c-.035 5.253-12.49 9.427-27.817 9.326-15.327-.101-27.727-4.44-27.692-9.692.035-5.251 12.49-9.422 27.819-9.321 15.33.1 27.725 4.438 27.69 9.687z" fill="#9895A2" fill-opacity=".05" style="mix-blend-mode:multiply" opacity=".49"/>
        <path d="M93.755 90.903c-.035 5.232-12.419 9.394-27.65 9.293-15.231-.1-27.566-4.426-27.53-9.659.034-5.232 12.418-9.389 27.65-9.288 15.23.1 27.563 4.424 27.53 9.654z" fill="#9895A2" fill-opacity=".05" style="mix-blend-mode:multiply" opacity=".49"/>
        <path d="M93.695 90.903c-.033 5.213-12.34 9.358-27.487 9.258-15.146-.101-27.4-4.408-27.364-9.624.035-5.216 12.342-9.357 27.488-9.256 15.147.1 27.398 4.41 27.363 9.621z" fill="#9895A2" fill-opacity=".05" style="mix-blend-mode:multiply" opacity=".49"/>
        <path d="M93.64 90.902c-.034 5.195-12.266 9.324-27.322 9.226-15.055-.099-27.24-4.394-27.205-9.591.035-5.198 12.267-9.32 27.325-9.22 15.058.098 27.233 4.393 27.203 9.585z" fill="#9895A2" fill-opacity=".05" style="mix-blend-mode:multiply" opacity=".5"/>
        <path d="M93.577 90.903c-.035 5.174-12.184 9.291-27.158 9.19-14.973-.1-27.071-4.375-27.036-9.556.035-5.18 12.185-9.286 27.16-9.188 14.976.099 27.067 4.38 27.034 9.554z" fill="#9895A2" fill-opacity=".05" style="mix-blend-mode:multiply" opacity=".5"/>
        <path d="M93.519 90.9c-.035 5.156-12.12 9.259-26.994 9.16-14.875-.098-26.905-4.368-26.873-9.523.033-5.155 12.122-9.246 26.997-9.138 14.875.107 26.903 4.349 26.87 9.501z" fill="#9895A2" fill-opacity=".05" style="mix-blend-mode:multiply" opacity=".5"/>
        <path d="M93.458 90.9c-.033 5.14-12.044 9.224-26.828 9.125-14.783-.098-26.74-4.332-26.708-9.487.033-5.156 12.047-9.219 26.832-9.12 14.786.098 26.74 4.349 26.704 9.483z" fill="#9895A2" fill-opacity=".05" style="mix-blend-mode:multiply" opacity=".51"/>
        <path d="M93.406 90.9c-.035 5.12-11.971 9.191-26.663 9.092-14.692-.098-26.577-4.326-26.542-9.443.035-5.118 11.964-9.186 26.657-9.087 14.692.098 26.574 4.323 26.548 9.438z" fill="#9895A2" fill-opacity=".05" style="mix-blend-mode:multiply" opacity=".51"/>
        <path d="M93.34 90.9c-.035 5.099-11.898 9.155-26.5 9.059-14.6-.096-26.412-4.31-26.377-9.41.035-5.102 11.897-9.14 26.5-9.053 14.603.087 26.41 4.307 26.378 9.404z" fill="#9895A2" fill-opacity=".05" style="mix-blend-mode:multiply" opacity=".51"/>
        <path d="M93.28 90.9c-.033 5.08-11.822 9.12-26.334 9.024-14.511-.096-26.244-4.293-26.213-9.373.03-5.08 11.824-9.115 26.335-9.019 14.512.096 26.247 4.29 26.212 9.368z" fill="#9895A2" fill-opacity=".05" style="mix-blend-mode:multiply" opacity=".52"/>
        <path d="M93.221 90.9c-.033 5.062-11.749 9.085-26.17 8.991-14.42-.093-26.082-4.276-26.049-9.338.033-5.06 11.751-9.082 26.172-8.986 14.42.096 26.08 4.284 26.047 9.333z" fill="#9895A2" fill-opacity=".05" style="mix-blend-mode:multiply" opacity=".52"/>
        <path d="M93.172 90.898c-.032 5.043-11.676 9.054-26.01 8.958-14.333-.096-25.918-4.26-25.886-9.3.033-5.04 11.677-9.05 26.01-8.954 14.334.096 25.91 4.249 25.886 9.296z" fill="#9895A2" fill-opacity=".05" style="mix-blend-mode:multiply" opacity=".52"/>
        <path d="M93.104 90.898c-.035 5.028-11.604 9.012-25.841 8.925-14.238-.087-25.755-4.244-25.722-9.267.033-5.024 11.604-9.015 25.855-8.924 14.252.092 25.741 4.246 25.708 9.266z" fill="#9895A2" fill-opacity=".05" style="mix-blend-mode:multiply" opacity=".53"/>
        <path d="M93.043 90.898c-.033 5.005-11.526 8.984-25.675 8.89-14.148-.094-25.59-4.218-25.557-9.23.032-5.012 11.528-8.98 25.677-8.886 14.148.094 25.588 4.225 25.555 9.226z" fill="#9895A2" fill-opacity=".05" style="mix-blend-mode:multiply" opacity=".53"/>
        <path d="M92.985 90.898c-.033 4.984-11.454 8.951-25.511 8.857-14.057-.093-25.427-4.21-25.385-9.194.043-4.985 11.457-8.947 25.514-8.853 14.057.093 25.415 4.208 25.382 9.19z" fill="#9895A2" fill-opacity=".05" style="mix-blend-mode:multiply" opacity=".54"/>
        <path d="M92.938 90.899c-.033 4.965-11.382 8.916-25.347 8.822-13.966-.094-25.267-4.192-25.24-9.157.029-4.966 11.382-8.905 25.347-8.82 13.966.084 25.26 4.192 25.24 9.155z" fill="#9895A2" fill-opacity=".05" style="mix-blend-mode:multiply" opacity=".54"/>
        <path d="M92.867 90.898c-.035 4.946-11.308 8.88-25.182 8.79-13.875-.092-25.097-4.176-25.073-9.125.023-4.95 11.306-8.877 25.183-8.785 13.876.091 25.103 4.176 25.072 9.12z" fill="#9895A2" fill-opacity=".05" style="mix-blend-mode:multiply" opacity=".54"/>
        <path d="M92.806 90.895c-.032 4.921-11.23 8.85-25.016 8.76-13.785-.092-24.932-4.162-24.9-9.09.033-4.928 11.234-8.843 25.02-8.752 13.785.091 24.93 4.16 24.897 9.082z" fill="#9895A2" fill-opacity=".05" style="mix-blend-mode:multiply" opacity=".55"/>
        <path d="M92.748 90.895c-.033 4.921-11.159 8.816-24.853 8.724-13.693-.091-24.768-4.142-24.735-9.052.033-4.909 11.159-8.81 24.855-8.719 13.696.092 24.766 4.143 24.733 9.047z" fill="#9895A2" fill-opacity=".05" style="mix-blend-mode:multiply" opacity=".55"/>
        <path d="M92.69 90.895c-.033 4.89-11.087 8.78-24.689 8.692-13.603-.09-24.604-4.13-24.571-9.017.033-4.888 11.079-8.778 24.688-8.687 13.61.092 24.604 4.127 24.571 9.013z" fill="#9895A2" fill-opacity=".05" style="mix-blend-mode:multiply" opacity=".55"/>
        <path d="M92.629 90.895c-.03 4.87-11.014 8.748-24.523 8.656-13.508-.091-24.44-4.11-24.407-8.981.033-4.872 11.014-8.74 24.525-8.651 13.51.088 24.437 4.11 24.405 8.977z" fill="#9895A2" fill-opacity=".05" style="mix-blend-mode:multiply" opacity=".56"/>
        <path d="M92.57 90.895c-.033 4.85-10.936 8.713-24.358 8.624-13.422-.09-24.276-4.094-24.248-8.947.028-4.853 10.943-8.705 24.37-8.618 13.426.086 24.269 4.093 24.236 8.941z" fill="#9895A2" fill-opacity=".05" style="mix-blend-mode:multiply" opacity=".56"/>
        <path d="M92.511 90.893c-.032 4.834-10.863 8.67-24.194 8.59-13.33-.08-24.11-4.077-24.079-8.904.03-4.827 10.866-8.67 24.197-8.585 13.33.084 24.11 4.072 24.076 8.9z" fill="#9895A2" fill-opacity=".05" style="mix-blend-mode:multiply" opacity=".56"/>
        <path d="M92.453 90.893c-.033 4.816-10.791 8.644-24.03 8.558-13.24-.087-23.946-4.061-23.913-8.874.033-4.813 10.779-8.64 24.03-8.553 13.25.087 23.943 4.06 23.913 8.87z" fill="#9895A2" fill-opacity=".05" style="mix-blend-mode:multiply" opacity=".57"/>
        <path d="M92.392 90.893c-.03 4.794-10.716 8.611-23.864 8.525-13.148-.087-23.781-4.047-23.749-8.841.033-4.794 10.716-8.605 23.866-8.518 13.15.087 23.78 4.044 23.747 8.834z" fill="#9895A2" fill-opacity=".05" style="mix-blend-mode:multiply" opacity=".57"/>
        <path d="M92.333 90.893c-.03 4.776-10.64 8.576-23.7 8.49-13.058-.087-23.617-4.028-23.584-8.804.033-4.775 10.631-8.571 23.7-8.478 13.068.094 23.617 4.021 23.584 8.792z" fill="#9895A2" fill-opacity=".05" style="mix-blend-mode:multiply" opacity=".57"/>
        <path d="M92.275 90.893c-.033 4.757-10.568 8.541-23.536 8.457-12.967-.084-23.453-4.012-23.432-8.768.02-4.757 10.568-8.54 23.535-8.453 12.968.087 23.463 4.012 23.433 8.764z" fill="#9895A2" fill-opacity=".05" style="mix-blend-mode:multiply" opacity=".58"/>
        <path d="M92.216 90.893c-.033 4.736-10.495 8.508-23.371 8.422-12.877-.087-23.29-3.995-23.257-8.731.033-4.736 10.495-8.504 23.372-8.42 12.876.085 23.287 3.996 23.256 8.73z" fill="#9895A2" fill-opacity=".05" style="mix-blend-mode:multiply" opacity=".58"/>
        <path d="M92.156 90.89c-.031 4.72-10.42 8.476-23.199 8.392-12.777-.084-23.125-3.984-23.095-8.698.03-4.715 10.42-8.469 23.199-8.384 12.777.084 23.127 3.978 23.094 8.69z" fill="#9895A2" fill-opacity=".05" style="mix-blend-mode:multiply" opacity=".58"/>
        <path d="M92.097 90.891c-.03 4.7-10.346 8.436-23.039 8.356-12.693-.08-22.964-3.96-22.931-8.67.033-4.71 10.348-8.435 23.044-8.351 12.695.084 22.956 3.972 22.926 8.665z" fill="#9895A2" fill-opacity=".05" style="mix-blend-mode:multiply" opacity=".59"/>
        <path d="M92.038 90.89c-.032 4.687-10.272 8.408-22.874 8.324-12.602-.085-22.798-3.946-22.767-8.626.03-4.68 10.272-8.4 22.877-8.318 12.604.082 22.795 3.946 22.764 8.62z" fill="#9895A2" fill-opacity=".05" style="mix-blend-mode:multiply" opacity=".59"/>
        <path d="M91.977 90.89c-.03 4.661-10.198 8.373-22.708 8.289-12.51-.085-22.634-3.928-22.601-8.588.033-4.661 10.198-8.368 22.71-8.286 12.514.082 22.623 3.93 22.599 8.586z" fill="#9895A2" fill-opacity=".05" style="mix-blend-mode:multiply" opacity=".59"/>
        <path d="M91.918 90.891c-.03 4.642-10.125 8.338-22.544 8.256-12.419-.082-22.47-3.914-22.436-8.553.032-4.64 10.125-8.335 22.546-8.258 12.422.078 22.465 3.918 22.434 8.555z" fill="#9895A2" fill-opacity=".05" style="mix-blend-mode:multiply" opacity=".6"/>
        <path d="M91.86 90.89c-.03 4.622-10.05 8.305-22.38 8.223-12.33-.082-22.303-3.89-22.273-8.52.03-4.63 10.05-8.3 22.383-8.218 12.332.082 22.3 3.897 22.27 8.516z" fill="#9895A2" fill-opacity=".05" style="mix-blend-mode:multiply" opacity=".6"/>
        <path d="M91.801 90.888c-.03 4.605-9.978 8.272-22.216 8.202-12.239-.07-22.14-3.89-22.106-8.495.032-4.604 9.977-8.264 22.218-8.184 12.241.08 22.135 3.88 22.104 8.477z" fill="#9895A2" fill-opacity=".05" style="mix-blend-mode:multiply" opacity=".6"/>
        <path d="M91.74 90.889c-.03 4.586-9.902 8.237-22.05 8.157-12.147-.08-21.974-3.864-21.944-8.436.03-4.572 9.903-8.232 22.055-8.15 12.152.082 21.965 3.86 21.94 8.429z" fill="#9895A2" fill-opacity=".05" style="mix-blend-mode:multiply" opacity=".61"/>
        <path d="M91.682 90.89c-.03 4.564-9.83 8.2-21.886 8.12-12.056-.079-21.81-3.845-21.78-8.41.03-4.564 9.83-8.2 21.888-8.116 12.058.084 21.809 3.836 21.778 8.405z" fill="#9895A2" fill-opacity=".05" style="mix-blend-mode:multiply" opacity=".61"/>
        <path d="M91.624 90.889c-.03 4.546-9.755 8.169-21.722 8.089-11.967-.08-21.647-3.829-21.617-8.377.03-4.549 9.758-8.162 21.724-8.082 11.967.08 21.645 3.826 21.615 8.37z" fill="#9895A2" fill-opacity=".05" style="mix-blend-mode:multiply" opacity=".61"/>
        <path d="M91.565 90.889c-.03 4.527-9.682 8.133-21.558 8.054-11.875-.08-21.483-3.813-21.452-8.34.03-4.527 9.682-8.129 21.558-8.049 11.875.08 21.48 3.81 21.452 8.335z" fill="#9895A2" fill-opacity=".05" style="mix-blend-mode:multiply" opacity=".62"/>
        <path d="M91.504 90.889c-.028 4.508-9.608 8.098-21.392 8.02-11.784-.076-21.323-3.795-21.288-8.304.035-4.508 9.607-8.096 21.396-8.016 11.789.08 21.312 3.794 21.284 8.3z" fill="#9895A2" fill-opacity=".05" style="mix-blend-mode:multiply" opacity=".62"/>
        <path d="M91.445 90.887c-.03 4.49-9.534 8.067-21.227 7.99-11.693-.077-21.153-3.782-21.122-8.27.03-4.487 9.532-8.06 21.23-7.983 11.697.078 21.15 3.778 21.12 8.263z" fill="#9895A2" fill-opacity=".05" style="mix-blend-mode:multiply" opacity=".62"/>
        <path d="M91.387 90.887c-.03 4.47-9.46 8.032-21.064 7.967-11.603-.066-20.988-3.764-20.958-8.235.03-4.47 9.46-8.025 21.066-7.948 11.606.078 20.984 3.75 20.956 8.216z" fill="#9895A2" fill-opacity=".05" style="mix-blend-mode:multiply" opacity=".63"/>
        <path d="M91.328 90.886c-.03 4.452-9.387 7.998-20.9 7.922-11.512-.075-20.824-3.749-20.793-8.2.03-4.453 9.387-7.994 20.9-7.916 11.512.077 20.821 3.747 20.793 8.194z" fill="#9895A2" fill-opacity=".05" style="mix-blend-mode:multiply" opacity=".63"/>
        <path d="M91.267 90.886c-.028 4.43-9.312 7.967-20.733 7.887-11.421-.08-20.66-3.73-20.62-8.161.039-4.431 9.311-7.967 20.735-7.883 11.423.084 20.648 3.728 20.618 8.157z" fill="#9895A2" fill-opacity=".05" style="mix-blend-mode:multiply" opacity=".63"/>
        <path d="M91.208 90.886c-.03 4.413-9.24 7.93-20.569 7.855-11.33-.075-20.496-3.714-20.466-8.126.03-4.413 9.24-7.925 20.572-7.85 11.332.075 20.491 3.712 20.463 8.121z" fill="#9895A2" fill-opacity=".05" style="mix-blend-mode:multiply" opacity=".64"/>
        <path d="M91.15 90.887c-.03 4.393-9.164 7.894-20.405 7.819-11.24-.075-20.33-3.698-20.302-8.091.029-4.394 9.165-7.89 20.408-7.815 11.243.075 20.327 3.695 20.3 8.087z" fill="#9895A2" fill-opacity=".05" style="mix-blend-mode:multiply" opacity=".64"/>
        <path d="M91.089 90.884c-.028 4.375-9.09 7.864-20.239 7.79-11.149-.076-20.166-3.684-20.137-8.057.028-4.372 9.091-7.857 20.243-7.782 11.151.075 20.163 3.68 20.133 8.05z" fill="#9895A2" fill-opacity=".05" style="mix-blend-mode:multiply" opacity=".64"/>
        <path d="M91.031 90.884c-.028 4.356-9.017 7.829-20.075 7.754-11.057-.075-20.002-3.663-19.962-8.019.04-4.356 9.02-7.821 20.08-7.749 11.06.073 19.99 3.663 19.957 8.014z" fill="#9895A2" fill-opacity=".05" style="mix-blend-mode:multiply" opacity=".65"/>
        <path d="M90.972 90.884c-.028 4.338-8.942 7.794-19.918 7.721-10.975-.073-19.826-3.648-19.8-7.983.026-4.335 8.942-7.79 19.917-7.717 10.976.073 19.83 3.649 19.801 7.98z" fill="#9895A2" fill-opacity=".05" style="mix-blend-mode:multiply" opacity=".65"/>
        <path d="M90.913 90.884c-.03 4.316-8.869 7.759-19.746 7.688-10.877-.07-19.683-3.632-19.643-7.95.04-4.319 8.869-7.754 19.746-7.681 10.877.072 19.672 3.63 19.644 7.943z" fill="#9895A2" fill-opacity=".05" style="mix-blend-mode:multiply" opacity=".66"/>
        <path d="M90.853 90.885c-.028 4.297-8.795 7.732-19.58 7.653-10.786-.08-19.51-3.614-19.48-7.913.03-4.3 8.794-7.733 19.583-7.649 10.788.085 19.505 3.613 19.477 7.909z" fill="#9895A2" fill-opacity=".05" style="mix-blend-mode:multiply" opacity=".66"/>
        <path d="M90.794 90.884c-.028 4.279-8.722 7.69-19.414 7.62-10.692-.07-19.344-3.599-19.315-7.878.028-4.278 8.721-7.686 19.418-7.615 10.697.07 19.346 3.597 19.31 7.873z" fill="#9895A2" fill-opacity=".05" style="mix-blend-mode:multiply" opacity=".66"/>
        <path d="M90.736 90.882c-.029 4.26-8.647 7.657-19.253 7.587-10.605-.07-19.179-3.58-19.15-7.84.027-4.26 8.648-7.653 19.254-7.583 10.605.07 19.177 3.58 19.148 7.836z" fill="#9895A2" fill-opacity=".05" style="mix-blend-mode:multiply" opacity=".67"/>
        <path d="M90.677 90.882c-.03 4.241-8.574 7.625-19.088 7.554-10.514-.07-19.016-3.566-18.98-7.807.035-4.242 8.573-7.618 19.09-7.548 10.516.07 19.006 3.564 18.978 7.8z" fill="#9895A2" fill-opacity=".05" style="mix-blend-mode:multiply" opacity=".67"/>
        <path d="M90.616 90.882c-.029 4.218-8.5 7.59-18.922 7.52-10.423-.071-18.852-3.548-18.826-7.771.026-4.222 8.502-7.583 18.924-7.515 10.423.068 18.852 3.548 18.824 7.766z" fill="#9895A2" fill-opacity=".05" style="mix-blend-mode:multiply" opacity=".67"/>
        <path d="M90.557 90.881c-.028 4.204-8.436 7.555-18.746 7.487-10.31-.068-18.687-3.531-18.66-7.733.029-4.201 8.437-7.55 18.76-7.482 10.325.068 18.684 3.53 18.646 7.728z" fill="#9895A2" fill-opacity=".05" style="mix-blend-mode:multiply" opacity=".68"/>
        <path d="M90.499 90.882c-.028 4.182-8.352 7.522-18.594 7.454-10.242-.068-18.512-3.515-18.493-7.7.019-4.185 8.352-7.517 18.594-7.45 10.242.068 18.52 3.515 18.493 7.696z" fill="#9895A2" fill-opacity=".05" style="mix-blend-mode:multiply" opacity=".68"/>
        <path d="M90.438 90.882c-.026 4.164-8.276 7.486-18.427 7.418-10.151-.067-18.357-3.498-18.33-7.664.029-4.166 8.277-7.482 18.43-7.414 10.154.068 18.355 3.498 18.327 7.66z" fill="#9895A2" fill-opacity=".05" style="mix-blend-mode:multiply" opacity=".68"/>
        <path d="M90.38 90.88c-.029 4.147-8.202 7.453-18.264 7.388-10.062-.066-18.193-3.482-18.165-7.63.028-4.148 8.202-7.447 18.266-7.381 10.064.065 18.19 3.482 18.162 7.622z" fill="#9895A2" fill-opacity=".05" style="mix-blend-mode:multiply" opacity=".69"/>
        <path d="M90.32 90.88c-.027 4.126-8.13 7.418-18.098 7.353-9.969-.066-18.03-3.466-18.001-7.593.028-4.126 8.13-7.414 18.101-7.348 9.97.066 18.039 3.466 17.999 7.587z" fill="#9895A2" fill-opacity=".05" style="mix-blend-mode:multiply" opacity=".69"/>
        <path d="M90.262 90.88c-.028 4.11-8.056 7.39-17.945 7.32-9.888-.07-17.855-3.445-17.827-7.557.028-4.113 8.056-7.382 17.935-7.316 9.88.066 17.863 3.461 17.837 7.552z" fill="#9895A2" fill-opacity=".05" style="mix-blend-mode:multiply" opacity=".69"/>
        <path d="M90.201 90.88c-.025 4.088-7.98 7.35-17.768 7.285-9.788-.066-17.69-3.433-17.673-7.52.016-4.087 7.983-7.346 17.771-7.283 9.788.064 17.698 3.426 17.67 7.517z" fill="#9895A2" fill-opacity=".05" style="mix-blend-mode:multiply" opacity=".7"/>
        <path d="M90.142 90.88c-.025 4.067-7.908 7.315-17.604 7.252-9.697-.064-17.535-3.417-17.51-7.487.027-4.07 7.91-7.31 17.608-7.248 9.699.064 17.535 3.417 17.506 7.482z" fill="#9895A2" fill-opacity=".05" style="mix-blend-mode:multiply" opacity=".7"/>
        <path d="M90.084 90.877c-.029 4.052-7.836 7.285-17.441 7.22-9.605-.066-17.37-3.398-17.34-7.45.03-4.051 7.836-7.278 17.443-7.214 9.607.063 17.363 3.4 17.338 7.444z" fill="#9895A2" fill-opacity=".05" style="mix-blend-mode:multiply" opacity=".7"/>
        <path d="M90.025 90.877c-.028 4.032-7.761 7.25-17.277 7.186-9.516-.063-17.206-3.383-17.18-7.414.025-4.03 7.763-7.243 17.279-7.18 9.516.064 17.204 3.382 17.178 7.408z" fill="#9895A2" fill-opacity=".05" style="mix-blend-mode:multiply" opacity=".71"/>
        <path d="M89.964 90.877c-.025 4.011-7.686 7.215-17.105 7.154-9.42-.061-17.043-3.368-17.015-7.38.028-4.01 7.686-7.21 17.106-7.146 9.42.063 17.042 3.365 17.014 7.372z" fill="#9895A2" fill-opacity=".05" style="mix-blend-mode:multiply" opacity=".71"/>
    </g>
    <path d="M120 49.042c0 25.965-21.048 47.01-47.01 47.01-25.963 0-47.01-21.046-47.01-47.01 0-25.965 21.047-47.01 47.02-47.01 25.971 0 47 21.047 47 47.01z" fill="url(#a)"/>
    <path d="M119.999 48.875a46.712 46.712 0 0 1-3.482 18.029 46.845 46.845 0 0 1-10.168 15.31 47.024 47.024 0 0 1-15.292 10.24 47.154 47.154 0 0 1-36.134 0 47.02 47.02 0 0 1-15.292-10.24 46.832 46.832 0 0 1-10.168-15.31 46.7 46.7 0 0 1-3.482-18.029c0-25.872 21.055-46.844 47.008-46.844 25.952 0 47.01 20.972 47.01 46.844z" fill="url(#b)"/>
    <path style="mix-blend-mode:multiply" d="M67.296 99.645c25.524-3.983 42.987-27.904 39.003-53.429C102.316 20.692 78.395 3.23 52.87 7.212 27.346 11.196 9.883 35.117 13.867 60.641c3.983 25.525 27.904 42.987 53.428 39.004z" fill="url(#c)" fill-opacity=".7"/>
    <path style="mix-blend-mode:screen" d="M51.062 11.472c3.515-8.64 18.34-10.78 33.11-4.764 14.77 6.015 23.901 17.883 20.386 26.525-3.515 8.642-18.338 10.78-33.11 4.764-14.772-6.015-23.901-17.886-20.386-26.525z" fill="url(#d)"/>
    <path style="mix-blend-mode:screen" d="M75.272 11.057c1.305-4.005 7.055-5.72 12.843-3.834 5.788 1.887 9.422 6.66 8.117 10.664-1.305 4.005-7.044 5.72-12.843 3.834-5.8-1.886-9.432-6.662-8.117-10.664z" fill="url(#e)"/>
    <path style="mix-blend-mode:screen" d="M80.519 20.355c1.99-6.104 10.758-8.72 19.583-5.844 8.824 2.875 14.366 10.155 12.377 16.26-1.99 6.104-10.758 8.721-19.583 5.844-8.825-2.878-14.364-10.156-12.377-16.26z" fill="url(#f)"/>
    <path style="mix-blend-mode:screen" d="M80.519 20.355c1.99-6.104 10.758-8.72 19.583-5.844 8.824 2.875 14.366 10.155 12.377 16.26-1.99 6.104-10.758 8.721-19.583 5.844-8.825-2.878-14.364-10.156-12.377-16.26z" fill="url(#g)"/>
    <path style="mix-blend-mode:screen" d="M92.718 23.958c.703-2.165 3.812-3.09 6.938-2.071 3.126 1.02 5.092 3.597 4.387 5.762-.706 2.165-3.813 3.088-6.939 2.07-3.126-1.02-5.09-3.6-4.386-5.76z" fill="url(#h)"/>
    <defs>
        <linearGradient id="a" x1="72.99" y1="92.562" x2="72.99" y2="-1.461" gradientUnits="userSpaceOnUse">
            <stop stop-color="#8F8E92"/>
            <stop offset=".16" stop-color="#A9A7AD"/>
            <stop offset=".53" stop-color="#C9C8CD"/>
            <stop offset=".83" stop-color="#E1E0E3"/>
            <stop offset="1" stop-color="#E4E3E7"/>
        </linearGradient>
        <radialGradient id="b" cx="0" cy="0" r="1" gradientUnits="userSpaceOnUse" gradientTransform="matrix(100.497 0 0 100.142 75.269 1.384)">
            <stop offset=".01" stop-color="#E2E1E4"/>
            <stop offset="1" stop-color="#9895A2"/>
        </radialGradient>
        <radialGradient id="c" cx="0" cy="0" r="1" gradientUnits="userSpaceOnUse" gradientTransform="translate(59.584 53.23) scale(51.5419)">
            <stop offset=".04" stop-color="#303030"/>
            <stop offset=".33" stop-color="#7C7C7C"/>
            <stop offset=".73" stop-color="#EDEDED"/>
            <stop offset=".81" stop-color="#F4F4F4"/>
            <stop offset=".97" stop-color="#fff"/>
        </radialGradient>
        <radialGradient id="d" cx="0" cy="0" r="1" gradientUnits="userSpaceOnUse" gradientTransform="rotate(-157.751 42.306 3.79) scale(22.9031 13.3973)">
            <stop offset=".23" stop-color="#E6E6E6"/>
            <stop offset=".33" stop-color="#BDBDBD"/>
            <stop offset=".51" stop-color="#7A7A7A"/>
            <stop offset=".68" stop-color="#464646"/>
            <stop offset=".82" stop-color="#202020"/>
            <stop offset=".93" stop-color="#090909"/>
            <stop offset="1"/>
        </radialGradient>
        <radialGradient id="e" cx="0" cy="0" r="1" gradientUnits="userSpaceOnUse" gradientTransform="rotate(-161.946 44.248 .324) scale(8.75231 6.04804)">
            <stop offset=".13" stop-color="#E6E6E6"/>
            <stop offset=".22" stop-color="#D7D7D7"/>
            <stop offset=".39" stop-color="#B1B1B1"/>
            <stop offset=".62" stop-color="#727272"/>
            <stop offset=".91" stop-color="#1D1D1D"/>
            <stop offset="1"/>
        </radialGradient>
        <radialGradient id="f" cx="0" cy="0" r="1" gradientUnits="userSpaceOnUse" gradientTransform="matrix(980.086 0 0 731.028 8969.37 4640.5)">
            <stop offset=".13" stop-color="#E6E6E6"/>
            <stop offset=".22" stop-color="#D7D7D7"/>
            <stop offset=".39" stop-color="#B1B1B1"/>
            <stop offset=".62" stop-color="#727272"/>
            <stop offset=".91" stop-color="#1D1D1D"/>
            <stop offset="1"/>
        </radialGradient>
        <radialGradient id="g" cx="0" cy="0" r="1" gradientUnits="userSpaceOnUse" gradientTransform="matrix(980.086 0 0 731.028 8969.37 4640.5)">
            <stop offset=".13" stop-color="#E6E6E6"/>
            <stop offset=".22" stop-color="#D7D7D7"/>
            <stop offset=".39" stop-color="#B1B1B1"/>
            <stop offset=".62" stop-color="#727272"/>
            <stop offset=".91" stop-color="#1D1D1D"/>
            <stop offset="1"/>
        </radialGradient>
        <radialGradient id="h" cx="0" cy="0" r="1" gradientUnits="userSpaceOnUse" gradientTransform="matrix(123.076 0 0 91.7989 3208.48 1665.71)">
            <stop offset=".13" stop-color="#E6E6E6"/>
            <stop offset=".22" stop-color="#D7D7D7"/>
            <stop offset=".39" stop-color="#B1B1B1"/>
            <stop offset=".62" stop-color="#727272"/>
            <stop offset=".91" stop-color="#1D1D1D"/>
            <stop offset="1"/>
        </radialGradient>
    </defs>
</svg>
