<svg width="121" height="37" viewBox="0 0 121 37" fill="none" xmlns="http://www.w3.org/2000/svg">
    <path d="M1.19 4.1h3.366V16H1.19V4.1zm18.647 0l-5.1 11.9h-3.315L6.34 4.1h3.638l3.23 7.752L16.505 4.1h3.331zm7.314 12.138c-1.247 0-2.369-.26-3.366-.782a5.987 5.987 0 0 1-2.329-2.21c-.566-.94-.85-2.006-.85-3.196 0-1.19.284-2.255.85-3.196a5.866 5.866 0 0 1 2.33-2.193c.996-.533 2.118-.799 3.365-.799 1.088 0 2.069.193 2.941.578.873.385 1.598.94 2.176 1.666l-2.142 1.938c-.77-.93-1.706-1.394-2.805-1.394-.646 0-1.224.142-1.734.425-.498.283-.89.686-1.173 1.207-.272.51-.408 1.1-.408 1.768 0 .669.136 1.264.408 1.785.284.51.674.907 1.173 1.19.51.283 1.088.425 1.734.425 1.1 0 2.034-.465 2.805-1.394l2.142 1.938a5.658 5.658 0 0 1-2.176 1.666c-.872.385-1.853.578-2.94.578zM45.941 4.1V16h-3.366v-4.641h-4.59V16h-3.366V4.1h3.366v4.471h4.59V4.1h3.366zm12.778 9.299V16h-9.554V4.1h9.333v2.601h-6v2.006h5.286v2.516h-5.287v2.176h6.222zM72.76 4.1V16h-2.77l-5.254-6.341V16h-3.298V4.1h2.771l5.253 6.341V4.1h3.298zm7.814 7.582l-1.258 1.343V16h-3.332V4.1h3.332v4.947L83.922 4.1h3.706l-4.862 5.27L87.883 16h-3.91l-3.4-4.318zm14.613 4.556c-1.258 0-2.391-.266-3.4-.799a6.08 6.08 0 0 1-2.363-2.21c-.567-.94-.85-2-.85-3.179 0-1.179.283-2.238.85-3.179a6.08 6.08 0 0 1 2.363-2.21c1.009-.533 2.142-.799 3.4-.799s2.386.266 3.383.799a5.93 5.93 0 0 1 2.363 2.21c.578.94.867 2 .867 3.179 0 1.179-.289 2.238-.867 3.179a5.93 5.93 0 0 1-2.363 2.21c-.997.533-2.125.799-3.383.799zm0-2.788c.6 0 1.145-.142 1.632-.425.487-.283.873-.68 1.156-1.19.283-.521.425-1.116.425-1.785 0-.669-.142-1.258-.425-1.768a3.042 3.042 0 0 0-1.156-1.207 3.187 3.187 0 0 0-1.632-.425c-.6 0-1.145.142-1.632.425a3.043 3.043 0 0 0-1.156 1.207c-.283.51-.425 1.1-.425 1.768 0 .669.142 1.264.425 1.785.283.51.669.907 1.156 1.19a3.188 3.188 0 0 0 1.632.425zm10.101 2.703a1.902 1.902 0 0 1-1.377-.544c-.374-.363-.561-.822-.561-1.377 0-.567.181-1.026.544-1.377.374-.351.839-.527 1.394-.527.567 0 1.031.176 1.394.527.363.351.544.81.544 1.377 0 .555-.187 1.014-.561 1.377-.363.363-.822.544-1.377.544z" fill="#F03454"/>
    <path d="M.94 25H4c.747 0 1.41.147 1.99.44.58.287 1.03.697 1.35 1.23.32.527.48 1.137.48 1.83 0 .693-.16 1.307-.48 1.84-.32.527-.77.937-1.35 1.23-.58.287-1.243.43-1.99.43H.94v-7zm3 5.9c.513 0 .963-.097 1.35-.29.393-.2.693-.48.9-.84.213-.367.32-.79.32-1.27s-.107-.9-.32-1.26a2.035 2.035 0 0 0-.9-.84c-.387-.2-.837-.3-1.35-.3h-1.7v4.8h1.7zm23.812.01V32h-5.25v-7h5.11v1.09h-3.81v1.82h3.38v1.07h-3.38v1.93h3.95zM44.67 32.1c-.54 0-1.063-.077-1.57-.23-.5-.153-.897-.357-1.19-.61l.45-1.01c.287.227.637.413 1.05.56.42.14.84.21 1.26.21.52 0 .907-.083 1.16-.25.26-.167.39-.387.39-.66 0-.2-.073-.363-.22-.49a1.42 1.42 0 0 0-.54-.31 12.15 12.15 0 0 0-.9-.25 10.79 10.79 0 0 1-1.3-.38 2.202 2.202 0 0 1-.85-.59c-.233-.273-.35-.64-.35-1.1 0-.387.103-.737.31-1.05.213-.32.53-.573.95-.76.427-.187.947-.28 1.56-.28.427 0 .847.053 1.26.16.413.107.77.26 1.07.46l-.41 1.01a4.041 4.041 0 0 0-.96-.41 3.592 3.592 0 0 0-.97-.14c-.513 0-.897.087-1.15.26a.805.805 0 0 0-.37.69c0 .2.07.363.21.49.147.127.33.227.55.3.22.073.52.157.9.25.52.12.947.247 1.28.38.333.127.617.323.85.59.24.267.36.627.36 1.08 0 .387-.107.737-.32 1.05-.207.313-.523.563-.95.75-.427.187-.947.28-1.56.28zM62.09 25h1.3v7h-1.3v-7zm21.273 3.42h1.23v2.79a3.91 3.91 0 0 1-1.26.66c-.48.153-.973.23-1.48.23-.713 0-1.356-.153-1.93-.46a3.49 3.49 0 0 1-1.35-1.29 3.536 3.536 0 0 1-.49-1.85c0-.687.164-1.303.49-1.85a3.418 3.418 0 0 1 1.35-1.28c.58-.313 1.23-.47 1.95-.47.587 0 1.12.097 1.6.29.48.193.884.477 1.21.85l-.82.8a2.63 2.63 0 0 0-1.93-.8c-.493 0-.933.103-1.32.31-.38.207-.68.497-.9.87-.213.373-.32.8-.32 1.28 0 .467.107.887.32 1.26.22.373.52.667.9.88.387.213.824.32 1.31.32.547 0 1.027-.12 1.44-.36v-2.18zM105.828 25v7h-1.07l-3.86-4.74V32h-1.29v-7h1.07l3.86 4.74V25h1.29z" fill="#817D8E"/>
</svg>
