<?xml version="1.0" encoding="UTF-8"?><!DOCTYPE svg PUBLIC "-//W3C//DTD SVG 1.1//EN" "http://www.w3.org/Graphics/SVG/1.1/DTD/svg11.dtd"><svg xmlns="http://www.w3.org/2000/svg"><defs>
        <clipPath id="a">
            <path d="M0 0h178v67H0z"/>
        </clipPath>
    </defs><symbol id="icon-behance" viewBox="0 0 25 17">
    <path d="M19.366 4.112c-5.887 0-5.895 6.172-5.895 6.204 0 0-.403 6.18 5.895 6.18 0 0 5.252.314 5.252-4.301h-2.697s.09 1.737-2.466 1.737c0 0-2.697.189-2.697-2.807h7.95s.874-7.013-5.342-7.013zm-2.638 4.85s.329-2.484 2.698-2.484c2.376 0 2.338 2.485 2.338 2.485h-5.036zM9.99 7.376s2.338-.18 2.338-3.074C12.328 1.415 10.416 0 7.988 0H0v16.157h7.987s4.879.158 4.879-4.772c0 0 .21-4.01-2.876-4.01zM3.52 2.87h4.467s1.083 0 1.083 1.682-.635 1.926-1.36 1.926H3.52V2.87zm4.243 10.418H3.52V8.963h4.468s1.622-.016 1.614 2.225c0 1.887-1.203 2.084-1.838 2.1zM16.063.95v1.99H22.4V.95h-6.336z" fill-opacity=".7"/>
</symbol><symbol id="icon-buzzweb" viewBox="0 0 178 67">
    <g clip-path="url(#a)">
        <path d="M52.465 19h4.503v8.388h.143a4.543 4.543 0 0 1 1.859-1.313c.715-.365 1.572-.51 2.502-.51 2.001 0 3.574.729 4.717 2.188 1.073 1.385 1.573 3.573 1.573 6.564 0 3.136-.715 5.543-2.216 7.148-1.573 1.677-3.645 2.48-6.29 2.48-1.501 0-2.788-.146-4.003-.365-1.215-.292-2.144-.51-2.788-.875V19zm7.649 10.43c-.787 0-1.43.219-2.002.657-.5.437-.858 1.02-1.144 1.896v7.585c.358.22.715.365 1.144.438.429 0 .93.073 1.358.073 1.215 0 2.145-.438 2.788-1.386.643-.875.93-2.26.93-4.23 0-3.355-1.002-5.033-3.074-5.033zm15.082-3.428v9.92c0 1.458.143 2.48.5 3.136.286.583.93.948 1.93.948.858 0 1.501-.292 2.073-.802.572-.51 1-1.167 1.286-1.897V26.002h4.432v12.18c0 .949.072 1.897.143 2.845.072.875.215 1.75.429 2.48h-3.36l-.786-2.626H81.7a6.64 6.64 0 0 1-2.216 2.261c-.929.584-2.072.876-3.288.876-.929 0-1.644-.146-2.358-.365-.715-.219-1.287-.657-1.716-1.167-.429-.51-.786-1.24-1.072-2.188-.215-.875-.358-2.042-.358-3.428V26.002h4.504zm13.223 13.64l6.79-8.316 1.716-1.458H88.42v-3.866h13.51v3.866l-6.72 8.388-1.715 1.385h8.435v3.866h-13.51v-3.866zm15.726 0l6.79-8.316 1.716-1.458h-8.506v-3.866h13.438v3.866l-6.648 8.388-1.715 1.385h8.363v3.866h-13.438v-3.866zm29.02-13.64l3.145 8.971.643 2.918h.143l.429-2.99 2.216-8.899h4.074l-5.289 17.65h-3.288l-3.431-9.773-.5-2.188h-.143l-.429 2.188-3.288 9.774h-3.36l-5.575-17.651h4.86l2.502 8.753.429 3.136h.143l.572-3.136 2.859-8.753h3.288zm26.09 15.973c-.715.584-1.644 1.094-2.788 1.46-1.215.364-2.43.583-3.788.583-2.788 0-4.789-.876-6.076-2.48-1.286-1.678-1.93-3.939-1.93-6.783 0-3.064.715-5.398 2.145-6.93 1.501-1.531 3.502-2.334 6.075-2.334.858 0 1.716.146 2.574.365.786.219 1.572.657 2.215 1.167.644.51 1.144 1.24 1.501 2.188.429.876.572 2.043.572 3.355 0 .511 0 1.021-.071 1.605l-.215 1.75h-10.293c0 1.46.429 2.553 1.073 3.283.714.802 1.787 1.167 3.288 1.167.929 0 1.787-.146 2.501-.438.787-.292 1.358-.583 1.716-.875l1.501 2.917zm-6.433-12.837c-1.144 0-2.002.365-2.573 1.094-.572.73-.858 1.678-1.001 2.845h6.361c.143-1.24-.071-2.261-.571-2.917-.429-.657-1.215-1.022-2.216-1.022zM162.9 19h4.504v8.388h.142c.501-.51 1.073-1.021 1.859-1.313.715-.365 1.572-.51 2.502-.51 2.073 0 3.645.729 4.717 2.188 1.072 1.385 1.644 3.573 1.644 6.564 0 3.136-.786 5.543-2.287 7.148-1.573 1.677-3.645 2.48-6.29 2.48a22.7 22.7 0 0 1-4.003-.365c-1.215-.292-2.144-.51-2.788-.875V19zm7.72 10.43c-.858 0-1.501.219-2.073.657-.5.437-.858 1.02-1.143 1.896v7.585a3.69 3.69 0 0 0 1.143.438c.429 0 .929.073 1.358.073 1.215 0 2.145-.438 2.788-1.386.643-.875.929-2.26.929-4.23 0-3.355-1.001-5.033-3.002-5.033z"/>
        <path d="M0 29.721h5.504v-5.907h4.074v5.907h5.575v3.94H9.578v5.98H5.504v-5.98H0v-3.94zm18.084 0h5.504v-5.907h4.074v5.907h5.576v3.94h-5.576v5.98h-4.074v-5.98h-5.504v-3.94z"/>
    </g>
    
</symbol><symbol id="icon-Dribbble" viewBox="0 0 20 20">
    <path d="M14.42 16.42A57.5 57.5 0 0 0 13 11.17c.5-.07 1-.11 1.58-.11h.02c.93 0 1.95.12 3.06.37a7.788 7.788 0 0 1-3.24 4.99zM10 17.8c-1.74 0-3.34-.57-4.64-1.54.28-.45.87-1.32 1.82-2.22.96-.93 2.32-1.89 4.05-2.46.59 1.67 1.13 3.57 1.54 5.71-.86.33-1.77.51-2.77.51zM2.2 10v-.11c.22.01.51.01.85.01h.01c1.56-.01 4.3-.14 7.08-1.01.15.33.3.67.45 1.03-1.86.62-3.32 1.61-4.4 2.58-1.03.96-1.74 1.89-2.15 2.5a7.704 7.704 0 0 1-1.84-5zm4.35-7c.55.65 1.63 2.06 2.79 4.25-2.34.71-4.73.87-6.16.87h-.13c-.24 0-.45 0-.62-.01C3 5.87 4.5 4 6.55 3zM10 2.2c1.84 0 3.53.64 4.86 1.71C13.84 5.14 12.5 6 11.03 6.65 10 4.67 9 3.25 8.34 2.38c.54-.11 1.09-.18 1.66-.18zm6.13 2.98a7.823 7.823 0 0 1 1.66 4.45 15.32 15.32 0 0 0-3.19-.35h-.01c-.8 0-1.55.07-2.26.19-.17-.42-.33-.82-.52-1.21 1.58-.69 3.09-1.68 4.32-3.08zM10 0C4.477 0 0 4.477 0 10A10 10 0 1 0 10 0z" fill-opacity=".7"/>
</symbol><symbol id="icon-eco-mail" viewBox="0 0 221 67">
    <path d="M61.98 40.378a16.056 16.056 0 0 1-6.858 8.79 16.129 16.129 0 0 1-20.701-3.194 16.026 16.026 0 0 1-3.875-10.446c0-3.832 1.375-7.537 3.875-10.447a16.129 16.129 0 0 1 20.701-3.195 16.056 16.056 0 0 1 6.858 8.79l.08.258h2.43c-.131-.714-.2-.976-.2-.976a18.477 18.477 0 0 0-7.828-10.075 18.56 18.56 0 0 0-12.506-2.62 18.532 18.532 0 0 0-11.23 6.084 18.442 18.442 0 0 0-4.605 11.89v.524a18.443 18.443 0 0 0 4.588 11.904 18.558 18.558 0 0 0 23.746 3.49 18.477 18.477 0 0 0 7.835-10.079c.1-.322.18-.65.242-.98H62.06l-.08.282z"/>
    <path d="M35.197 44.408a27.948 27.948 0 0 0-11.49 2.183 26.893 26.893 0 0 1-11.185 2.13 26.894 26.894 0 0 1-11.217-2.12L1 46.465v.928a27.911 27.911 0 0 0 11.49 2.183 27.91 27.91 0 0 0 11.49-2.183l-.147-.398.168.393a26.926 26.926 0 0 1 11.196-2.12c3.84-.097 7.656.63 11.19 2.13l.305.11v-.912a27.974 27.974 0 0 0-11.495-2.188z"/>
    <path d="M23.696 50.023a26.925 26.925 0 0 1-11.185 2.13c-3.845.1-7.666-.625-11.206-2.125L1 49.897v.929a27.947 27.947 0 0 0 11.49 2.188c3.942.09 7.859-.656 11.49-2.188l-.152-.4.168.394a26.894 26.894 0 0 1 11.2-2.125c3.835-.095 7.645.63 11.175 2.125l.305.116v-.913a27.947 27.947 0 0 0-11.48-2.194 27.985 27.985 0 0 0-11.49 2.183"/>
    <path d="M23.696 53.448a26.936 26.936 0 0 1-11.185 2.125 26.893 26.893 0 0 1-11.206-2.12L1 53.322v.929a27.949 27.949 0 0 0 11.49 2.188c3.942.089 7.858-.657 11.49-2.188l-.152-.4.168.395a26.923 26.923 0 0 1 11.2-2.126c3.84-.097 7.657.63 11.19 2.13l.306.11v-.907a27.948 27.948 0 0 0-11.495-2.188 27.978 27.978 0 0 0-11.49 2.183"/>
    <path d="M23.696 56.875a26.893 26.893 0 0 1-11.2 2.13 26.894 26.894 0 0 1-11.19-2.125L1 56.749v.928a27.99 27.99 0 0 0 11.49 2.183c3.942.09 7.858-.654 11.49-2.182l-.147-.405.168.394a26.93 26.93 0 0 1 11.196-2.12c3.84-.097 7.656.63 11.19 2.13l.305.11v-.907a27.949 27.949 0 0 0-11.495-2.188 27.987 27.987 0 0 0-11.49 2.183"/>
    <path d="M23.696 63.727a26.926 26.926 0 0 1-11.185 2.13c-3.845.1-7.666-.624-11.206-2.124L1 63.602v.928a27.948 27.948 0 0 0 11.495 2.188c3.942.09 7.859-.656 11.49-2.188l-.152-.398.168.393A26.895 26.895 0 0 1 35.197 62.4c3.84-.097 7.656.63 11.19 2.13l.305.11v-.913a27.948 27.948 0 0 0-11.495-2.182 27.979 27.979 0 0 0-11.49 2.182"/>
    <path d="M46.613 59.635a24.22 24.22 0 0 1-13.43-4.063 24.124 24.124 0 0 1-8.904-10.82 24.052 24.052 0 0 1-1.376-13.931 24.09 24.09 0 0 1 6.616-12.345 24.194 24.194 0 0 1 12.378-6.599c4.69-.93 9.55-.453 13.967 1.372a24.16 24.16 0 0 1 10.85 8.88 24.066 24.066 0 0 1 4.073 13.395A24.105 24.105 0 0 1 63.7 52.566a24.233 24.233 0 0 1-17.086 7.07zm0-50.635a26.644 26.644 0 0 0-14.775 4.47 26.539 26.539 0 0 0-9.795 11.904 26.459 26.459 0 0 0-1.513 15.325 26.502 26.502 0 0 0 7.278 13.581 26.616 26.616 0 0 0 13.617 7.26 26.66 26.66 0 0 0 15.365-1.51 26.578 26.578 0 0 0 11.935-9.77 26.474 26.474 0 0 0 4.483-14.736 26.52 26.52 0 0 0-7.8-18.746A26.661 26.661 0 0 0 46.614 9"/>
    <path d="M46.992 28.467c1.586 0 3.125.532 4.372 1.509a7.061 7.061 0 0 1 2.504 3.88H40.116a7.066 7.066 0 0 1 2.505-3.879 7.099 7.099 0 0 1 4.37-1.51zm9.47 6.532a9.464 9.464 0 0 0-2.578-5.986 9.52 9.52 0 0 0-12.191-1.373 9.477 9.477 0 0 0-3.85 5.262 9.453 9.453 0 0 0 .465 6.499 9.488 9.488 0 0 0 4.562 4.663 9.524 9.524 0 0 0 6.502.623 9.502 9.502 0 0 0 5.37-3.711 8.606 8.606 0 0 0 .899-1.611h-2.71l-.152.22a7.073 7.073 0 0 1-3.346 2.587 7.093 7.093 0 0 1-7.824-2.01 7.048 7.048 0 0 1-1.677-3.877h16.593c-.032-.525-.074-1.275-.074-1.275"/>
    <path d="M12.495 63.292A27.947 27.947 0 0 1 1 61.103v-.928l.305.131a26.893 26.893 0 0 0 11.185 2.13 26.933 26.933 0 0 0 11.185-2.125 27.949 27.949 0 0 1 11.522-2.193c3.944-.09 7.861.656 11.495 2.188v.913l-.305-.11a26.893 26.893 0 0 0-11.19-2.136 26.894 26.894 0 0 0-11.18 2.125l-.168-.393.152.398a27.947 27.947 0 0 1-11.49 2.189"/>
    <path d="M86.06 44.256V27.958h11.558v3.054h-8.086v3.447h7.918v3.049h-7.918v3.694h8.087v3.054H86.06z"/>
    <path d="M102.201 36.117c0-5.011 3.799-8.432 8.697-8.432a7.495 7.495 0 0 1 3.991 1.015 7.47 7.47 0 0 1 2.848 2.967l-2.994 1.47a4.406 4.406 0 0 0-1.595-1.714 4.43 4.43 0 0 0-2.25-.658c-2.962 0-5.119 2.272-5.119 5.352 0 3.08 2.157 5.352 5.119 5.352a4.376 4.376 0 0 0 3.845-2.372l2.989 1.443a7.52 7.52 0 0 1-6.84 4.004c-4.898 0-8.696-3.421-8.696-8.427"/>
    <path d="M135.156 36.118c0-3.054-1.957-5.352-4.977-5.352-3.02 0-4.951 2.298-4.951 5.352 0 3.054 1.942 5.352 4.951 5.352 3.009 0 4.977-2.32 4.977-5.352zm-13.5 0c0-4.912 3.599-8.433 8.523-8.433 4.924 0 8.555 3.516 8.555 8.433 0 4.916-3.578 8.427-8.534 8.427-4.956 0-8.523-3.521-8.523-8.427"/>
    <path d="M149.829 35.902h-5.876v2.64h5.876v-2.64z"/>
    <path d="M170.016 44.256V32.843l-4.604 11.413h-1.52l-4.609-11.413v11.413h-3.477V27.958h4.877l3.966 9.844 3.973-9.844h4.898v16.298h-3.504z"/>
    <path d="M186.651 31.426l-2.568 7.01h5.098l-2.53-7.01zm4.508 12.83l-1.004-2.766h-7.008l-1.052 2.766h-3.967l6.313-16.298h4.377l6.314 16.298h-3.973z"/>
    <path d="M203.749 27.958h-3.478V44.25h3.478V27.958z"/>
    <path d="M210.609 44.256V27.958h3.478v13.244H221v3.054h-10.391z"/>
</symbol><symbol id="icon-facebook" viewBox="0 0 10 19">
    <title>
        facebook
    </title>
    <path d="M9.766.157v2.946H8.014c-.64 0-1.071.134-1.295.402-.223.268-.335.67-.335 1.205v2.11h3.27l-.435 3.303H6.384v8.471H2.97v-8.47H.123V6.82H2.97V4.387c0-1.384.387-2.457 1.161-3.22C4.904.404 5.934.023 7.222.023c1.093 0 1.941.045 2.544.134z" fill-rule="evenodd"/>
</symbol><symbol id="icon-Fireart" viewBox="0 0 128 67">
    <path fill-rule="evenodd" clip-rule="evenodd" d="M10.555 0v5.141c0 1.634-1.703 2.485-2.724 2.485V3.234C7.83.784 9.533 0 10.555 0zM0 13.142V8.205c1.021 0 2.724.817 2.724 3.235v7.626C1.702 19.066 0 18.215 0 16.581v-3.439zm27.578 9.022h13.006c.749 0 1.395.102 1.702.442.34.34.579.817.579 1.566v3.439H39.12v-1.362c0-.206-.102-.335-.196-.455l-.043-.056c-.102-.136-.34-.17-.578-.17h-4.256v6.47h7.15v3.404h-7.15v9.192H29.96V25.568h-2.383v-3.404zm22.13 0h-3.404v3.405h3.404v-3.404zm.545 18.862c-.102-.136-.205-.34-.205-.545v-9.976c0-.748-.136-1.327-.476-1.668-.34-.34-.851-.544-1.6-.544H44.26v3.404h1.157c.178 0 .279.078.392.166l.05.038c.103.103.103.34.103.58v9.907c0 .749.238 1.362.579 1.702.34.34.953.545 1.702.545h3.847V41.23h-1.294c-.204 0-.408-.102-.544-.204zm27.373-12.461a6.833 6.833 0 0 1 2.247 1.634c.613.715 1.056 1.532 1.396 2.52.307.919.477 1.906.477 2.996v.442c0 .065-.008.136-.016.212-.009.085-.018.175-.018.265 0 .096-.01.181-.02.255a1.267 1.267 0 0 0-.014.154c-.034.102-.034.17-.034.17H70.476c.069.68.273 1.328.545 1.872.307.545.647.988 1.09 1.362.442.34.953.647 1.498.817.544.17 1.123.273 1.736.273.51-.034 1.022-.068 1.464-.204a6.072 6.072 0 0 0 1.26-.443c.322-.147.594-.318.837-.471l.116-.074c.211-.132.381-.264.51-.364h.001l.056-.043c.016-.013.031-.025.046-.035.17-.137.238-.205.238-.205l1.669 2.792s-.103.068-.307.238c-.204.17-.476.375-.85.613-.375.239-.852.477-1.363.715-.544.239-1.123.443-1.804.613-.647.136-1.396.238-2.213.238-1.328 0-2.52-.238-3.61-.68-1.055-.443-1.974-1.056-2.723-1.84a8.303 8.303 0 0 1-1.736-2.689 8.717 8.717 0 0 1-.613-3.268c0-1.26.204-2.417.613-3.439a8.062 8.062 0 0 1 1.702-2.69 7.22 7.22 0 0 1 2.587-1.736c1.022-.409 2.111-.613 3.337-.613 1.158.034 2.18.204 3.064.613zm-6.264 4.086c-.375.476-.647 1.09-.783 1.77h7.013c-.034-.68-.17-1.26-.442-1.736a3.24 3.24 0 0 0-1.09-1.158 2.83 2.83 0 0 0-1.498-.409c-.68 0-1.294.137-1.838.409-.545.238-.988.647-1.362 1.124zm31.53 8.149l-.022-.016c-.118-.085-.233-.167-.322-.404l-6.673-18.215h-4.358L84.81 40.414c-.102.272-.204.374-.375.476-.12.072-.255.06-.408.046a2.275 2.275 0 0 0-.204-.012h-.41v3.745h2.452c.511 0 .954-.102 1.26-.204.34-.102.579-.306.817-.579.204-.272.409-.613.545-1.09l1.396-3.949h7.626l1.396 3.916c.17.476.34.817.579 1.09.204.272.477.476.817.612.341.102.749.204 1.294.204h2.621V40.89h-.646c-.066 0-.127.002-.184.003-.207.005-.356.01-.463-.07l-.016-.012-.015-.011zm-12.056-5.357l1.94-5.686c.103-.306.205-.681.307-1.056.102-.374.204-.748.273-1.123.102-.34.17-.681.204-.92.034-.238.068-.408.068-.408h.068s.034.17.068.375c.068.238.136.544.204.885.051.253.12.525.195.817l.078.306.076.285c.077.288.154.575.23.805l1.94 5.72h-5.65zm25.705-7.287c.136.034.239.034.239.034v.68c0 .124.003.25.007.377.031 1.137.065 2.389-2.323 3.062-.442.137-.851.34-1.259.613a4.004 4.004 0 0 0-1.09 1.056c-.306.408-.579.919-.749 1.532-.102.408-.204.817-.272 1.26a8.532 8.532 0 0 0-.102 1.361v6.503h-4.086V32.48c0-.239-.034-.477-.136-.58-.102-.101-.204-.203-.443-.203h-1.123v-3.405h3.507c.715 0 1.293.204 1.668.51.34.307.579.852.579 1.533v.919c0 .175-.023.351-.042.5-.014.113-.026.21-.026.283 0 .17-.069.306-.069.306h.069c.238-1.021.612-1.532 1.089-2.145.511-.612 1.09-1.157 1.77-1.532a5.122 5.122 0 0 1 2.282-.544c.204 0 .374 0 .51.034zm11.338 12.971c-.136.034-.272.034-.511.034-.272 0-.579-.034-.953-.102a3.094 3.094 0 0 1-1.056-.408c-.34-.205-.578-.511-.817-.92-.238-.408-.306-.953-.306-1.6v-6.434h3.745v-3.405h-3.745v-4.426h-4.086v4.426h-2.042v3.404h2.042v6.912c0 .885.102 1.668.341 2.35.238.646.511 1.19.885 1.667.375.443.817.818 1.26 1.09.476.272.953.477 1.464.647.51.136.987.238 1.464.306l.178.013c.402.03.759.055 1.116.055.208 0 .374-.01.522-.02a5.22 5.22 0 0 1 .329-.014c.238-.034.272-.034.272-.034v-3.567c.014-.003.019-.005.019-.007h-.019v.007a4.029 4.029 0 0 1-.098.025h-.002l-.002.001zM65.369 28.19s-.17 0-.306-.034c-.136-.034-.34-.034-.545-.034-.817 0-1.6.204-2.28.544a5.88 5.88 0 0 0-1.771 1.532l-.08.108c-.442.598-.819 1.107-1.044 2.071h-.068s-.034-.136-.034-.306c0-.073-.006-.17-.013-.282-.01-.15-.02-.326-.02-.501v-.953c0-.681-.137-1.226-.477-1.533-.341-.34-.818-.51-1.533-.51h-3.745v3.404h1.328c.238 0 .409.103.545.205.102.102.204.34.204.579v12.154h4.086v-6.503c0-.12-.002-.24-.005-.36-.006-.352-.012-.696.039-1.002.068-.442.136-.85.238-1.26.17-.612.443-1.123.75-1.531a4 4 0 0 1 1.089-1.056 5.193 5.193 0 0 1 1.327-.613c2.432-.686 2.409-1.971 2.388-3.124-.002-.106-.004-.211-.004-.314v-.681h-.068zM6.844 23.084c.817-8.341 5.482-13.925 12.393-14.538l1.532-.136v25.467c0 6.911-1.872 11.167-11.371 11.167-2.69 0-4.903-.613-6.503-1.77l-.443-.307-.034-.034-.102-.102-.34-.34-.068-.069c-.051-.05-.094-.11-.137-.17a1.328 1.328 0 0 0-.136-.17c-.034-.034 0-.034 0-.034C.544 40.686 0 38.848 0 36.702V21.144h1.328c1.566 0 3.745.647 5.515 1.94zm-4.085 1.235c1.69.447 3.375 1.5 4.051 3.089v9.67c0 1.19-.238 2.28-.578 2.995-.017.034-.035.06-.052.085a.748.748 0 0 0-.05.085.258.258 0 0 0-.069.137.177.177 0 0 0-.034.05c-.008.018-.017.035-.034.052-.017.017-.025.034-.034.05-.008.018-.017.035-.034.052l-.068.068-.068.068c-.017 0-.026.009-.034.017-.009.009-.017.017-.034.017s-.026.009-.034.017c-.009.009-.017.017-.034.017s-.026.009-.034.017c-.009.009-.017.017-.034.017-.137.068-.273.068-.375.068h-.102a.888.888 0 0 1-.375-.102c-.272-.102-1.26-.92-1.634-2.043a7.717 7.717 0 0 1-.34-2.145V24.318zM9.465 42.15c7.354 0 8.58-2.451 8.58-8.273V11.678c-5.448 1.294-8.512 6.537-8.512 14.13v11.269c0 1.124-.102 2.792-.749 4.188a2.08 2.08 0 0 0-.085.204c-.026.068-.051.136-.085.204 0 .017-.009.026-.017.034-.009.009-.017.017-.017.035-.068.136-.136.272-.205.374.34.034.715.034 1.09.034z"/>
</symbol><symbol id="icon-instagram" viewBox="0 0 20 20">
    <path d="M5.8 0h8.4C17.4 0 20 2.6 20 5.8v8.4a5.8 5.8 0 0 1-5.8 5.8H5.8C2.6 20 0 17.4 0 14.2V5.8A5.8 5.8 0 0 1 5.8 0zm-.2 2A3.6 3.6 0 0 0 2 5.6v8.8C2 16.39 3.61 18 5.6 18h8.8a3.6 3.6 0 0 0 3.6-3.6V5.6C18 3.61 16.39 2 14.4 2H5.6zm9.65 1.5a1.25 1.25 0 1 1 0 2.5 1.25 1.25 0 0 1 0-2.5zM10 5a5 5 0 1 1 0 10 5 5 0 0 1 0-10zm0 2a3 3 0 1 0 0 6 3 3 0 0 0 0-6z" fill-opacity=".7"/>
</symbol></svg>