<?xml version="1.0" encoding="UTF-8"?><!DOCTYPE svg PUBLIC "-//W3C//DTD SVG 1.1//EN" "http://www.w3.org/Graphics/SVG/1.1/DTD/svg11.dtd"><svg xmlns="http://www.w3.org/2000/svg"><symbol id="icon-Dribbble" viewBox="0 0 20 20">
    <path d="M14.42 16.42A57.5 57.5 0 0 0 13 11.17c.5-.07 1-.11 1.58-.11h.02c.93 0 1.95.12 3.06.37a7.788 7.788 0 0 1-3.24 4.99zM10 17.8c-1.74 0-3.34-.57-4.64-1.54.28-.45.87-1.32 1.82-2.22.96-.93 2.32-1.89 4.05-2.46.59 1.67 1.13 3.57 1.54 5.71-.86.33-1.77.51-2.77.51zM2.2 10v-.11c.22.01.51.01.85.01h.01c1.56-.01 4.3-.14 7.08-1.01.15.33.3.67.45 1.03-1.86.62-3.32 1.61-4.4 2.58-1.03.96-1.74 1.89-2.15 2.5a7.704 7.704 0 0 1-1.84-5zm4.35-7c.55.65 1.63 2.06 2.79 4.25-2.34.71-4.73.87-6.16.87h-.13c-.24 0-.45 0-.62-.01C3 5.87 4.5 4 6.55 3zM10 2.2c1.84 0 3.53.64 4.86 1.71C13.84 5.14 12.5 6 11.03 6.65 10 4.67 9 3.25 8.34 2.38c.54-.11 1.09-.18 1.66-.18zm6.13 2.98a7.823 7.823 0 0 1 1.66 4.45 15.32 15.32 0 0 0-3.19-.35h-.01c-.8 0-1.55.07-2.26.19-.17-.42-.33-.82-.52-1.21 1.58-.69 3.09-1.68 4.32-3.08zM10 0C4.477 0 0 4.477 0 10A10 10 0 1 0 10 0z" fill-opacity=".7"/>
</symbol><symbol id="icon-behance" viewBox="0 0 25 17">
    <path d="M19.366 4.112c-5.887 0-5.895 6.172-5.895 6.204 0 0-.403 6.18 5.895 6.18 0 0 5.252.314 5.252-4.301h-2.697s.09 1.737-2.466 1.737c0 0-2.697.189-2.697-2.807h7.95s.874-7.013-5.342-7.013zm-2.638 4.85s.329-2.484 2.698-2.484c2.376 0 2.338 2.485 2.338 2.485h-5.036zM9.99 7.376s2.338-.18 2.338-3.074C12.328 1.415 10.416 0 7.988 0H0v16.157h7.987s4.879.158 4.879-4.772c0 0 .21-4.01-2.876-4.01zM3.52 2.87h4.467s1.083 0 1.083 1.682-.635 1.926-1.36 1.926H3.52V2.87zm4.243 10.418H3.52V8.963h4.468s1.622-.016 1.614 2.225c0 1.887-1.203 2.084-1.838 2.1zM16.063.95v1.99H22.4V.95h-6.336z" fill-opacity=".7"/>
</symbol><symbol id="icon-facebook" viewBox="0 0 10 19">
    <title>
        facebook
    </title>
    <path d="M9.766.157v2.946H8.014c-.64 0-1.071.134-1.295.402-.223.268-.335.67-.335 1.205v2.11h3.27l-.435 3.303H6.384v8.471H2.97v-8.47H.123V6.82H2.97V4.387c0-1.384.387-2.457 1.161-3.22C4.904.404 5.934.023 7.222.023c1.093 0 1.941.045 2.544.134z" fill-rule="evenodd"/>
</symbol><symbol id="icon-instagram" viewBox="0 0 20 20">
    <path d="M5.8 0h8.4C17.4 0 20 2.6 20 5.8v8.4a5.8 5.8 0 0 1-5.8 5.8H5.8C2.6 20 0 17.4 0 14.2V5.8A5.8 5.8 0 0 1 5.8 0zm-.2 2A3.6 3.6 0 0 0 2 5.6v8.8C2 16.39 3.61 18 5.6 18h8.8a3.6 3.6 0 0 0 3.6-3.6V5.6C18 3.61 16.39 2 14.4 2H5.6zm9.65 1.5a1.25 1.25 0 1 1 0 2.5 1.25 1.25 0 0 1 0-2.5zM10 5a5 5 0 1 1 0 10 5 5 0 0 1 0-10zm0 2a3 3 0 1 0 0 6 3 3 0 0 0 0-6z" fill-opacity=".7"/>
</symbol></svg>